<?xml version="1.0" encoding="utf-8"?>
<!-- Generator: Adobe Illustrator 26.3.1, SVG Export Plug-In . SVG Version: 6.00 Build 0)  -->
<svg version="1.1" id="Layer_1" xmlns="http://www.w3.org/2000/svg" xmlns:xlink="http://www.w3.org/1999/xlink" x="0px" y="0px"
	 viewBox="0 0 653 600" style="enable-background:new 0 0 653 600;" xml:space="preserve">
<style type="text/css">
	.st0{fill-rule:evenodd;clip-rule:evenodd;fill:url(#SVGID_1_);}
	.st1{fill-rule:evenodd;clip-rule:evenodd;fill:url(#SVGID_00000065778350132347677970000000540782546972308667_);}
	.st2{fill:none;stroke:#484848;stroke-width:2;stroke-linecap:round;stroke-linejoin:round;}
	.st3{fill-rule:evenodd;clip-rule:evenodd;fill:url(#SVGID_00000057851765827626524950000016540686731638791310_);}
	.st4{fill-rule:evenodd;clip-rule:evenodd;fill:url(#SVGID_00000015316200869844914240000009949334253176028553_);}
	.st5{fill-rule:evenodd;clip-rule:evenodd;fill:url(#SVGID_00000163044558900135999550000006314419172515804810_);}
	.st6{fill-rule:evenodd;clip-rule:evenodd;fill:url(#SVGID_00000016755962904630491250000017317586536223046051_);}
	.st7{fill-rule:evenodd;clip-rule:evenodd;fill:url(#SVGID_00000052090955719980700640000007644458749709067409_);}
	.st8{fill-rule:evenodd;clip-rule:evenodd;fill:url(#SVGID_00000105405493129735571150000005655015703601477531_);}
	.st9{fill-rule:evenodd;clip-rule:evenodd;fill:url(#SVGID_00000050636681919324813500000003549212609235318179_);}
	.st10{fill-rule:evenodd;clip-rule:evenodd;fill:url(#SVGID_00000051359070156738989930000010906589358073708726_);}
	.st11{fill-rule:evenodd;clip-rule:evenodd;fill:url(#SVGID_00000170256811067834491710000008160427420277809555_);}
	.st12{fill-rule:evenodd;clip-rule:evenodd;fill:url(#SVGID_00000144331058143295074110000008584093813713463174_);}
	.st13{fill-rule:evenodd;clip-rule:evenodd;fill:url(#SVGID_00000156578914440712755650000011235290511306835104_);}
	.st14{fill-rule:evenodd;clip-rule:evenodd;fill:url(#SVGID_00000178922587605859431150000004722821405733339047_);}
	.st15{fill-rule:evenodd;clip-rule:evenodd;fill:url(#SVGID_00000182519465347212268880000001159310805232466102_);}
	.st16{fill-rule:evenodd;clip-rule:evenodd;fill:url(#SVGID_00000178177762339240258380000010432282881616317118_);}
	.st17{fill-rule:evenodd;clip-rule:evenodd;fill:url(#SVGID_00000077291675569328953600000006955448624007566737_);}
	.st18{fill-rule:evenodd;clip-rule:evenodd;fill:url(#SVGID_00000113352036236050871040000012300264496519408301_);}
	.st19{fill-rule:evenodd;clip-rule:evenodd;fill:url(#SVGID_00000171717919324684554870000011051305719601368750_);}
	.st20{fill-rule:evenodd;clip-rule:evenodd;fill:url(#SVGID_00000041277691122991838690000017523615275622110631_);}
	.st21{fill-rule:evenodd;clip-rule:evenodd;fill:url(#SVGID_00000120540115434859559020000009292540613514456717_);}
	.st22{fill-rule:evenodd;clip-rule:evenodd;fill:url(#SVGID_00000116951545913314598630000014535058958736590005_);}
	.st23{enable-background:new    ;}
	.st24{fill:#92BD39;}
	.st25{fill:#3CC583;}
	.st26{fill:#E0CB15;}
	.st27{fill:#1EABDA;}
	.st28{fill:#DE8431;}
	.st29{display:none;}
	.st30{display:inline;}
	.st31{fill:#E55753;}
</style>
<g id="g-root-cp_1_text-1_1lrs8h51ccvymh-fill" transform="translate(330, 116)">
	<g id="cp_1_text-1_1lrs8h51ccvymh-fill-merged">
		<g>
			
				<linearGradient id="SVGID_1_" gradientUnits="userSpaceOnUse" x1="-1218.3323" y1="-42.7055" x2="-1218.3323" y2="-41.7055" gradientTransform="matrix(112 0 0 42 136469.5156 1742.582)">
				<stop  offset="0" style="stop-color:#7FDFFF"/>
				<stop  offset="1" style="stop-color:#1AC6FF"/>
			</linearGradient>
			<path class="st0" d="M44.3-39l28-12v30l-28,12h-56l-28-12v-30l28,12H44.3"/>
		</g>
	</g>
	<g id="cp_1_text-1_1lrs8h51ccvymh-fill-merged_00000083061181872912618270000004089913603493213868_">
		<g>
			
				<linearGradient id="SVGID_00000051371242543456446760000007432924961861581202_" gradientUnits="userSpaceOnUse" x1="-1218.3322" y1="-42.4534" x2="-1218.3322" y2="-41.4534" gradientTransform="matrix(112.0004 0 0 40 136469.9844 1587.0898)">
				<stop  offset="0" style="stop-color:#7FDFFF"/>
				<stop  offset="1" style="stop-color:#1AC6FF"/>
			</linearGradient>
			<path style="fill-rule:evenodd;clip-rule:evenodd;fill:url(#SVGID_00000051371242543456446760000007432924961861581202_);" d="
				M-11.7-71h56l28-12c0,0,0.5-28-56-28s-56,28-56,28L-11.7-71"/>
		</g>
	</g>
</g>
<g id="g-root-cp_1_text-1_1lrs8h51ccvymh-stroke" transform="translate(330, 116)">
	<g id="cp_1_text-1_1lrs8h51ccvymh-stroke">
		<g>
			<path class="st2" d="M-39.7-21l28,12v-12 M72.3-21l-28,12v-12 M-11.7-39l-28-12v12 M-11.7-39v18 M44.3-39v18 M-39.7-21v-18
				 M72.3-21v-18 M-11.7-39h56 M44.3-9h-56 M44.3-39l28-12v12"/>
		</g>
	</g>
	<g id="cp_1_text-1_1lrs8h51ccvymh-stroke_00000152227902750614610800000010474913070956943528_">
		<g>
			<path class="st2" d="M-11.7-71h56l28-12c0,0,0.5-28-56-28s-56,28-56,28L-11.7-71z"/>
		</g>
	</g>
</g>
<g id="g-root-cp_0_g-0_1414p2h1ccvxtu-fill" transform="translate(330, 144)">
	<g id="cp_0_g-0_1414p2h1ccvxtu-fill-merged">
		<g>
			
				<linearGradient id="SVGID_00000047765704901816782300000014410454262089297296_" gradientUnits="userSpaceOnUse" x1="-1218.3323" y1="-40.1853" x2="-1218.3323" y2="-39.1853" gradientTransform="matrix(112 0 0 28 136469.5156 1014.1367)">
				<stop  offset="0" style="stop-color:#D9D9D9"/>
				<stop  offset="1" style="stop-color:#BCBCBC"/>
			</linearGradient>
			<path style="fill-rule:evenodd;clip-rule:evenodd;fill:url(#SVGID_00000047765704901816782300000014410454262089297296_);" d="
				M-39.7-95l28,12h56l28-12v-16l-28,12h-56l-28-12L-39.7-95"/>
		</g>
	</g>
	<g id="cp_0_g-0_1414p2h1ccvxtu-fill-merged_00000165205674358262222680000016947080199031266955_">
		<g>
			
				<linearGradient id="SVGID_00000011720096259571487500000003161898616837997463_" gradientUnits="userSpaceOnUse" x1="-1218.3324" y1="-37.1608" x2="-1218.3324" y2="-36.1608" gradientTransform="matrix(112 0 0 20 136469.5312 648.168)">
				<stop  offset="0" style="stop-color:#D9D9D9"/>
				<stop  offset="1" style="stop-color:#BCBCBC"/>
			</linearGradient>
			<path style="fill-rule:evenodd;clip-rule:evenodd;fill:url(#SVGID_00000011720096259571487500000003161898616837997463_);" d="
				M-39.7-95l28,12h56l28-12v8l-28,12h-56l-28-12L-39.7-95"/>
		</g>
	</g>
	<g id="cp_0_g-0_1414p2h1ccvxtu-fill-merged_00000019648873881993717830000010798755966920194991_">
		<g>
			
				<linearGradient id="SVGID_00000044857793268995088290000012151931769883155338_" gradientUnits="userSpaceOnUse" x1="-1218.3324" y1="-37.1608" x2="-1218.3324" y2="-36.1608" gradientTransform="matrix(112 0 0 20 136469.5312 656.168)">
				<stop  offset="0" style="stop-color:#D9D9D9"/>
				<stop  offset="1" style="stop-color:#BCBCBC"/>
			</linearGradient>
			<path style="fill-rule:evenodd;clip-rule:evenodd;fill:url(#SVGID_00000044857793268995088290000012151931769883155338_);" d="
				M-39.7-87l28,12h56l28-12v8l-28,12h-56l-28-12L-39.7-87"/>
		</g>
	</g>
</g>
<g id="g-root-cp_0_g-0_1414p2h1ccvxtu-stroke" transform="translate(330, 144)">
	<g id="cp_0_g-0_1414p2h1ccvxtu-stroke">
		<g>
			<path class="st2" d="M-39.7-95l28,12h56l28-12v-16l-28,12h-56l-28-12C-39.7-111-39.7-95-39.7-95z"/>
		</g>
	</g>
	<g id="cp_0_g-0_1414p2h1ccvxtu-stroke_00000026858189472519748740000009738103026025835161_">
		<g>
			<path class="st2" d="M-39.7-95l28,12h56l28-12v8l-28,12h-56l-28-12C-39.7-87-39.7-95-39.7-95z"/>
		</g>
	</g>
	<g id="cp_0_g-0_1414p2h1ccvxtu-stroke_00000066491224787186320460000015296075676158987400_">
		<g>
			<path class="st2" d="M-39.7-87l28,12h56l28-12v8l-28,12h-56l-28-12C-39.7-79-39.7-87-39.7-87z"/>
		</g>
	</g>
</g>
<g id="g-root-cp_2_text-2_qqans91ccvw8z-fill" transform="translate(330, 242)">
	<g id="cp_2_text-2_qqans91ccvw8z-fill-merged">
		<g>
			
				<linearGradient id="SVGID_00000036973319005021377190000005262722973065825976_" gradientUnits="userSpaceOnUse" x1="-1218.3323" y1="-44.2169" x2="-1218.3323" y2="-43.2169" gradientTransform="matrix(112 0 0 60 136469.5156 2542.0117)">
				<stop  offset="0" style="stop-color:#83FAC1"/>
				<stop  offset="1" style="stop-color:#44E095"/>
			</linearGradient>
			<path style="fill-rule:evenodd;clip-rule:evenodd;fill:url(#SVGID_00000036973319005021377190000005262722973065825976_);" d="
				M44.3-99l28-12v48l-28,12h-56l-28-12v-48l28,12H44.3"/>
		</g>
	</g>
</g>
<g id="g-root-cp_2_text-2_qqans91ccvw8z-stroke" transform="translate(330, 242)">
	<g id="cp_2_text-2_qqans91ccvw8z-stroke">
		<g>
			<path class="st2" d="M72.3-63v-36 M44.3-99l28-12v12 M44.3-99v36 M72.3-63l-28,12v-12 M-39.7-63l28,12v-12 M-11.7-99l-28-12v12
				 M-11.7-99v36 M44.3-51h-56 M-11.7-99h56 M-39.7-63v-36"/>
		</g>
	</g>
</g>
<g id="g-root-cp_0_g-0_1_hunnjd1ccvx1o-fill" transform="translate(330, 230)">
	<g id="cp_0_g-0_1_hunnjd1ccvx1o-fill-merged">
		<g>
			
				<linearGradient id="SVGID_00000021117854244579936520000010278344665690353343_" gradientUnits="userSpaceOnUse" x1="-1218.3323" y1="-38.9251" x2="-1218.3323" y2="-37.9251" gradientTransform="matrix(112 0 0 24 136469.5156 823.1523)">
				<stop  offset="0" style="stop-color:#D9D9D9"/>
				<stop  offset="1" style="stop-color:#BCBCBC"/>
			</linearGradient>
			<path style="fill-rule:evenodd;clip-rule:evenodd;fill:url(#SVGID_00000021117854244579936520000010278344665690353343_);" d="
				M44.3-111h-56l-28,12l28,12h56l28-12L44.3-111 M16.3-94.2c-11,0-20-2.1-20-4.8s9-4.8,20-4.8s20,2.1,20,4.8
				C36.3-96.3,27.4-94.2,16.3-94.2"/>
		</g>
	</g>
	<g id="cp_0_g-0_1_hunnjd1ccvx1o-fill-merged_00000173863806686529922410000009982743536884497076_">
		<g>
			
				<linearGradient id="SVGID_00000079469330717036959390000009064907656798937241_" gradientUnits="userSpaceOnUse" x1="-1220.7788" y1="-25.6935" x2="-1220.7788" y2="-24.6935" gradientTransform="matrix(40 0 0 9.6 48847.4531 142.6084)">
				<stop  offset="0" style="stop-color:#D9D9D9"/>
				<stop  offset="1" style="stop-color:#BCBCBC"/>
			</linearGradient>
			<path style="fill-rule:evenodd;clip-rule:evenodd;fill:url(#SVGID_00000079469330717036959390000009064907656798937241_);" d="
				M36.3-99.2c0,2.7-9,4.8-20,4.8s-20-2.1-20-4.8c0-2.7,9-4.8,20-4.8S36.3-101.9,36.3-99.2"/>
		</g>
	</g>
</g>
<g id="g-root-cp_0_g-0_1_hunnjd1ccvx1o-stroke" transform="translate(330, 230)">
	<g id="cp_0_g-0_1_hunnjd1ccvx1o-stroke">
		<g>
			<path class="st2" d="M44.3-111h-56l-28,12l28,12h56l28-12L44.3-111z M16.3-94.2c-11,0-20-2.1-20-4.8s9-4.8,20-4.8s20,2.1,20,4.8
				C36.3-96.3,27.4-94.2,16.3-94.2z"/>
		</g>
	</g>
	<g id="cp_0_g-0_1_hunnjd1ccvx1o-stroke_00000109733862601306789650000000254327948578314660_">
		<g>
			<path class="st2" d="M36.3-99.2c0,2.7-9,4.8-20,4.8s-20-2.1-20-4.8c0-2.7,9-4.8,20-4.8S36.3-101.9,36.3-99.2z"/>
		</g>
	</g>
</g>
<g id="g-root-cp_3_text-3_deu5ex1ccvxtx-fill" transform="translate(330, 326)">
	<g id="cp_3_text-3_deu5ex1ccvxtx-fill-merged">
		<g>
			
				<linearGradient id="SVGID_00000183243959292080058170000011332417684880930693_" gradientUnits="userSpaceOnUse" x1="-1218.3323" y1="-42.7055" x2="-1218.3323" y2="-41.7055" gradientTransform="matrix(112 0 0 42 136469.5156 1682.582)">
				<stop  offset="0" style="stop-color:#CFF976"/>
				<stop  offset="1" style="stop-color:#A8DD38"/>
			</linearGradient>
			<path style="fill-rule:evenodd;clip-rule:evenodd;fill:url(#SVGID_00000183243959292080058170000011332417684880930693_);" d="
				M44.3-99l28-12v30l-28,12h-56l-28-12v-30l28,12H44.3"/>
		</g>
	</g>
</g>
<g id="g-root-cp_3_text-3_deu5ex1ccvxtx-stroke" transform="translate(330, 326)">
	<g id="cp_3_text-3_deu5ex1ccvxtx-stroke">
		<g>
			<path class="st2" d="M72.3-81v-18 M44.3-99l28-12v12 M44.3-99v18 M72.3-81l-28,12v-12 M-39.7-81l28,12v-12 M-11.7-99l-28-12v12
				 M-11.7-99v18 M44.3-69h-56 M-11.7-99h56 M-39.7-81v-18"/>
		</g>
	</g>
</g>
<g id="g-root-cp_0_g-0_2_4j75611ccvymm-fill" transform="translate(330, 314)">
	<g id="cp_0_g-0_2_4j75611ccvymm-fill-merged">
		<g>
			
				<linearGradient id="SVGID_00000083807886064960978010000012554273639181075096_" gradientUnits="userSpaceOnUse" x1="-1218.3323" y1="-38.9251" x2="-1218.3323" y2="-37.9251" gradientTransform="matrix(112 0 0 24 136469.5156 823.1523)">
				<stop  offset="0" style="stop-color:#D9D9D9"/>
				<stop  offset="1" style="stop-color:#BCBCBC"/>
			</linearGradient>
			<path style="fill-rule:evenodd;clip-rule:evenodd;fill:url(#SVGID_00000083807886064960978010000012554273639181075096_);" d="
				M44.3-111h-56l-28,12l28,12h56l28-12L44.3-111 M16.3-94.2c-11,0-20-2.1-20-4.8s9-4.8,20-4.8s20,2.1,20,4.8
				C36.3-96.3,27.4-94.2,16.3-94.2"/>
		</g>
	</g>
	<g id="cp_0_g-0_2_4j75611ccvymm-fill-merged_00000088123941338957256360000013958055127306855574_">
		<g>
			
				<linearGradient id="SVGID_00000086668922394936390030000002607947322916925349_" gradientUnits="userSpaceOnUse" x1="-1220.7788" y1="-25.6935" x2="-1220.7788" y2="-24.6935" gradientTransform="matrix(40 0 0 9.6 48847.4531 142.6086)">
				<stop  offset="0" style="stop-color:#D9D9D9"/>
				<stop  offset="1" style="stop-color:#BCBCBC"/>
			</linearGradient>
			<path style="fill-rule:evenodd;clip-rule:evenodd;fill:url(#SVGID_00000086668922394936390030000002607947322916925349_);" d="
				M36.3-99.2c0,2.7-9,4.8-20,4.8s-20-2.1-20-4.8c0-2.7,9-4.8,20-4.8S36.3-101.9,36.3-99.2"/>
		</g>
	</g>
</g>
<g id="g-root-cp_0_g-0_2_4j75611ccvymm-stroke" transform="translate(330, 314)">
	<g id="cp_0_g-0_2_4j75611ccvymm-stroke">
		<g>
			<path class="st2" d="M44.3-111h-56l-28,12l28,12h56l28-12L44.3-111z M16.3-94.2c-11,0-20-2.1-20-4.8s9-4.8,20-4.8s20,2.1,20,4.8
				C36.3-96.3,27.4-94.2,16.3-94.2z"/>
		</g>
	</g>
	<g id="cp_0_g-0_2_4j75611ccvymm-stroke_00000155846265245254897420000017154469680876615577_">
		<g>
			<path class="st2" d="M36.3-99.2c0,2.7-9,4.8-20,4.8s-20-2.1-20-4.8c0-2.7,9-4.8,20-4.8S36.3-101.9,36.3-99.2z"/>
		</g>
	</g>
</g>
<g id="g-root-cp_4_text-4_4044p1ccvw93-fill" transform="translate(330, 392)">
	<g id="cp_4_text-4_4044p1ccvw93-fill-merged">
		<g>
			
				<linearGradient id="SVGID_00000150784573079551615520000013031979110749595784_" gradientUnits="userSpaceOnUse" x1="-1218.3323" y1="-44.2169" x2="-1218.3323" y2="-43.2169" gradientTransform="matrix(112 0 0 60 136469.5156 2542.0117)">
				<stop  offset="0" style="stop-color:#FFEF63"/>
				<stop  offset="1" style="stop-color:#FFE60A"/>
			</linearGradient>
			<path style="fill-rule:evenodd;clip-rule:evenodd;fill:url(#SVGID_00000150784573079551615520000013031979110749595784_);" d="
				M44.3-99l28-12v48l-28,12h-56l-28-12v-48l28,12H44.3"/>
		</g>
	</g>
</g>
<g id="g-root-cp_4_text-4_4044p1ccvw93-stroke" transform="translate(330, 392)">
	<g id="cp_4_text-4_4044p1ccvw93-stroke">
		<g>
			<path class="st2" d="M72.3-63v-36 M44.3-99l28-12v12 M44.3-99v36 M72.3-63l-28,12v-12 M-39.7-63l28,12v-12 M-11.7-99l-28-12v12
				 M-11.7-99v36 M44.3-51h-56 M-11.7-99h56 M-39.7-63v-36"/>
		</g>
	</g>
</g>
<g id="g-root-cp_0_g-0_3_1ltnnqh1ccvxmw-fill" transform="translate(330, 380)">
	<g id="cp_0_g-0_3_1ltnnqh1ccvxmw-fill-merged">
		<g>
			
				<linearGradient id="SVGID_00000075858574079660298960000005055964788870902928_" gradientUnits="userSpaceOnUse" x1="-1218.3323" y1="-38.9251" x2="-1218.3323" y2="-37.9251" gradientTransform="matrix(112 0 0 24 136469.5156 823.1523)">
				<stop  offset="0" style="stop-color:#D9D9D9"/>
				<stop  offset="1" style="stop-color:#BCBCBC"/>
			</linearGradient>
			<path style="fill-rule:evenodd;clip-rule:evenodd;fill:url(#SVGID_00000075858574079660298960000005055964788870902928_);" d="
				M44.3-111h-56l-28,12l28,12h56l28-12L44.3-111 M16.3-94.2c-11,0-20-2.1-20-4.8s9-4.8,20-4.8s20,2.1,20,4.8
				C36.3-96.3,27.4-94.2,16.3-94.2"/>
		</g>
	</g>
	<g id="cp_0_g-0_3_1ltnnqh1ccvxmw-fill-merged_00000058579493408008798290000011580059131623284926_">
		<g>
			
				<linearGradient id="SVGID_00000011025391876291692310000004659098779021797035_" gradientUnits="userSpaceOnUse" x1="-1220.7788" y1="-25.6935" x2="-1220.7788" y2="-24.6935" gradientTransform="matrix(40 0 0 9.6 48847.4531 142.6087)">
				<stop  offset="0" style="stop-color:#D9D9D9"/>
				<stop  offset="1" style="stop-color:#BCBCBC"/>
			</linearGradient>
			<path style="fill-rule:evenodd;clip-rule:evenodd;fill:url(#SVGID_00000011025391876291692310000004659098779021797035_);" d="
				M36.3-99.2c0,2.7-9,4.8-20,4.8s-20-2.1-20-4.8c0-2.7,9-4.8,20-4.8S36.3-101.9,36.3-99.2"/>
		</g>
	</g>
</g>
<g id="g-root-cp_0_g-0_3_1ltnnqh1ccvxmw-stroke" transform="translate(330, 380)">
	<g id="cp_0_g-0_3_1ltnnqh1ccvxmw-stroke">
		<g>
			<path class="st2" d="M44.3-111h-56l-28,12l28,12h56l28-12L44.3-111z M16.3-94.2c-11,0-20-2.1-20-4.8s9-4.8,20-4.8s20,2.1,20,4.8
				C36.3-96.3,27.4-94.2,16.3-94.2z"/>
		</g>
	</g>
	<g id="cp_0_g-0_3_1ltnnqh1ccvxmw-stroke_00000160906529693334891920000003842677094685905577_">
		<g>
			<path class="st2" d="M36.3-99.2c0,2.7-9,4.8-20,4.8s-20-2.1-20-4.8c0-2.7,9-4.8,20-4.8S36.3-101.9,36.3-99.2z"/>
		</g>
	</g>
</g>
<g id="g-root-cp_5_text-5_1hdu5m11ccvyf5-fill" transform="translate(330, 476)">
	<g id="cp_5_text-5_1hdu5m11ccvyf5-fill-merged">
		<g>
			
				<linearGradient id="SVGID_00000163794887741110496470000014891258796912136373_" gradientUnits="userSpaceOnUse" x1="-1218.3323" y1="-45.2252" x2="-1218.3323" y2="-44.2252" gradientTransform="matrix(112 0 0 84 136469.5156 3687.918)">
				<stop  offset="0" style="stop-color:#FFBF84"/>
				<stop  offset="1" style="stop-color:#F99539"/>
			</linearGradient>
			<path style="fill-rule:evenodd;clip-rule:evenodd;fill:url(#SVGID_00000163794887741110496470000014891258796912136373_);" d="
				M44.3-99l28-12v72l-28,12h-56l-28-12v-72l28,12H44.3"/>
		</g>
	</g>
</g>
<g id="g-root-cp_5_text-5_1hdu5m11ccvyf5-stroke" transform="translate(330, 476)">
	<g id="cp_5_text-5_1hdu5m11ccvyf5-stroke">
		<g>
			<path class="st2" d="M72.3-39v-60 M44.3-99l28-12v12 M44.3-99v60 M72.3-39l-28,12v-12 M-39.7-39l28,12v-12 M-11.7-99l-28-12v12
				 M-11.7-99v60 M44.3-27h-56 M-11.7-99h56 M-39.7-39v-60"/>
		</g>
	</g>
</g>
<g id="g-root-cp_0_g-0_4_18itmg91ccvw22-fill" transform="translate(330, 464)">
	<g id="cp_0_g-0_4_18itmg91ccvw22-fill-merged">
		<g>
			
				<linearGradient id="SVGID_00000074423240413565297230000001887888318944981125_" gradientUnits="userSpaceOnUse" x1="-1218.3323" y1="-38.9251" x2="-1218.3323" y2="-37.9251" gradientTransform="matrix(112 0 0 24 136469.5156 823.1523)">
				<stop  offset="0" style="stop-color:#D9D9D9"/>
				<stop  offset="1" style="stop-color:#BCBCBC"/>
			</linearGradient>
			<path style="fill-rule:evenodd;clip-rule:evenodd;fill:url(#SVGID_00000074423240413565297230000001887888318944981125_);" d="
				M44.3-111h-56l-28,12l28,12h56l28-12L44.3-111 M16.3-94.2c-11,0-20-2.1-20-4.8s9-4.8,20-4.8s20,2.1,20,4.8
				C36.3-96.3,27.4-94.2,16.3-94.2"/>
		</g>
	</g>
	<g id="cp_0_g-0_4_18itmg91ccvw22-fill-merged_00000158748938125595262610000014306237113021917860_">
		<g>
			
				<linearGradient id="SVGID_00000063599260837101596380000000178446877187445908_" gradientUnits="userSpaceOnUse" x1="-1220.7788" y1="-25.6935" x2="-1220.7788" y2="-24.6935" gradientTransform="matrix(40 0 0 9.6 48847.4531 142.6086)">
				<stop  offset="0" style="stop-color:#D9D9D9"/>
				<stop  offset="1" style="stop-color:#BCBCBC"/>
			</linearGradient>
			<path style="fill-rule:evenodd;clip-rule:evenodd;fill:url(#SVGID_00000063599260837101596380000000178446877187445908_);" d="
				M36.3-99.2c0,2.7-9,4.8-20,4.8s-20-2.1-20-4.8c0-2.7,9-4.8,20-4.8S36.3-101.9,36.3-99.2"/>
		</g>
	</g>
</g>
<g id="g-root-cp_0_g-0_4_18itmg91ccvw22-stroke" transform="translate(330, 464)">
	<g id="cp_0_g-0_4_18itmg91ccvw22-stroke">
		<g>
			<path class="st2" d="M44.3-111h-56l-28,12l28,12h56l28-12L44.3-111z M16.3-94.2c-11,0-20-2.1-20-4.8s9-4.8,20-4.8s20,2.1,20,4.8
				C36.3-96.3,27.4-94.2,16.3-94.2z"/>
		</g>
	</g>
	<g id="cp_0_g-0_4_18itmg91ccvw22-stroke_00000061447855301711440530000008882635339645367699_">
		<g>
			<path class="st2" d="M36.3-99.2c0,2.7-9,4.8-20,4.8s-20-2.1-20-4.8c0-2.7,9-4.8,20-4.8S36.3-101.9,36.3-99.2z"/>
		</g>
	</g>
</g>
<g id="g-root-cp_6_text-6_v7d42x1ccvxmz-fill" transform="translate(330, 584)">
	<g id="cp_6_text-6_v7d42x1ccvxmz-fill-merged">
		<g>
			
				<linearGradient id="SVGID_00000176751911383965889480000015519747537915379608_" gradientUnits="userSpaceOnUse" x1="-1218.3323" y1="-44.2169" x2="-1218.3323" y2="-43.2169" gradientTransform="matrix(112 0 0 60 136469.5156 2542.0117)">
				<stop  offset="0" style="stop-color:#FFA6A3"/>
				<stop  offset="1" style="stop-color:#FD6A65"/>
			</linearGradient>
			<path style="fill-rule:evenodd;clip-rule:evenodd;fill:url(#SVGID_00000176751911383965889480000015519747537915379608_);" d="
				M44.3-99l28-12v48l-28,12h-56l-28-12v-48l28,12H44.3"/>
		</g>
	</g>
</g>
<g id="g-root-cp_6_text-6_v7d42x1ccvxmz-stroke" transform="translate(330, 584)">
	<g id="cp_6_text-6_v7d42x1ccvxmz-stroke">
		<g>
			<path class="st2" d="M72.3-63v-36 M44.3-99l28-12v12 M44.3-99v36 M72.3-63l-28,12v-12 M-39.7-63l28,12v-12 M-11.7-99l-28-12v12
				 M-11.7-99v36 M44.3-51h-56 M-11.7-99h56 M-39.7-63v-36"/>
		</g>
	</g>
</g>
<g id="g-root-cp_0_g-0_5_qrjlyh1ccvyf8-fill" transform="translate(330, 572)">
	<g id="cp_0_g-0_5_qrjlyh1ccvyf8-fill-merged">
		<g>
			
				<linearGradient id="SVGID_00000029749227787517852470000006001462221670265764_" gradientUnits="userSpaceOnUse" x1="-1218.3323" y1="-38.9251" x2="-1218.3323" y2="-37.9251" gradientTransform="matrix(112 0 0 24 136469.5156 823.1523)">
				<stop  offset="0" style="stop-color:#D9D9D9"/>
				<stop  offset="1" style="stop-color:#BCBCBC"/>
			</linearGradient>
			<path style="fill-rule:evenodd;clip-rule:evenodd;fill:url(#SVGID_00000029749227787517852470000006001462221670265764_);" d="
				M44.3-111h-56l-28,12l28,12h56l28-12L44.3-111 M16.3-94.2c-11,0-20-2.1-20-4.8s9-4.8,20-4.8s20,2.1,20,4.8
				C36.3-96.3,27.4-94.2,16.3-94.2"/>
		</g>
	</g>
	<g id="cp_0_g-0_5_qrjlyh1ccvyf8-fill-merged_00000128477026625926780940000005627914396820480168_">
		<g>
			
				<linearGradient id="SVGID_00000083073618439596807750000016817844623454497464_" gradientUnits="userSpaceOnUse" x1="-1220.7788" y1="-25.6935" x2="-1220.7788" y2="-24.6935" gradientTransform="matrix(40 0 0 9.6 48847.4531 142.6086)">
				<stop  offset="0" style="stop-color:#D9D9D9"/>
				<stop  offset="1" style="stop-color:#BCBCBC"/>
			</linearGradient>
			<path style="fill-rule:evenodd;clip-rule:evenodd;fill:url(#SVGID_00000083073618439596807750000016817844623454497464_);" d="
				M36.3-99.2c0,2.7-9,4.8-20,4.8s-20-2.1-20-4.8c0-2.7,9-4.8,20-4.8S36.3-101.9,36.3-99.2"/>
		</g>
	</g>
</g>
<g id="g-root-cp_0_g-0_5_qrjlyh1ccvyf8-stroke" transform="translate(330, 572)">
	<g id="cp_0_g-0_5_qrjlyh1ccvyf8-stroke">
		<g>
			<path class="st2" d="M44.3-111h-56l-28,12l28,12h56l28-12L44.3-111z M16.3-94.2c-11,0-20-2.1-20-4.8s9-4.8,20-4.8s20,2.1,20,4.8
				C36.3-96.3,27.4-94.2,16.3-94.2z"/>
		</g>
	</g>
	<g id="cp_0_g-0_5_qrjlyh1ccvyf8-stroke_00000140726969196207869590000016166713416919788704_">
		<g>
			<path class="st2" d="M36.3-99.2c0,2.7-9,4.8-20,4.8s-20-2.1-20-4.8c0-2.7,9-4.8,20-4.8S36.3-101.9,36.3-99.2z"/>
		</g>
	</g>
</g>
<g id="g-root-cp_0_g-0_6_qrjlyh1ccvyf9-fill" transform="translate(330, 632)">
	<g id="cp_0_g-0_6_qrjlyh1ccvyf9-fill-merged">
		<g>
			
				<linearGradient id="SVGID_00000181088000093782528770000000464289132308809398_" gradientUnits="userSpaceOnUse" x1="-1218.3323" y1="-44.4364" x2="-1218.3323" y2="-43.4361" gradientTransform="matrix(112 0 0 63.98 136469.5156 2732.0417)">
				<stop  offset="0" style="stop-color:#D9D9D9"/>
				<stop  offset="1" style="stop-color:#BCBCBC"/>
			</linearGradient>
			<path style="fill-rule:evenodd;clip-rule:evenodd;fill:url(#SVGID_00000181088000093782528770000000464289132308809398_);" d="
				M5.1-50.2l5.6,3.2l1.6-4.8l4,4l4-4l1.6,4.8l5.6-3.2L72.3-111l-28,12h-56l-28-12L5.1-50.2"/>
		</g>
	</g>
	<g id="cp_0_g-0_6_qrjlyh1ccvyf9-fill-merged_00000012465784498737992260000009101102869730867605_">
		<g>
			
				<linearGradient id="SVGID_00000080909975495022892600000004830321652297981103_" gradientUnits="userSpaceOnUse" x1="-1223.7578" y1="-35.1596" x2="-1223.7578" y2="-34.1596" gradientTransform="matrix(22.44 0 0 16.82 27477.4258 539.5344)">
				<stop  offset="0" style="stop-color:#D9D9D9"/>
				<stop  offset="1" style="stop-color:#BCBCBC"/>
			</linearGradient>
			<path style="fill-rule:evenodd;clip-rule:evenodd;fill:url(#SVGID_00000080909975495022892600000004830321652297981103_);" d="
				M5.1-50.2l5.6,3.2l1.6-4.8l4,4l4-4l1.6,4.8l5.6-3.2L16.3-35L5.1-50.2"/>
		</g>
	</g>
</g>
<g id="g-root-cp_0_g-0_6_qrjlyh1ccvyf9-stroke" transform="translate(330, 632)">
	<g id="cp_0_g-0_6_qrjlyh1ccvyf9-stroke">
		<g>
			<path class="st2" d="M5.1-50.2l5.6,3.2l1.6-4.8l4,4l4-4l1.6,4.8l5.6-3.2L72.3-111l-28,12h-56l-28-12L5.1-50.2z"/>
		</g>
	</g>
	<g id="cp_0_g-0_6_qrjlyh1ccvyf9-stroke_00000111160864575040208850000011124451499769537470_">
		<g>
			<path class="st2" d="M5.1-50.2l5.6,3.2l1.6-4.8l4,4l4-4l1.6,4.8l5.6-3.2L16.3-35L5.1-50.2z"/>
		</g>
	</g>
</g>
<g id="g-root-ic_lock_1q887op1cd4c96-fill" transform="translate(254, 317)">
</g>
<g id="g-root-ic_lock_1q887op1cd4c96-stroke" transform="translate(254, 317)">
	<g id="ic_lock_1q887op1cd4c96-stroke">
		<g>
			<path class="st2" d="M-18.7-64h-18c-1.1,0-2-0.9-2-2v-42c0-1.1,0.9-2,2-2h26.6c0.5,0,1,0.2,1.4,0.6l7.4,7.4
				c0.4,0.4,0.6,0.9,0.6,1.4v6.6 M-20.7-83c0,1.9-2.2,3.4-5,3.4s-5-1.5-5-3.4s2.2-3.4,5-3.4S-20.7-84.9-20.7-83z M-20.7-83.4v-13.2
				c0-0.7,0.4-1.4,1-1.7c0.6-0.4,1.4-0.4,2,0l4,2.3 M-8.7-80h14c0,0,2,0,2,2v12c0,0,0,2-2,2h-14c0,0-2,0-2-2v-12
				C-10.7-78-10.7-80-8.7-80 M-4.2-71.9c0,1.4,1.1,2.5,2.5,2.5s2.5-1.1,2.5-2.5s-1.1-2.5-2.5-2.5S-4.2-73.3-4.2-71.9 M3.3-83
				c0-2.8-2.2-5-5-5s-5,2.2-5,5v3h10C3.3-80,3.3-83,3.3-83z"/>
		</g>
	</g>
</g>
<g id="g-root-tx_nodownlo_18f2rxl1ccxc7h-stroke" transform="translate(530, 284)">
</g>
<g id="g-root-tx_privacyf_1d1542x1cckq31-fill" transform="translate(92.46966552734375, 332)">
	<g id="tx_privacyf_1d1542x1cckq31-fill-merged">
		<g>
			<g>
				<g class="st23">
					<path class="st24" d="M-31.6-92.6h-3.1v-1.5h3.1c0.6,0,1.1-0.1,1.4-0.4s0.6-0.6,0.8-1s0.2-0.9,0.2-1.4s-0.1-0.9-0.2-1.4
						s-0.4-0.8-0.8-1s-0.8-0.4-1.4-0.4h-2.7V-87h-1.8v-14.2h4.5c0.9,0,1.7,0.2,2.3,0.6c0.6,0.4,1.1,0.9,1.4,1.5s0.5,1.4,0.5,2.2
						c0,0.9-0.2,1.7-0.5,2.3s-0.8,1.1-1.4,1.5S-30.7-92.6-31.6-92.6z"/>
					<path class="st24" d="M-23.6-95.9v8.9h-1.7v-10.6h1.7V-95.9z M-20.9-97.6v1.7c-0.1,0-0.3-0.1-0.4-0.1s-0.2,0-0.4,0
						c-0.3,0-0.6,0.1-0.9,0.2s-0.5,0.3-0.6,0.5s-0.3,0.5-0.4,0.8s-0.2,0.7-0.2,1.1l-0.4,0.3c0-0.6,0.1-1.2,0.2-1.8s0.3-1.1,0.5-1.5
						s0.5-0.8,0.8-1s0.7-0.4,1.2-0.4c0.1,0,0.2,0,0.4,0S-21-97.7-20.9-97.6z"/>
					<path class="st24" d="M-19.2-100.4c0-0.3,0.1-0.5,0.2-0.7s0.4-0.3,0.7-0.3s0.6,0.1,0.7,0.3c0.1,0.2,0.2,0.4,0.2,0.7
						c0,0.3-0.1,0.5-0.2,0.7s-0.4,0.3-0.7,0.3s-0.6-0.1-0.7-0.3C-19.1-99.9-19.2-100.1-19.2-100.4z M-17.3-97.6V-87H-19v-10.6H-17.3
						z"/>
					<path class="st24" d="M-13.7-97.6l2.4,9l0.2,1.6h-1.1l-3.2-10.6H-13.7z M-11.9-88.6l2.3-8.9h1.8l-3.1,10.6H-12L-11.9-88.6z"/>
					<path class="st24" d="M-0.6-93.4v1.3h-1.2c-0.4,0-0.8,0-1.1,0.1s-0.6,0.2-0.9,0.4c-0.3,0.2-0.4,0.4-0.6,0.6s-0.2,0.5-0.2,0.9
						s0.1,0.8,0.2,1s0.3,0.4,0.5,0.5c0.2,0.1,0.5,0.2,0.9,0.2s0.8-0.1,1.2-0.3c0.4-0.2,0.6-0.4,0.8-0.7s0.3-0.6,0.3-0.8l0.4,0.8
						c0,0.3-0.1,0.5-0.2,0.8s-0.3,0.6-0.6,0.8s-0.5,0.5-0.9,0.7s-0.7,0.3-1.1,0.3c-0.6,0-1.1-0.1-1.6-0.4s-0.8-0.6-1.1-1
						c-0.3-0.4-0.4-1-0.4-1.7c0-0.5,0.1-1,0.3-1.4s0.4-0.8,0.8-1.1s0.8-0.6,1.3-0.7s1.1-0.3,1.8-0.3C-2-93.4-0.6-93.4-0.6-93.4z
						 M-0.9-88.8v-5.7c0-0.4-0.1-0.8-0.2-1s-0.3-0.4-0.6-0.6s-0.6-0.2-0.9-0.2c-0.4,0-0.7,0.1-0.9,0.2s-0.5,0.3-0.6,0.6
						s-0.2,0.5-0.2,0.8H-6c0-0.4,0.1-0.8,0.2-1.1s0.4-0.7,0.7-1s0.7-0.5,1.1-0.7s0.9-0.3,1.5-0.3c0.7,0,1.2,0.1,1.7,0.3
						c0.5,0.2,0.9,0.6,1.2,1s0.4,1.1,0.4,1.9v5.2c0,0.4,0,0.7,0.1,1.1s0.1,0.7,0.2,1v0.2h-1.8c-0.1-0.2-0.1-0.5-0.2-0.8
						C-1-88.2-0.9-88.5-0.9-88.8z"/>
					<path class="st24" d="M7.2-88.3c0.3,0,0.7-0.1,0.9-0.2c0.2-0.1,0.5-0.4,0.7-0.7c0.2-0.3,0.3-0.7,0.3-1.2h1.7
						c0,0.7-0.2,1.3-0.5,1.9s-0.8,1-1.4,1.2c-0.6,0.2-1.1,0.5-1.7,0.5c-0.7,0-1.3-0.1-1.8-0.3s-0.9-0.5-1.2-1S3.6-89,3.5-89.6
						s-0.2-1.3-0.2-2.1v-1.2c0-0.8,0.1-1.5,0.2-2.1s0.3-1.1,0.7-1.5s0.7-0.7,1.2-1s1.1-0.3,1.8-0.3s1.3,0.2,1.9,0.5
						C9.7-97,10-96.6,10.3-96s0.5,1.3,0.5,2.1H9.1c0-0.5-0.1-1-0.3-1.3S8.4-95.8,8.1-96c-0.3-0.2-0.6-0.3-1-0.3
						c-0.5,0-0.8,0.1-1.1,0.2s-0.5,0.4-0.7,0.7c-0.2,0.3-0.3,0.7-0.4,1.1s-0.1,0.9-0.1,1.4v1.2c0,0.5,0,1,0.1,1.4s0.2,0.8,0.4,1.1
						s0.5,0.5,0.8,0.7C6.4-88.3,6.7-88.3,7.2-88.3z"/>
					<path class="st24" d="M13.7-97.6l2.1,8.2l0.4,1.9L15-86.8l-3.2-10.8C11.8-97.6,13.7-97.6,13.7-97.6z M15.2-88.1l2.4-9.5h1.8
						l-3.5,12.2c-0.1,0.3-0.2,0.5-0.3,0.8s-0.3,0.6-0.5,0.9s-0.5,0.5-0.8,0.7s-0.7,0.3-1.1,0.3c-0.1,0-0.3,0-0.5-0.1
						s-0.3-0.1-0.4-0.1v-1.5c0,0,0.1,0,0.2,0s0.1,0,0.2,0c0.3,0,0.6-0.1,0.9-0.2c0.3-0.1,0.4-0.3,0.6-0.5c0.2-0.2,0.3-0.6,0.4-1
						L15.2-88.1z"/>
					<path class="st24" d="M27.7-101.2V-87h-1.8v-14.2H27.7z M33.3-101.2v1.5h-5.9v-1.5H33.3z M32.5-94.8v1.5h-5.1v-1.5H32.5z"/>
					<path class="st24" d="M34.9-91.8v-1c0-0.8,0.1-1.5,0.3-2.2s0.5-1.1,0.9-1.6s0.8-0.7,1.3-0.9c0.5-0.2,1-0.3,1.6-0.3
						s1.1,0.1,1.6,0.3c0.5,0.2,0.9,0.5,1.3,0.9s0.7,0.9,0.9,1.6s0.3,1.3,0.3,2.2v1c0,0.8-0.1,1.5-0.3,2.2s-0.5,1.1-0.9,1.6
						s-0.8,0.7-1.3,0.9s-1,0.3-1.6,0.3s-1.1-0.1-1.6-0.3s-0.9-0.5-1.3-0.9s-0.7-0.9-0.9-1.6S34.9-91,34.9-91.8z M36.7-92.8v1
						c0,0.6,0.1,1.1,0.2,1.5s0.3,0.8,0.5,1.1c0.2,0.3,0.5,0.5,0.8,0.7s0.6,0.2,0.9,0.2c0.4,0,0.7-0.1,1-0.2s0.5-0.4,0.7-0.7
						c0.2-0.3,0.3-0.7,0.4-1.1s0.1-0.9,0.1-1.5v-1c0-0.6-0.1-1.1-0.2-1.5s-0.3-0.8-0.5-1.1s-0.5-0.5-0.8-0.7s-0.6-0.2-0.9-0.2
						c-0.3,0-0.6,0.1-0.9,0.2c-0.3,0.1-0.5,0.4-0.7,0.7s-0.4,0.7-0.5,1.1S36.7-93.4,36.7-92.8z"/>
					<path class="st24" d="M49-88.3c0.3,0,0.7-0.1,0.9-0.2s0.5-0.4,0.7-0.7s0.3-0.7,0.3-1.2h1.6c0,0.7-0.2,1.3-0.5,1.9
						s-0.7,1-1.2,1.2s-1.1,0.4-1.8,0.4s-1.3-0.1-1.8-0.3c-0.5-0.2-0.9-0.5-1.2-1s-0.6-0.9-0.7-1.5c-0.1-0.6-0.2-1.3-0.2-2.1V-93
						c0-0.8,0.1-1.5,0.2-2.1c0.1-0.6,0.4-1.1,0.7-1.5s0.7-0.7,1.2-1s1.1-0.3,1.8-0.3s1.3,0.2,1.9,0.5c0.6,0.3,0.9,0.7,1.2,1.3
						s0.5,1.3,0.5,2.1H51c0-0.5-0.1-1-0.3-1.3s-0.4-0.6-0.7-0.8s-0.6-0.3-1-0.3c-0.5,0-0.8,0.1-1.1,0.2s-0.5,0.4-0.7,0.7
						c-0.2,0.3-0.3,0.7-0.4,1.1s-0.1,0.9-0.1,1.4v1.2c0,0.5,0,1,0.1,1.4s0.2,0.8,0.4,1.1s0.4,0.5,0.7,0.7
						C48.2-88.4,48.6-88.3,49-88.3z"/>
					<path class="st24" d="M60.3-91.7H61c0,0.7-0.1,1.4-0.2,1.9s-0.3,1.1-0.6,1.5s-0.6,0.8-1.1,1s-1,0.4-1.6,0.4
						c-0.4,0-0.8-0.1-1.2-0.2s-0.7-0.4-0.9-0.7c-0.2-0.3-0.5-0.7-0.6-1.2s-0.2-1.1-0.2-1.8v-6.8h1.7v6.8c0,0.5,0,0.9,0.1,1.2
						c0.1,0.3,0.2,0.6,0.3,0.7s0.3,0.3,0.5,0.4s0.4,0.1,0.5,0.1c0.6,0,1.1-0.1,1.5-0.4s0.6-0.7,0.8-1.2S60.3-91.1,60.3-91.7z
						 M59.9-89.4v-8.1h1.7v10.6H60L59.9-89.4z"/>
					<path class="st24" d="M69.4-89.7c0-0.3-0.1-0.5-0.2-0.7s-0.3-0.4-0.6-0.6c-0.3-0.2-0.7-0.4-1.2-0.6s-0.9-0.4-1.3-0.6
						s-0.7-0.4-1-0.6s-0.5-0.5-0.6-0.8s-0.2-0.7-0.2-1.1s0.1-0.8,0.2-1.2c0.1-0.4,0.4-0.7,0.7-1c0.3-0.3,0.6-0.5,1.1-0.6
						s0.9-0.2,1.4-0.2c0.7,0,1.3,0.1,1.8,0.4s0.9,0.7,1.2,1.1c0.3,0.4,0.4,1,0.4,1.6h-1.7c0-0.3-0.1-0.6-0.2-0.8s-0.3-0.5-0.6-0.6
						s-0.6-0.2-0.9-0.2c-0.4,0-0.7,0.1-0.9,0.2s-0.4,0.3-0.5,0.5s-0.2,0.5-0.2,0.7s0,0.4,0.1,0.5s0.2,0.3,0.3,0.4
						c0.1,0.1,0.3,0.2,0.6,0.4s0.5,0.3,0.9,0.4c0.7,0.3,1.3,0.6,1.8,0.8c0.5,0.2,0.9,0.6,1.1,1s0.4,0.9,0.4,1.4s-0.1,0.9-0.2,1.3
						s-0.4,0.7-0.7,1c-0.3,0.3-0.7,0.5-1.1,0.6s-0.9,0.2-1.4,0.2c-0.8,0-1.5-0.2-2-0.5s-1-0.7-1.2-1.2s-0.4-1.1-0.4-1.6H66
						c0,0.5,0.1,0.9,0.3,1.2s0.5,0.5,0.7,0.6s0.6,0.2,0.9,0.2c0.4,0,0.7-0.1,1-0.2s0.5-0.3,0.6-0.5C69.6-89,69.4-89.4,69.4-89.7z"/>
					<path class="st24" d="M77.2-86.8c-0.6,0-1.2-0.1-1.7-0.3s-0.9-0.5-1.3-0.9s-0.6-0.9-0.8-1.5s-0.3-1.3-0.3-2.1v-1.2
						c0-0.9,0.1-1.7,0.3-2.4c0.2-0.7,0.5-1.2,0.9-1.6s0.8-0.7,1.3-0.9c0.5-0.2,1-0.3,1.4-0.3c0.7,0,1.2,0.1,1.7,0.3
						c0.5,0.2,0.8,0.5,1.1,1s0.5,0.9,0.6,1.6s0.2,1.3,0.2,2.1v1H74v-1.5h4.9l0,0c0-0.5-0.1-1-0.2-1.4s-0.3-0.7-0.6-1
						s-0.7-0.4-1.2-0.4c-0.3,0-0.6,0.1-0.9,0.2s-0.5,0.3-0.7,0.6s-0.3,0.6-0.4,1.1s-0.2,1-0.2,1.8v1.2c0,0.6,0.1,1.1,0.2,1.5
						s0.3,0.7,0.5,1s0.5,0.5,0.8,0.6s0.7,0.2,1.1,0.2c0.6,0,1.1-0.1,1.4-0.3c0.3-0.2,0.7-0.5,1-0.9l0.9,1.1
						c-0.2,0.3-0.4,0.5-0.7,0.8c-0.3,0.3-0.7,0.4-1.1,0.6C78.4-86.6,77.8-86.8,77.2-86.8z"/>
					<path class="st24" d="M82.4-91.8v-1c0-0.9,0.1-1.6,0.3-2.3s0.4-1.1,0.7-1.6c0.3-0.5,0.7-0.7,1.1-0.9c0.4-0.2,0.9-0.3,1.4-0.3
						s1,0.1,1.4,0.3c0.4,0.2,0.7,0.5,1,1s0.5,0.9,0.6,1.5s0.3,1.3,0.3,2v1.3c-0.1,0.7-0.2,1.4-0.3,2s-0.4,1.1-0.6,1.5s-0.6,0.7-1,1
						S86.4-87,85.9-87s-1-0.1-1.4-0.3c-0.4-0.2-0.8-0.5-1.1-0.9c-0.3-0.4-0.6-0.9-0.7-1.6C82.6-90.5,82.4-90.9,82.4-91.8z
						 M84.1-92.8v1c0,0.6,0,1.1,0.1,1.5s0.2,0.8,0.4,1.1c0.2,0.3,0.4,0.5,0.7,0.6c0.3,0.1,0.6,0.2,1,0.2c0.5,0,0.9-0.1,1.2-0.4
						c0.3-0.3,0.6-0.5,0.7-0.9s0.3-0.8,0.4-1.3v-2.8c-0.1-0.3-0.2-0.7-0.3-1c-0.1-0.3-0.3-0.6-0.5-0.8s-0.4-0.4-0.7-0.6
						s-0.6-0.2-0.9-0.2c-0.4,0-0.7,0.1-1,0.2s-0.5,0.4-0.7,0.6s-0.3,0.6-0.4,1.1S84.1-93.4,84.1-92.8z M88.3-89.1V-102H90v15h-1.6
						L88.3-89.1z"/>
				</g>
			</g>
		</g>
	</g>
</g>
<g id="g-root-tx_privacyf_1d1542x1cckq31-stroke" transform="translate(92.46966552734375, 332)">
</g>
<g id="g-root-tx_audiopro_zqb2sp1cckoi6-stroke" transform="translate(79.7030029296875, 368)">
</g>
<g id="g-root-tx_browserb_1uljtgp1ccxczo-fill" transform="translate(530, 248)">
	<g id="tx_browserb_1uljtgp1ccxczo-fill-merged">
		<g>
			<g>
				<g class="st23">
					<path class="st25" d="M-31.8-93.7h-2.9v-1.5h2.7c0.4,0,0.8-0.1,1.1-0.3c0.3-0.2,0.6-0.4,0.7-0.8s0.3-0.8,0.3-1.2
						c0-0.5-0.1-0.9-0.2-1.3s-0.4-0.6-0.7-0.7c-0.3-0.1-0.7-0.2-1.2-0.2h-2.3V-87h-1.8v-14.2h4.1c0.6,0,1.2,0.1,1.6,0.2
						s0.9,0.4,1.2,0.7c0.3,0.3,0.6,0.7,0.8,1.2s0.3,1,0.3,1.7c0,0.6-0.1,1.1-0.4,1.6s-0.6,0.9-1.1,1.2s-1,0.5-1.6,0.6L-31.8-93.7z
						 M-31.9-87h-3.6l1-1.5h2.5c0.5,0,0.9-0.1,1.2-0.3c0.3-0.2,0.6-0.5,0.7-0.9s0.3-0.8,0.3-1.4c0-0.5-0.1-1-0.2-1.4
						s-0.4-0.7-0.7-0.9s-0.7-0.3-1.2-0.3h-2.3v-1.5h3.1l0.4,0.5c0.6,0.1,1.1,0.3,1.5,0.6s0.7,0.7,0.9,1.3c0.2,0.6,0.3,1.1,0.3,1.7
						c0,0.9-0.2,1.6-0.5,2.2s-0.8,1.1-1.4,1.4C-30.5-87.2-31.1-87-31.9-87z"/>
					<path class="st25" d="M-23.7-95.9v8.9h-1.7v-10.6h1.7V-95.9z M-21.1-97.6v1.7c-0.1,0-0.3-0.1-0.4-0.1s-0.2,0-0.4,0
						c-0.3,0-0.6,0.1-0.9,0.2s-0.5,0.3-0.6,0.5s-0.3,0.5-0.4,0.8s-0.2,0.7-0.2,1.1l-0.4,0.3c0-0.6,0.1-1.2,0.2-1.8s0.3-1.1,0.5-1.5
						s0.5-0.8,0.8-1s0.7-0.4,1.2-0.4c0.1,0,0.2,0,0.4,0S-21.1-97.7-21.1-97.6z"/>
					<path class="st25" d="M-19.7-91.8v-1c0-0.8,0.1-1.5,0.3-2.2c0.2-0.7,0.5-1.1,0.9-1.6s0.8-0.7,1.3-0.9c0.5-0.2,1-0.3,1.6-0.3
						s1.1,0.1,1.6,0.3c0.5,0.2,0.9,0.5,1.3,0.9s0.7,0.9,0.9,1.6s0.3,1.3,0.3,2.2v1c0,0.8-0.1,1.5-0.3,2.2s-0.5,1.1-0.9,1.6
						s-0.8,0.7-1.3,0.9s-1,0.3-1.6,0.3s-1.1-0.1-1.6-0.3s-0.9-0.5-1.3-0.9s-0.7-0.9-0.9-1.6S-19.7-91-19.7-91.8z M-18-92.8v1
						c0,0.6,0.1,1.1,0.2,1.5s0.3,0.8,0.5,1.1c0.2,0.3,0.5,0.5,0.8,0.7s0.6,0.2,0.9,0.2c0.4,0,0.7-0.1,1-0.2s0.5-0.4,0.7-0.7
						c0.2-0.3,0.3-0.7,0.4-1.1s0.1-0.9,0.1-1.5v-1c0-0.6-0.1-1.1-0.2-1.5s-0.3-0.8-0.5-1.1s-0.5-0.5-0.8-0.7s-0.6-0.2-0.9-0.2
						c-0.3,0-0.6,0.1-0.9,0.2c-0.3,0.1-0.5,0.4-0.7,0.7s-0.4,0.7-0.5,1.1S-18-93.4-18-92.8z"/>
					<path class="st25" d="M-8.4-97.6l2,8.8v1.8h-1.1l-2.6-10.6C-10.1-97.6-8.4-97.6-8.4-97.6z M-7.2-88.9l2.3-8.7h1.1l-0.1,1.7
						L-6.2-87h-1.1L-7.2-88.9z M-3.5-97.6l2.3,8.5l0.2,2h-1.1L-4.5-96l-0.1-1.7L-3.5-97.6L-3.5-97.6z M-1.7-88.8l1.9-8.7h1.7
						l-2.6,10.6h-1.1L-1.7-88.8z"/>
					<path class="st25" d="M8.8-89.7c0-0.3-0.1-0.5-0.2-0.7C8.5-90.6,8.3-90.8,8-91s-0.7-0.4-1.2-0.6S5.9-92,5.5-92.2
						s-0.7-0.4-1-0.6S4-93.3,3.9-93.6c-0.1-0.3-0.2-0.7-0.2-1.1s0.1-0.8,0.2-1.2c0.1-0.4,0.4-0.7,0.7-1c0.3-0.3,0.6-0.5,1.1-0.6
						s0.9-0.2,1.4-0.2c0.7,0,1.3,0.1,1.8,0.4s0.9,0.7,1.2,1.1s0.4,1,0.4,1.6H8.7c0-0.3-0.1-0.6-0.2-0.8c-0.1-0.2-0.3-0.5-0.6-0.6
						c-0.3-0.1-0.6-0.2-0.9-0.2c-0.4,0-0.7,0.1-0.9,0.2s-0.4,0.2-0.6,0.5S5.3-95,5.3-94.8s0,0.4,0.1,0.5s0.2,0.3,0.3,0.4
						s0.3,0.2,0.6,0.4c0.3,0.2,0.5,0.3,0.9,0.4c0.7,0.3,1.3,0.6,1.8,0.8s0.9,0.6,1.1,1s0.4,0.9,0.4,1.4s-0.1,0.9-0.2,1.3
						s-0.4,0.7-0.7,1S8.9-87.1,8.5-87s-0.9,0.2-1.4,0.2c-0.8,0-1.5-0.2-2-0.5s-1-0.7-1.3-1.2s-0.4-1.1-0.4-1.6h1.7
						c0,0.5,0.1,0.9,0.3,1.2s0.5,0.5,0.7,0.6s0.6,0.2,0.9,0.2c0.4,0,0.7-0.1,1-0.2s0.5-0.3,0.6-0.5C8.7-89,8.8-89.4,8.8-89.7z"/>
					<path class="st25" d="M16.6-86.8c-0.6,0-1.2-0.1-1.7-0.3S14-87.6,13.6-88s-0.6-0.9-0.8-1.5s-0.3-1.3-0.3-2.1v-1.2
						c0-0.9,0.1-1.7,0.3-2.4c0.2-0.7,0.5-1.2,0.9-1.6s0.8-0.7,1.3-0.9c0.5-0.2,1-0.3,1.4-0.3c0.7,0,1.2,0.1,1.7,0.3
						c0.5,0.2,0.8,0.5,1.1,1s0.5,0.9,0.6,1.6S20-93.8,20-93v1h-6.6v-1.5h4.9l0,0c0-0.5-0.1-1-0.2-1.4s-0.3-0.7-0.6-1
						s-0.7-0.4-1.2-0.4c-0.3,0-0.6,0.1-0.9,0.2c-0.3,0.1-0.5,0.3-0.7,0.6s-0.3,0.6-0.4,1.1s-0.2,1-0.2,1.8v1.2
						c0,0.6,0.1,1.1,0.2,1.5c0.1,0.4,0.3,0.7,0.5,1s0.5,0.5,0.8,0.6s0.7,0.2,1.1,0.2c0.6,0,1.1-0.1,1.4-0.3c0.3-0.2,0.7-0.5,1-0.9
						l0.9,1.1c-0.2,0.3-0.4,0.5-0.7,0.8c-0.3,0.3-0.7,0.4-1.1,0.6C17.8-86.6,17.2-86.8,16.6-86.8z"/>
					<path class="st25" d="M23.9-95.9v8.9h-1.7v-10.6h1.6L23.9-95.9z M26.5-97.6v1.7c-0.1,0-0.3-0.1-0.4-0.1s-0.2,0-0.4,0
						c-0.3,0-0.6,0.1-0.9,0.2s-0.5,0.3-0.6,0.5s-0.3,0.5-0.4,0.8s-0.2,0.7-0.2,1.1l-0.4,0.3c0-0.6,0.1-1.2,0.2-1.8s0.3-1.1,0.5-1.5
						s0.5-0.8,0.8-1s0.7-0.4,1.2-0.4c0.1,0,0.2,0,0.4,0S26.5-97.7,26.5-97.6z"/>
					<path class="st25" d="M31.5-93.8v1.5h-4v-1.5H31.5z"/>
					<path class="st25" d="M37.8-93.7h-2.9v-1.5h2.7c0.4,0,0.8-0.1,1.1-0.3c0.3-0.2,0.6-0.4,0.7-0.8c0.1-0.4,0.3-0.8,0.3-1.2
						c0-0.5-0.1-0.9-0.2-1.3c-0.1-0.4-0.4-0.6-0.7-0.7s-0.7-0.2-1.2-0.2h-2.3V-87h-1.8v-14.2h4.1c0.6,0,1.2,0.1,1.6,0.2
						c0.4,0.1,0.9,0.4,1.2,0.7c0.3,0.3,0.6,0.7,0.8,1.2s0.3,1,0.3,1.7c0,0.6-0.1,1.1-0.4,1.6s-0.6,0.9-1.1,1.2s-1,0.5-1.6,0.6
						L37.8-93.7z M37.7-87h-3.6l1-1.5h2.5c0.5,0,0.9-0.1,1.2-0.3c0.3-0.2,0.6-0.5,0.7-0.9c0.1-0.4,0.3-0.8,0.3-1.4
						c0-0.5-0.1-1-0.2-1.4c-0.1-0.4-0.4-0.7-0.7-0.9c-0.3-0.2-0.7-0.3-1.2-0.3h-2.3v-1.5h3.1l0.4,0.5c0.6,0.1,1.1,0.3,1.5,0.6
						s0.7,0.7,0.9,1.3c0.2,0.6,0.3,1.1,0.3,1.7c0,0.9-0.2,1.6-0.5,2.2s-0.7,1.1-1.3,1.4C39.2-87.2,38.5-87,37.7-87z"/>
					<path class="st25" d="M49.6-93.4v1.3h-1.2c-0.4,0-0.8,0-1.1,0.1s-0.6,0.2-0.9,0.4c-0.3,0.2-0.4,0.4-0.6,0.6
						c-0.2,0.2-0.2,0.5-0.2,0.9s0.1,0.8,0.2,1c0.1,0.2,0.3,0.4,0.5,0.5s0.5,0.2,0.9,0.2s0.8-0.1,1.2-0.3c0.4-0.2,0.6-0.4,0.8-0.7
						c0.2-0.3,0.3-0.6,0.3-0.8l0.4,0.8c0,0.3-0.1,0.5-0.2,0.8c-0.1,0.3-0.3,0.6-0.6,0.8c-0.3,0.2-0.5,0.5-0.9,0.7s-0.7,0.3-1.1,0.3
						c-0.6,0-1.1-0.1-1.6-0.4s-0.8-0.6-1.1-1s-0.4-1-0.4-1.7c0-0.5,0.1-1,0.3-1.4s0.4-0.8,0.8-1.1c0.4-0.3,0.8-0.6,1.3-0.7
						s1.1-0.3,1.8-0.3C48.2-93.4,49.6-93.4,49.6-93.4z M49.3-88.8v-5.7c0-0.4-0.1-0.8-0.2-1c-0.1-0.2-0.3-0.4-0.6-0.6
						s-0.6-0.2-0.9-0.2c-0.4,0-0.7,0.1-0.9,0.2s-0.5,0.3-0.6,0.6c-0.1,0.3-0.2,0.5-0.2,0.8h-1.7c0-0.4,0.1-0.8,0.2-1.1
						c0.1-0.3,0.4-0.7,0.7-1s0.7-0.5,1.1-0.7c0.4-0.2,0.9-0.3,1.5-0.3c0.7,0,1.2,0.1,1.7,0.3c0.5,0.2,0.9,0.6,1.2,1s0.4,1.1,0.4,1.9
						v5.2c0,0.4,0,0.7,0.1,1.1s0.1,0.7,0.2,1v0.2h-1.8c-0.1-0.2-0.2-0.5-0.2-0.8C49.3-88.2,49.3-88.5,49.3-88.8z"/>
					<path class="st25" d="M58.9-89.7c0-0.3-0.1-0.5-0.2-0.7c-0.1-0.2-0.3-0.4-0.6-0.6s-0.7-0.4-1.2-0.6S56-92,55.6-92.2
						s-0.7-0.4-1-0.6s-0.5-0.5-0.6-0.8s-0.2-0.7-0.2-1.1s0.1-0.8,0.2-1.2c0.1-0.4,0.4-0.7,0.7-1s0.6-0.5,1.1-0.6s0.9-0.2,1.4-0.2
						c0.7,0,1.3,0.1,1.8,0.4s0.9,0.7,1.2,1.1s0.4,1,0.4,1.6h-1.8c0-0.3-0.1-0.6-0.2-0.8c-0.1-0.2-0.3-0.5-0.6-0.6s-0.6-0.2-0.9-0.2
						c-0.4,0-0.7,0.1-0.9,0.2s-0.4,0.3-0.5,0.5s-0.2,0.5-0.2,0.7s0,0.4,0.1,0.5s0.2,0.3,0.3,0.4s0.3,0.2,0.6,0.4
						c0.3,0.2,0.5,0.3,0.9,0.4c0.7,0.3,1.3,0.6,1.8,0.8c0.5,0.2,0.9,0.6,1.1,1s0.4,0.9,0.4,1.4s-0.1,0.9-0.2,1.3
						c-0.1,0.4-0.4,0.7-0.7,1s-0.7,0.5-1.1,0.6c-0.4,0.1-0.9,0.2-1.4,0.2c-0.8,0-1.5-0.2-2-0.5s-1-0.7-1.2-1.2s-0.4-1.1-0.4-1.6h1.7
						c0,0.5,0.1,0.9,0.3,1.2c0.2,0.3,0.5,0.5,0.7,0.6s0.6,0.2,0.9,0.2c0.4,0,0.7-0.1,1-0.2s0.5-0.3,0.6-0.5
						C59-89,58.9-89.4,58.9-89.7z"/>
					<path class="st25" d="M66.6-86.8c-0.6,0-1.2-0.1-1.7-0.3S64-87.6,63.6-88s-0.6-0.9-0.8-1.5s-0.3-1.3-0.3-2.1v-1.2
						c0-0.9,0.1-1.7,0.3-2.4c0.2-0.7,0.5-1.2,0.9-1.6c0.4-0.4,0.8-0.7,1.3-0.9c0.5-0.2,1-0.3,1.4-0.3c0.7,0,1.2,0.1,1.7,0.3
						c0.5,0.2,0.8,0.5,1.1,1s0.5,0.9,0.6,1.6S70-93.8,70-93v1h-6.6v-1.5h4.9l0,0c0-0.5-0.1-1-0.2-1.4s-0.3-0.7-0.6-1
						s-0.7-0.4-1.2-0.4c-0.3,0-0.6,0.1-0.9,0.2s-0.5,0.3-0.7,0.6c-0.2,0.3-0.3,0.6-0.4,1.1s-0.2,1-0.2,1.8v1.2
						c0,0.6,0.1,1.1,0.2,1.5s0.3,0.7,0.5,1s0.5,0.5,0.8,0.6s0.7,0.2,1.1,0.2c0.6,0,1.1-0.1,1.4-0.3c0.3-0.2,0.7-0.5,1-0.9l0.9,1.1
						c-0.2,0.3-0.4,0.5-0.7,0.8c-0.3,0.3-0.7,0.4-1.1,0.6C67.8-86.6,67.2-86.8,66.6-86.8z"/>
					<path class="st25" d="M71.8-91.8v-1c0-0.9,0.1-1.6,0.3-2.3s0.4-1.1,0.7-1.6c0.3-0.5,0.7-0.7,1.1-0.9c0.4-0.2,0.9-0.3,1.4-0.3
						s1,0.1,1.4,0.3c0.4,0.2,0.7,0.5,1,1s0.5,0.9,0.6,1.5s0.3,1.3,0.3,2v1.3c-0.1,0.7-0.2,1.4-0.3,2s-0.2,1.3-0.5,1.7
						c-0.3,0.4-0.6,0.7-1,1s-0.9,0.3-1.4,0.3s-1-0.1-1.4-0.3c-0.4-0.2-0.8-0.5-1.1-0.9s-0.6-0.9-0.7-1.6
						C72.1-90.3,71.8-90.9,71.8-91.8z M73.6-92.8v1c0,0.6,0,1.1,0.1,1.5s0.2,0.8,0.4,1.1c0.2,0.3,0.4,0.5,0.7,0.6
						c0.3,0.1,0.6,0.2,1,0.2c0.5,0,0.9-0.1,1.2-0.4c0.3-0.3,0.6-0.5,0.7-0.9s0.3-0.8,0.4-1.3v-2.8c-0.1-0.3-0.2-0.7-0.3-1
						c-0.1-0.3-0.3-0.6-0.5-0.8s-0.4-0.4-0.7-0.6s-0.6-0.2-0.9-0.2c-0.4,0-0.7,0.1-1,0.2s-0.5,0.4-0.7,0.6s-0.3,0.6-0.4,1.1
						S73.6-93.4,73.6-92.8z M77.8-89.1V-102h1.7v15h-1.6L77.8-89.1z"/>
				</g>
			</g>
		</g>
	</g>
</g>
<g id="g-root-tx_browserb_1uljtgp1ccxczo-stroke" transform="translate(530, 248)">
</g>
<g id="g-root-ic_medi_qof8ix1ccxbeu-fill" transform="translate(470, 242)">
</g>
<g id="g-root-ic_medi_qof8ix1ccxbeu-stroke" transform="translate(470, 242)">
	<g id="ic_medi_qof8ix1ccxbeu-stroke">
		<g>
			<path class="st2" d="M-34.7-107h38c0,0,4,0,4,4v32c0,0,0,4-4,4h-38c0,0-4,0-4-4v-32C-38.7-103-38.7-107-34.7-107 M-38.7-97h46
				 M-31.7-102.5c0.3,0,0.5,0.2,0.5,0.5s-0.2,0.5-0.5,0.5s-0.5-0.2-0.5-0.5S-31.9-102.5-31.7-102.5 M-25.7-102.5
				c0.3,0,0.5,0.2,0.5,0.5s-0.2,0.5-0.5,0.5s-0.5-0.2-0.5-0.5S-25.9-102.5-25.7-102.5 M-19.7-102.5c0.3,0,0.5,0.2,0.5,0.5
				s-0.2,0.5-0.5,0.5s-0.5-0.2-0.5-0.5S-19.9-102.5-19.7-102.5 M-31.7-89h12c0,0,1,0,1,1v12c0,0,0,1-1,1h-12c0,0-1,0-1-1v-12
				C-32.7-88-32.7-89-31.7-89 M-32.4-75.3l6.9-8.5c0.2-0.3,0.5-0.4,0.8-0.4s0.6,0.2,0.8,0.5l5,8.3 M-11.7-89h12c0,0,1,0,1,1v12
				c0,0,0,1-1,1h-12c0,0-1,0-1-1v-12C-12.7-88-12.7-89-11.7-89 M-12.4-75.3l6.9-8.5c0.2-0.3,0.5-0.4,0.8-0.4s0.6,0.2,0.8,0.5l5,8.3"
				/>
		</g>
	</g>
</g>
<g id="g-root-ic_hori_940j551cckoi7-fill" transform="translate(470, 392)">
</g>
<g id="g-root-ic_hori_940j551cckoi7-stroke" transform="translate(470, 392)">
	<g id="ic_hori_940j551cckoi7-stroke">
		<g>
			<path class="st2" d="M-20.7-79c0,2.2-1.8,4-4,4s-4-1.8-4-4v-16c0-2.2,1.8-4,4-4s4,1.8,4,4V-79z M-16.7-87h24 M-38.7-87h6"/>
		</g>
	</g>
</g>
<g id="g-root-tx_adjustab_8wiu3t1ccoy6a-fill" transform="translate(530, 398)">
	<g id="tx_adjustab_8wiu3t1ccoy6a-fill-merged">
		<g>
			<g>
				<g class="st23">
					<path class="st26" d="M-31.5-100l-3.9,13h-1.8l4.6-14.2h1.2L-31.5-100z M-28.4-92.3v1.5h-6.8v-1.5H-28.4z M-28.4-87l-3.9-13
						v-1.3h1.2l4.6,14.2L-28.4-87L-28.4-87z"/>
					<path class="st26" d="M-25.2-91.8v-1c0-0.9,0.1-1.6,0.3-2.3s0.4-1.1,0.7-1.6c0.3-0.5,0.7-0.7,1.1-0.9c0.4-0.2,0.9-0.3,1.4-0.3
						s1,0.1,1.4,0.3c0.4,0.2,0.7,0.5,1,1s0.5,0.9,0.6,1.5s0.3,1.3,0.3,2v1.3c-0.1,0.7-0.2,1.4-0.3,2s-0.4,1.1-0.6,1.5s-0.6,0.7-1,1
						s-0.9,0.3-1.4,0.3s-1-0.1-1.4-0.3c-0.4-0.2-0.8-0.5-1.1-0.9c-0.3-0.4-0.6-0.9-0.7-1.6C-25-90.5-25.2-90.9-25.2-91.8z
						 M-23.5-92.8v1c0,0.6,0,1.1,0.1,1.5s0.2,0.8,0.4,1.1c0.2,0.3,0.4,0.5,0.7,0.6c0.3,0.1,0.6,0.2,1,0.2c0.5,0,0.9-0.1,1.2-0.4
						c0.3-0.3,0.6-0.5,0.7-0.9s0.3-0.8,0.4-1.3v-2.8c-0.1-0.3-0.2-0.7-0.3-1c-0.1-0.3-0.3-0.6-0.5-0.8s-0.4-0.4-0.7-0.6
						s-0.6-0.2-0.9-0.2c-0.4,0-0.7,0.1-1,0.2s-0.5,0.4-0.7,0.6s-0.3,0.6-0.4,1.1S-23.5-93.4-23.5-92.8z M-19.3-89.1V-102h1.7v15
						h-1.6L-19.3-89.1z"/>
					<path class="st26" d="M-14.9-97.6h1.7v11.8c0,0.6-0.1,1.2-0.2,1.6c-0.1,0.4-0.4,0.8-0.8,1c-0.4,0.2-0.8,0.3-1.3,0.3
						c-0.1,0-0.3,0-0.5,0c-0.2,0-0.3-0.1-0.5-0.1v-1.5c0.1,0,0.2,0,0.4,0.1s0.2,0,0.3,0c0.2,0,0.3,0,0.5-0.1s0.2-0.3,0.3-0.5
						s0.1-0.5,0.1-0.9V-97.6z M-15-100.4c0-0.3,0.1-0.5,0.2-0.7c0.1-0.2,0.4-0.3,0.7-0.3s0.6,0.1,0.7,0.3c0.1,0.2,0.2,0.4,0.2,0.7
						c0,0.3-0.1,0.5-0.2,0.7c-0.1,0.2-0.4,0.3-0.7,0.3s-0.6-0.1-0.7-0.3C-14.9-99.9-15-100.1-15-100.4z"/>
					<path class="st26" d="M-4.8-91.7h0.7c0,0.7-0.1,1.4-0.2,1.9s-0.3,1.1-0.6,1.5s-0.6,0.8-1.1,1s-1,0.4-1.6,0.4
						c-0.4,0-0.8-0.1-1.2-0.2s-0.7-0.4-0.9-0.7c-0.2-0.3-0.5-0.7-0.6-1.2s-0.2-1.1-0.2-1.8v-6.8h1.7v6.8c0,0.5,0,0.9,0.1,1.2
						c0.1,0.3,0.2,0.6,0.3,0.7s0.3,0.3,0.5,0.4s0.4,0.1,0.5,0.1c0.6,0,1.1-0.1,1.5-0.4S-5.2-89.5-5-90S-4.8-91.1-4.8-91.7z
						 M-5.1-89.4v-8.1h1.7v10.6H-5L-5.1-89.4z"/>
					<path class="st26" d="M4.4-89.7c0-0.3-0.1-0.5-0.2-0.7S3.8-90.8,3.5-91s-0.7-0.4-1.2-0.6C1.8-91.8,1.4-92,1-92.2
						s-0.7-0.4-1-0.6s-0.5-0.5-0.6-0.8s-0.2-0.7-0.2-1.1s0.1-0.8,0.2-1.2s0.4-0.7,0.7-1s0.7-0.5,1.1-0.6s0.9-0.2,1.4-0.2
						c0.7,0,1.3,0.1,1.8,0.4s0.9,0.7,1.2,1.1c0.3,0.4,0.4,1,0.4,1.6H4.3c0-0.3-0.1-0.6-0.2-0.8C4-95.6,3.8-95.9,3.5-96
						s-0.6-0.2-0.9-0.2c-0.4,0-0.7,0.1-0.9,0.2s-0.5,0.2-0.6,0.5C1-95.2,0.9-95,0.9-94.8s0,0.4,0.1,0.5s0.2,0.3,0.3,0.4
						s0.3,0.2,0.6,0.4c0.3,0.2,0.5,0.3,0.9,0.4c0.7,0.3,1.3,0.6,1.8,0.8s0.9,0.6,1.1,1s0.4,0.9,0.4,1.4S6-89,5.9-88.6
						s-0.4,0.7-0.7,1c-0.3,0.3-0.7,0.5-1.1,0.6s-0.9,0.2-1.4,0.2c-0.8,0-1.5-0.2-2-0.5s-1-0.7-1.2-1.2s-0.4-1.1-0.4-1.6h1.7
						c0,0.5,0.1,0.9,0.3,1.2s0.5,0.5,0.7,0.6s0.6,0.2,0.9,0.2c0.4,0,0.7-0.1,1-0.2s0.5-0.3,0.6-0.5S4.4-89.4,4.4-89.7z"/>
					<path class="st26" d="M12.2-97.6v1.4H7.3v-1.4H12.2z M8.9-100.1h1.7v10.5c0,0.4,0,0.6,0.1,0.8c0.1,0.2,0.2,0.3,0.3,0.4
						s0.3,0.1,0.4,0.1c0.1,0,0.2,0,0.4,0s0.2-0.1,0.3-0.1v1.5c-0.1,0-0.3,0.1-0.5,0.1s-0.4,0.1-0.7,0.1c-0.4,0-0.7-0.1-1-0.3
						s-0.5-0.5-0.7-1s-0.3-1-0.3-1.7V-100.1z"/>
					<path class="st26" d="M19.7-93.4v1.3h-1.2c-0.4,0-0.8,0-1.1,0.1s-0.6,0.2-0.9,0.4c-0.3,0.2-0.4,0.4-0.6,0.6
						c-0.2,0.2-0.1,0.6-0.1,0.9c0,0.4,0.1,0.8,0.2,1s0.3,0.4,0.5,0.5s0.5,0.2,0.9,0.2s0.8-0.1,1.2-0.3c0.4-0.2,0.6-0.4,0.8-0.7
						s0.3-0.6,0.3-0.8l0.4,0.8c0,0.3-0.1,0.5-0.2,0.8s-0.3,0.6-0.6,0.8s-0.5,0.5-0.9,0.7s-0.7,0.3-1.1,0.3c-0.6,0-1.1-0.1-1.6-0.4
						s-0.8-0.6-1.1-1s-0.4-1-0.4-1.7c0-0.5,0.1-1,0.3-1.4s0.4-0.8,0.8-1.1s0.8-0.6,1.3-0.7s1.1-0.3,1.8-0.3
						C18.4-93.4,19.7-93.4,19.7-93.4z M19.4-88.8v-5.7c0-0.4-0.1-0.8-0.2-1s-0.3-0.4-0.6-0.6c-0.3-0.2-0.6-0.2-0.9-0.2
						c-0.4,0-0.7,0.1-0.9,0.2c-0.2,0.1-0.5,0.3-0.6,0.6C16.1-95.2,16-95,16-94.7h-1.7c0-0.4,0.1-0.8,0.2-1.1s0.4-0.7,0.7-1
						s0.7-0.5,1.1-0.7s0.9-0.3,1.5-0.3c0.7,0,1.2,0.1,1.7,0.3c0.5,0.2,0.9,0.6,1.2,1s0.4,1.1,0.4,1.9v5.2c0,0.4,0,0.7,0.1,1.1
						s0.1,0.7,0.2,1v0.2h-1.8c-0.1-0.2-0.2-0.5-0.2-0.8C19.4-88.2,19.4-88.5,19.4-88.8z"/>
					<path class="st26" d="M23.9-102h1.7v12.9L25.5-87h-1.6V-102z M31.5-92.8v1c0,0.8-0.1,1.6-0.2,2.2s-0.4,1.1-0.7,1.6
						s-0.7,0.7-1.1,0.9s-0.9,0.3-1.5,0.3c-0.5,0-1-0.1-1.4-0.3s-0.7-0.5-1-1S25.1-89,25-89.6s-0.3-1.3-0.3-2v-1.3
						c0.1-0.7,0.2-1.4,0.3-2c0.1-0.6,0.4-1.1,0.6-1.5s0.6-0.7,1-1s0.9-0.3,1.4-0.3c0.6,0,1.1,0.1,1.5,0.3c0.4,0.2,0.8,0.5,1.1,0.9
						s0.5,0.9,0.7,1.6C31.5-94.2,31.5-93.6,31.5-92.8z M29.8-91.8v-1c0-0.6,0-1.1-0.1-1.5s-0.2-0.8-0.4-1.1s-0.4-0.5-0.7-0.6
						s-0.6-0.2-1-0.2s-0.7,0.1-0.9,0.2s-0.5,0.3-0.7,0.6s-0.3,0.5-0.5,0.8s-0.2,0.6-0.3,1v2.8c0.1,0.4,0.2,0.8,0.4,1.2
						c0.2,0.4,0.4,0.7,0.8,1s0.7,0.4,1.2,0.4c0.4,0,0.7-0.1,1-0.2s0.5-0.3,0.7-0.6c0.2-0.3,0.3-0.6,0.4-1.1S29.8-91.2,29.8-91.8z"/>
					<path class="st26" d="M35.6-102v15h-1.7v-15H35.6z"/>
					<path class="st26" d="M42.1-86.8c-0.6,0-1.2-0.1-1.7-0.3s-0.9-0.5-1.3-0.9c-0.4-0.4-0.6-0.9-0.8-1.5S38-90.8,38-91.6v-1.2
						c0-0.9,0.1-1.7,0.3-2.4c0.2-0.7,0.5-1.2,0.9-1.6s0.8-0.7,1.3-0.9c0.5-0.2,1-0.3,1.4-0.3c0.7,0,1.2,0.1,1.7,0.3
						c0.5,0.2,0.8,0.5,1.1,1s0.5,0.9,0.6,1.6s0.2,1.3,0.2,2.1v1h-6.6v-1.5h4.9l0,0c0-0.5-0.1-1-0.2-1.4c-0.1-0.4-0.3-0.7-0.6-1
						s-0.7-0.4-1.2-0.4c-0.3,0-0.6,0.1-0.9,0.2c-0.3,0.1-0.5,0.3-0.7,0.6c-0.2,0.3-0.3,0.6-0.4,1.1c-0.1,0.5-0.2,1-0.2,1.8v1.2
						c0,0.6,0.1,1.1,0.2,1.5c0.1,0.4,0.3,0.7,0.5,1s0.5,0.5,0.8,0.6s0.7,0.2,1.1,0.2c0.6,0,1.1-0.1,1.4-0.3c0.3-0.2,0.7-0.5,1-0.9
						l0.9,1.1c-0.2,0.3-0.4,0.5-0.7,0.8s-0.7,0.4-1.1,0.6C43.3-86.6,42.7-86.8,42.1-86.8z"/>
					<path class="st26" d="M54.3-101.2V-87h-1.8v-14.2H54.3z M55.7-87h-2.4v-1.5h2.4c0.9,0,1.5-0.2,2.1-0.5s0.9-0.8,1.2-1.5
						s0.4-1.5,0.4-2.4v-2.4c0-0.8-0.1-1.4-0.2-2c-0.1-0.6-0.4-1-0.6-1.3c-0.2-0.3-0.6-0.6-1.1-0.8c-0.5-0.2-0.9-0.3-1.5-0.3h-2.6
						v-1.5H56c0.8,0,1.5,0.1,2.2,0.4s1.2,0.6,1.7,1.1s0.8,1.1,1.1,1.9s0.4,1.6,0.4,2.6v2.4c0,1-0.1,1.8-0.4,2.6s-0.6,1.4-1.1,1.8
						s-1,0.9-1.7,1.1C57.5-87.1,56.6-87,55.7-87z"/>
					<path class="st26" d="M67.5-86.8c-0.6,0-1.2-0.1-1.7-0.3s-0.9-0.5-1.3-0.9s-0.6-0.9-0.8-1.5s-0.3-1.3-0.3-2.1v-1.2
						c0-0.9,0.1-1.7,0.3-2.4c0.2-0.7,0.5-1.2,0.9-1.6s0.8-0.7,1.3-0.9c0.5-0.2,1-0.3,1.4-0.3c0.7,0,1.2,0.1,1.7,0.3
						c0.5,0.2,0.8,0.5,1.1,1s0.5,0.9,0.6,1.6s0.2,1.3,0.2,2.1v1h-6.6v-1.5h4.9l0,0c0-0.5-0.1-1-0.2-1.4s-0.3-0.7-0.6-1
						s-0.7-0.4-1.2-0.4c-0.3,0-0.6,0.1-0.9,0.2s-0.5,0.3-0.7,0.6s-0.3,0.6-0.4,1.1s-0.2,1-0.2,1.8v1.2c0,0.6,0.1,1.1,0.2,1.5
						s0.3,0.7,0.5,1s0.5,0.5,0.8,0.6s0.7,0.2,1.1,0.2c0.6,0,1.1-0.1,1.4-0.3c0.3-0.2,0.7-0.5,1-0.9l0.9,1.1
						c-0.2,0.3-0.4,0.5-0.7,0.8c-0.3,0.3-0.7,0.4-1.1,0.6C68.7-86.6,68.1-86.8,67.5-86.8z"/>
					<path class="st26" d="M74.9-102v15h-1.7v-15H74.9z"/>
					<path class="st26" d="M83.1-93.4v1.3h-1.2c-0.4,0-0.8,0-1.1,0.1s-0.6,0.2-0.9,0.4c-0.3,0.2-0.4,0.4-0.6,0.6s-0.2,0.5-0.2,0.9
						s0.1,0.8,0.2,1s0.3,0.4,0.5,0.5s0.5,0.2,0.9,0.2s0.8-0.1,1.2-0.3c0.4-0.2,0.6-0.4,0.8-0.7S83-90,83-90.2l0.4,0.8
						c0,0.3-0.1,0.5-0.2,0.8s-0.3,0.6-0.6,0.8s-0.5,0.5-0.9,0.7s-0.7,0.3-1.1,0.3c-0.6,0-1.1-0.1-1.6-0.4s-0.8-0.6-1.1-1
						c-0.3-0.4-0.4-1-0.4-1.7c0-0.5,0.1-1,0.3-1.4s0.4-0.8,0.8-1.1s0.8-0.6,1.3-0.7s1.1-0.3,1.8-0.3C81.7-93.4,83.1-93.4,83.1-93.4z
						 M82.8-88.8v-5.7c0-0.4-0.1-0.8-0.2-1s-0.3-0.4-0.6-0.6c-0.3-0.2-0.6-0.2-0.9-0.2c-0.4,0-0.7,0.1-0.9,0.2
						c-0.2,0.1-0.5,0.3-0.6,0.6c-0.1,0.3-0.2,0.5-0.2,0.8h-1.7c0-0.4,0.1-0.8,0.2-1.1s0.4-0.7,0.7-1s0.7-0.5,1.1-0.7
						s0.9-0.3,1.5-0.3c0.7,0,1.2,0.1,1.7,0.3c0.5,0.2,0.9,0.6,1.2,1s0.4,1.1,0.4,1.9v5.2c0,0.4,0,0.7,0.1,1.1s0.1,0.7,0.2,1v0.2H83
						c-0.1-0.2-0.2-0.5-0.2-0.8C82.8-88.2,82.8-88.5,82.8-88.8z"/>
					<path class="st26" d="M88.2-97.6l2.1,8.2l0.4,1.9l-1.2,0.7l-3.2-10.8C86.3-97.6,88.2-97.6,88.2-97.6z M89.7-88.1l2.4-9.5h1.8
						l-3.5,12.2c-0.1,0.3-0.2,0.5-0.3,0.8c-0.1,0.3-0.3,0.6-0.5,0.9s-0.5,0.5-0.8,0.7s-0.7,0.3-1.1,0.3c-0.1,0-0.3,0-0.5-0.1
						s-0.3-0.1-0.4-0.1v-1.5c0,0,0.1,0,0.2,0s0.1,0,0.2,0c0.3,0,0.6-0.1,0.9-0.2s0.4-0.3,0.6-0.5s0.3-0.6,0.4-1L89.7-88.1z"/>
				</g>
			</g>
		</g>
	</g>
</g>
<g id="g-root-tx_adjustab_8wiu3t1ccoy6a-stroke" transform="translate(530, 398)">
</g>
<g id="g-root-tx_nocostor_18k2kmh1ccvy88-stroke" transform="translate(46.7030029296875, 218)">
</g>
<g id="g-root-tx_customiz_18gbt9l1ccovm3-stroke" transform="translate(530, 434)">
</g>
<g id="g-root-tx_freetous_1qaq4151ccvz0v-fill" transform="translate(137.8363037109375, 182)">
	<g id="tx_freetous_1qaq4151ccvz0v-fill-merged">
		<g>
			<g>
				<g class="st23">
					<path class="st27" d="M-34.3-116.2v14.2h-1.8v-14.2H-34.3z M-28.7-116.2v1.5h-5.9v-1.5H-28.7z M-29.6-109.8v1.5h-5.1v-1.5
						H-29.6z"/>
					<path class="st27" d="M-25-110.9v8.9h-1.7v-10.6h1.7V-110.9z M-22.4-112.6v1.7c-0.1,0-0.3-0.1-0.4-0.1s-0.2,0-0.4,0
						c-0.3,0-0.6,0.1-0.9,0.2s-0.5,0.3-0.6,0.5s-0.3,0.5-0.4,0.8s-0.2,0.7-0.2,1.1l-0.4,0.3c0-0.6,0.1-1.2,0.2-1.8s0.3-1.1,0.5-1.5
						s0.5-0.8,0.8-1s0.7-0.4,1.2-0.4c0.1,0,0.2,0,0.4,0S-22.4-112.7-22.4-112.6z"/>
					<path class="st27" d="M-16.9-101.8c-0.6,0-1.2-0.1-1.7-0.3s-0.9-0.5-1.3-0.9s-0.6-0.9-0.8-1.5s-0.3-1.3-0.3-2.1v-1.2
						c0-0.9,0.1-1.7,0.3-2.4c0.2-0.7,0.5-1.2,0.9-1.6s0.8-0.7,1.3-0.9c0.5-0.2,1-0.3,1.4-0.3c0.7,0,1.2,0.1,1.7,0.3
						c0.5,0.2,0.8,0.5,1.1,1s0.5,0.9,0.6,1.6s0.2,1.3,0.2,2.1v1h-6.6v-1.5h4.9l0,0c0-0.5-0.1-1-0.2-1.4s-0.3-0.7-0.6-1
						s-0.7-0.4-1.2-0.4c-0.3,0-0.6,0.1-0.9,0.2s-0.5,0.3-0.7,0.6s-0.3,0.6-0.4,1.1s-0.2,1-0.2,1.8v1.2c0,0.6,0.1,1.1,0.2,1.5
						s0.3,0.7,0.5,1s0.5,0.5,0.8,0.6s0.7,0.2,1.1,0.2c0.6,0,1.1-0.1,1.4-0.3c0.3-0.2,0.7-0.5,1-0.9l0.9,1.1
						c-0.2,0.3-0.4,0.5-0.7,0.8s-0.7,0.4-1.1,0.6C-15.7-101.6-16.3-101.8-16.9-101.8z"/>
					<path class="st27" d="M-7.5-101.8c-0.6,0-1.2-0.1-1.7-0.3s-0.9-0.5-1.3-0.9s-0.6-0.9-0.8-1.5s-0.3-1.3-0.3-2.1v-1.2
						c0-0.9,0.1-1.7,0.3-2.4c0.2-0.7,0.5-1.2,0.9-1.6s0.8-0.7,1.3-0.9c0.5-0.2,1-0.3,1.4-0.3c0.7,0,1.2,0.1,1.7,0.3
						c0.5,0.2,0.8,0.5,1.1,1s0.5,1.2,0.7,1.8s0.2,1.3,0.2,2.1v1h-6.6v-1.5h4.9v-0.2c0-0.5-0.1-1-0.2-1.4s-0.3-0.7-0.6-1
						s-0.7-0.4-1.2-0.4c-0.3,0-0.6,0.1-0.9,0.2c-0.3,0.1-0.5,0.3-0.7,0.6s-0.3,0.6-0.4,1.1s-0.2,1-0.2,1.8v1.2
						c0,0.6,0.1,1.1,0.2,1.5c0.1,0.4,0.3,0.7,0.5,1s0.5,0.5,0.8,0.6s0.7,0.2,1.1,0.2c0.6,0,1.1-0.1,1.4-0.3c0.3-0.2,0.7-0.5,1-0.9
						l0.9,1.1c-0.2,0.3-0.4,0.5-0.7,0.8c-0.3,0.3-0.7,0.4-1.1,0.6C-6.2-101.6-6.9-101.8-7.5-101.8z"/>
					<path class="st27" d="M6.5-112.6v1.4H1.6v-1.4H6.5z M3.2-115.1h1.7v10.5c0,0.4,0,0.6,0.1,0.8c0.1,0.2,0.2,0.3,0.3,0.4
						s0.3,0.1,0.4,0.1s0.2,0,0.4,0s0.4-0.2,0.4-0.2v1.5c-0.1,0-0.3,0.1-0.5,0.1s-0.4,0.1-0.7,0.1c-0.4,0-0.7-0.1-1-0.3
						s-0.6-0.4-0.8-0.9s-0.3-1-0.3-1.7V-115.1z"/>
					<path class="st27" d="M8.2-106.8v-1c0-0.8,0.1-1.5,0.3-2.2s0.5-1.1,0.9-1.6s0.8-0.7,1.3-0.9c0.5-0.2,1-0.3,1.6-0.3
						s1.1,0.1,1.6,0.3c0.5,0.2,0.9,0.5,1.3,0.9s0.7,0.9,0.9,1.6c0.2,0.7,0.3,1.3,0.3,2.2v1c0,0.8-0.1,1.5-0.3,2.2
						c-0.2,0.7-0.5,1.1-0.9,1.6s-0.8,0.7-1.3,0.9s-1,0.3-1.6,0.3s-1.1-0.1-1.6-0.3s-0.9-0.5-1.3-1s-0.6-0.9-0.9-1.5
						S8.2-106,8.2-106.8z M10-107.8v1c0,0.6,0.1,1.1,0.2,1.5s0.3,0.8,0.5,1.1c0.2,0.3,0.5,0.5,0.8,0.7s0.6,0.2,0.9,0.2
						c0.4,0,0.7-0.1,1-0.2s0.5-0.4,0.7-0.7c0.2-0.3,0.3-0.7,0.4-1.1s0.1-0.9,0.1-1.5v-1c0-0.6-0.1-1.1-0.2-1.5s-0.3-0.8-0.5-1.1
						s-0.5-0.5-0.8-0.7s-0.6-0.2-0.9-0.2c-0.3,0-0.6,0.1-0.9,0.2c-0.3,0.1-0.5,0.4-0.7,0.7s-0.4,0.7-0.5,1.1S10-108.4,10-107.8z"/>
					<path class="st27" d="M30.1-116.2h1.8v10c0,1.1-0.2,1.9-0.6,2.6s-0.9,1.1-1.6,1.4s-1.4,0.4-2.2,0.4c-0.8,0-1.6-0.1-2.2-0.4
						s-1.2-0.8-1.6-1.4s-0.6-1.5-0.6-2.6v-10h1.8v10c0,0.7,0.1,1.3,0.3,1.7s0.5,0.7,0.9,0.9c0.4,0.2,0.8,0.3,1.4,0.3
						c0.5,0,1-0.1,1.4-0.3c0.4-0.2,0.7-0.5,0.9-0.9s0.3-1,0.3-1.7C30.1-106.2,30.1-116.2,30.1-116.2z"/>
					<path class="st27" d="M39.6-104.7c0-0.3-0.1-0.5-0.2-0.7c-0.1-0.2-0.3-0.4-0.6-0.6s-0.7-0.4-1.2-0.6s-0.9-0.4-1.3-0.6
						s-0.7-0.4-1-0.6s-0.5-0.5-0.6-0.8s-0.2-0.7-0.2-1.1s0.1-0.8,0.2-1.2c0.1-0.4,0.4-0.7,0.7-1s0.6-0.5,1.1-0.6s0.9-0.2,1.4-0.2
						c0.7,0,1.3,0.1,1.8,0.4s0.9,0.7,1.2,1.1s0.4,1,0.4,1.6h-1.7c0-0.3-0.1-0.6-0.2-0.8s-0.3-0.5-0.6-0.6s-0.6-0.2-0.9-0.2
						c-0.4,0-0.7,0.1-0.9,0.2s-0.4,0.3-0.5,0.5s-0.2,0.5-0.2,0.7s0,0.4,0.1,0.5s0.2,0.3,0.3,0.4s0.3,0.2,0.6,0.4s0.5,0.3,0.9,0.4
						c0.7,0.3,1.3,0.6,1.8,0.8c0.5,0.2,0.9,0.6,1.1,1s0.4,0.9,0.4,1.4s-0.1,0.9-0.2,1.3c-0.1,0.4-0.4,0.7-0.7,1s-0.7,0.5-1.1,0.6
						s-0.9,0.2-1.4,0.2c-0.8,0-1.5-0.2-2-0.5s-1-0.7-1.2-1.2s-0.4-1.1-0.4-1.6h1.7c0,0.5,0.1,0.9,0.3,1.2s0.5,0.5,0.7,0.6
						s0.6,0.2,0.9,0.2c0.4,0,0.7-0.1,1-0.2s0.5-0.3,0.6-0.5C39.8-104,39.6-104.4,39.6-104.7z"/>
					<path class="st27" d="M47.4-101.8c-0.6,0-1.2-0.1-1.7-0.3s-0.9-0.5-1.3-0.9s-0.6-0.9-0.8-1.5s-0.3-1.3-0.3-2.1v-1.2
						c0-0.9,0.1-1.7,0.3-2.4c0.2-0.7,0.5-1.2,0.9-1.6s0.8-0.7,1.3-0.9c0.5-0.2,1-0.3,1.4-0.3c0.7,0,1.2,0.1,1.7,0.3
						c0.5,0.2,0.8,0.5,1.1,1s0.5,0.9,0.6,1.6s0.2,1.3,0.2,2.1v1h-6.6v-1.5h4.9l0,0c0-0.5-0.1-1-0.2-1.4s-0.3-0.7-0.6-1
						s-0.7-0.4-1.2-0.4c-0.3,0-0.6,0.1-0.9,0.2c-0.3,0.1-0.5,0.3-0.7,0.6s-0.3,0.6-0.4,1.1s-0.2,1-0.2,1.8v1.2
						c0,0.6,0.1,1.1,0.2,1.5c0.1,0.4,0.3,0.7,0.5,1s0.5,0.5,0.8,0.6s0.7,0.2,1.1,0.2c0.6,0,1.1-0.1,1.4-0.3c0.3-0.2,0.7-0.5,1-0.9
						l0.9,1.1c-0.2,0.3-0.4,0.5-0.7,0.8s-0.7,0.4-1.1,0.6C48.6-101.6,48-101.8,47.4-101.8z"/>
				</g>
			</g>
		</g>
	</g>
</g>
<g id="g-root-tx_freetous_1qaq4151ccvz0v-stroke" transform="translate(137.8363037109375, 182)">
</g>
<g id="g-root-ic_desi_qp1srt1ccoxz8-fill" transform="translate(254, 488)">
</g>
<g id="g-root-ic_desi_qp1srt1ccoxz8-stroke" transform="translate(254, 488)">
	<g id="ic_desi_qp1srt1ccoxz8-stroke">
		<g>
			<path class="st2" d="M-22.7-72h14 M-15.7-76v4 M-32.7-82h24 M-36.7-110h8c0,0,2,0,2,2v14c0,0,0,2-2,2h-8c0,0-2,0-2-2v-14
				C-38.7-108-38.7-110-36.7-110 M-2.7-82h8c0,0,2,0,2,2v14c0,0,0,2-2,2h-8c0,0-2,0-2-2v-14C-4.7-80-4.7-82-2.7-82 M-4.7-68h12
				 M-22.7-100h21c1.7,0,3,1.3,3,3v11 M-8.7-76h-21c-1.7,0-3-1.3-3-3v-9"/>
		</g>
	</g>
</g>
<g id="g-root-tx_crossdev_v6492h1ccrq4n-fill" transform="translate(120.669677734375, 482)">
	<g id="tx_crossdev_v6492h1ccrq4n-fill-merged">
		<g>
			<g>
				<g class="st23">
					<path class="st28" d="M-28.1-91.5h1.8c0,1-0.2,1.8-0.6,2.5s-0.9,1.2-1.5,1.6s-1.5,0.6-2.5,0.6c-0.7,0-1.4-0.1-1.9-0.4
						s-1.1-0.7-1.5-1.2s-0.7-1.2-0.9-1.9c-0.2-0.7-0.3-1.6-0.3-2.5v-2.6c0-0.9,0.1-1.7,0.3-2.5s0.5-1.4,0.9-1.9s0.9-0.9,1.5-1.2
						c0.6-0.3,1.3-0.4,2-0.4c0.9,0,1.7,0.2,2.3,0.6c0.6,0.4,1.1,0.9,1.5,1.6s0.5,1.6,0.6,2.6h-1.8c0-0.7-0.2-1.4-0.4-1.8
						c-0.2-0.4-0.5-0.8-0.8-1s-0.8-0.3-1.4-0.3c-0.5,0-1,0.1-1.4,0.3c-0.4,0.2-0.7,0.5-0.9,0.9s-0.4,0.9-0.5,1.4s-0.2,1.2-0.2,1.8
						v2.6c0,0.6,0.1,1.2,0.2,1.7s0.3,1,0.5,1.4s0.5,0.7,0.9,1c0.4,0.3,0.8,0.3,1.3,0.3c0.7,0,1.2-0.1,1.6-0.3c0.4-0.2,0.7-0.6,0.9-1
						S-28.1-90.8-28.1-91.5z"/>
					<path class="st28" d="M-22.4-95.9v8.9h-1.7v-10.6h1.7V-95.9z M-19.7-97.6v1.7c-0.1,0-0.3-0.1-0.4-0.1s-0.2,0-0.4,0
						c-0.3,0-0.6,0.1-0.9,0.2s-0.5,0.3-0.6,0.5s-0.3,0.5-0.4,0.8s-0.2,0.7-0.2,1.1l-0.4,0.3c0-0.6,0.1-1.2,0.2-1.8s0.3-1.1,0.5-1.5
						s0.5-0.8,0.8-1s0.7-0.4,1.2-0.4c0.1,0,0.2,0,0.4,0S-19.8-97.7-19.7-97.6z"/>
					<path class="st28" d="M-18.4-91.8v-1c0-0.8,0.1-1.5,0.3-2.2c0.2-0.7,0.5-1.1,0.9-1.6s0.8-0.7,1.3-0.9c0.5-0.2,1-0.3,1.6-0.3
						s1.1,0.1,1.6,0.3c0.5,0.2,0.9,0.5,1.3,0.9s0.7,0.9,0.9,1.6s0.3,1.3,0.3,2.2v1c0,0.8-0.1,1.5-0.3,2.2s-0.5,1.1-0.9,1.6
						s-0.8,0.7-1.3,0.9s-1,0.3-1.6,0.3s-1.1-0.1-1.6-0.3c-0.5-0.2-0.9-0.5-1.3-0.9s-0.7-0.9-0.9-1.6S-18.4-91-18.4-91.8z
						 M-16.6-92.8v1c0,0.6,0.1,1.1,0.2,1.5s0.3,0.8,0.5,1.1c0.2,0.3,0.5,0.5,0.8,0.7s0.6,0.2,0.9,0.2c0.4,0,0.7-0.1,1-0.2
						s0.5-0.4,0.7-0.7c0.2-0.3,0.3-0.7,0.4-1.1s0.1-0.9,0.1-1.5v-1c0-0.6-0.1-1.1-0.2-1.5s-0.3-0.8-0.5-1.1s-0.5-0.5-0.8-0.7
						s-0.6-0.2-0.9-0.2c-0.3,0-0.6,0.1-0.9,0.2c-0.3,0.1-0.5,0.4-0.7,0.7s-0.4,0.7-0.5,1.1S-16.6-93.4-16.6-92.8z"/>
					<path class="st28" d="M-2.8-89.7c0-0.3-0.1-0.5-0.2-0.7c-0.1-0.2-0.3-0.4-0.6-0.6s-0.7-0.4-1.2-0.6s-0.9-0.4-1.3-0.6
						s-0.7-0.4-1-0.6s-0.5-0.5-0.6-0.8s-0.2-0.7-0.2-1.1s0.1-0.8,0.2-1.2c0.1-0.4,0.4-0.7,0.7-1c0.3-0.3,0.6-0.5,1.1-0.6
						s0.9-0.2,1.4-0.2c0.7,0,1.3,0.1,1.8,0.4s0.9,0.7,1.2,1.1s0.4,1,0.4,1.6h-1.7c0-0.3-0.1-0.6-0.2-0.8c-0.1-0.3-0.3-0.5-0.6-0.6
						s-0.6-0.2-0.9-0.2c-0.4,0-0.7,0.1-0.9,0.2s-0.4,0.3-0.5,0.5s-0.2,0.5-0.2,0.7s0,0.4,0.1,0.5s0.2,0.3,0.3,0.4
						c0.1,0.1,0.3,0.2,0.6,0.4s0.5,0.3,0.9,0.4c0.7,0.3,1.3,0.6,1.8,0.8c0.5,0.2,0.9,0.6,1.1,1s0.4,0.9,0.4,1.4S-1-89-1.1-88.6
						s-0.4,0.7-0.7,1s-0.7,0.5-1.1,0.6s-0.9,0.2-1.4,0.2c-0.8,0-1.5-0.2-2-0.5s-1-0.7-1.2-1.2s-0.4-1.1-0.4-1.6h1.7
						c0,0.5,0.1,0.9,0.3,1.2s0.5,0.5,0.7,0.6s0.6,0.2,0.9,0.2c0.4,0,0.7-0.1,1-0.2s0.5-0.3,0.6-0.5S-2.8-89.4-2.8-89.7z"/>
					<path class="st28" d="M6.3-89.7c0-0.3-0.1-0.5-0.2-0.7C6-90.6,5.8-90.8,5.5-91s-0.7-0.4-1.2-0.6C3.8-91.8,3.4-92,3-92.2
						s-0.7-0.4-1-0.6s-0.5-0.5-0.6-0.8s-0.2-0.7-0.2-1.1s0.1-0.8,0.2-1.2c0.1-0.4,0.4-0.7,0.7-1s0.6-0.5,1.1-0.6s0.9-0.2,1.4-0.2
						c0.7,0,1.3,0.1,1.8,0.4s0.9,0.7,1.2,1.1c0.3,0.4,0.4,1,0.4,1.6H6.2c0-0.3-0.1-0.6-0.2-0.8S5.7-95.9,5.4-96s-0.6-0.3-0.9-0.3
						c-0.4,0-0.7,0.1-0.9,0.2C3.4-96,3.1-95.8,3-95.5S2.8-95,2.8-94.8s0,0.4,0.1,0.5s0.2,0.3,0.3,0.4s0.3,0.2,0.6,0.4
						c0.3,0.2,0.5,0.3,0.9,0.4c0.7,0.3,1.3,0.6,1.8,0.8s0.9,0.6,1.1,1S8-90.4,8-89.9S7.9-89,7.8-88.6s-0.4,0.7-0.7,1
						C6.8-87.3,6.4-87.1,6-87s-0.9,0.2-1.4,0.2c-0.8,0-1.5-0.2-2-0.5s-1-0.7-1.2-1.2s-0.6-1.1-0.6-1.7h1.7c0,0.5,0.1,0.9,0.3,1.2
						c0.2,0.3,0.5,0.5,0.7,0.6s0.6,0.2,0.9,0.2c0.4,0,0.7-0.1,1-0.2s0.5-0.3,0.6-0.5S6.3-89.4,6.3-89.7z"/>
					<path class="st28" d="M13.5-93.8v1.5h-4v-1.5H13.5z"/>
					<path class="st28" d="M17.3-101.2V-87h-1.8v-14.2H17.3z M18.7-87h-2.4v-1.5h2.4c0.9,0,1.5-0.2,2.1-0.5s0.9-0.8,1.2-1.5
						c0.3-0.7,0.4-1.5,0.4-2.4v-2.4c0-0.8-0.1-1.4-0.2-2s-0.4-1-0.6-1.3s-0.6-0.6-1.1-0.8c-0.5-0.2-0.9-0.3-1.5-0.3h-2.6v-1.5H19
						c0.8,0,1.5,0.1,2.2,0.4s1.2,0.6,1.7,1.1s0.8,1.1,1.1,1.9s0.4,1.6,0.4,2.6v2.4c0,1-0.1,1.8-0.4,2.6s-0.6,1.4-1.1,1.8
						s-1,0.9-1.7,1.1C20.5-87.1,19.5-87,18.7-87z"/>
					<path class="st28" d="M30.4-86.8c-0.6,0-1.2-0.1-1.7-0.3s-0.9-0.5-1.3-0.9s-0.6-0.9-0.8-1.5s-0.3-1.3-0.3-2.1v-1.2
						c0-0.9,0.1-1.7,0.3-2.4c0.2-0.7,0.5-1.2,0.9-1.6s0.8-0.7,1.3-0.9c0.5-0.2,1-0.3,1.4-0.3c0.7,0,1.2,0.1,1.7,0.3
						c0.5,0.2,0.8,0.5,1.1,1s0.5,0.9,0.6,1.6s0.2,1.3,0.2,2.1v1h-6.6v-1.5h4.9l0,0c0-0.5-0.1-1-0.2-1.4s-0.3-0.7-0.6-1
						s-0.7-0.4-1.2-0.4c-0.3,0-0.6,0.1-0.9,0.2s-0.5,0.3-0.7,0.6s-0.3,0.6-0.4,1.1s-0.2,1-0.2,1.8v1.2c0,0.6,0.1,1.1,0.2,1.5
						s0.3,0.7,0.5,1s0.5,0.5,0.8,0.6s0.7,0.2,1.1,0.2c0.6,0,1.1-0.1,1.4-0.3c0.3-0.2,0.7-0.5,1-0.9l0.9,1.1
						c-0.2,0.3-0.4,0.5-0.7,0.8S32.4-87,32-86.8C31.6-86.6,31-86.8,30.4-86.8z"/>
					<path class="st28" d="M36.9-97.6l2.4,9l0.2,1.6h-1.1l-3.2-10.6H36.9z M38.8-88.6l2.3-8.9h1.7l-3.1,10.6h-1.1L38.8-88.6z"/>
					<path class="st28" d="M44.6-100.4c0-0.3,0.1-0.5,0.2-0.7c0.1-0.2,0.4-0.3,0.7-0.3s0.6,0.1,0.7,0.3c0.1,0.2,0.2,0.4,0.2,0.7
						c0,0.3-0.1,0.5-0.2,0.7c-0.1,0.2-0.4,0.3-0.7,0.3s-0.6-0.1-0.7-0.3C44.7-99.9,44.6-100.1,44.6-100.4z M46.4-97.6V-87h-1.7
						v-10.6H46.4z"/>
					<path class="st28" d="M52.8-88.3c0.3,0,0.7-0.1,0.9-0.2s0.5-0.4,0.7-0.7s0.3-0.7,0.3-1.2h1.6c0,0.7-0.2,1.3-0.5,1.9
						s-0.8,0.9-1.3,1.2s-1.1,0.4-1.8,0.4s-1.3-0.1-1.8-0.3s-0.9-0.5-1.2-1s-0.6-0.9-0.7-1.5c-0.1-0.6-0.2-1.2-0.2-2v-1.2
						c0-0.8,0.1-1.5,0.2-2.1c0.1-0.6,0.4-1.1,0.7-1.5s0.7-0.7,1.2-1s1.1-0.3,1.8-0.3s1.3,0.2,1.9,0.5c0.6,0.3,0.9,0.7,1.2,1.3
						s0.5,1.3,0.5,2.1h-1.5c0-0.5-0.1-1-0.3-1.3s-0.4-0.6-0.7-0.8s-0.6-0.3-1-0.3c-0.5,0-0.8,0.1-1.1,0.2s-0.5,0.4-0.7,0.7
						c-0.2,0.3-0.3,0.7-0.4,1.1c-0.1,0.4-0.1,0.9-0.1,1.4v1.2c0,0.5,0,1,0.1,1.4s0.2,0.8,0.4,1.1s0.4,0.5,0.7,0.7
						C52-88.3,52.4-88.3,52.8-88.3z"/>
					<path class="st28" d="M62.2-86.8c-0.6,0-1.2-0.1-1.7-0.3s-0.9-0.5-1.3-0.9s-0.6-0.9-0.8-1.5s-0.3-1.3-0.3-2.1v-1.2
						c0-0.9,0.1-1.7,0.3-2.4c0.2-0.7,0.5-1.2,0.9-1.6s0.8-0.7,1.3-0.9c0.5-0.2,1-0.3,1.4-0.3c0.7,0,1.2,0.1,1.7,0.3
						c0.5,0.2,0.8,0.5,1.1,1s0.5,0.9,0.6,1.6s0.2,1.3,0.2,2.1v1H59v-1.5h4.9l0,0c0-0.5-0.1-1-0.2-1.4s-0.3-0.7-0.6-1
						s-0.7-0.4-1.2-0.4c-0.3,0-0.6,0.1-0.9,0.2c-0.3,0.1-0.5,0.3-0.7,0.6s-0.3,0.6-0.4,1.1s-0.2,1-0.2,1.8v1.2
						c0,0.6,0.1,1.1,0.2,1.5c0.1,0.4,0.3,0.7,0.5,1s0.5,0.5,0.8,0.6s0.7,0.2,1.1,0.2c0.6,0,1.1-0.1,1.4-0.3c0.3-0.2,0.7-0.5,1-0.9
						l0.9,1.1c-0.2,0.3-0.4,0.5-0.7,0.8c-0.3,0.3-0.7,0.4-1.1,0.6C63.4-86.6,62.8-86.8,62.2-86.8z"/>
				</g>
			</g>
			<g>
				<g class="st23">
					<path class="st28" d="M-29-67.5h1.8c0,1-0.2,1.8-0.6,2.5s-0.9,1.2-1.5,1.6s-1.5,0.6-2.5,0.6c-0.7,0-1.4-0.1-1.9-0.4
						s-1.1-0.7-1.5-1.2c-0.4-0.5-0.7-1.2-0.9-1.9c-0.2-0.7-0.3-1.6-0.3-2.5v-2.6c0-0.9,0.1-1.7,0.3-2.5s0.5-1.4,0.9-1.9
						s0.9-0.9,1.5-1.2c0.6-0.3,1.3-0.4,2-0.4c0.9,0,1.7,0.2,2.3,0.6s1.1,0.9,1.5,1.6s0.5,1.6,0.6,2.6h-1.8c0-0.7-0.2-1.4-0.4-1.8
						s-0.5-0.8-0.8-1s-0.8-0.3-1.4-0.3c-0.5,0-1,0.1-1.4,0.3s-0.7,0.5-0.9,0.9s-0.4,0.9-0.5,1.4s-0.2,1.2-0.2,1.8v2.6
						c0,0.6,0.1,1.2,0.2,1.7s0.3,1,0.5,1.4s0.5,0.7,0.9,1s0.8,0.3,1.3,0.3c0.7,0,1.2-0.1,1.6-0.3c0.4-0.2,0.7-0.6,0.9-1
						C-29.1-66-29.1-66.8-29-67.5z"/>
					<path class="st28" d="M-25.4-67.8v-1c0-0.8,0.1-1.5,0.3-2.2c0.2-0.7,0.5-1.1,0.9-1.5s0.8-0.7,1.3-0.9s1-0.3,1.6-0.3
						s1.1,0.1,1.6,0.3s0.9,0.5,1.3,0.9s0.7,0.9,0.9,1.6s0.3,1.3,0.3,2.1v1c0,0.8-0.1,1.5-0.3,2.2c-0.2,0.7-0.5,1.1-0.9,1.6
						s-0.8,0.7-1.3,0.9s-1,0.3-1.6,0.3s-1.1-0.1-1.6-0.3s-0.9-0.5-1.3-0.9s-0.7-0.9-0.9-1.6S-25.4-67-25.4-67.8z M-23.7-68.8v1
						c0,0.6,0.1,1.1,0.2,1.5s0.3,0.8,0.5,1.1c0.2,0.3,0.5,0.6,0.8,0.7s0.6,0.2,0.9,0.2c0.4,0,0.7-0.1,1-0.2s0.5-0.4,0.7-0.7
						c0.2-0.3,0.3-0.7,0.4-1.1s0.1-0.9,0.1-1.5v-1c0-0.6-0.1-1.1-0.2-1.5s-0.3-0.8-0.5-1.1s-0.5-0.5-0.8-0.7s-0.6-0.2-0.9-0.2
						s-0.6,0.1-0.9,0.2s-0.5,0.4-0.7,0.7s-0.4,0.7-0.5,1.1S-23.7-69.4-23.7-68.8z"/>
					<path class="st28" d="M-13.3-71.5v8.5H-15v-10.6h1.6L-13.3-71.5z M-13.6-68.7h-0.8c0-0.7,0.1-1.4,0.2-2
						c0.1-0.6,0.4-1.2,0.7-1.6s0.7-0.8,1.1-1.1s1-0.4,1.6-0.4c0.4,0,0.8,0.1,1.1,0.2s0.7,0.4,0.9,0.7s0.5,0.7,0.6,1.2S-8-70.7-8-70
						v7h-1.7v-7c0-0.6-0.1-1-0.2-1.3c-0.1-0.3-0.4-0.6-0.6-0.7s-0.6-0.2-1-0.2s-0.8,0.1-1.1,0.3s-0.4,0.4-0.6,0.7
						c-0.2,0.3-0.3,0.7-0.4,1.1S-13.6-69.2-13.6-68.7z M-7.9-69.7l-1.2,0.4c0-0.6,0.1-1.1,0.2-1.7s0.4-1,0.7-1.4
						c0.3-0.4,0.7-0.7,1.1-1c0.4-0.2,1-0.4,1.5-0.4s0.9,0.1,1.3,0.2c0.4,0.1,0.7,0.4,0.9,0.7s0.5,0.7,0.6,1.2s0.2,1.1,0.2,1.7v6.9
						h-1.7v-7c0-0.6-0.1-1.1-0.2-1.4s-0.4-0.6-0.6-0.7s-0.6-0.2-1-0.2c-0.3,0-0.6,0.1-0.8,0.2c-0.2,0.1-0.4,0.5-0.5,0.7
						s-0.3,0.5-0.4,0.8C-7.9-70.4-7.9-70-7.9-69.7z"/>
					<path class="st28" d="M1.8-71.5v12.6H0.1v-14.7h1.6L1.8-71.5z M7.7-68.8v1c0,0.8-0.1,1.6-0.2,2.2C7.4-65,7.1-64.5,6.8-64
						s-0.7,0.7-1.1,0.9s-0.9,0.3-1.5,0.3s-1-0.1-1.4-0.3S2-63.6,1.8-64s-0.5-0.9-0.7-1.5s-0.3-1.2-0.3-1.9v-1.5
						c0.1-0.7,0.2-1.4,0.3-2s0.4-1.2,0.7-1.6s0.6-0.7,1-1s0.9-0.3,1.4-0.3c0.6,0,1.1,0.1,1.5,0.3c0.4,0.2,0.8,0.5,1.1,0.9
						c0.3,0.4,0.5,0.9,0.7,1.6C7.7-70.3,7.7-69.6,7.7-68.8z M6-67.8v-1c0-0.6,0-1.1-0.1-1.5s-0.3-0.8-0.5-1.1S5-71.9,4.7-72
						s-0.6-0.2-1-0.2S3-72.2,2.8-72s-0.5,0.3-0.7,0.6s-0.4,0.5-0.5,0.8s-0.2,0.6-0.3,1v3c0.2,0.3,0.3,0.7,0.5,1.1s0.4,0.7,0.7,0.9
						c0.3,0.2,0.7,0.3,1.2,0.3c0.4,0,0.7-0.1,1-0.2s0.5-0.4,0.7-0.6s0.4-0.7,0.4-1.1C5.8-66.6,6-67.2,6-67.8z"/>
					<path class="st28" d="M15.4-69.4v1.3h-1.2c-0.4,0-0.8,0-1.1,0.1s-0.6,0.2-0.9,0.4c-0.3,0.2-0.4,0.4-0.5,0.6s-0.2,0.5-0.2,0.9
						s0.1,0.8,0.2,1c0.1,0.2,0.3,0.4,0.5,0.5s0.5,0.2,0.9,0.2s0.8-0.1,1.2-0.3c0.4-0.2,0.6-0.4,0.8-0.7s0.3-0.6,0.3-0.8l0.4,0.8
						c0,0.3-0.1,0.5-0.2,0.8c-0.1,0.3-0.6,0.6-0.8,0.9s-0.5,0.5-0.9,0.7s-0.7,0.2-1.1,0.2c-0.6,0-1.1-0.1-1.6-0.4s-0.8-0.6-1.1-1
						s-0.4-1-0.4-1.7c0-0.5,0.1-1,0.3-1.4s0.4-0.8,0.8-1.1s0.8-0.6,1.3-0.7s1.1-0.3,1.8-0.3C13.9-69.4,15.4-69.4,15.4-69.4z
						 M15.1-64.8v-5.7c0-0.4-0.1-0.8-0.2-1c-0.1-0.2-0.3-0.4-0.6-0.6s-0.5-0.2-0.9-0.2s-0.7,0.1-0.9,0.2s-0.5,0.4-0.6,0.6
						s-0.2,0.5-0.2,0.8H9.9c0-0.4,0.1-0.8,0.2-1.1c0.1-0.3,0.4-0.7,0.7-1s0.7-0.5,1.1-0.7c0.4-0.2,0.9-0.3,1.5-0.3
						c0.7,0,1.2,0.1,1.7,0.3c0.5,0.2,0.9,0.6,1.2,1c0.3,0.4,0.5,1.2,0.5,2v5.2c0,0.4,0,0.7,0.1,1.1s0.1,0.7,0.2,1v0.2h-1.8
						c-0.1-0.2-0.1-0.5-0.2-0.8C15-64.1,15.1-64.5,15.1-64.8z"/>
					<path class="st28" d="M23.4-73.6v1.4h-4.9v-1.4H23.4z M20-76.1h1.8v10.5c0,0.4,0,0.6,0.1,0.8c0.1,0.2,0.2,0.3,0.3,0.4
						s0.3,0.1,0.4,0.1s0.2,0,0.4,0s0.3-0.2,0.4-0.2v1.5c-0.1,0-0.3,0.1-0.5,0.1s-0.4,0.1-0.7,0.1c-0.4,0-0.7-0.1-1-0.3
						s-0.7-0.4-0.9-0.9c-0.2-0.5-0.3-1-0.3-1.7C20-65.7,20-76.1,20-76.1z"/>
					<path class="st28" d="M25.5-76.4c0-0.3,0.1-0.5,0.2-0.7s0.4-0.3,0.7-0.3s0.6,0.1,0.7,0.3c0.1,0.2,0.2,0.4,0.2,0.7
						s-0.1,0.5-0.2,0.7s-0.4,0.3-0.7,0.3s-0.6-0.1-0.7-0.3C25.6-75.9,25.5-76.1,25.5-76.4z M27.3-73.6V-63h-1.7v-10.6H27.3z"/>
					<path class="st28" d="M30-78h1.7v12.9L31.6-63H30V-78z M37.7-68.8v1c0,0.8-0.1,1.6-0.2,2.2c-0.1,0.6-0.4,1.1-0.7,1.6
						s-0.7,0.7-1.1,0.9s-0.9,0.3-1.5,0.3c-0.5,0-1-0.1-1.4-0.3s-0.7-0.5-1-1s-0.5-0.9-0.6-1.5s-0.3-1.3-0.3-2v-1.3
						c0.1-0.7,0.2-1.4,0.3-2s0.3-1.2,0.6-1.6c0.3-0.4,0.6-0.7,1-1s0.9-0.3,1.4-0.3c0.6,0,1.1,0.1,1.5,0.3c0.4,0.2,0.8,0.5,1.1,0.9
						s0.5,0.9,0.7,1.6C37.7-70.3,37.7-69.6,37.7-68.8z M35.9-67.8v-1c0-0.6,0-1.1-0.1-1.5s-0.2-0.8-0.4-1.1s-0.3-0.5-0.6-0.6
						s-0.6-0.2-1-0.2s-0.7,0.1-0.9,0.2s-0.5,0.3-0.7,0.6c-0.2,0.3-0.4,0.5-0.5,0.8s-0.2,0.6-0.3,1v2.8c0.1,0.3,0.2,0.7,0.4,1.1
						s0.4,0.7,0.8,1s0.7,0.4,1.2,0.4c0.4,0,0.7-0.1,1-0.2s0.5-0.3,0.7-0.6c0.2-0.3,0.3-0.6,0.4-1.1S35.9-67.2,35.9-67.8z"/>
					<path class="st28" d="M39.9-76.4c0-0.3,0.1-0.5,0.2-0.7c0.1-0.2,0.4-0.3,0.7-0.3s0.6,0.1,0.7,0.3c0.1,0.2,0.2,0.4,0.2,0.7
						s-0.1,0.5-0.2,0.7c-0.1,0.2-0.4,0.3-0.7,0.3s-0.6-0.1-0.7-0.3C40-75.9,39.9-76.1,39.9-76.4z M41.7-73.6V-63H40v-10.6H41.7z"/>
					<path class="st28" d="M46.3-78v15h-1.7v-15H46.3z"/>
					<path class="st28" d="M49.1-76.4c0-0.3,0.1-0.5,0.2-0.7c0.1-0.2,0.4-0.3,0.7-0.3s0.6,0.1,0.7,0.3c0.1,0.2,0.2,0.4,0.2,0.7
						s-0.1,0.5-0.2,0.7c-0.1,0.2-0.4,0.3-0.7,0.3s-0.6-0.1-0.7-0.3C49.2-75.9,49.1-76.1,49.1-76.4z M50.9-73.6V-63h-1.7v-10.6H50.9z
						"/>
					<path class="st28" d="M57.5-73.6v1.4h-4.9v-1.4H57.5z M54.2-76.1h1.7v10.5c0,0.4,0,0.6,0.1,0.8c0.1,0.2,0.2,0.3,0.3,0.4
						s0.3,0.1,0.4,0.1c0.1,0,0.2,0,0.4,0s0.4-0.2,0.4-0.2v1.5c-0.1,0-0.3,0.1-0.5,0.1s-0.4,0.1-0.7,0.1c-0.4,0-0.7-0.1-1-0.3
						s-0.6-0.4-0.8-0.9c-0.2-0.5-0.3-1-0.3-1.7C54.2-65.7,54.2-76.1,54.2-76.1z"/>
					<path class="st28" d="M60.5-73.6l2.1,8.2l0.4,1.9l-1.2,0.7l-3.2-10.8H60.5z M62-64.1l2.4-9.5h1.8l-3.5,12.2
						c-0.1,0.3-0.2,0.5-0.3,0.8s-0.3,0.6-0.5,0.9s-0.5,0.5-0.8,0.7s-0.7,0.3-1.1,0.3c-0.1,0-0.3,0-0.5-0.1s-0.3-0.1-0.4-0.1v-1.5
						c0,0,0.1,0,0.2,0s0.1,0,0.2,0c0.3,0,0.6-0.1,0.9-0.2c0.3-0.1,0.4-0.3,0.6-0.5s0.3-0.6,0.4-1L62-64.1z"/>
				</g>
			</g>
		</g>
	</g>
</g>
<g id="g-root-tx_crossdev_v6492h1ccrq4n-stroke" transform="translate(120.669677734375, 482)">
</g>
<g id="g-root-tx_worksonp_407ah1ccrqww-stroke" transform="translate(38.46966552734375, 542)">
</g>
<g id="g-root-ic_inte_qtf17t1ccvxfl-fill" transform="translate(254, 167)">
</g>
<g id="g-root-ic_inte_qtf17t1ccvxfl-stroke" transform="translate(254, 167)">
	<g id="ic_inte_qtf17t1ccvxfl-stroke">
		<g>
			<path class="st2" d="M-35.9-91h15.2 M-34.7-115h38 M-15.7-103h-23 M-19-79.2c-11.8-1.7-20.3-12.1-19.7-24s10.2-21.3,22.1-21.8
				s22.2,8.2,23.7,20 M-17.1-125c-11.2,12.2-11.8,27.8-1.9,42.9 M-14.2-125c5.4,5.6,8.6,13,8.9,20.8 M6.3-83.3v1.3c0,1.7-1.3,3-3,3
				h-15c-1.7,0-3-1.3-3-3v-10c0-1.7,1.3-3,3-3h15c1.7,0,3,1.3,3,3v1.3 M2.9-95l-2.3-4.6c-0.4-0.7-1.2-1-2-0.7l-10.4,5.2 M2.3-87.5
				c0.3,0,0.5,0.2,0.5,0.5s-0.2,0.5-0.5,0.5S1.8-86.7,1.8-87S2.1-87.5,2.3-87.5 M7.3-85c0,1.1-0.9,2-2,2h-4c-2.2,0-4-1.8-4-4
				s1.8-4,4-4h4c1.1,0,2,0.9,2,2V-85z"/>
		</g>
	</g>
</g>
<g id="g-root-tx_benefits_dgpko91ccvwue-fill" transform="translate(166.52499389648438, 38)" class="st29">
	<g id="tx_benefits_dgpko91ccvwue-fill-merged" class="st30">
		<g>
			<text transform="matrix(1 0 0 1 -37.7129 -81.0519)" style="fill:#484848; font-family:'Helvetica-Bold'; font-size:25px;">Benefits of Delayed Auditory Feedback</text>
		</g>
	</g>
</g>
<g id="g-root-tx_benefits_dgpko91ccvwue-stroke" transform="translate(166.52499389648438, 38)">
</g>
<g id="g-root-ic_1_1lua7zd1ccrp4x-fill" transform="translate(470, 584)">
</g>
<g id="g-root-ic_1_1lua7zd1ccrp4x-stroke" transform="translate(470, 584)">
	<g id="ic_1_1lua7zd1ccrp4x-stroke">
		<g>
			<path class="st2" d="M-24.9-64.9v-10.9c-1.6-1.5-2.9-3.3-3.8-5.3 M-6.7-64.9v-5.2h2.6c1.4,0,2.7-0.5,3.7-1.5s1.5-2.3,1.5-3.7
				v-5.2h3.3c0.2,0,0.4,0,0.6-0.1s0.3-0.2,0.5-0.4c0.1-0.2,0.2-0.4,0.2-0.6s0-0.4-0.1-0.6c-3.9-10.2-6.5-19.4-15.7-21.3 M-25.7-86.5
				c6.2,0,11.3-5.1,11.3-11.3c0-6.2-5.1-11.3-11.3-11.3S-37-104-37-97.8C-37-91.6-32-86.5-25.7-86.5z M-17.5-90.1l6.8,6.7
				 M-28.9-101.2c0-1.6,1.3-3.1,3.1-3.1c1.6,0,3.1,1.3,3.1,3.1c0,1.6-1.3,3.1-3.1,3.1v1.4 M-25.7-92.1c-0.2,0-0.4,0.2-0.4,0.4
				c0,0.2,0.2,0.4,0.4,0.4 M-25.7-92.1c0.2,0,0.4,0.2,0.4,0.4c0,0.2-0.2,0.4-0.4,0.4"/>
		</g>
	</g>
</g>
<g id="g-root-tx_versatil_quo2jt1ccuk97-fill" transform="translate(530, 590)">
	<g id="tx_versatil_quo2jt1ccuk97-fill-merged">
		<g>
			<g>
				<g class="st23">
					<path class="st31" d="M-35.3-101.2l3.4,12.1l0.4,2.2h-1.4l-4.4-14.2L-35.3-101.2C-35.3-101.1-35.3-101.2-35.3-101.2z
						 M-32.2-89.2l3.4-12.1h2l-4.4,14.2h-1.4L-32.2-89.2z"/>
					<path class="st31" d="M-21.4-86.8c-0.6,0-1.2-0.1-1.7-0.3s-0.9-0.5-1.3-0.9s-0.6-0.9-0.8-1.5s-0.3-1.3-0.3-2.1v-1.2
						c0-0.9,0.1-1.7,0.3-2.4c0.2-0.7,0.5-1.2,0.9-1.6s0.8-0.7,1.3-0.9c0.5-0.2,1-0.3,1.4-0.3c0.7,0,1.2,0.1,1.7,0.3
						c0.5,0.2,0.8,0.5,1.1,1s0.5,0.9,0.6,1.6S-18-93.8-18-93v1h-6.6v-1.5h4.9l0,0c0-0.5-0.1-1-0.2-1.4s-0.3-0.7-0.6-1
						s-0.7-0.4-1.2-0.4c-0.3,0-0.6,0.1-0.9,0.2s-0.5,0.3-0.7,0.6s-0.3,0.6-0.4,1.1s-0.2,1-0.2,1.8v1.2c0,0.6,0.1,1.1,0.2,1.5
						s0.3,0.7,0.5,1s0.5,0.5,0.8,0.6s0.7,0.2,1.1,0.2c0.6,0,1.1-0.1,1.4-0.3c0.3-0.2,0.7-0.5,1-0.9l0.9,1.1
						c-0.2,0.3-0.4,0.5-0.7,0.8c-0.3,0.3-0.7,0.4-1.1,0.6C-20.2-86.6-20.8-86.8-21.4-86.8z"/>
					<path class="st31" d="M-14.1-95.9v8.9h-1.7v-10.6h1.7V-95.9z M-11.4-97.6v1.7c-0.1,0-0.3-0.1-0.4-0.1s-0.2,0-0.4,0
						c-0.3,0-0.6,0.1-0.9,0.2c-0.3,0.1-0.5,0.3-0.6,0.5s-0.3,0.5-0.4,0.8s-0.2,0.7-0.2,1.1l-0.4,0.3c0-0.6,0.1-1.2,0.2-1.8
						s0.3-1.1,0.5-1.5s0.5-0.8,0.8-1s0.7-0.4,1.2-0.4c0.1,0,0.2,0,0.4,0S-11.5-97.7-11.4-97.6z"/>
					<path class="st31" d="M-4.6-89.7c0-0.3-0.1-0.5-0.2-0.7s-0.3-0.4-0.6-0.6c-0.3-0.2-0.7-0.4-1.2-0.6s-0.9-0.4-1.3-0.6
						c-0.4-0.2-0.7-0.4-1-0.6s-0.5-0.5-0.6-0.8s-0.2-0.7-0.2-1.1s0.1-0.8,0.2-1.2c0.1-0.4,0.4-0.7,0.7-1s0.6-0.5,1.1-0.6
						s0.9-0.2,1.4-0.2c0.7,0,1.3,0.1,1.8,0.4s0.9,0.7,1.2,1.1s0.4,1,0.4,1.6h-1.7c0-0.3-0.1-0.6-0.2-0.8s-0.3-0.5-0.6-0.6
						s-0.6-0.2-0.9-0.2c-0.4,0-0.7,0.1-0.9,0.2s-0.4,0.3-0.5,0.5s-0.2,0.5-0.2,0.7s0,0.4,0.1,0.5s0.2,0.3,0.3,0.4
						c0.1,0.1,0.3,0.2,0.6,0.4s0.5,0.3,0.9,0.4c0.7,0.3,1.3,0.6,1.8,0.8c0.5,0.2,0.9,0.6,1.1,1s0.4,0.9,0.4,1.4s-0.1,0.9-0.2,1.3
						c-0.1,0.4-0.4,0.7-0.7,1s-0.7,0.5-1.1,0.6s-0.9,0.2-1.4,0.2c-0.8,0-1.5-0.2-2-0.5s-1-0.7-1.2-1.2s-0.4-1.1-0.4-1.6H-8
						c0,0.5,0.1,0.9,0.3,1.2s0.5,0.5,0.7,0.6s0.6,0.2,0.9,0.2c0.4,0,0.7-0.1,1-0.2s0.5-0.3,0.6-0.5C-4.4-89-4.6-89.4-4.6-89.7z"/>
					<path class="st31" d="M4.9-93.4v1.3H3.7c-0.4,0-0.8,0-1.1,0.1S2-91.8,1.7-91.6c-0.3,0.2-0.4,0.4-0.6,0.6s-0.2,0.5-0.2,0.9
						s0.1,0.8,0.2,1s0.3,0.4,0.5,0.5s0.5,0.2,0.9,0.2s0.8-0.1,1.2-0.3c0.4-0.2,0.6-0.4,0.8-0.7c0.2-0.3,0.3-0.6,0.3-0.8l0.4,0.8
						c0,0.3-0.1,0.5-0.2,0.8S4.7-88,4.4-87.8s-0.6,0.6-1,0.7C3-87,2.7-86.8,2.3-86.8c-0.6,0-1.1-0.1-1.6-0.4s-0.8-0.6-1.1-1
						s-0.4-1-0.4-1.7c0-0.5,0.1-1,0.3-1.4s0.4-0.8,0.8-1.1s0.8-0.6,1.3-0.7s1.1-0.3,1.8-0.3C3.4-93.4,4.9-93.4,4.9-93.4z M4.6-88.8
						v-5.7c0-0.4-0.1-0.8-0.2-1S4.1-96,3.8-96.1s-0.6-0.2-0.9-0.2c-0.4,0-0.7,0.1-0.9,0.2s-0.5,0.4-0.6,0.6S1.2-95,1.2-94.7h-1.7
						c0-0.4,0.1-0.8,0.2-1.1s0.4-0.7,0.7-1s0.7-0.5,1.1-0.7s0.9-0.3,1.5-0.3c0.7,0,1.2,0.1,1.7,0.3c0.5,0.2,0.9,0.6,1.2,1
						s0.4,1.1,0.4,1.9v5.2c0,0.4,0,0.7,0.1,1.1s0.1,0.7,0.2,1v0.2H4.9c-0.1-0.1-0.2-0.4-0.2-0.7C4.7-88.1,4.6-88.5,4.6-88.8z"/>
					<path class="st31" d="M12.9-97.6v1.4h-5v-1.4H12.9z M9.5-100.1h1.7v10.5c0,0.4,0,0.6,0.1,0.8c0.1,0.2,0.2,0.3,0.3,0.4
						s0.3,0.1,0.4,0.1c0.1,0,0.2,0,0.4,0s0.4-0.2,0.5-0.2v1.5c-0.1,0-0.3,0.1-0.5,0.1s-0.4,0.1-0.7,0.1c-0.4,0-0.7-0.1-1-0.3
						S10-87.5,9.8-88s-0.3-1-0.3-1.7V-100.1z"/>
					<path class="st31" d="M15-100.4c0-0.3,0.1-0.5,0.2-0.7c0.1-0.2,0.4-0.3,0.7-0.3c0.3,0,0.6,0.1,0.7,0.3c0.1,0.2,0.2,0.4,0.2,0.7
						c0,0.3-0.1,0.5-0.2,0.7s-0.4,0.3-0.7,0.3s-0.6-0.1-0.7-0.3C15.1-99.9,15-100.1,15-100.4z M16.8-97.6V-87h-1.7v-10.6H16.8z"/>
					<path class="st31" d="M21.4-102v15h-1.7v-15H21.4z"/>
					<path class="st31" d="M27.9-86.8c-0.6,0-1.2-0.1-1.7-0.3s-0.9-0.5-1.3-0.9s-0.6-0.9-0.8-1.5s-0.3-1.2-0.3-2v-1.2
						c0-0.9,0.1-1.7,0.3-2.4c0.2-0.7,0.5-1.2,0.9-1.6s0.8-0.7,1.3-0.9c0.5-0.2,1-0.3,1.4-0.3c0.7,0,1.2,0.1,1.7,0.3
						c0.5,0.2,0.8,0.5,1.1,1s0.5,0.9,0.6,1.6s0.2,1.3,0.2,2.1v1h-6.5v-1.5h4.9v-0.1c0-0.5-0.1-1-0.2-1.4s-0.3-0.7-0.6-1
						s-0.7-0.4-1.2-0.4c-0.3,0-0.6,0.1-0.9,0.2s-0.5,0.3-0.7,0.6s-0.3,0.6-0.4,1s-0.2,1-0.2,1.8v1.2c0,0.6,0.1,1.1,0.2,1.5
						s0.3,0.7,0.5,1s0.5,0.5,0.8,0.6s0.7,0.2,1.1,0.2c0.6,0,1.1-0.1,1.4-0.3s0.7-0.5,1-0.9l0.9,1.1c-0.2,0.3-0.4,0.5-0.7,0.8
						s-0.7,0.4-1.1,0.6C29.2-86.7,28.5-86.8,27.9-86.8z"/>
					<path class="st31" d="M42.8-92.6h-3.1v-1.5h3.1c0.6,0,1.1-0.1,1.4-0.4c0.3-0.3,0.6-0.6,0.8-1s0.2-0.9,0.2-1.4s-0.1-0.9-0.2-1.4
						c-0.1-0.5-0.4-0.8-0.8-1c-0.4-0.2-0.8-0.4-1.4-0.4h-2.7V-87h-1.8v-14.2h4.5c0.9,0,1.7,0.2,2.3,0.6s1.1,0.9,1.4,1.5
						s0.5,1.4,0.5,2.2c0,0.9-0.2,1.7-0.5,2.3c-0.3,0.6-0.8,1.1-1.4,1.5C44.5-92.7,43.8-92.6,42.8-92.6z"/>
					<path class="st31" d="M50.9-95.9v8.9h-1.7v-10.6h1.6L50.9-95.9z M53.5-97.6v1.7c-0.1,0-0.3-0.1-0.4-0.1c-0.1,0-0.2,0-0.4,0
						c-0.3,0-0.6,0.1-0.9,0.2c-0.3,0.1-0.5,0.3-0.6,0.5s-0.3,0.5-0.4,0.8c-0.1,0.3-0.2,0.7-0.2,1.1l-0.4,0.3c0-0.6,0.1-1.2,0.2-1.8
						c0.1-0.6,0.3-1.1,0.5-1.5s0.5-0.8,0.8-1s0.7-0.4,1.2-0.4c0.1,0,0.2,0,0.4,0C53.5-97.8,53.5-97.7,53.5-97.6z"/>
					<path class="st31" d="M60.7-93.4v1.3h-1.2c-0.4,0-0.8,0-1.1,0.1s-0.6,0.2-0.9,0.4c-0.3,0.2-0.4,0.4-0.6,0.6
						c-0.2,0.2-0.1,0.6-0.1,0.9c0,0.4,0.1,0.8,0.2,1c0.1,0.2,0.3,0.4,0.5,0.5s0.5,0.2,0.9,0.2s0.8-0.1,1.2-0.3
						c0.4-0.2,0.6-0.4,0.8-0.7c0.2-0.3,0.3-0.6,0.3-0.8l0.4,0.8c0,0.3-0.1,0.5-0.2,0.8c-0.1,0.3-0.3,0.6-0.6,0.8
						c-0.3,0.2-0.5,0.5-0.9,0.7s-0.7,0.3-1.1,0.3c-0.6,0-1.1-0.1-1.6-0.4s-0.8-0.6-1.1-1s-0.4-1-0.4-1.7c0-0.5,0.1-1,0.3-1.4
						s0.4-0.8,0.8-1.1c0.4-0.3,0.8-0.6,1.3-0.7s1.1-0.3,1.8-0.3C59.4-93.4,60.7-93.4,60.7-93.4z M60.4-88.8v-5.7
						c0-0.4-0.1-0.8-0.2-1c-0.1-0.2-0.3-0.4-0.6-0.6s-0.6-0.2-0.9-0.2c-0.4,0-0.7,0.1-0.9,0.2s-0.5,0.3-0.6,0.6
						C57.1-95.2,57-95,57-94.7h-1.7c0-0.4,0.1-0.8,0.2-1.1c0.1-0.3,0.4-0.7,0.7-1s0.7-0.5,1.1-0.7c0.4-0.2,0.9-0.3,1.5-0.3
						c0.7,0,1.2,0.1,1.7,0.3c0.5,0.2,0.9,0.6,1.2,1s0.4,1.1,0.4,1.9v5.2c0,0.4,0,0.7,0.1,1.1s0.1,0.7,0.2,1v0.2h-1.8
						c-0.1-0.2-0.2-0.5-0.2-0.8C60.4-88.2,60.4-88.5,60.4-88.8z"/>
					<path class="st31" d="M68.5-88.3c0.3,0,0.7-0.1,0.9-0.2s0.5-0.4,0.7-0.7s0.3-0.7,0.3-1.2H72c0,0.7-0.2,1.3-0.5,1.9
						s-0.7,1-1.3,1.2c-0.6,0.2-1.1,0.4-1.8,0.4c-0.7,0-1.3-0.1-1.8-0.3c-0.5-0.2-0.9-0.5-1.2-1s-0.6-0.9-0.7-1.5s-0.2-1.3-0.2-2.1
						V-93c0-0.8,0.1-1.5,0.2-2.1s0.4-1.1,0.7-1.5c0.3-0.4,0.7-0.7,1.2-1s1.1-0.3,1.8-0.3c0.7,0,1.3,0.2,1.9,0.5s0.9,0.7,1.2,1.3
						S72-94.8,72-94h-1.6c0-0.5-0.1-1-0.3-1.3c-0.2-0.3-0.4-0.6-0.7-0.8s-0.6-0.3-1-0.3c-0.5,0-0.8,0.1-1.1,0.2s-0.5,0.4-0.7,0.7
						c-0.2,0.3-0.3,0.7-0.4,1.1s-0.1,0.9-0.1,1.4v1.2c0,0.5,0,1,0.1,1.4s0.2,0.8,0.4,1.1s0.4,0.5,0.7,0.7
						C67.6-88.4,68-88.3,68.5-88.3z"/>
					<path class="st31" d="M77.9-97.6v1.4H73v-1.4H77.9z M74.6-100.1h1.7v10.5c0,0.4,0,0.6,0.1,0.8c0.1,0.2,0.2,0.3,0.3,0.4
						s0.3,0.1,0.4,0.1s0.2,0,0.4,0s0.2-0.1,0.3-0.1v1.5c-0.1,0-0.3,0.1-0.5,0.1s-0.4,0.1-0.7,0.1c-0.4,0-0.7-0.1-1-0.3
						s-0.6-0.5-0.8-0.9c-0.2-0.4-0.3-1-0.3-1.7L74.6-100.1L74.6-100.1z"/>
					<path class="st31" d="M80-100.4c0-0.3,0.1-0.5,0.2-0.7s0.4-0.3,0.7-0.3s0.6,0.1,0.7,0.3c0.1,0.2,0.2,0.4,0.2,0.7
						c0,0.3-0.1,0.5-0.2,0.7s-0.4,0.3-0.7,0.3s-0.6-0.1-0.7-0.3C80.1-99.9,80-100.1,80-100.4z M81.8-97.6V-87h-1.7v-10.6H81.8z"/>
					<path class="st31" d="M88.2-88.3c0.3,0,0.7-0.1,0.9-0.2s0.5-0.4,0.7-0.7s0.3-0.7,0.3-1.2h1.7c0,0.7-0.2,1.3-0.5,1.9
						s-0.8,0.9-1.3,1.2s-1.1,0.4-1.8,0.4c-0.7,0-1.3-0.1-1.8-0.3s-0.9-0.5-1.2-1s-0.6-0.9-0.7-1.5s-0.2-1.3-0.2-2.1V-93
						c0-0.8,0.1-1.5,0.2-2.1s0.4-1.1,0.7-1.5c0.3-0.4,0.7-0.7,1.2-1s1.1-0.3,1.8-0.3c0.7,0,1.3,0.2,1.9,0.5s0.9,0.7,1.2,1.3
						s0.5,1.3,0.5,2.1h-1.6c0-0.5-0.1-1-0.3-1.3s-0.4-0.6-0.7-0.8c-0.3-0.2-0.6-0.3-1-0.3c-0.5,0-0.8,0.1-1.1,0.2
						c-0.3,0.1-0.5,0.4-0.7,0.7s-0.3,0.7-0.4,1.1s-0.1,0.9-0.1,1.4v1.2c0,0.5,0,1,0.1,1.4s0.2,0.8,0.4,1.1c0.2,0.3,0.4,0.5,0.7,0.7
						S87.8-88.3,88.2-88.3z"/>
					<path class="st31" d="M97.6-86.8c-0.6,0-1.2-0.1-1.7-0.3S95-87.6,94.6-88s-0.6-0.9-0.8-1.5s-0.3-1.3-0.3-2.1v-1.2
						c0-0.9,0.1-1.7,0.3-2.4c0.2-0.7,0.5-1.2,0.9-1.6s0.8-0.7,1.3-0.9c0.5-0.2,1-0.3,1.4-0.3c0.7,0,1.2,0.1,1.7,0.3
						c0.5,0.2,0.8,0.5,1.1,1s0.5,0.9,0.6,1.6s0.2,1.3,0.2,2.1v1h-6.6v-1.5h4.9l0,0c0-0.5-0.1-1-0.2-1.4s-0.3-0.7-0.6-1
						s-0.7-0.4-1.2-0.4c-0.3,0-0.6,0.1-0.9,0.2s-0.5,0.3-0.7,0.6s-0.3,0.6-0.4,1.1s-0.2,1-0.2,1.8v1.2c0,0.6,0.1,1.1,0.2,1.5
						s0.3,0.7,0.5,1s0.5,0.5,0.8,0.6s0.7,0.2,1.1,0.2c0.6,0,1.1-0.1,1.4-0.3c0.3-0.2,0.7-0.5,1-0.9l0.9,1.1
						c-0.2,0.3-0.4,0.5-0.7,0.8c-0.3,0.3-0.7,0.4-1.1,0.6C98.8-86.6,98.2-86.8,97.6-86.8z"/>
				</g>
			</g>
		</g>
	</g>
</g>
<g id="g-root-tx_versatil_quo2jt1ccuk97-stroke" transform="translate(530, 590)">
</g>
<g id="g-root-tx_usefulfo_940j551ccujgk-stroke" transform="translate(530, 626)">
</g>
</svg>
