<?xml version="1.0" encoding="utf-8"?>
<!-- Generator: Adobe Illustrator 26.3.1, SVG Export Plug-In . SVG Version: 6.00 Build 0)  -->
<svg version="1.1" id="Layer_1" xmlns="http://www.w3.org/2000/svg" xmlns:xlink="http://www.w3.org/1999/xlink" x="0px" y="0px"
	 viewBox="0 0 667.1 600" style="enable-background:new 0 0 667.1 600;" xml:space="preserve">
<style type="text/css">
	.st0{fill-rule:evenodd;clip-rule:evenodd;fill:url(#SVGID_1_);}
	.st1{fill-rule:evenodd;clip-rule:evenodd;fill:url(#SVGID_00000116914901434072805960000013912533960090739390_);}
	.st2{fill:none;stroke:#F4F4F4;stroke-width:2;stroke-linecap:round;stroke-linejoin:round;}
	.st3{fill-rule:evenodd;clip-rule:evenodd;fill:url(#SVGID_00000018927012105088425890000009838940494258197432_);}
	.st4{fill-rule:evenodd;clip-rule:evenodd;fill:url(#SVGID_00000054978605263252582480000002532187010336619398_);}
	.st5{fill-rule:evenodd;clip-rule:evenodd;fill:url(#SVGID_00000002382591293993926570000011349915040812001971_);}
	.st6{fill-rule:evenodd;clip-rule:evenodd;fill:url(#SVGID_00000116225107777561566060000002082386301980742069_);}
	.st7{fill-rule:evenodd;clip-rule:evenodd;fill:url(#SVGID_00000042709399975097145740000017743897612171759550_);}
	.st8{fill-rule:evenodd;clip-rule:evenodd;fill:url(#SVGID_00000005977138256245482160000010058924729865790858_);}
	.st9{fill-rule:evenodd;clip-rule:evenodd;fill:url(#SVGID_00000041987012391864556220000004938874473029082794_);}
	.st10{fill-rule:evenodd;clip-rule:evenodd;fill:url(#SVGID_00000047782742505690138670000015434116422509444742_);}
	.st11{fill-rule:evenodd;clip-rule:evenodd;fill:url(#SVGID_00000103232926474343617200000010956652784910546572_);}
	.st12{fill-rule:evenodd;clip-rule:evenodd;fill:url(#SVGID_00000083783115694693403720000012449449134133785734_);}
	.st13{fill-rule:evenodd;clip-rule:evenodd;fill:url(#SVGID_00000030476374205849302690000015077536172155055757_);}
	.st14{fill-rule:evenodd;clip-rule:evenodd;fill:url(#SVGID_00000150077735620270671890000013674996074276384422_);}
	.st15{fill-rule:evenodd;clip-rule:evenodd;fill:url(#SVGID_00000024716327219798654510000007671629005176810663_);}
	.st16{fill-rule:evenodd;clip-rule:evenodd;fill:url(#SVGID_00000080187787909186814730000004319871211367404223_);}
	.st17{fill-rule:evenodd;clip-rule:evenodd;fill:url(#SVGID_00000145743887955039999750000017580706482541613475_);}
	.st18{fill-rule:evenodd;clip-rule:evenodd;fill:url(#SVGID_00000005968852838888260310000013067016110514826898_);}
	.st19{fill-rule:evenodd;clip-rule:evenodd;fill:url(#SVGID_00000111175858638701292580000003018163965804618660_);}
	.st20{fill-rule:evenodd;clip-rule:evenodd;fill:url(#SVGID_00000091705753570147406790000003130502904833495450_);}
	.st21{fill-rule:evenodd;clip-rule:evenodd;fill:url(#SVGID_00000045587353146718793660000015469724700902492567_);}
	.st22{fill-rule:evenodd;clip-rule:evenodd;fill:url(#SVGID_00000109747751892545128690000007095176018156517270_);}
	.st23{enable-background:new    ;}
	.st24{fill:#A6DA37;}
	.st25{fill:#43DD93;}
	.st26{fill:#FFE711;}
	.st27{fill:#F79438;}
	.st28{fill:#1AC3FB;}
	.st29{fill:#FB6762;}
	.st30{display:none;}
	.st31{display:inline;}
</style>
<g id="g-root-cp_1_text-1_1lrs8h51ccvymh-fill" transform="translate(330, 116)">
	<g id="cp_1_text-1_1lrs8h51ccvymh-fill-merged">
		<g>
			
				<linearGradient id="SVGID_1_" gradientUnits="userSpaceOnUse" x1="-1131.0764" y1="-117.9048" x2="-1131.0764" y2="-116.9048" gradientTransform="matrix(112 0 0 42 126701.0625 4900)">
				<stop  offset="0" style="stop-color:#1FA9D7"/>
				<stop  offset="1" style="stop-color:#3187A3"/>
			</linearGradient>
			<path class="st0" d="M48.5-40l28-12v30l-28,12h-56l-28-12v-30l28,12H48.5"/>
		</g>
	</g>
	<g id="cp_1_text-1_1lrs8h51ccvymh-fill-merged_00000083050790572062013290000011291905811474594975_">
		<g>
			
				<linearGradient id="SVGID_00000170276588719637935850000009409036527822229171_" gradientUnits="userSpaceOnUse" x1="-1131.0763" y1="-117.7" x2="-1131.0763" y2="-116.7" gradientTransform="matrix(112.0004 0 0 40 126701.4922 4596)">
				<stop  offset="0" style="stop-color:#1FA9D7"/>
				<stop  offset="1" style="stop-color:#3187A3"/>
			</linearGradient>
			<path style="fill-rule:evenodd;clip-rule:evenodd;fill:url(#SVGID_00000170276588719637935850000009409036527822229171_);" d="
				M-7.5-72h56l28-12c0,0,0.5-28-56-28s-56,28-56,28L-7.5-72"/>
		</g>
	</g>
</g>
<g id="g-root-cp_1_text-1_1lrs8h51ccvymh-stroke" transform="translate(330, 116)">
	<g id="cp_1_text-1_1lrs8h51ccvymh-stroke">
		<g>
			<path class="st2" d="M-35.5-22l28,12v-12 M76.5-22l-28,12v-12 M-7.5-40l-28-12v12 M-7.5-40v18 M48.5-40v18 M-35.5-22v-18
				 M76.5-22v-18 M-7.5-40h56 M48.5-10h-56 M48.5-40l28-12v12"/>
		</g>
	</g>
	<g id="cp_1_text-1_1lrs8h51ccvymh-stroke_00000178165430368989188490000005975182280450244780_">
		<g>
			<path class="st2" d="M-7.5-72h56l28-12c0,0,0.5-28-56-28s-56,28-56,28L-7.5-72z"/>
		</g>
	</g>
</g>
<g id="g-root-cp_0_g-0_1414p2h1ccvxtu-fill" transform="translate(330, 144)">
	<g id="cp_0_g-0_1414p2h1ccvxtu-fill-merged">
		<g>
			
				<linearGradient id="SVGID_00000025418148188067622000000009391475206027851174_" gradientUnits="userSpaceOnUse" x1="-1131.0764" y1="-115.8571" x2="-1131.0764" y2="-114.8571" gradientTransform="matrix(112 0 0 28 126701.0625 3132)">
				<stop  offset="0" style="stop-color:#959595"/>
				<stop  offset="1" style="stop-color:#7F7F7F"/>
			</linearGradient>
			<path style="fill-rule:evenodd;clip-rule:evenodd;fill:url(#SVGID_00000025418148188067622000000009391475206027851174_);" d="
				M-35.5-96l28,12h56l28-12v-16l-28,12h-56l-28-12V-96"/>
		</g>
	</g>
	<g id="cp_0_g-0_1414p2h1ccvxtu-fill-merged_00000047770885292480108150000016689880618130735494_">
		<g>
			
				<linearGradient id="SVGID_00000150093763694625079130000008580161618824454818_" gradientUnits="userSpaceOnUse" x1="-1131.0764" y1="-113.4" x2="-1131.0764" y2="-112.4" gradientTransform="matrix(112 0 0 20 126701.0625 2172)">
				<stop  offset="0" style="stop-color:#959595"/>
				<stop  offset="1" style="stop-color:#7F7F7F"/>
			</linearGradient>
			<path style="fill-rule:evenodd;clip-rule:evenodd;fill:url(#SVGID_00000150093763694625079130000008580161618824454818_);" d="
				M-35.5-96l28,12h56l28-12v8l-28,12h-56l-28-12V-96"/>
		</g>
	</g>
	<g id="cp_0_g-0_1414p2h1ccvxtu-fill-merged_00000096750495837901853560000009392162555851113376_">
		<g>
			
				<linearGradient id="SVGID_00000178188083194731028440000012955486480393777058_" gradientUnits="userSpaceOnUse" x1="-1131.0764" y1="-113.4" x2="-1131.0764" y2="-112.4" gradientTransform="matrix(112 0 0 20 126701.0625 2180)">
				<stop  offset="0" style="stop-color:#959595"/>
				<stop  offset="1" style="stop-color:#7F7F7F"/>
			</linearGradient>
			<path style="fill-rule:evenodd;clip-rule:evenodd;fill:url(#SVGID_00000178188083194731028440000012955486480393777058_);" d="
				M-35.5-88l28,12h56l28-12v8l-28,12h-56l-28-12V-88"/>
		</g>
	</g>
</g>
<g id="g-root-cp_0_g-0_1414p2h1ccvxtu-stroke" transform="translate(330, 144)">
	<g id="cp_0_g-0_1414p2h1ccvxtu-stroke">
		<g>
			<path class="st2" d="M-35.5-96l28,12h56l28-12v-16l-28,12h-56l-28-12V-96z"/>
		</g>
	</g>
	<g id="cp_0_g-0_1414p2h1ccvxtu-stroke_00000160162992224823620920000010807232839838958737_">
		<g>
			<path class="st2" d="M-35.5-96l28,12h56l28-12v8l-28,12h-56l-28-12V-96z"/>
		</g>
	</g>
	<g id="cp_0_g-0_1414p2h1ccvxtu-stroke_00000093143753706970457500000007839010462572054155_">
		<g>
			<path class="st2" d="M-35.5-88l28,12h56l28-12v8l-28,12h-56l-28-12V-88z"/>
		</g>
	</g>
</g>
<g id="g-root-cp_2_text-2_qqans91ccvw8z-fill" transform="translate(330, 242)">
	<g id="cp_2_text-2_qqans91ccvw8z-fill-merged">
		<g>
			
				<linearGradient id="SVGID_00000051361960487013602940000016059798888826980744_" gradientUnits="userSpaceOnUse" x1="-1131.0764" y1="-119.1333" x2="-1131.0764" y2="-118.1333" gradientTransform="matrix(112 0 0 60 126701.0625 7036)">
				<stop  offset="0" style="stop-color:#3BC482"/>
				<stop  offset="1" style="stop-color:#449870"/>
			</linearGradient>
			<path style="fill-rule:evenodd;clip-rule:evenodd;fill:url(#SVGID_00000051361960487013602940000016059798888826980744_);" d="
				M48.5-100l28-12v48l-28,12h-56l-28-12v-48l28,12H48.5"/>
		</g>
	</g>
</g>
<g id="g-root-cp_2_text-2_qqans91ccvw8z-stroke" transform="translate(330, 242)">
	<g id="cp_2_text-2_qqans91ccvw8z-stroke">
		<g>
			<path class="st2" d="M76.5-64v-36 M48.5-100l28-12v12 M48.5-100v36 M76.5-64l-28,12v-12 M-35.5-64l28,12v-12 M-7.5-100l-28-12v12
				 M-7.5-100v36 M48.5-52h-56 M-7.5-100h56 M-35.5-64v-36"/>
		</g>
	</g>
</g>
<g id="g-root-cp_0_g-0_1_hunnjd1ccvx1o-fill" transform="translate(330, 230)">
	<g id="cp_0_g-0_1_hunnjd1ccvx1o-fill-merged">
		<g>
			
				<linearGradient id="SVGID_00000103958509965458500750000015294498254523202444_" gradientUnits="userSpaceOnUse" x1="-1131.0764" y1="-114.8333" x2="-1131.0764" y2="-113.8333" gradientTransform="matrix(112 0 0 24 126701.0625 2644)">
				<stop  offset="0" style="stop-color:#959595"/>
				<stop  offset="1" style="stop-color:#7F7F7F"/>
			</linearGradient>
			<path style="fill-rule:evenodd;clip-rule:evenodd;fill:url(#SVGID_00000103958509965458500750000015294498254523202444_);" d="
				M48.5-112h-56l-28,12l28,12h56l28-12L48.5-112 M20.5-95.2c-11,0-20-2.1-20-4.8s9-4.8,20-4.8s20,2.1,20,4.8S31.6-95.2,20.5-95.2"
				/>
		</g>
	</g>
	<g id="cp_0_g-0_1_hunnjd1ccvx1o-fill-merged_00000021818448689685095730000015447785785435197581_">
		<g>
			
				<linearGradient id="SVGID_00000096742531013379330010000011681440907716888971_" gradientUnits="userSpaceOnUse" x1="-1134.8698" y1="-104.0833" x2="-1134.8698" y2="-103.0833" gradientTransform="matrix(40 0 0 9.6 45415.2891 894.1997)">
				<stop  offset="0" style="stop-color:#959595"/>
				<stop  offset="1" style="stop-color:#7F7F7F"/>
			</linearGradient>
			<path style="fill-rule:evenodd;clip-rule:evenodd;fill:url(#SVGID_00000096742531013379330010000011681440907716888971_);" d="
				M40.5-100.2c0,2.7-9,4.8-20,4.8s-20-2.1-20-4.8c0-2.7,9-4.8,20-4.8S40.5-102.9,40.5-100.2"/>
		</g>
	</g>
</g>
<g id="g-root-cp_0_g-0_1_hunnjd1ccvx1o-stroke" transform="translate(330, 230)">
	<g id="cp_0_g-0_1_hunnjd1ccvx1o-stroke">
		<g>
			<path class="st2" d="M48.5-112h-56l-28,12l28,12h56l28-12L48.5-112z M20.5-95.2c-11,0-20-2.1-20-4.8s9-4.8,20-4.8s20,2.1,20,4.8
				S31.6-95.2,20.5-95.2z"/>
		</g>
	</g>
	<g id="cp_0_g-0_1_hunnjd1ccvx1o-stroke_00000001659096453462823400000005663337258123027361_">
		<g>
			<path class="st2" d="M40.5-100.2c0,2.7-9,4.8-20,4.8s-20-2.1-20-4.8c0-2.7,9-4.8,20-4.8S40.5-102.9,40.5-100.2z"/>
		</g>
	</g>
</g>
<g id="g-root-cp_3_text-3_deu5ex1ccvxtx-fill" transform="translate(330, 326)">
	<g id="cp_3_text-3_deu5ex1ccvxtx-fill-merged">
		<g>
			
				<linearGradient id="SVGID_00000170247769528869375720000008439364542725087655_" gradientUnits="userSpaceOnUse" x1="-1131.0764" y1="-117.9048" x2="-1131.0764" y2="-116.9048" gradientTransform="matrix(112 0 0 42 126701.0625 4840)">
				<stop  offset="0" style="stop-color:#91BB39"/>
				<stop  offset="1" style="stop-color:#7D9844"/>
			</linearGradient>
			<path style="fill-rule:evenodd;clip-rule:evenodd;fill:url(#SVGID_00000170247769528869375720000008439364542725087655_);" d="
				M48.5-100l28-12v30l-28,12h-56l-28-12v-30l28,12H48.5"/>
		</g>
	</g>
</g>
<g id="g-root-cp_3_text-3_deu5ex1ccvxtx-stroke" transform="translate(330, 326)">
	<g id="cp_3_text-3_deu5ex1ccvxtx-stroke">
		<g>
			<path class="st2" d="M76.5-82v-18 M48.5-100l28-12v12 M48.5-100v18 M76.5-82l-28,12v-12 M-35.5-82l28,12v-12 M-7.5-100l-28-12v12
				 M-7.5-100v18 M48.5-70h-56 M-7.5-100h56 M-35.5-82v-18"/>
		</g>
	</g>
</g>
<g id="g-root-cp_0_g-0_2_4j75611ccvymm-fill" transform="translate(330, 314)">
	<g id="cp_0_g-0_2_4j75611ccvymm-fill-merged">
		<g>
			
				<linearGradient id="SVGID_00000020391382581548049170000000560162597684007589_" gradientUnits="userSpaceOnUse" x1="-1131.0764" y1="-114.8333" x2="-1131.0764" y2="-113.8333" gradientTransform="matrix(112 0 0 24 126701.0625 2644)">
				<stop  offset="0" style="stop-color:#959595"/>
				<stop  offset="1" style="stop-color:#7F7F7F"/>
			</linearGradient>
			<path style="fill-rule:evenodd;clip-rule:evenodd;fill:url(#SVGID_00000020391382581548049170000000560162597684007589_);" d="
				M48.5-112h-56l-28,12l28,12h56l28-12L48.5-112 M20.5-95.2c-11,0-20-2.1-20-4.8s9-4.8,20-4.8s20,2.1,20,4.8S31.6-95.2,20.5-95.2"
				/>
		</g>
	</g>
	<g id="cp_0_g-0_2_4j75611ccvymm-fill-merged_00000163060514632991387780000011880244833343028631_">
		<g>
			
				<linearGradient id="SVGID_00000116919264611171049180000001265439456531566766_" gradientUnits="userSpaceOnUse" x1="-1134.8698" y1="-104.0833" x2="-1134.8698" y2="-103.0833" gradientTransform="matrix(40 0 0 9.6 45415.2891 894.1998)">
				<stop  offset="0" style="stop-color:#959595"/>
				<stop  offset="1" style="stop-color:#7F7F7F"/>
			</linearGradient>
			<path style="fill-rule:evenodd;clip-rule:evenodd;fill:url(#SVGID_00000116919264611171049180000001265439456531566766_);" d="
				M40.5-100.2c0,2.7-9,4.8-20,4.8s-20-2.1-20-4.8c0-2.7,9-4.8,20-4.8S40.5-102.9,40.5-100.2"/>
		</g>
	</g>
</g>
<g id="g-root-cp_0_g-0_2_4j75611ccvymm-stroke" transform="translate(330, 314)">
	<g id="cp_0_g-0_2_4j75611ccvymm-stroke">
		<g>
			<path class="st2" d="M48.5-112h-56l-28,12l28,12h56l28-12L48.5-112z M20.5-95.2c-11,0-20-2.1-20-4.8s9-4.8,20-4.8s20,2.1,20,4.8
				S31.6-95.2,20.5-95.2z"/>
		</g>
	</g>
	<g id="cp_0_g-0_2_4j75611ccvymm-stroke_00000060009960515929213810000002778741592924109193_">
		<g>
			<path class="st2" d="M40.5-100.2c0,2.7-9,4.8-20,4.8s-20-2.1-20-4.8c0-2.7,9-4.8,20-4.8S40.5-102.9,40.5-100.2z"/>
		</g>
	</g>
</g>
<g id="g-root-cp_4_text-4_4044p1ccvw93-fill" transform="translate(330, 392)">
	<g id="cp_4_text-4_4044p1ccvw93-fill-merged">
		<g>
			
				<linearGradient id="SVGID_00000034793964926792037270000015228715047407807884_" gradientUnits="userSpaceOnUse" x1="-1131.0764" y1="-119.1333" x2="-1131.0764" y2="-118.1333" gradientTransform="matrix(112 0 0 60 126701.0625 7036)">
				<stop  offset="0" style="stop-color:#EFD80D"/>
				<stop  offset="1" style="stop-color:#B8A926"/>
			</linearGradient>
			<path style="fill-rule:evenodd;clip-rule:evenodd;fill:url(#SVGID_00000034793964926792037270000015228715047407807884_);" d="
				M48.5-100l28-12v48l-28,12h-56l-28-12v-48l28,12H48.5"/>
		</g>
	</g>
</g>
<g id="g-root-cp_4_text-4_4044p1ccvw93-stroke" transform="translate(330, 392)">
	<g id="cp_4_text-4_4044p1ccvw93-stroke">
		<g>
			<path class="st2" d="M76.5-64v-36 M48.5-100l28-12v12 M48.5-100v36 M76.5-64l-28,12v-12 M-35.5-64l28,12v-12 M-7.5-100l-28-12v12
				 M-7.5-100v36 M48.5-52h-56 M-7.5-100h56 M-35.5-64v-36"/>
		</g>
	</g>
</g>
<g id="g-root-cp_0_g-0_3_1ltnnqh1ccvxmw-fill" transform="translate(330, 380)">
	<g id="cp_0_g-0_3_1ltnnqh1ccvxmw-fill-merged">
		<g>
			
				<linearGradient id="SVGID_00000120517888490097896280000000437583922969935494_" gradientUnits="userSpaceOnUse" x1="-1131.0764" y1="-114.8333" x2="-1131.0764" y2="-113.8333" gradientTransform="matrix(112 0 0 24 126701.0625 2644)">
				<stop  offset="0" style="stop-color:#959595"/>
				<stop  offset="1" style="stop-color:#7F7F7F"/>
			</linearGradient>
			<path style="fill-rule:evenodd;clip-rule:evenodd;fill:url(#SVGID_00000120517888490097896280000000437583922969935494_);" d="
				M48.5-112h-56l-28,12l28,12h56l28-12L48.5-112 M20.5-95.2c-11,0-20-2.1-20-4.8s9-4.8,20-4.8s20,2.1,20,4.8S31.6-95.2,20.5-95.2"
				/>
		</g>
	</g>
	<g id="cp_0_g-0_3_1ltnnqh1ccvxmw-fill-merged_00000116228440021890652310000003004405976119676852_">
		<g>
			
				<linearGradient id="SVGID_00000093149026556355086210000014885572631581671569_" gradientUnits="userSpaceOnUse" x1="-1134.8698" y1="-104.0833" x2="-1134.8698" y2="-103.0833" gradientTransform="matrix(40 0 0 9.6 45415.2891 894.2)">
				<stop  offset="0" style="stop-color:#959595"/>
				<stop  offset="1" style="stop-color:#7F7F7F"/>
			</linearGradient>
			<path style="fill-rule:evenodd;clip-rule:evenodd;fill:url(#SVGID_00000093149026556355086210000014885572631581671569_);" d="
				M40.5-100.2c0,2.7-9,4.8-20,4.8s-20-2.1-20-4.8c0-2.7,9-4.8,20-4.8S40.5-102.9,40.5-100.2"/>
		</g>
	</g>
</g>
<g id="g-root-cp_0_g-0_3_1ltnnqh1ccvxmw-stroke" transform="translate(330, 380)">
	<g id="cp_0_g-0_3_1ltnnqh1ccvxmw-stroke">
		<g>
			<path class="st2" d="M48.5-112h-56l-28,12l28,12h56l28-12L48.5-112z M20.5-95.2c-11,0-20-2.1-20-4.8s9-4.8,20-4.8s20,2.1,20,4.8
				S31.6-95.2,20.5-95.2z"/>
		</g>
	</g>
	<g id="cp_0_g-0_3_1ltnnqh1ccvxmw-stroke_00000098193893532719075180000005854490914294001539_">
		<g>
			<path class="st2" d="M40.5-100.2c0,2.7-9,4.8-20,4.8s-20-2.1-20-4.8c0-2.7,9-4.8,20-4.8S40.5-102.9,40.5-100.2z"/>
		</g>
	</g>
</g>
<g id="g-root-cp_5_text-5_1hdu5m11ccvyf5-fill" transform="translate(330, 476)">
	<g id="cp_5_text-5_1hdu5m11ccvyf5-fill-merged">
		<g>
			
				<linearGradient id="SVGID_00000175323026286118513500000003234365575973292975_" gradientUnits="userSpaceOnUse" x1="-1131.0764" y1="-119.9524" x2="-1131.0764" y2="-118.9524" gradientTransform="matrix(112 0 0 84 126701.0625 9964)">
				<stop  offset="0" style="stop-color:#DE8431"/>
				<stop  offset="1" style="stop-color:#B27338"/>
			</linearGradient>
			<path style="fill-rule:evenodd;clip-rule:evenodd;fill:url(#SVGID_00000175323026286118513500000003234365575973292975_);" d="
				M48.5-100l28-12v72l-28,12h-56l-28-12v-72l28,12H48.5"/>
		</g>
	</g>
</g>
<g id="g-root-cp_5_text-5_1hdu5m11ccvyf5-stroke" transform="translate(330, 476)">
	<g id="cp_5_text-5_1hdu5m11ccvyf5-stroke">
		<g>
			<path class="st2" d="M76.5-40v-60 M48.5-100l28-12v12 M48.5-100v60 M76.5-40l-28,12v-12 M-35.5-40l28,12v-12 M-7.5-100l-28-12v12
				 M-7.5-100v60 M48.5-28h-56 M-7.5-100h56 M-35.5-40v-60"/>
		</g>
	</g>
</g>
<g id="g-root-cp_0_g-0_4_18itmg91ccvw22-fill" transform="translate(330, 464)">
	<g id="cp_0_g-0_4_18itmg91ccvw22-fill-merged">
		<g>
			
				<linearGradient id="SVGID_00000093138191573707537680000017136079058962260623_" gradientUnits="userSpaceOnUse" x1="-1131.0764" y1="-114.8333" x2="-1131.0764" y2="-113.8333" gradientTransform="matrix(112 0 0 24 126701.0625 2644)">
				<stop  offset="0" style="stop-color:#959595"/>
				<stop  offset="1" style="stop-color:#7F7F7F"/>
			</linearGradient>
			<path style="fill-rule:evenodd;clip-rule:evenodd;fill:url(#SVGID_00000093138191573707537680000017136079058962260623_);" d="
				M48.5-112h-56l-28,12l28,12h56l28-12L48.5-112 M20.5-95.2c-11,0-20-2.1-20-4.8s9-4.8,20-4.8s20,2.1,20,4.8S31.6-95.2,20.5-95.2"
				/>
		</g>
	</g>
	<g id="cp_0_g-0_4_18itmg91ccvw22-fill-merged_00000113313765337904363180000007635097408312569236_">
		<g>
			
				<linearGradient id="SVGID_00000135692635556064193280000017562744629289560749_" gradientUnits="userSpaceOnUse" x1="-1134.8698" y1="-104.0833" x2="-1134.8698" y2="-103.0833" gradientTransform="matrix(40 0 0 9.6 45415.2891 894.2001)">
				<stop  offset="0" style="stop-color:#959595"/>
				<stop  offset="1" style="stop-color:#7F7F7F"/>
			</linearGradient>
			<path style="fill-rule:evenodd;clip-rule:evenodd;fill:url(#SVGID_00000135692635556064193280000017562744629289560749_);" d="
				M40.5-100.2c0,2.7-9,4.8-20,4.8s-20-2.1-20-4.8c0-2.7,9-4.8,20-4.8S40.5-102.9,40.5-100.2"/>
		</g>
	</g>
</g>
<g id="g-root-cp_0_g-0_4_18itmg91ccvw22-stroke" transform="translate(330, 464)">
	<g id="cp_0_g-0_4_18itmg91ccvw22-stroke">
		<g>
			<path class="st2" d="M48.5-112h-56l-28,12l28,12h56l28-12L48.5-112z M20.5-95.2c-11,0-20-2.1-20-4.8s9-4.8,20-4.8s20,2.1,20,4.8
				S31.6-95.2,20.5-95.2z"/>
		</g>
	</g>
	<g id="cp_0_g-0_4_18itmg91ccvw22-stroke_00000137096146276526217520000014680175661657592983_">
		<g>
			<path class="st2" d="M40.5-100.2c0,2.7-9,4.8-20,4.8s-20-2.1-20-4.8c0-2.7,9-4.8,20-4.8S40.5-102.9,40.5-100.2z"/>
		</g>
	</g>
</g>
<g id="g-root-cp_6_text-6_v7d42x1ccvxmz-fill" transform="translate(330, 584)">
	<g id="cp_6_text-6_v7d42x1ccvxmz-fill-merged">
		<g>
			
				<linearGradient id="SVGID_00000000905391731298195250000010881368533922196154_" gradientUnits="userSpaceOnUse" x1="-1131.0764" y1="-119.1333" x2="-1131.0764" y2="-118.1333" gradientTransform="matrix(112 0 0 60 126701.0625 7036)">
				<stop  offset="0" style="stop-color:#E45752"/>
				<stop  offset="1" style="stop-color:#C54A46"/>
			</linearGradient>
			<path style="fill-rule:evenodd;clip-rule:evenodd;fill:url(#SVGID_00000000905391731298195250000010881368533922196154_);" d="
				M48.5-100l28-12v48l-28,12h-56l-28-12v-48l28,12H48.5"/>
		</g>
	</g>
</g>
<g id="g-root-cp_6_text-6_v7d42x1ccvxmz-stroke" transform="translate(330, 584)">
	<g id="cp_6_text-6_v7d42x1ccvxmz-stroke">
		<g>
			<path class="st2" d="M76.5-64v-36 M48.5-100l28-12v12 M48.5-100v36 M76.5-64l-28,12v-12 M-35.5-64l28,12v-12 M-7.5-100l-28-12v12
				 M-7.5-100v36 M48.5-52h-56 M-7.5-100h56 M-35.5-64v-36"/>
		</g>
	</g>
</g>
<g id="g-root-cp_0_g-0_5_qrjlyh1ccvyf8-fill" transform="translate(330, 572)">
	<g id="cp_0_g-0_5_qrjlyh1ccvyf8-fill-merged">
		<g>
			
				<linearGradient id="SVGID_00000029768792363109263970000003856334966591070899_" gradientUnits="userSpaceOnUse" x1="-1131.0764" y1="-114.8333" x2="-1131.0764" y2="-113.8333" gradientTransform="matrix(112 0 0 24 126701.0625 2644)">
				<stop  offset="0" style="stop-color:#959595"/>
				<stop  offset="1" style="stop-color:#7F7F7F"/>
			</linearGradient>
			<path style="fill-rule:evenodd;clip-rule:evenodd;fill:url(#SVGID_00000029768792363109263970000003856334966591070899_);" d="
				M48.5-112h-56l-28,12l28,12h56l28-12L48.5-112 M20.5-95.2c-11,0-20-2.1-20-4.8s9-4.8,20-4.8s20,2.1,20,4.8S31.6-95.2,20.5-95.2"
				/>
		</g>
	</g>
	<g id="cp_0_g-0_5_qrjlyh1ccvyf8-fill-merged_00000097500559337533108290000014279259123501643451_">
		<g>
			
				<linearGradient id="SVGID_00000054983228955600379470000018312734401711953303_" gradientUnits="userSpaceOnUse" x1="-1134.8698" y1="-104.0833" x2="-1134.8698" y2="-103.0833" gradientTransform="matrix(40 0 0 9.6 45415.2891 894.2001)">
				<stop  offset="0" style="stop-color:#959595"/>
				<stop  offset="1" style="stop-color:#7F7F7F"/>
			</linearGradient>
			<path style="fill-rule:evenodd;clip-rule:evenodd;fill:url(#SVGID_00000054983228955600379470000018312734401711953303_);" d="
				M40.5-100.2c0,2.7-9,4.8-20,4.8s-20-2.1-20-4.8c0-2.7,9-4.8,20-4.8S40.5-102.9,40.5-100.2"/>
		</g>
	</g>
</g>
<g id="g-root-cp_0_g-0_5_qrjlyh1ccvyf8-stroke" transform="translate(330, 572)">
	<g id="cp_0_g-0_5_qrjlyh1ccvyf8-stroke">
		<g>
			<path class="st2" d="M48.5-112h-56l-28,12l28,12h56l28-12L48.5-112z M20.5-95.2c-11,0-20-2.1-20-4.8s9-4.8,20-4.8s20,2.1,20,4.8
				S31.6-95.2,20.5-95.2z"/>
		</g>
	</g>
	<g id="cp_0_g-0_5_qrjlyh1ccvyf8-stroke_00000172400644153242596410000003769579613926191550_">
		<g>
			<path class="st2" d="M40.5-100.2c0,2.7-9,4.8-20,4.8s-20-2.1-20-4.8c0-2.7,9-4.8,20-4.8S40.5-102.9,40.5-100.2z"/>
		</g>
	</g>
</g>
<g id="g-root-cp_0_g-0_6_qrjlyh1ccvyf9-fill" transform="translate(330, 632)">
	<g id="cp_0_g-0_6_qrjlyh1ccvyf9-fill-merged">
		<g>
			
				<linearGradient id="SVGID_00000183237952683116668320000004587874895930928317_" gradientUnits="userSpaceOnUse" x1="-1131.0764" y1="-119.3117" x2="-1131.0764" y2="-118.3113" gradientTransform="matrix(112 0 0 63.98 126701.0625 7521.5596)">
				<stop  offset="0" style="stop-color:#959595"/>
				<stop  offset="1" style="stop-color:#7F7F7F"/>
			</linearGradient>
			<path style="fill-rule:evenodd;clip-rule:evenodd;fill:url(#SVGID_00000183237952683116668320000004587874895930928317_);" d="
				M9.3-51.2l5.6,3.2l1.6-4.8l4,4l4-4l1.6,4.8l5.6-3.2L76.5-112l-28,12h-56l-28-12L9.3-51.2"/>
		</g>
	</g>
	<g id="cp_0_g-0_6_qrjlyh1ccvyf9-fill-merged_00000047751482544320956330000005533311688149008037_">
		<g>
			
				<linearGradient id="SVGID_00000005947128441671344160000016046922094526418109_" gradientUnits="userSpaceOnUse" x1="-1139.4883" y1="-111.774" x2="-1139.4883" y2="-110.774" gradientTransform="matrix(22.44 0 0 16.82 25590.6172 1827.2391)">
				<stop  offset="0" style="stop-color:#959595"/>
				<stop  offset="1" style="stop-color:#7F7F7F"/>
			</linearGradient>
			<path style="fill-rule:evenodd;clip-rule:evenodd;fill:url(#SVGID_00000005947128441671344160000016046922094526418109_);" d="
				M9.3-51.2l5.6,3.2l1.6-4.8l4,4l4-4l1.6,4.8l5.6-3.2L20.5-36L9.3-51.2"/>
		</g>
	</g>
</g>
<g id="g-root-cp_0_g-0_6_qrjlyh1ccvyf9-stroke" transform="translate(330, 632)">
	<g id="cp_0_g-0_6_qrjlyh1ccvyf9-stroke">
		<g>
			<path class="st2" d="M9.3-51.2l5.6,3.2l1.6-4.8l4,4l4-4l1.6,4.8l5.6-3.2L76.5-112l-28,12h-56l-28-12L9.3-51.2z"/>
		</g>
	</g>
	<g id="cp_0_g-0_6_qrjlyh1ccvyf9-stroke_00000101082691030060812580000012975719288806782634_">
		<g>
			<path class="st2" d="M9.3-51.2l5.6,3.2l1.6-4.8l4,4l4-4l1.6,4.8l5.6-3.2L20.5-36L9.3-51.2z"/>
		</g>
	</g>
</g>
<g id="g-root-ic_lock_1q887op1cd4c96-fill" transform="translate(254, 317)">
</g>
<g id="g-root-ic_lock_1q887op1cd4c96-stroke" transform="translate(254, 317)">
	<g id="ic_lock_1q887op1cd4c96-stroke">
		<g>
			<path class="st2" d="M-14.5-65h-18c-1.1,0-2-0.9-2-2v-42c0-1.1,0.9-2,2-2h26.6c0.5,0,1,0.2,1.4,0.6l7.4,7.4
				c0.4,0.4,0.6,0.9,0.6,1.4v6.6 M-16.5-84c0,1.9-2.2,3.4-5,3.4s-5-1.5-5-3.4s2.2-3.4,5-3.4S-16.5-85.9-16.5-84z M-16.5-84.4v-13.2
				c0-0.7,0.4-1.4,1-1.7s1.4-0.4,2,0l4,2.3 M-4.5-81h14c0,0,2,0,2,2v12c0,0,0,2-2,2h-14c0,0-2,0-2-2v-12C-6.5-79-6.5-81-4.5-81
				 M0-72.9c0,1.4,1.1,2.5,2.5,2.5S5-71.5,5-72.9s-1.1-2.5-2.5-2.5S0-74.3,0-72.9 M7.5-84c0-2.8-2.2-5-5-5s-5,2.2-5,5v3h10V-84z"/>
		</g>
	</g>
</g>
<g id="g-root-tx_privacyf_1d1542x1cckq31-fill" transform="translate(92.46966552734375, 332)">
	<g id="tx_privacyf_1d1542x1cckq31-fill-merged">
		<g>
			<g>
				<g class="st23">
					<path class="st24" d="M-27.4-93.6h-3.1v-1.5h3.1c0.6,0,1.1-0.1,1.4-0.4s0.6-0.6,0.8-1s0.2-0.9,0.2-1.4s-0.1-0.9-0.2-1.4
						s-0.4-0.8-0.8-1s-0.8-0.4-1.4-0.4h-2.7V-88h-1.8v-14.2h4.5c0.9,0,1.7,0.2,2.3,0.6s1.1,0.9,1.4,1.5s0.5,1.4,0.5,2.2
						c0,0.9-0.2,1.7-0.5,2.3s-0.8,1.1-1.4,1.5S-26.5-93.6-27.4-93.6z"/>
					<path class="st24" d="M-19.4-96.9v8.9h-1.7v-10.6h1.7V-96.9z M-16.8-98.6v1.7c-0.1,0-0.3-0.1-0.4-0.1s-0.2,0-0.4,0
						c-0.3,0-0.6,0.1-0.9,0.2s-0.5,0.3-0.6,0.5s-0.3,0.5-0.4,0.8s-0.2,0.7-0.2,1.1l-0.4,0.3c0-0.6,0.1-1.2,0.2-1.8s0.3-1.1,0.5-1.5
						s0.5-0.8,0.8-1s0.7-0.4,1.2-0.4c0.1,0,0.2,0,0.4,0S-16.8-98.7-16.8-98.6z"/>
					<path class="st24" d="M-15-101.4c0-0.3,0.1-0.5,0.2-0.7c0.1-0.2,0.4-0.3,0.7-0.3s0.6,0.1,0.7,0.3c0.1,0.2,0.2,0.4,0.2,0.7
						c0,0.3-0.1,0.5-0.2,0.7c-0.1,0.2-0.4,0.3-0.7,0.3s-0.6-0.1-0.7-0.3S-15-101.1-15-101.4z M-13.2-98.6V-88h-1.7v-10.6H-13.2z"/>
					<path class="st24" d="M-9.5-98.6l2.4,9l0.2,1.6H-8l-3.2-10.6H-9.5z M-7.7-89.6l2.3-8.9h1.8L-6.8-88h-1.1L-7.7-89.6z"/>
					<path class="st24" d="M3.6-94.4v1.3H2.4c-0.4,0-0.8,0-1.1,0.1s-0.6,0.2-0.9,0.4C0.1-92.4,0-92.2-0.2-92s-0.2,0.5-0.2,0.9
						s0.1,0.8,0.2,1s0.3,0.4,0.5,0.5s0.5,0.2,0.9,0.2s0.8-0.1,1.2-0.3s0.6-0.4,0.8-0.7c0.2-0.3,0.3-0.6,0.3-0.8l0.4,0.8
						c0,0.3-0.1,0.5-0.2,0.8S3.4-89,3.1-88.8s-0.5,0.5-0.9,0.7s-0.7,0.3-1.1,0.3c-0.6,0-1.1-0.1-1.6-0.4s-0.8-0.6-1.1-1
						s-0.4-1-0.4-1.7c0-0.5,0.1-1,0.3-1.4s0.4-0.8,0.8-1.1s0.8-0.6,1.3-0.7s1.1-0.3,1.8-0.3C2.2-94.4,3.6-94.4,3.6-94.4z M3.3-89.8
						v-5.7c0-0.4-0.1-0.8-0.2-1S2.8-97,2.5-97.1s-0.6-0.2-0.9-0.2c-0.4,0-0.7,0.1-0.9,0.2s-0.5,0.3-0.6,0.6s-0.2,0.5-0.2,0.8h-1.7
						c0-0.4,0.1-0.8,0.2-1.1s0.4-0.7,0.7-1s0.7-0.5,1.1-0.7s0.9-0.3,1.5-0.3c0.7,0,1.2,0.1,1.7,0.3s0.9,0.6,1.2,1
						C4.9-97.1,5-96.4,5-95.6v5.2c0,0.4,0,0.7,0.1,1.1s0.1,0.7,0.2,1v0.3H3.5c-0.1-0.2-0.1-0.5-0.2-0.8C3.2-89.1,3.3-89.5,3.3-89.8z
						"/>
					<path class="st24" d="M11.4-89.3c0.3,0,0.7-0.1,0.9-0.2s0.5-0.4,0.7-0.7c0.2-0.3,0.3-0.7,0.3-1.2h1.6c0,0.7-0.2,1.3-0.5,1.9
						s-0.8,0.9-1.3,1.2c-0.5,0.3-1.1,0.4-1.8,0.4S10-88,9.5-88.2s-0.9-0.5-1.2-1c-0.3-0.5-0.6-0.9-0.7-1.5S7.4-92,7.4-92.8V-94
						c0-0.8,0.1-1.5,0.2-2.1s0.4-1.1,0.7-1.5c0.3-0.4,0.7-0.7,1.2-1s1.1-0.3,1.8-0.3s1.3,0.2,1.9,0.5c0.6,0.3,0.9,0.7,1.2,1.3
						s0.5,1.3,0.5,2.1h-1.6c0-0.5-0.1-1-0.3-1.3s-0.4-0.6-0.7-0.8c-0.3-0.2-0.6-0.3-1-0.3c-0.5,0-0.8,0.1-1.1,0.2s-0.5,0.4-0.7,0.7
						c-0.2,0.3-0.3,0.7-0.4,1.1S9-94.5,9-94v1.2c0,0.5,0,1,0.1,1.4s0.2,0.8,0.4,1.1c0.2,0.3,0.4,0.5,0.7,0.7
						C10.5-89.4,10.9-89.3,11.4-89.3z"/>
					<path class="st24" d="M17.9-98.6l2.1,8.2l0.4,1.9l-1.2,0.7L16-98.6H17.9z M19.4-89.1l2.4-9.5h1.8l-3.5,12.2
						c-0.1,0.3-0.2,0.5-0.3,0.8s-0.3,0.6-0.5,0.9s-0.5,0.5-0.8,0.7s-0.7,0.3-1.1,0.3c-0.1,0-0.3,0-0.5-0.1s-0.3-0.1-0.4-0.1v-1.5
						c0,0,0.1,0,0.2,0s0.1,0,0.2,0c0.3,0,0.6-0.1,0.9-0.2s0.4-0.3,0.6-0.5s0.3-0.6,0.4-1L19.4-89.1z"/>
					<path class="st24" d="M31.9-102.2V-88h-1.8v-14.2H31.9z M37.5-102.2v1.5h-5.9v-1.5H37.5z M36.7-95.8v1.5h-5.1v-1.5H36.7z"/>
					<path class="st24" d="M39.1-92.8v-1c0-0.8,0.1-1.5,0.3-2.2s0.5-1.1,0.9-1.6s0.8-0.7,1.3-0.9s1-0.3,1.6-0.3s1.1,0.1,1.6,0.3
						s0.9,0.5,1.3,0.9s0.7,0.9,0.9,1.6s0.3,1.3,0.3,2.2v1c0,0.8-0.1,1.5-0.3,2.2s-0.5,1.1-0.9,1.6s-0.8,0.7-1.3,0.9s-1,0.3-1.6,0.3
						s-1.1-0.1-1.6-0.3s-0.9-0.5-1.3-0.9s-0.7-0.9-0.9-1.6C39.2-91.3,39.1-92,39.1-92.8z M40.8-93.8v1c0,0.6,0.1,1.1,0.2,1.5
						c0.1,0.4,0.3,0.8,0.5,1.1s0.5,0.5,0.8,0.7s0.6,0.2,0.9,0.2c0.4,0,0.7-0.1,1-0.2s0.5-0.4,0.7-0.7c0.2-0.3,0.3-0.7,0.4-1.1
						c0.1-0.4,0.1-0.9,0.1-1.5v-1c0-0.6-0.1-1.1-0.2-1.5c-0.1-0.4-0.3-0.8-0.5-1.1s-0.5-0.5-0.8-0.7s-0.6-0.2-0.9-0.2
						s-0.6,0.1-0.9,0.2c-0.3,0.1-0.5,0.4-0.7,0.7s-0.4,0.7-0.5,1.1S40.8-94.4,40.8-93.8z"/>
					<path class="st24" d="M53.2-89.3c0.3,0,0.7-0.1,0.9-0.2s0.5-0.4,0.7-0.7c0.2-0.3,0.3-0.7,0.3-1.2h1.6c0,0.7-0.2,1.3-0.5,1.9
						s-0.8,0.9-1.3,1.2c-0.5,0.3-1.1,0.4-1.8,0.4s-1.3-0.1-1.8-0.3s-0.9-0.5-1.2-1s-0.6-0.9-0.7-1.5s-0.2-1.3-0.2-2.1V-94
						c0-0.8,0.1-1.5,0.2-2.1s0.4-1.1,0.7-1.5s0.7-0.7,1.2-1s1.1-0.3,1.8-0.3s1.3,0.2,1.9,0.5c0.6,0.3,0.9,0.7,1.2,1.3
						s0.5,1.3,0.5,2.1h-1.6c0-0.5-0.1-1-0.3-1.3s-0.4-0.6-0.7-0.8c-0.3-0.2-0.6-0.3-1-0.3c-0.5,0-0.8,0.1-1.1,0.2s-0.5,0.4-0.7,0.7
						c-0.2,0.3-0.3,0.7-0.4,1.1s-0.1,0.9-0.1,1.4v1.2c0,0.5,0,1,0.1,1.4s0.2,0.8,0.4,1.1c0.2,0.3,0.4,0.5,0.7,0.7
						C52.3-89.4,52.7-89.3,53.2-89.3z"/>
					<path class="st24" d="M64.4-92.7h0.7c0,0.7-0.1,1.4-0.2,1.9s-0.3,1.1-0.6,1.5s-0.6,0.8-1.1,1s-1,0.4-1.6,0.4
						c-0.4,0-0.8-0.1-1.2-0.2s-0.7-0.4-0.9-0.7S59-89.5,58.9-90s-0.2-1.1-0.2-1.8v-6.8h1.7v6.8c0,0.5,0,0.9,0.1,1.2
						c0.1,0.3,0.2,0.6,0.3,0.7s0.3,0.3,0.5,0.4s0.4,0.1,0.5,0.1c0.6,0,1.1-0.1,1.5-0.4s0.6-0.7,0.8-1.2C64.3-91.5,64.4-92,64.4-92.7
						z M64.1-90.4v-8.1h1.7V-88h-1.6L64.1-90.4z"/>
					<path class="st24" d="M73.6-90.7c0-0.3-0.1-0.5-0.2-0.7s-0.3-0.4-0.6-0.6c-0.3-0.2-0.7-0.4-1.2-0.6s-0.9-0.4-1.3-0.6
						s-0.7-0.4-1-0.6s-0.5-0.5-0.6-0.8s-0.2-0.7-0.2-1.1s0.1-0.8,0.2-1.2s0.4-0.7,0.7-1c0.3-0.3,0.6-0.5,1.1-0.6s0.9-0.2,1.4-0.2
						c0.7,0,1.3,0.1,1.8,0.4s0.9,0.7,1.2,1.1s0.4,1,0.4,1.6h-1.8c0-0.3-0.1-0.6-0.2-0.8c-0.1-0.2-0.3-0.5-0.6-0.6
						c-0.3-0.1-0.6-0.2-0.9-0.2c-0.4,0-0.7,0.1-0.9,0.2c-0.2,0.1-0.4,0.3-0.5,0.5s-0.2,0.5-0.2,0.7s0,0.4,0.1,0.5s0.2,0.3,0.3,0.4
						s0.3,0.2,0.6,0.4c0.3,0.2,0.5,0.3,0.9,0.4c0.7,0.3,1.3,0.6,1.8,0.8s0.9,0.6,1.1,1s0.4,0.9,0.4,1.4s-0.1,0.9-0.2,1.3
						s-0.4,0.7-0.7,1s-0.7,0.5-1.1,0.6s-0.9,0.2-1.4,0.2c-0.8,0-1.5-0.2-2-0.5s-1-0.7-1.2-1.2s-0.4-1.1-0.4-1.6h1.7
						c0,0.5,0.1,0.9,0.3,1.2s0.5,0.5,0.7,0.6s0.6,0.2,0.9,0.2c0.4,0,0.7-0.1,1-0.2s0.5-0.3,0.6-0.5S73.6-90.4,73.6-90.7z"/>
					<path class="st24" d="M81.3-87.8c-0.6,0-1.2-0.1-1.7-0.3s-0.9-0.5-1.3-0.9s-0.6-0.9-0.8-1.5s-0.3-1.3-0.3-2.1v-1.2
						c0-0.9,0.1-1.7,0.3-2.4c0.2-0.7,0.5-1.2,0.9-1.6s0.8-0.7,1.3-0.9c0.5-0.2,1-0.3,1.4-0.3c0.7,0,1.2,0.1,1.7,0.3
						c0.5,0.2,0.8,0.5,1.1,1s0.5,0.9,0.6,1.6s0.2,1.3,0.2,2.1v1h-6.6v-1.5H83v-0.2c0-0.5-0.1-1-0.2-1.4s-0.3-0.7-0.6-1
						c-0.3-0.3-0.7-0.4-1.2-0.4c-0.3,0-0.6,0.1-0.9,0.2s-0.5,0.3-0.7,0.6s-0.3,0.6-0.4,1.1s-0.2,1-0.2,1.8v1.2
						c0,0.6,0.1,1.1,0.2,1.5s0.3,0.7,0.5,1s0.5,0.5,0.8,0.6s0.7,0.2,1.1,0.2c0.6,0,1.1-0.1,1.4-0.3s0.7-0.5,1-0.9l0.9,1.1
						c-0.2,0.3-0.4,0.5-0.7,0.8s-0.7,0.4-1.1,0.6S81.9-87.8,81.3-87.8z"/>
					<path class="st24" d="M86.6-92.8v-1c0-0.9,0.1-1.6,0.3-2.3s0.4-1.1,0.7-1.6s0.7-0.7,1.1-0.9s0.9-0.3,1.4-0.3s1,0.1,1.4,0.3
						s0.7,0.5,1,1s0.5,0.9,0.6,1.5s0.3,1.3,0.3,2v1.3c-0.1,0.7-0.2,1.4-0.3,2c-0.1,0.6-0.4,1.1-0.6,1.5s-0.6,0.7-1,1
						S90.6-88,90.1-88s-1-0.1-1.4-0.3c-0.4-0.2-0.8-0.5-1.1-0.9c-0.3-0.4-0.6-0.9-0.7-1.6S86.6-91.9,86.6-92.8z M88.3-93.8v1
						c0,0.6,0,1.1,0.1,1.5s0.2,0.8,0.4,1.1s0.4,0.5,0.7,0.6s0.6,0.2,1,0.2c0.5,0,0.9-0.1,1.2-0.4s0.6-0.5,0.7-0.9s0.3-0.8,0.4-1.3
						v-2.8c-0.1-0.3-0.2-0.7-0.3-1c-0.1-0.3-0.3-0.6-0.5-0.8c-0.2-0.2-0.4-0.4-0.7-0.6s-0.6-0.2-0.9-0.2c-0.4,0-0.7,0.1-1,0.2
						s-0.5,0.4-0.7,0.6s-0.3,0.6-0.4,1.1S88.3-94.3,88.3-93.8z M92.5-90.1V-103h1.7v15h-1.6L92.5-90.1z"/>
				</g>
			</g>
		</g>
	</g>
</g>
<g id="g-root-tx_privacyf_1d1542x1cckq31-stroke" transform="translate(92.46966552734375, 332)">
</g>
<g id="g-root-tx_audiopro_zqb2sp1cckoi6-stroke" transform="translate(79.7030029296875, 368)">
</g>
<g id="g-root-tx_nodownlo_18f2rxl1ccxc7h-stroke" transform="translate(530, 284)">
</g>
<g id="g-root-tx_browserb_1uljtgp1ccxczo-fill" transform="translate(530, 248)">
	<g id="tx_browserb_1uljtgp1ccxczo-fill-merged">
		<g>
			<g>
				<g class="st23">
					<path class="st25" d="M-27.7-94.7h-2.9v-1.5h2.7c0.4,0,0.8-0.1,1.1-0.3s0.6-0.4,0.7-0.8s0.3-0.8,0.3-1.2c0-0.5-0.1-0.9-0.2-1.3
						s-0.4-0.6-0.7-0.7s-0.7-0.2-1.2-0.2h-2.3V-88H-32v-14.2h4.1c0.6,0,1.2,0.1,1.6,0.2s0.9,0.4,1.2,0.7c0.3,0.3,0.6,0.7,0.8,1.2
						s0.3,1,0.3,1.7c0,0.6-0.1,1.1-0.4,1.6s-0.6,0.8-1.1,1.1c-0.5,0.3-1,0.5-1.6,0.6L-27.7-94.7z M-27.7-88h-3.6l1-1.5h2.5
						c0.5,0,0.9-0.1,1.2-0.3c0.3-0.2,0.6-0.5,0.7-0.9s0.3-0.8,0.3-1.4c0-0.5-0.1-1-0.2-1.4s-0.4-0.7-0.7-0.9
						c-0.3-0.2-0.7-0.3-1.2-0.3H-30v-1.5h3.1l0.4,0.5c0.6,0.1,1.1,0.3,1.5,0.6c0.4,0.3,0.7,0.7,0.9,1.3s0.3,1.1,0.3,1.7
						c0,0.9-0.2,1.6-0.5,2.2s-0.8,1.1-1.4,1.4S-26.9-88-27.7-88z"/>
					<path class="st25" d="M-19.6-96.9v8.9h-1.7v-10.6h1.7V-96.9z M-16.9-98.6v1.7c-0.1,0-0.3-0.1-0.4-0.1s-0.2,0-0.4,0
						c-0.3,0-0.6,0.1-0.9,0.2s-0.5,0.3-0.6,0.5s-0.3,0.5-0.4,0.8s-0.2,0.7-0.2,1.1l-0.4,0.3c0-0.6,0.1-1.2,0.2-1.8s0.3-1.1,0.5-1.5
						s0.5-0.8,0.8-1s0.7-0.4,1.2-0.4c0.1,0,0.2,0,0.4,0S-17-98.7-16.9-98.6z"/>
					<path class="st25" d="M-15.6-92.8v-1c0-0.8,0.1-1.5,0.3-2.2s0.5-1.1,0.9-1.6s0.8-0.7,1.3-0.9s1-0.3,1.6-0.3s1.1,0.1,1.6,0.3
						S-9-98-8.6-97.6s0.7,0.9,0.9,1.6s0.3,1.3,0.3,2.2v1c0,0.8-0.1,1.5-0.3,2.2s-0.5,1.1-0.9,1.6s-0.8,0.7-1.3,0.9s-1,0.3-1.6,0.3
						s-1.1-0.1-1.6-0.3s-0.9-0.5-1.3-0.9s-0.7-0.9-0.9-1.6C-15.5-91.3-15.6-92-15.6-92.8z M-13.8-93.8v1c0,0.6,0.1,1.1,0.2,1.5
						c0.1,0.4,0.3,0.8,0.5,1.1s0.5,0.5,0.8,0.7s0.6,0.2,0.9,0.2c0.4,0,0.7-0.1,1-0.2s0.5-0.4,0.7-0.7c0.2-0.3,0.3-0.7,0.4-1.1
						c0.1-0.4,0.1-0.9,0.1-1.5v-1c0-0.6-0.1-1.1-0.2-1.5c-0.1-0.4-0.3-0.8-0.5-1.1s-0.5-0.5-0.8-0.7s-0.6-0.2-0.9-0.2
						c-0.3,0-0.6,0.1-0.9,0.2c-0.3,0.1-0.5,0.4-0.7,0.7s-0.4,0.7-0.5,1.1S-13.8-94.4-13.8-93.8z"/>
					<path class="st25" d="M-4.3-98.6l2,8.8v1.8h-1.1L-6-98.6H-4.3z M-3-89.9l2.3-8.7h1.2l-0.1,1.7L-2-88h-1.1L-3-89.9z M0.7-98.6
						L3-90.1l0.2,2H2.1L-0.3-97l-0.2-1.6H0.7z M2.5-89.8l1.9-8.7h1.7L3.5-88H2.4L2.5-89.8z"/>
					<path class="st25" d="M13-90.7c0-0.3-0.1-0.5-0.2-0.7s-0.3-0.4-0.6-0.6s-0.7-0.4-1.2-0.6s-0.9-0.4-1.3-0.6
						c-0.4-0.2-0.7-0.4-1-0.6s-0.5-0.5-0.6-0.8c-0.1-0.3-0.2-0.7-0.2-1.1s0.1-0.8,0.2-1.2c0.1-0.4,0.4-0.7,0.7-1s0.6-0.5,1.1-0.6
						s0.9-0.2,1.4-0.2c0.7,0,1.3,0.1,1.8,0.4s0.9,0.7,1.2,1.1s0.4,1,0.4,1.6H13c0-0.3-0.1-0.6-0.2-0.8c-0.1-0.2-0.3-0.5-0.6-0.6
						s-0.6-0.2-0.9-0.2c-0.4,0-0.7,0.1-0.9,0.2s-0.4,0.3-0.5,0.5S9.7-96,9.7-95.8s0,0.4,0.1,0.5s0.2,0.3,0.3,0.4s0.3,0.2,0.6,0.4
						c0.3,0.2,0.5,0.3,0.9,0.4c0.7,0.3,1.3,0.6,1.8,0.8s0.9,0.6,1.1,1c0.2,0.4,0.4,0.9,0.4,1.4s-0.1,0.9-0.2,1.3s-0.4,0.7-0.7,1
						s-0.7,0.5-1.1,0.6s-0.9,0.2-1.4,0.2c-0.8,0-1.5-0.2-2-0.5s-1-0.7-1.2-1.2s-0.8-1.1-0.8-1.7h1.7c0,0.5,0.1,0.9,0.3,1.2
						s0.5,0.5,0.7,0.6s0.6,0.2,0.9,0.2c0.4,0,0.7-0.1,1-0.2s0.5-0.3,0.6-0.5S13-90.4,13-90.7z"/>
					<path class="st25" d="M20.7-87.8c-0.6,0-1.2-0.1-1.7-0.3s-0.9-0.5-1.3-0.9s-0.6-0.9-0.8-1.5s-0.3-1.3-0.3-2.1v-1.2
						c0-0.9,0.1-1.7,0.3-2.4c0.2-0.7,0.5-1.2,0.9-1.6s0.8-0.7,1.3-0.9c0.5-0.2,1-0.3,1.4-0.3c0.7,0,1.2,0.1,1.7,0.3
						c0.5,0.2,0.8,0.5,1.1,1s0.5,0.9,0.6,1.6s0.2,1.3,0.2,2.1v1h-6.6v-1.5h5v-0.2c0-0.5-0.1-1-0.2-1.4s-0.3-0.7-0.6-1
						c-0.3-0.3-0.7-0.4-1.2-0.4c-0.3,0-0.6,0.1-0.9,0.2s-0.5,0.3-0.7,0.6s-0.3,0.6-0.4,1.1s-0.2,1-0.2,1.8v1.2
						c0,0.6,0.1,1.1,0.2,1.5s0.3,0.7,0.5,1s0.5,0.5,0.8,0.6s0.7,0.2,1.1,0.2c0.6,0,1.1-0.1,1.4-0.3s0.7-0.5,1-0.9l0.9,1.1
						c-0.2,0.3-0.4,0.5-0.7,0.8s-0.7,0.4-1.1,0.6S21.4-87.8,20.7-87.8z"/>
					<path class="st25" d="M28.1-96.9v8.9h-1.7v-10.6h1.7V-96.9z M30.7-98.6v1.7c-0.1,0-0.3-0.1-0.4-0.1s-0.2,0-0.4,0
						c-0.3,0-0.6,0.1-0.9,0.2s-0.5,0.3-0.6,0.5s-0.3,0.5-0.4,0.8s-0.2,0.7-0.2,1.1l-0.4,0.3c0-0.6,0.1-1.2,0.2-1.8s0.3-1.1,0.5-1.5
						s0.5-0.8,0.8-1s0.7-0.4,1.2-0.4c0.1,0,0.2,0,0.4,0S30.7-98.7,30.7-98.6z"/>
					<path class="st25" d="M35.6-94.8v1.5h-4v-1.5H35.6z"/>
					<path class="st25" d="M41.9-94.7H39v-1.5h2.7c0.4,0,0.8-0.1,1.1-0.3s0.6-0.4,0.7-0.8c0.1-0.4,0.3-0.8,0.3-1.2
						c0-0.5-0.1-0.9-0.2-1.3c-0.1-0.4-0.4-0.6-0.7-0.7s-0.7-0.2-1.2-0.2h-2.3V-88h-1.8v-14.2h4.1c0.6,0,1.2,0.1,1.6,0.2
						s0.9,0.4,1.2,0.7c0.3,0.3,0.6,0.7,0.8,1.2s0.3,1,0.3,1.7c0,0.6-0.1,1.1-0.4,1.6s-0.6,0.9-1.1,1.2c-0.5,0.3-1,0.5-1.6,0.6
						L41.9-94.7z M41.9-88h-3.6l1-1.5h2.5c0.5,0,0.9-0.1,1.2-0.3c0.3-0.2,0.6-0.5,0.7-0.9c0.1-0.4,0.3-0.8,0.3-1.4
						c0-0.5-0.1-1-0.2-1.4c-0.1-0.4-0.4-0.7-0.7-0.9c-0.3-0.2-0.7-0.3-1.2-0.3h-2.3v-1.5h3.1l0.4,0.5c0.6,0.1,1.1,0.3,1.5,0.6
						c0.4,0.3,0.7,0.7,0.9,1.3s0.3,1.1,0.3,1.7c0,0.9-0.2,1.6-0.5,2.2s-0.8,1.1-1.4,1.4S42.7-88,41.9-88z"/>
					<path class="st25" d="M53.8-94.4v1.3h-1.2c-0.4,0-0.8,0-1.1,0.1s-0.6,0.2-0.9,0.4c-0.3,0.2-0.4,0.4-0.6,0.6s-0.2,0.5-0.2,0.9
						s0.1,0.8,0.2,1c0.1,0.2,0.3,0.4,0.5,0.5s0.5,0.2,0.9,0.2s0.8-0.1,1.2-0.3s0.6-0.4,0.8-0.7c0.2-0.3,0.3-0.6,0.3-0.8l0.4,0.8
						c0,0.3-0.1,0.5-0.2,0.8s-0.3,0.6-0.6,0.8c-0.3,0.2-0.5,0.5-0.9,0.7s-0.7,0.3-1.1,0.3c-0.6,0-1.1-0.1-1.6-0.4s-0.8-0.6-1.1-1
						s-0.4-1-0.4-1.7c0-0.5,0.1-1,0.3-1.4s0.4-0.8,0.8-1.1s0.8-0.6,1.3-0.7s1.1-0.3,1.8-0.3C52.4-94.4,53.8-94.4,53.8-94.4z
						 M53.5-89.8v-5.7c0-0.4-0.1-0.8-0.2-1s-0.3-0.4-0.6-0.6s-0.6-0.2-0.9-0.2c-0.4,0-0.7,0.1-0.9,0.2s-0.5,0.3-0.6,0.6
						s-0.2,0.5-0.2,0.8h-1.7c0-0.4,0.1-0.8,0.2-1.1s0.4-0.7,0.7-1s0.7-0.5,1.1-0.7c0.4-0.2,0.9-0.3,1.5-0.3c0.7,0,1.2,0.1,1.7,0.3
						s0.9,0.6,1.2,1s0.4,1.1,0.4,1.9v5.2c0,0.4,0,0.7,0.1,1.1s0.1,0.7,0.2,1v0.3h-1.8c-0.1-0.2-0.2-0.5-0.2-0.8S53.5-89.5,53.5-89.8
						z"/>
					<path class="st25" d="M63-90.7c0-0.3-0.1-0.5-0.2-0.7s-0.3-0.4-0.6-0.6s-0.7-0.4-1.2-0.6s-0.9-0.4-1.3-0.6
						c-0.4-0.2-0.7-0.4-1-0.6s-0.5-0.5-0.6-0.8s-0.2-0.7-0.2-1.1s0.1-0.8,0.2-1.2s0.4-0.7,0.7-1s0.6-0.5,1.1-0.6s0.9-0.2,1.4-0.2
						c0.7,0,1.3,0.1,1.8,0.4s0.9,0.7,1.2,1.1s0.4,1,0.4,1.6H63c0-0.3-0.1-0.6-0.2-0.8c-0.1-0.2-0.3-0.5-0.6-0.6s-0.6-0.2-0.9-0.2
						c-0.4,0-0.7,0.1-0.9,0.2s-0.4,0.3-0.5,0.5s-0.2,0.5-0.2,0.7s0,0.4,0.1,0.5s0.2,0.3,0.3,0.4s0.3,0.2,0.6,0.4
						c0.3,0.2,0.5,0.3,0.9,0.4c0.7,0.3,1.3,0.6,1.8,0.8s0.9,0.6,1.1,1s0.4,0.9,0.4,1.4s-0.1,0.9-0.2,1.3s-0.4,0.7-0.7,1
						s-0.7,0.5-1.1,0.6s-0.9,0.2-1.4,0.2c-0.8,0-1.5-0.2-2-0.5s-1-0.7-1.2-1.2s-0.4-1.1-0.4-1.6h1.7c0,0.5,0.1,0.9,0.3,1.2
						s0.5,0.5,0.7,0.6s0.6,0.2,0.9,0.2c0.4,0,0.7-0.1,1-0.2s0.5-0.3,0.6-0.5S63-90.4,63-90.7z"/>
					<path class="st25" d="M70.8-87.8c-0.6,0-1.2-0.1-1.7-0.3s-0.9-0.5-1.3-0.9s-0.6-0.9-0.8-1.5s-0.3-1.3-0.3-2.1v-1.2
						c0-0.9,0.1-1.7,0.3-2.4c0.2-0.7,0.5-1.2,0.9-1.6s0.8-0.7,1.3-0.9c0.5-0.2,1-0.3,1.4-0.3c0.7,0,1.2,0.1,1.7,0.3
						c0.5,0.2,0.8,0.5,1.1,1s0.5,0.9,0.6,1.6s0.2,1.3,0.2,2.1v1h-6.6v-1.5h4.9v-0.2c0-0.5-0.1-1-0.2-1.4s-0.3-0.7-0.6-1
						c-0.3-0.3-0.7-0.4-1.2-0.4c-0.3,0-0.6,0.1-0.9,0.2s-0.5,0.3-0.7,0.6s-0.3,0.6-0.4,1.1s-0.2,1-0.2,1.8v1.2
						c0,0.6,0.1,1.1,0.2,1.5s0.3,0.7,0.5,1s0.5,0.5,0.8,0.6s0.7,0.2,1.1,0.2c0.6,0,1.1-0.1,1.4-0.3s0.7-0.5,1-0.9l0.9,1.1
						c-0.2,0.3-0.4,0.5-0.7,0.8s-0.7,0.4-1.1,0.6S71.4-87.8,70.8-87.8z"/>
					<path class="st25" d="M76-92.8v-1c0-0.9,0.1-1.6,0.3-2.3s0.4-1.1,0.7-1.6s0.7-0.7,1.1-0.9s0.9-0.3,1.4-0.3s1,0.1,1.4,0.3
						s0.7,0.5,1,1s0.5,0.9,0.6,1.5s0.3,1.3,0.3,2v1.3c-0.1,0.7-0.2,1.4-0.3,2c-0.1,0.6-0.4,1.1-0.6,1.5s-0.6,0.7-1,1S80-88,79.5-88
						s-1-0.1-1.4-0.3c-0.4-0.2-0.8-0.5-1.1-0.9c-0.3-0.4-0.6-0.9-0.7-1.6C76.2-91.5,76-91.9,76-92.8z M77.7-93.8v1
						c0,0.6,0,1.1,0.1,1.5s0.2,0.8,0.4,1.1s0.4,0.5,0.7,0.6s0.6,0.2,1,0.2c0.5,0,0.9-0.1,1.2-0.4s0.6-0.5,0.7-0.9s0.3-0.8,0.4-1.3
						v-2.8c-0.1-0.3-0.2-0.7-0.3-1c-0.1-0.3-0.3-0.6-0.5-0.8c-0.2-0.2-0.4-0.4-0.7-0.6s-0.6-0.2-0.9-0.2c-0.4,0-0.7,0.1-1,0.2
						s-0.5,0.4-0.7,0.6s-0.3,0.6-0.4,1.1S77.7-94.3,77.7-93.8z M81.9-90.1V-103h1.7v15H82L81.9-90.1z"/>
				</g>
			</g>
		</g>
	</g>
</g>
<g id="g-root-tx_browserb_1uljtgp1ccxczo-stroke" transform="translate(530, 248)">
</g>
<g id="g-root-ic_hori_940j551cckoi7-fill" transform="translate(470, 392)">
</g>
<g id="g-root-ic_hori_940j551cckoi7-stroke" transform="translate(470, 392)">
	<g id="ic_hori_940j551cckoi7-stroke">
		<g>
			<path class="st2" d="M-16.5-80c0,2.2-1.8,4-4,4s-4-1.8-4-4v-16c0-2.2,1.8-4,4-4s4,1.8,4,4V-80z M-12.5-88h24 M-34.5-88h6"/>
		</g>
	</g>
</g>
<g id="g-root-tx_adjustab_8wiu3t1ccoy6a-fill" transform="translate(530, 398)">
	<g id="tx_adjustab_8wiu3t1ccoy6a-fill-merged">
		<g>
			<g>
				<g class="st23">
					<path class="st26" d="M-27.4-101l-3.9,13h-1.8l4.6-14.2h1.2L-27.4-101z M-24.2-93.3v1.5h-6.9v-1.5H-24.2z M-24.2-88l-3.9-13
						v-1.3h1.2l4.5,14.3H-24.2z"/>
					<path class="st26" d="M-21-92.8v-1c0-0.9,0.1-1.6,0.3-2.3s0.4-1.1,0.7-1.6s0.7-0.7,1.1-0.9s0.9-0.3,1.4-0.3s1,0.1,1.4,0.3
						s0.7,0.5,1,1s0.5,0.9,0.6,1.5s0.3,1.3,0.3,2v1.3c-0.1,0.7-0.2,1.4-0.3,2s-0.4,1.1-0.6,1.5c-0.2,0.4-0.6,0.7-1,1S-17-88-17.5-88
						s-1-0.1-1.4-0.3c-0.4-0.2-0.8-0.5-1.1-0.9c-0.3-0.4-0.6-0.9-0.7-1.6C-20.8-91.5-21-91.9-21-92.8z M-19.3-93.8v1
						c0,0.6,0,1.1,0.1,1.5s0.2,0.8,0.4,1.1s0.4,0.5,0.7,0.6s0.6,0.2,1,0.2c0.5,0,0.9-0.1,1.2-0.4s0.6-0.5,0.7-0.9
						c0.1-0.4,0.3-0.8,0.4-1.3v-2.8c-0.1-0.3-0.2-0.7-0.3-1s-0.3-0.6-0.5-0.8c-0.2-0.2-0.4-0.4-0.7-0.6c-0.3-0.2-0.6-0.2-0.9-0.2
						c-0.4,0-0.7,0.1-1,0.2s-0.5,0.4-0.7,0.6s-0.3,0.6-0.4,1.1S-19.3-94.3-19.3-93.8z M-15.1-90.1V-103h1.7v15H-15L-15.1-90.1z"/>
					<path class="st26" d="M-10.7-98.6H-9v11.8c0,0.6-0.1,1.2-0.2,1.6c-0.1,0.4-0.4,0.8-0.8,1c-0.4,0.2-0.8,0.3-1.3,0.3
						c-0.1,0-0.3,0-0.5,0s-0.3-0.1-0.5-0.1v-1.5c0.1,0,0.2,0,0.4,0.1s0.2,0,0.3,0c0.2,0,0.3,0,0.5-0.1s0.2-0.3,0.3-0.5
						s0.1-0.5,0.1-0.9V-98.6z M-10.9-101.4c0-0.3,0.1-0.5,0.2-0.7c0.1-0.2,0.4-0.3,0.7-0.3s0.6,0.1,0.7,0.3c0.1,0.2,0.2,0.4,0.2,0.7
						c0,0.3-0.1,0.5-0.2,0.7c-0.1,0.2-0.4,0.3-0.7,0.3s-0.6-0.1-0.7-0.3S-10.9-101.1-10.9-101.4z"/>
					<path class="st26" d="M-0.6-92.7h0.7c0,0.7-0.1,1.4-0.2,1.9s-0.3,1.1-0.6,1.5s-0.6,0.8-1.1,1s-1,0.4-1.6,0.4
						c-0.4,0-0.8-0.1-1.2-0.2s-0.7-0.4-0.9-0.7S-6-89.5-6.1-90s-0.2-1.1-0.2-1.8v-6.8h1.7v6.8c0,0.5,0,0.9,0.1,1.2
						c0.1,0.3,0.2,0.6,0.3,0.7s0.3,0.3,0.5,0.4s0.4,0.1,0.5,0.1c0.6,0,1.1-0.1,1.5-0.4s0.6-0.7,0.8-1.2S-0.6-92-0.6-92.7z
						 M-0.9-90.4v-8.1h1.7V-88h-1.6L-0.9-90.4z"/>
					<path class="st26" d="M8.5-90.7c0-0.3-0.1-0.5-0.2-0.7S8-91.8,7.7-92S7-92.4,6.5-92.6C6-92.8,5.6-93,5.2-93.2s-0.7-0.4-1-0.6
						s-0.5-0.5-0.6-0.8s-0.2-0.7-0.2-1.1s0.1-0.8,0.2-1.2s0.4-0.7,0.7-1c0.3-0.3,0.6-0.5,1.1-0.6s0.9-0.2,1.4-0.2
						c0.7,0,1.3,0.1,1.8,0.4s0.9,0.7,1.2,1.1s0.4,1,0.4,1.6H8.5c0-0.3-0.1-0.6-0.2-0.8C8.2-96.6,8-96.9,7.7-97s-0.6-0.2-0.9-0.2
						c-0.4,0-0.7,0.1-0.9,0.2c-0.2,0.1-0.4,0.3-0.5,0.5S5.2-96,5.2-95.8s0,0.4,0.1,0.5s0.2,0.3,0.3,0.4s0.3,0.2,0.6,0.4
						c0.3,0.2,0.5,0.3,0.9,0.4c0.7,0.3,1.3,0.6,1.8,0.8s0.9,0.6,1.1,1c0.2,0.4,0.4,0.9,0.4,1.4s-0.1,0.9-0.2,1.3s-0.4,0.7-0.7,1
						S8.8-88.1,8.4-88S7.5-87.8,7-87.8c-0.8,0-1.5-0.2-2-0.5S4-89,3.8-89.5s-0.4-1.1-0.4-1.6h1.7c0,0.5,0.1,0.9,0.3,1.2
						s0.5,0.5,0.7,0.6s0.6,0.2,0.9,0.2c0.4,0,0.7-0.1,1-0.2s0.5-0.3,0.6-0.5S8.5-90.4,8.5-90.7z"/>
					<path class="st26" d="M16.4-98.6v1.4h-4.9v-1.4H16.4z M13.1-101.1h1.7v10.5c0,0.4,0,0.6,0.1,0.8c0.1,0.2,0.2,0.3,0.3,0.4
						s0.3,0.1,0.4,0.1c0.1,0,0.2,0,0.4,0c0.2,0,0.2-0.1,0.3-0.1v1.5c-0.1,0-0.3,0.1-0.5,0.1s-0.4,0.1-0.7,0.1c-0.4,0-0.7-0.1-1-0.3
						s-0.6-0.5-0.8-0.9s-0.3-1-0.3-1.7L13.1-101.1L13.1-101.1z"/>
					<path class="st26" d="M23.9-94.4v1.3h-1.2c-0.4,0-0.8,0-1.1,0.1s-0.6,0.2-0.9,0.4c-0.3,0.2-0.4,0.4-0.6,0.6s-0.2,0.5-0.2,0.9
						s0.1,0.8,0.2,1s0.3,0.4,0.5,0.5s0.5,0.2,0.9,0.2s0.8-0.1,1.2-0.3s0.6-0.4,0.8-0.7c0.2-0.3,0.3-0.6,0.3-0.8l0.4,0.8
						c0,0.3-0.1,0.5-0.2,0.8s-0.3,0.6-0.6,0.8c-0.3,0.2-0.5,0.5-0.9,0.7s-0.7,0.3-1.1,0.3c-0.6,0-1.1-0.1-1.6-0.4s-0.8-0.6-1.1-1
						c-0.3-0.4-0.4-1-0.4-1.7c0-0.5,0.1-1,0.3-1.4c0.2-0.4,0.4-0.8,0.8-1.1s0.8-0.6,1.3-0.7s1.1-0.3,1.8-0.3
						C22.5-94.4,23.9-94.4,23.9-94.4z M23.6-89.8v-5.7c0-0.4-0.1-0.8-0.2-1s-0.3-0.4-0.6-0.6c-0.3-0.2-0.6-0.2-0.9-0.2
						c-0.4,0-0.7,0.1-0.9,0.2s-0.5,0.3-0.6,0.6s-0.2,0.5-0.2,0.8h-1.7c0-0.4,0.1-0.8,0.2-1.1s0.4-0.7,0.7-1c0.3-0.3,0.7-0.5,1.1-0.7
						s0.9-0.3,1.5-0.3c0.7,0,1.2,0.1,1.7,0.3s0.9,0.6,1.2,1c0.3,0.4,0.4,1.1,0.4,1.9v5.2c0,0.4,0,0.7,0.1,1.1s0.1,0.7,0.2,1v0.3
						h-1.8c-0.1-0.2-0.2-0.5-0.2-0.8C23.6-89.1,23.6-89.5,23.6-89.8z"/>
					<path class="st26" d="M28-103h1.7v12.9L29.6-88H28V-103z M35.7-93.8v1c0,0.8-0.1,1.6-0.2,2.2s-0.4,1.1-0.7,1.6
						s-0.7,0.7-1.1,0.9s-0.9,0.3-1.5,0.3c-0.5,0-1-0.1-1.4-0.3s-0.7-0.5-1-1s-0.5-0.9-0.6-1.5s-0.3-1.3-0.3-2v-1.3
						c0.1-0.7,0.2-1.4,0.3-2c0.1-0.6,0.4-1.1,0.6-1.5s0.6-0.7,1-1s0.9-0.3,1.4-0.3c0.6,0,1.1,0.1,1.5,0.3c0.4,0.2,0.8,0.5,1.1,0.9
						s0.5,0.9,0.7,1.6C35.7-95.2,35.7-94.6,35.7-93.8z M34-92.8v-1c0-0.6,0-1.1-0.1-1.5s-0.2-0.8-0.4-1.1c-0.2-0.3-0.4-0.5-0.7-0.6
						s-0.6-0.2-1-0.2s-0.7,0.1-0.9,0.2s-0.5,0.3-0.7,0.6c-0.2,0.3-0.3,0.5-0.5,0.8s-0.2,0.6-0.3,1v2.8c0.1,0.4,0.2,0.8,0.4,1.2
						s0.4,0.7,0.8,1s0.7,0.4,1.2,0.4c0.4,0,0.7-0.1,1-0.2s0.5-0.3,0.7-0.6c0.2-0.3,0.3-0.6,0.4-1.1S34-92.2,34-92.8z"/>
					<path class="st26" d="M39.7-103v15H38v-15H39.7z"/>
					<path class="st26" d="M46.3-87.8c-0.6,0-1.2-0.1-1.7-0.3s-0.9-0.5-1.3-0.9s-0.6-0.9-0.8-1.5s-0.3-1.3-0.3-2.1v-1.2
						c0-0.9,0.1-1.7,0.3-2.4c0.2-0.7,0.5-1.2,0.9-1.6s0.8-0.7,1.3-0.9c0.5-0.2,1-0.3,1.4-0.3c0.7,0,1.2,0.1,1.7,0.3
						c0.5,0.2,0.8,0.5,1.1,1s0.5,0.9,0.6,1.6s0.2,1.3,0.2,2.1v1h-6.6v-1.5H48v-0.2c0-0.5-0.1-1-0.2-1.4s-0.3-0.7-0.6-1
						s-0.7-0.4-1.2-0.4c-0.3,0-0.6,0.1-0.9,0.2c-0.3,0.1-0.5,0.3-0.7,0.6s-0.3,0.6-0.4,1.1s-0.2,1-0.2,1.8v1.2
						c0,0.6,0.1,1.1,0.2,1.5s0.3,0.7,0.5,1s0.5,0.5,0.8,0.6s0.7,0.2,1.1,0.2c0.6,0,1.1-0.1,1.4-0.3s0.7-0.5,1-0.9l0.9,1.1
						c-0.2,0.3-0.4,0.5-0.7,0.8s-0.7,0.4-1.1,0.6S46.9-87.8,46.3-87.8z"/>
					<path class="st26" d="M58.5-102.2V-88h-1.8v-14.2H58.5z M59.9-88h-2.4v-1.5h2.4c0.9,0,1.5-0.2,2.1-0.5s0.9-0.8,1.2-1.5
						s0.4-1.5,0.4-2.4v-2.4c0-0.8-0.1-1.4-0.2-2c-0.1-0.6-0.4-1-0.6-1.3s-0.6-0.6-1.1-0.8c-0.5-0.2-0.9-0.3-1.5-0.3h-2.6v-1.5h2.6
						c0.8,0,1.5,0.1,2.2,0.4s1.2,0.6,1.7,1.1s0.8,1.1,1.1,1.9c0.3,0.8,0.4,1.6,0.4,2.6v2.4c0,1-0.1,1.8-0.4,2.6s-0.6,1.4-1.1,1.8
						s-1,0.9-1.7,1.1S60.8-88,59.9-88z"/>
					<path class="st26" d="M71.6-87.8c-0.6,0-1.2-0.1-1.7-0.3S69-88.6,68.6-89s-0.6-0.9-0.8-1.5s-0.3-1.3-0.3-2.1v-1.2
						c0-0.9,0.1-1.7,0.3-2.4c0.2-0.7,0.5-1.2,0.9-1.6s0.8-0.7,1.3-0.9c0.5-0.2,1-0.3,1.4-0.3c0.7,0,1.2,0.1,1.7,0.3
						c0.5,0.2,0.8,0.5,1.1,1s0.5,0.9,0.6,1.6S75-94.8,75-94v1h-6.5v-1.5h4.9v-0.2c0-0.5-0.1-1-0.2-1.4s-0.3-0.7-0.6-1
						c-0.3-0.3-0.7-0.4-1.2-0.4c-0.3,0-0.6,0.1-0.9,0.2S70-97,69.8-96.7s-0.3,0.6-0.4,1.1s-0.2,1-0.2,1.8v1.2c0,0.6,0.1,1.1,0.2,1.5
						s0.3,0.7,0.5,1s0.5,0.5,0.8,0.6s0.7,0.2,1.1,0.2c0.6,0,1.1-0.1,1.4-0.3s0.7-0.5,1-0.9l0.9,1.1c-0.2,0.3-0.4,0.5-0.7,0.8
						s-0.7,0.4-1.1,0.6S72.2-87.8,71.6-87.8z"/>
					<path class="st26" d="M79.1-103v15h-1.7v-15H79.1z"/>
					<path class="st26" d="M87.3-94.4v1.3h-1.2c-0.4,0-0.8,0-1.1,0.1s-0.6,0.2-0.9,0.4c-0.3,0.2-0.4,0.4-0.6,0.6s-0.2,0.5-0.2,0.9
						s0.1,0.8,0.2,1s0.3,0.4,0.5,0.5s0.5,0.2,0.9,0.2s0.8-0.1,1.2-0.3s0.6-0.4,0.8-0.7c0.2-0.3,0.3-0.6,0.3-0.8l0.4,0.8
						c0,0.3-0.1,0.5-0.2,0.8s-0.3,0.6-0.6,0.8c-0.3,0.2-0.5,0.5-0.9,0.7s-0.7,0.3-1.1,0.3c-0.6,0-1.1-0.1-1.6-0.4s-0.8-0.6-1.1-1
						c-0.3-0.4-0.4-1-0.4-1.7c0-0.5,0.1-1,0.3-1.4c0.2-0.4,0.4-0.8,0.8-1.1c0.4-0.3,0.8-0.6,1.3-0.7s1.1-0.3,1.8-0.3
						C85.9-94.4,87.3-94.4,87.3-94.4z M87-89.8v-5.7c0-0.4-0.1-0.8-0.2-1s-0.3-0.4-0.6-0.6c-0.3-0.2-0.6-0.2-0.9-0.2
						c-0.4,0-0.7,0.1-0.9,0.2s-0.5,0.3-0.6,0.6s-0.2,0.5-0.2,0.8h-1.7c0-0.4,0.1-0.8,0.2-1.1s0.4-0.7,0.7-1c0.3-0.3,0.7-0.5,1.1-0.7
						s0.9-0.3,1.5-0.3c0.7,0,1.2,0.1,1.7,0.3s0.9,0.6,1.2,1c0.3,0.4,0.4,1.1,0.4,1.9v5.2c0,0.4,0,0.7,0.1,1.1s0.1,0.7,0.2,1v0.3
						h-1.8c-0.1-0.2-0.2-0.5-0.2-0.8C87-89.1,87-89.5,87-89.8z"/>
					<path class="st26" d="M92.3-98.6l2.1,8.2l0.4,1.9l-1.2,0.7l-3.2-10.8C90.4-98.6,92.3-98.6,92.3-98.6z M93.9-89.1l2.4-9.5h1.8
						l-3.5,12.2c-0.1,0.3-0.2,0.5-0.3,0.8S94-85,93.8-84.7S93.3-84.2,93-84s-0.7,0.3-1.1,0.3c-0.1,0-0.3,0-0.5-0.1s-0.3-0.1-0.4-0.1
						v-1.5c0,0,0.1,0,0.2,0s0.1,0,0.2,0c0.3,0,0.6-0.1,0.9-0.2s0.4-0.3,0.6-0.5s0.3-0.6,0.4-1L93.9-89.1z"/>
				</g>
			</g>
		</g>
	</g>
</g>
<g id="g-root-tx_adjustab_8wiu3t1ccoy6a-stroke" transform="translate(530, 398)">
</g>
<g id="g-root-ic_medi_qof8ix1ccxbeu-fill" transform="translate(470, 242)">
</g>
<g id="g-root-ic_medi_qof8ix1ccxbeu-stroke" transform="translate(470, 242)">
	<g id="ic_medi_qof8ix1ccxbeu-stroke">
		<g>
			<path class="st2" d="M-30.5-108h38c0,0,4,0,4,4v32c0,0,0,4-4,4h-38c0,0-4,0-4-4v-32C-34.5-104-34.5-108-30.5-108 M-34.5-98h46
				 M-27.5-103.5c0.3,0,0.5,0.2,0.5,0.5s-0.2,0.5-0.5,0.5s-0.5-0.2-0.5-0.5S-27.8-103.5-27.5-103.5 M-21.5-103.5
				c0.3,0,0.5,0.2,0.5,0.5s-0.2,0.5-0.5,0.5s-0.5-0.2-0.5-0.5S-21.8-103.5-21.5-103.5 M-15.5-103.5c0.3,0,0.5,0.2,0.5,0.5
				s-0.2,0.5-0.5,0.5s-0.5-0.2-0.5-0.5S-15.8-103.5-15.5-103.5 M-27.5-90h12c0,0,1,0,1,1v12c0,0,0,1-1,1h-12c0,0-1,0-1-1v-12
				C-28.5-89-28.5-90-27.5-90 M-28.2-76.3l6.9-8.5c0.2-0.3,0.5-0.4,0.8-0.4s0.6,0.2,0.8,0.5l5,8.3 M-7.5-90h12c0,0,1,0,1,1v12
				c0,0,0,1-1,1h-12c0,0-1,0-1-1v-12C-8.5-89-8.5-90-7.5-90 M-8.2-76.3l6.9-8.5c0.2-0.3,0.5-0.4,0.8-0.4s0.6,0.2,0.8,0.5l5,8.3"/>
		</g>
	</g>
</g>
<g id="g-root-tx_customiz_18gbt9l1ccovm3-stroke" transform="translate(530, 434)">
</g>
<g id="g-root-tx_nocostor_18k2kmh1ccvy88-stroke" transform="translate(46.7030029296875, 218)">
</g>
<g id="g-root-ic_desi_qp1srt1ccoxz8-fill" transform="translate(254, 488)">
</g>
<g id="g-root-ic_desi_qp1srt1ccoxz8-stroke" transform="translate(254, 488)">
	<g id="ic_desi_qp1srt1ccoxz8-stroke">
		<g>
			<path class="st2" d="M-18.5-73h14 M-11.5-77v4 M-28.5-83h24 M-32.5-111h8c0,0,2,0,2,2v14c0,0,0,2-2,2h-8c0,0-2,0-2-2v-14
				C-34.5-109-34.5-111-32.5-111 M1.5-83h8c0,0,2,0,2,2v14c0,0,0,2-2,2h-8c0,0-2,0-2-2v-14C-0.5-81-0.5-83,1.5-83 M-0.5-69h12
				 M-18.5-101h21c1.7,0,3,1.3,3,3v11 M-4.5-77h-21c-1.7,0-3-1.3-3-3v-9"/>
		</g>
	</g>
</g>
<g id="g-root-tx_crossdev_v6492h1ccrq4n-fill" transform="translate(120.669677734375, 482)">
	<g id="tx_crossdev_v6492h1ccrq4n-fill-merged">
		<g>
			<g>
				<g class="st23">
					<path class="st27" d="M-23.9-92.5h1.8c0,1-0.2,1.8-0.6,2.5s-0.9,1.2-1.5,1.6s-1.5,0.6-2.5,0.6c-0.7,0-1.4-0.1-1.9-0.4
						s-1.1-0.7-1.5-1.2s-0.7-1.2-0.9-1.9c-0.2-0.7-0.3-1.6-0.3-2.5v-2.6c0-0.9,0.1-1.7,0.3-2.5c0.2-0.8,0.5-1.4,0.9-1.9
						s0.9-0.9,1.5-1.2c0.6-0.3,1.3-0.4,2-0.4c0.9,0,1.7,0.2,2.3,0.6c0.6,0.4,1.1,0.9,1.5,1.6s0.5,1.6,0.6,2.6H-24
						c0-0.7-0.2-1.4-0.4-1.8s-0.5-0.8-0.8-1s-0.8-0.3-1.4-0.3c-0.5,0-1,0.1-1.4,0.3c-0.4,0.2-0.7,0.5-0.9,0.9
						c-0.2,0.4-0.4,0.9-0.5,1.4s-0.1,1-0.1,1.7v2.6c0,0.6,0.1,1.2,0.2,1.7s0.3,1,0.5,1.4s0.5,0.7,0.9,1s0.8,0.3,1.3,0.3
						c0.7,0,1.2-0.1,1.6-0.3s0.7-0.6,0.9-1S-24-91.8-23.9-92.5z"/>
					<path class="st27" d="M-18.2-96.9v8.9h-1.7v-10.6h1.7V-96.9z M-15.6-98.6v1.7c-0.1,0-0.3-0.1-0.4-0.1c-0.1,0-0.2,0-0.4,0
						c-0.3,0-0.6,0.1-0.9,0.2s-0.5,0.3-0.6,0.5s-0.3,0.5-0.4,0.8s-0.2,0.7-0.2,1.1l-0.4,0.3c0-0.6,0.1-1.2,0.2-1.8s0.3-1.1,0.5-1.5
						s0.5-0.8,0.8-1s0.7-0.4,1.2-0.4c0.1,0,0.2,0,0.4,0S-15.6-98.7-15.6-98.6z"/>
					<path class="st27" d="M-14.2-92.8v-1c0-0.8,0.1-1.5,0.3-2.2s0.5-1.1,0.9-1.6s0.8-0.7,1.3-0.9s1-0.3,1.6-0.3s1.1,0.1,1.6,0.3
						s0.9,0.5,1.3,0.9s0.7,0.9,0.9,1.6S-6-94.7-6-93.8v1c0,0.8-0.1,1.5-0.3,2.2s-0.5,1.1-0.9,1.6s-0.8,0.7-1.3,0.9s-1,0.3-1.6,0.3
						s-1.1-0.1-1.6-0.3s-0.9-0.5-1.3-0.9s-0.7-0.9-0.9-1.6S-14.2-92-14.2-92.8z M-12.5-93.8v1c0,0.6,0.1,1.1,0.2,1.5
						c0.1,0.4,0.3,0.8,0.5,1.1s0.5,0.5,0.8,0.7s0.6,0.2,0.9,0.2c0.4,0,0.7-0.1,1-0.2s0.5-0.4,0.7-0.7c0.2-0.3,0.3-0.7,0.4-1.1
						c0.1-0.4,0.1-0.9,0.1-1.5v-1c0-0.6-0.1-1.1-0.2-1.5s-0.3-0.8-0.5-1.1s-0.5-0.5-0.8-0.7s-0.6-0.2-0.9-0.2
						c-0.3,0-0.6,0.1-0.9,0.2c-0.3,0.1-0.5,0.4-0.7,0.7s-0.4,0.7-0.5,1.1C-12.5-94.9-12.5-94.4-12.5-93.8z"/>
					<path class="st27" d="M1.3-90.7c0-0.3-0.1-0.5-0.2-0.7S0.8-91.8,0.5-92s-0.7-0.4-1.2-0.6C-1.2-92.8-1.6-93-2-93.2
						s-0.7-0.4-1-0.6s-0.5-0.5-0.6-0.8s-0.2-0.7-0.2-1.1s0.1-0.8,0.2-1.2s0.4-0.7,0.7-1s0.6-0.5,1.1-0.6s0.9-0.2,1.4-0.2
						c0.7,0,1.3,0.1,1.8,0.4s0.9,0.7,1.2,1.1s0.4,1,0.4,1.6H1.3c0-0.3-0.1-0.6-0.2-0.8S0.7-96.9,0.5-97s-0.6-0.2-0.9-0.2
						c-0.4,0-0.7,0.1-0.9,0.2s-0.4,0.3-0.5,0.5S-2-96-2-95.8s0,0.4,0.1,0.5s0.2,0.3,0.3,0.4s0.3,0.2,0.6,0.4s0.5,0.3,0.9,0.4
						c0.7,0.3,1.3,0.6,1.8,0.8s0.9,0.6,1.1,1c0.2,0.4,0.4,0.9,0.4,1.4S3.1-90,3-89.6s-0.4,0.7-0.7,1C2-88.3,1.6-88.1,1.2-88
						s-0.9,0.2-1.4,0.2c-0.8,0-1.5-0.2-2-0.5s-1-0.7-1.2-1.2s-0.4-1.1-0.4-1.6h1.7c0,0.5,0.1,0.9,0.3,1.2c0.2,0.3,0.5,0.5,0.7,0.6
						s0.6,0.2,0.9,0.2c0.4,0,0.7-0.1,1-0.2s0.5-0.3,0.6-0.5C1.5-90,1.3-90.4,1.3-90.7z"/>
					<path class="st27" d="M10.5-90.7c0-0.3-0.1-0.5-0.2-0.7S10-91.8,9.7-92S9-92.4,8.5-92.6C8-92.8,7.6-93,7.2-93.2s-0.7-0.4-1-0.6
						s-0.5-0.5-0.6-0.8s-0.2-0.7-0.2-1.1s0.1-0.8,0.2-1.2s0.4-0.7,0.7-1c0.3-0.3,0.6-0.5,1.1-0.6s0.9-0.2,1.4-0.2
						c0.7,0,1.3,0.1,1.8,0.4s0.9,0.7,1.2,1.1s0.4,1,0.4,1.6h-1.7c0-0.3-0.1-0.6-0.2-0.8c-0.1-0.2-0.3-0.5-0.6-0.6s-0.6-0.2-0.9-0.2
						c-0.4,0-0.7,0.1-0.9,0.2c-0.2,0.1-0.4,0.3-0.5,0.5S7.2-96,7.2-95.8s0,0.4,0.1,0.5s0.2,0.3,0.3,0.4s0.3,0.2,0.6,0.4
						c0.3,0.2,0.5,0.3,0.9,0.4c0.7,0.3,1.3,0.6,1.8,0.8s0.9,0.6,1.1,1c0.2,0.4,0.4,0.9,0.4,1.4s-0.1,0.9-0.2,1.3s-0.4,0.7-0.7,1
						s-0.7,0.5-1.1,0.6S9.5-87.8,9-87.8c-0.8,0-1.5-0.2-2-0.5S6-89,5.8-89.5s-0.4-1.1-0.4-1.6h1.7c0,0.5,0.1,0.9,0.3,1.2
						s0.5,0.5,0.7,0.6c0.2,0.1,0.6,0.2,0.9,0.2c0.4,0,0.7-0.1,1-0.2s0.5-0.3,0.6-0.5S10.5-90.4,10.5-90.7z"/>
					<path class="st27" d="M17.6-94.8v1.5h-4v-1.5H17.6z"/>
					<path class="st27" d="M21.4-102.2V-88h-1.8v-14.2H21.4z M22.9-88h-2.4v-1.5h2.4c0.9,0,1.5-0.2,2.1-0.5s0.9-0.8,1.2-1.5
						s0.4-1.5,0.4-2.4v-2.4c0-0.8-0.1-1.4-0.2-2s-0.4-1-0.6-1.3s-0.6-0.6-1.1-0.8c-0.5-0.2-0.9-0.3-1.5-0.3h-2.6v-1.5h2.6
						c0.8,0,1.5,0.1,2.2,0.4s1.2,0.6,1.7,1.1s0.8,1.1,1.1,1.9c0.3,0.8,0.4,1.6,0.4,2.6v2.4c0,1-0.1,1.8-0.4,2.6s-0.6,1.4-1.1,1.8
						s-1,0.9-1.7,1.1S23.7-88,22.9-88z"/>
					<path class="st27" d="M34.6-87.8c-0.6,0-1.2-0.1-1.7-0.3S32-88.6,31.6-89s-0.6-0.9-0.8-1.5s-0.3-1.2-0.3-2v-1.2
						c0-0.9,0.1-1.7,0.3-2.4c0.2-0.7,0.5-1.2,0.9-1.6c0.4-0.4,0.8-0.7,1.3-0.9c0.5-0.2,1-0.3,1.4-0.3c0.7,0,1.2,0.1,1.7,0.3
						c0.5,0.2,0.8,0.5,1.1,1s0.5,0.9,0.6,1.6s0.2,1.3,0.2,2.1v1h-6.5v-1.5h4.9v-0.2c0-0.5-0.1-1-0.2-1.4s-0.3-0.7-0.6-1
						s-0.7-0.4-1.2-0.4c-0.3,0-0.6,0.1-0.9,0.2c-0.3,0.1-0.5,0.3-0.7,0.6s-0.3,0.6-0.4,1.1s-0.2,1-0.2,1.8v1.2
						c0,0.6,0.1,1.1,0.2,1.5c0.1,0.4,0.3,0.7,0.5,1s0.5,0.5,0.8,0.6s0.7,0.2,1.1,0.2c0.6,0,1.1-0.1,1.4-0.3s0.7-0.5,1-0.9l0.9,1.1
						c-0.2,0.3-0.4,0.5-0.7,0.8s-0.7,0.4-1.1,0.6S35.2-87.8,34.6-87.8z"/>
					<path class="st27" d="M41.1-98.6l2.4,9l0.2,1.6h-1.2l-3.2-10.6H41.1z M42.9-89.6l2.3-8.9H47L43.8-88h-1.1L42.9-89.6z"/>
					<path class="st27" d="M48.8-101.4c0-0.3,0.1-0.5,0.2-0.7c0.1-0.2,0.4-0.3,0.7-0.3s0.6,0.1,0.7,0.3c0.1,0.2,0.2,0.4,0.2,0.7
						c0,0.3-0.1,0.5-0.2,0.7c-0.1,0.2-0.4,0.3-0.7,0.3s-0.6-0.1-0.7-0.3S48.8-101.1,48.8-101.4z M50.6-98.6V-88h-1.7v-10.6H50.6z"/>
					<path class="st27" d="M57-89.3c0.3,0,0.7-0.1,0.9-0.2s0.5-0.4,0.7-0.7c0.2-0.3,0.3-0.7,0.3-1.2h1.6c0,0.7-0.2,1.3-0.5,1.9
						s-0.8,0.9-1.3,1.2c-0.5,0.3-1.1,0.4-1.8,0.4s-1.3-0.1-1.8-0.3s-0.9-0.5-1.2-1s-0.6-0.9-0.7-1.5S53-92,53-92.8V-94
						c0-0.8,0.1-1.5,0.2-2.1s0.4-1.1,0.7-1.5s0.7-0.7,1.2-1s1.1-0.3,1.8-0.3s1.3,0.2,1.9,0.5c0.6,0.3,0.9,0.7,1.2,1.3
						s0.5,1.3,0.5,2.1h-1.6c0-0.5-0.1-1-0.3-1.3s-0.4-0.6-0.7-0.8c-0.3-0.2-0.6-0.3-1-0.3c-0.5,0-0.8,0.1-1.1,0.2s-0.5,0.4-0.7,0.7
						c-0.2,0.3-0.3,0.7-0.4,1.1s-0.1,0.9-0.1,1.4v1.2c0,0.5,0,1,0.1,1.4s0.2,0.8,0.4,1.1c0.2,0.3,0.4,0.5,0.7,0.7
						C56.1-89.4,56.5-89.3,57-89.3z"/>
					<path class="st27" d="M66.4-87.8c-0.6,0-1.2-0.1-1.7-0.3s-0.9-0.5-1.3-0.9s-0.6-0.9-0.8-1.5s-0.3-1.3-0.3-2.1v-1.2
						c0-0.9,0.1-1.7,0.3-2.4c0.2-0.7,0.5-1.2,0.9-1.6s0.8-0.7,1.3-0.9c0.5-0.2,1-0.3,1.4-0.3c0.7,0,1.2,0.1,1.7,0.3
						c0.5,0.2,0.8,0.5,1.1,1s0.5,0.9,0.6,1.6s0.2,1.3,0.2,2.1v1h-6.6v-1.5h4.9v-0.2c0-0.5-0.1-1-0.2-1.4s-0.3-0.7-0.6-1
						c-0.3-0.3-0.7-0.4-1.2-0.4c-0.3,0-0.6,0.1-0.9,0.2s-0.5,0.3-0.7,0.6s-0.3,0.6-0.4,1.1s-0.2,1-0.2,1.8v1.2
						c0,0.6,0.1,1.1,0.2,1.5s0.3,0.7,0.5,1s0.5,0.5,0.8,0.6s0.7,0.2,1.1,0.2c0.6,0,1.1-0.1,1.4-0.3s0.7-0.5,1-0.9l0.9,1.1
						c-0.2,0.3-0.4,0.5-0.7,0.8S68.4-88.2,68-88S67-87.8,66.4-87.8z"/>
				</g>
			</g>
			<g>
				<g class="st23">
					<path class="st27" d="M-24.8-68.5h1.8c0,1-0.2,1.8-0.6,2.5s-0.9,1.2-1.5,1.6s-1.5,0.6-2.5,0.6c-0.7,0-1.4-0.1-1.9-0.4
						s-1.1-0.7-1.5-1.2s-0.7-1.2-0.9-1.9c-0.2-0.7-0.3-1.6-0.3-2.5v-2.6c0-0.9,0.1-1.7,0.3-2.5s0.5-1.4,0.9-1.9s0.9-0.9,1.5-1.2
						s1.3-0.4,2-0.4c0.9,0,1.7,0.2,2.3,0.6s1.1,0.9,1.5,1.6s0.5,1.6,0.6,2.6h-1.8c0-0.7-0.2-1.4-0.4-1.8c-0.2-0.4-0.5-0.8-0.8-1
						s-0.8-0.3-1.4-0.3c-0.5,0-1,0.1-1.4,0.3c-0.4,0.2-0.7,0.5-0.9,0.9c-0.2,0.4-0.4,0.9-0.5,1.4s-0.2,1-0.2,1.7v2.6
						c0,0.6,0.1,1.2,0.2,1.7s0.3,1,0.5,1.4s0.5,0.7,0.9,1s0.8,0.3,1.3,0.3c0.7,0,1.2-0.1,1.6-0.3c0.4-0.2,0.7-0.6,0.9-1
						C-24.9-67.1-24.9-67.8-24.8-68.5z"/>
					<path class="st27" d="M-21.2-68.8v-1c0-0.8,0.1-1.5,0.3-2.2s0.5-1.1,0.9-1.6s0.8-0.7,1.3-0.9s1-0.3,1.6-0.3s1.1,0.1,1.6,0.3
						s0.9,0.5,1.3,0.9s0.7,0.9,0.9,1.6s0.3,1.3,0.3,2.2v1c0,0.8-0.1,1.5-0.3,2.2s-0.5,1.1-0.9,1.6s-0.8,0.7-1.3,0.9
						c-0.5,0.2-1,0.3-1.6,0.3s-1.1-0.1-1.6-0.3c-0.5-0.2-0.9-0.5-1.3-0.9s-0.7-0.9-0.9-1.6S-21.2-68-21.2-68.8z M-19.5-69.8v1
						c0,0.6,0.1,1.1,0.2,1.5s0.3,0.8,0.5,1.1c0.2,0.3,0.5,0.5,0.8,0.7s0.6,0.2,0.9,0.2c0.4,0,0.7-0.1,1-0.2s0.5-0.4,0.7-0.7
						c0.2-0.3,0.3-0.7,0.4-1.1c0.1-0.4,0.1-0.9,0.1-1.5v-1c0-0.6-0.1-1.1-0.2-1.5c-0.1-0.4-0.3-0.8-0.5-1.1
						c-0.2-0.3-0.5-0.5-0.8-0.7s-0.6-0.2-0.9-0.2s-0.6,0.1-0.9,0.2s-0.5,0.4-0.7,0.7c-0.2,0.3-0.4,0.7-0.5,1.1S-19.5-70.4-19.5-69.8
						z"/>
					<path class="st27" d="M-9.1-72.5v8.5h-1.7v-10.6h1.6L-9.1-72.5z M-9.4-69.7h-0.8c0-0.7,0.1-1.4,0.2-2c0.1-0.6,0.4-1.2,0.7-1.6
						s0.7-0.8,1.1-1.1c0.4-0.3,1-0.4,1.6-0.4c0.4,0,0.8,0.1,1.1,0.2s0.7,0.4,0.9,0.7c0.2,0.3,0.5,0.7,0.6,1.2c0.1,0.5,0.2,1,0.2,1.7
						v7h-1.7v-7c0-0.6-0.1-1-0.2-1.3s-0.4-0.6-0.6-0.7s-0.6-0.2-1-0.2s-0.8,0.1-1.1,0.3c-0.3,0.2-0.5,0.4-0.7,0.8s-0.3,0.7-0.4,1.1
						S-9.4-70.2-9.4-69.7z M-3.8-70.7L-5-70.3c0-0.6,0.1-1.1,0.2-1.7s0.4-1,0.7-1.4s0.7-0.7,1.1-1s1-0.4,1.5-0.4s0.9,0.1,1.3,0.2
						s0.7,0.4,0.9,0.7s0.5,0.7,0.6,1.2s0.2,1.1,0.2,1.7v7h-1.7v-7c0-0.6-0.1-1.1-0.2-1.4S-0.8-73-1-73.1s-0.6-0.2-1-0.2
						c-0.3,0-0.6,0.1-0.8,0.2s-0.4,0.3-0.6,0.6s-0.1,0.5-0.2,0.8C-3.7-71.4-3.8-71-3.8-70.7z"/>
					<path class="st27" d="M6-72.5v12.6H4.3v-14.7h1.6L6-72.5z M11.9-69.8v1c0,0.8-0.1,1.6-0.2,2.2S11.3-65.5,11-65
						s-0.7,0.7-1.1,0.9c-0.4,0.2-0.9,0.3-1.5,0.3s-1-0.1-1.4-0.3c-0.4-0.2-0.7-0.5-1-0.9s-0.5-0.9-0.7-1.5S5-67.7,5-68.4v-1.5
						c0.1-0.7,0.2-1.4,0.3-2s0.4-1.1,0.6-1.5s0.6-0.7,1-1s0.9-0.3,1.4-0.3c0.6,0,1.1,0.1,1.5,0.3s0.8,0.5,1.1,0.9s0.5,0.9,0.7,1.6
						S11.9-70.6,11.9-69.8z M10.1-68.8v-1c0-0.6,0-1.1-0.1-1.5s-0.2-0.8-0.4-1.1c-0.2-0.3-0.4-0.5-0.7-0.6s-0.6-0.2-1-0.2
						c-0.3,0-0.6,0.1-0.9,0.2s-0.5,0.3-0.7,0.6c-0.2,0.3-0.3,0.5-0.5,0.8s-0.2,0.6-0.3,1v3c0.1,0.4,0.3,0.8,0.4,1.2
						C6-66,6.3-65.7,6.6-65.5c0.3,0.2,0.7,0.3,1.2,0.3c0.4,0,0.7-0.1,1-0.2s0.5-0.4,0.7-0.6s0.3-0.7,0.4-1.1
						C10-67.5,10.1-68.2,10.1-68.8z"/>
					<path class="st27" d="M19.6-70.4v1.3h-1.2c-0.4,0-0.8,0-1.1,0.1c-0.3,0.1-0.6,0.2-0.9,0.4c-0.3,0.2-0.4,0.4-0.6,0.6
						s-0.2,0.5-0.2,0.9s0.1,0.8,0.2,1c0.1,0.2,0.3,0.4,0.5,0.5s0.5,0.2,0.9,0.2s0.8-0.1,1.2-0.3c0.4-0.2,0.6-0.4,0.8-0.7
						s0.3-0.6,0.3-0.8l0.4,0.8c0,0.3-0.1,0.5-0.2,0.8s-0.3,0.6-0.6,0.8s-0.5,0.5-0.9,0.7c-0.4,0.2-0.7,0.3-1.1,0.3
						c-0.6,0-1.1-0.1-1.6-0.4c-0.5-0.3-0.8-0.6-1.1-1s-0.4-1-0.4-1.7c0-0.5,0.1-1,0.3-1.4s0.4-0.8,0.8-1.1c0.4-0.3,0.8-0.6,1.3-0.7
						c0.5-0.1,1.1-0.3,1.8-0.3C18.2-70.4,19.6-70.4,19.6-70.4z M19.3-65.8v-5.7c0-0.4-0.1-0.8-0.2-1s-0.3-0.5-0.6-0.6
						s-0.6-0.2-0.9-0.2c-0.4,0-0.7,0.1-0.9,0.2s-0.5,0.3-0.6,0.6s-0.2,0.5-0.2,0.8h-1.7c0-0.4,0.1-0.8,0.2-1.1
						c0.1-0.3,0.4-0.7,0.7-1s0.7-0.5,1.1-0.7c0.4-0.2,0.9-0.3,1.5-0.3c0.7,0,1.2,0.1,1.7,0.3s0.9,0.6,1.2,1s0.4,1.1,0.4,1.9v5.2
						c0,0.4,0,0.7,0.1,1.1s0.1,0.7,0.2,1v0.3h-1.8c-0.1-0.2-0.1-0.5-0.2-0.8C19.2-65.1,19.3-65.5,19.3-65.8z"/>
					<path class="st27" d="M27.5-74.6v1.4h-4.9v-1.4H27.5z M24.2-77.1h1.7v10.5c0,0.4,0,0.6,0.1,0.8c0.1,0.2,0.2,0.3,0.3,0.4
						c0.1,0.1,0.3,0.1,0.4,0.1s0.2,0,0.4,0s0.2-0.1,0.3-0.1v1.5c-0.1,0-0.3,0.1-0.5,0.1s-0.4,0.1-0.7,0.1c-0.4,0-0.7-0.1-1-0.3
						s-0.5-0.5-0.7-1s-0.3-1-0.3-1.7C24.2-66.7,24.2-77.1,24.2-77.1z"/>
					<path class="st27" d="M29.6-77.4c0-0.3,0.1-0.5,0.2-0.7s0.4-0.3,0.7-0.3s0.6,0.1,0.7,0.3c0.1,0.2,0.2,0.4,0.2,0.7
						s-0.1,0.5-0.2,0.7s-0.4,0.3-0.7,0.3s-0.6-0.1-0.7-0.3C29.7-76.9,29.6-77.1,29.6-77.4z M31.5-74.6V-64h-1.7v-10.6H31.5z"/>
					<path class="st27" d="M34.2-79h1.7v12.9L35.8-64h-1.6V-79z M41.8-69.8v1c0,0.8-0.1,1.6-0.2,2.2s-0.4,1.1-0.7,1.6
						s-0.7,0.7-1.1,0.9c-0.4,0.2-0.9,0.3-1.5,0.3c-0.5,0-1-0.1-1.4-0.3c-0.4-0.2-0.7-0.5-1-1s-0.4-0.9-0.6-1.5s-0.3-1.3-0.3-2v-1.3
						c0.1-0.7,0.2-1.4,0.3-2s0.4-1.1,0.6-1.5c0.2-0.4,0.6-0.7,1-1s0.9-0.3,1.4-0.3c0.6,0,1.1,0.1,1.5,0.3c0.4,0.2,0.8,0.5,1.1,0.9
						s0.5,0.9,0.7,1.6S41.8-70.6,41.8-69.8z M40.1-68.8v-1c0-0.6,0-1.1-0.1-1.5s-0.2-0.8-0.4-1.1c-0.2-0.3-0.4-0.5-0.7-0.6
						s-0.6-0.2-1-0.2S37.2-73.1,37-73s-0.5,0.3-0.7,0.6c-0.2,0.3-0.3,0.5-0.5,0.8s-0.2,0.6-0.3,1v2.8c0.1,0.4,0.2,0.8,0.4,1.2
						s0.4,0.7,0.8,1s0.7,0.4,1.2,0.4c0.4,0,0.7-0.1,1-0.2s0.5-0.3,0.7-0.6c0.2-0.3,0.3-0.6,0.4-1.1S40.1-68.2,40.1-68.8z"/>
					<path class="st27" d="M44.1-77.4c0-0.3,0.1-0.5,0.2-0.7c0.1-0.2,0.4-0.3,0.7-0.3s0.6,0.1,0.7,0.3c0.1,0.2,0.2,0.4,0.2,0.7
						s-0.1,0.5-0.2,0.7c-0.1,0.2-0.4,0.3-0.7,0.3s-0.6-0.1-0.7-0.3C44.2-76.9,44.1-77.1,44.1-77.4z M45.9-74.6V-64h-1.7v-10.6H45.9z
						"/>
					<path class="st27" d="M50.5-79v15h-1.7v-15H50.5z"/>
					<path class="st27" d="M53.3-77.4c0-0.3,0.1-0.5,0.2-0.7c0.1-0.2,0.4-0.3,0.7-0.3s0.6,0.1,0.7,0.3c0.1,0.2,0.2,0.4,0.2,0.7
						s-0.1,0.5-0.2,0.7c-0.1,0.2-0.4,0.3-0.7,0.3s-0.6-0.1-0.7-0.3C53.4-76.9,53.3-77.1,53.3-77.4z M55.1-74.6V-64h-1.7v-10.6H55.1z
						"/>
					<path class="st27" d="M61.7-74.6v1.4h-4.9v-1.4H61.7z M58.4-77.1h1.7v10.5c0,0.4,0,0.6,0.1,0.8c0.1,0.2,0.2,0.3,0.3,0.4
						s0.3,0.1,0.4,0.1s0.2,0,0.4,0s0.2-0.1,0.3-0.1v1.5c-0.1,0-0.3,0.1-0.5,0.1s-0.4,0.1-0.7,0.1c-0.4,0-0.7-0.1-1-0.3
						s-0.6-0.5-0.8-0.9s-0.3-1-0.3-1.7L58.4-77.1L58.4-77.1z"/>
					<path class="st27" d="M64.7-74.6l2.1,8.2l0.4,1.9L66-63.8l-3.2-10.8H64.7z M66.2-65.1l2.4-9.5h1.8l-3.5,12.2
						c-0.1,0.3-0.2,0.5-0.3,0.8s-0.3,0.6-0.5,0.9s-0.5,0.5-0.8,0.7s-0.7,0.3-1.1,0.3c-0.1,0-0.3,0-0.5-0.1s-0.3-0.1-0.4-0.1v-1.5
						c0,0,0.1,0,0.2,0s0.1,0,0.2,0c0.3,0,0.6-0.1,0.9-0.2s0.4-0.3,0.6-0.5s0.3-0.6,0.4-1L66.2-65.1z"/>
				</g>
			</g>
		</g>
	</g>
</g>
<g id="g-root-tx_crossdev_v6492h1ccrq4n-stroke" transform="translate(120.669677734375, 482)">
</g>
<g id="g-root-tx_usefulfo_940j551ccujgk-stroke" transform="translate(530, 626)">
</g>
<g id="g-root-tx_freetous_1qaq4151ccvz0v-fill" transform="translate(137.8363037109375, 182)">
	<g id="tx_freetous_1qaq4151ccvz0v-fill-merged">
		<g>
			<g>
				<g class="st23">
					<path class="st28" d="M-30.2-119.2v14.2H-32v-14.2H-30.2z M-24.6-119.2v1.5h-5.9v-1.5H-24.6z M-25.4-112.8v1.5h-5.1v-1.5H-25.4
						z"/>
					<path class="st28" d="M-20.9-113.9v8.9h-1.7v-10.6h1.7V-113.9z M-18.2-115.6v1.7c-0.2-0.1-0.3-0.1-0.4-0.1s-0.2,0-0.4,0
						c-0.3,0-0.6,0.1-0.9,0.2s-0.5,0.3-0.6,0.5s-0.3,0.5-0.4,0.8s-0.2,0.7-0.2,1.1l-0.4,0.3c0-0.6,0.1-1.2,0.2-1.8s0.3-1.1,0.5-1.5
						s0.5-0.8,0.8-1s0.7-0.4,1.2-0.4c0.1,0,0.2,0,0.4,0S-18.3-115.7-18.2-115.6z"/>
					<path class="st28" d="M-12.7-104.8c-0.6,0-1.2-0.1-1.7-0.3s-0.9-0.5-1.3-0.9s-0.6-0.9-0.8-1.5s-0.3-1.3-0.3-2.1v-1.2
						c0-0.9,0.1-1.7,0.3-2.4c0.2-0.7,0.5-1.2,0.9-1.6s0.8-0.7,1.3-0.9c0.5-0.2,1-0.3,1.4-0.3c0.7,0,1.2,0.1,1.7,0.3
						c0.5,0.2,0.8,0.5,1.1,1s0.5,0.9,0.6,1.6s0.2,1.3,0.2,2.1v1h-6.6v-1.5h4.9v-0.2c0-0.5-0.1-1-0.2-1.4s-0.3-0.7-0.6-1
						s-0.7-0.4-1.2-0.4c-0.3,0-0.6,0.1-0.9,0.2c-0.3,0.1-0.5,0.3-0.7,0.6s-0.3,0.6-0.4,1.1s-0.2,1-0.2,1.8v1.2
						c0,0.6,0.1,1.1,0.2,1.5s0.3,0.7,0.5,1s0.5,0.5,0.8,0.6s0.7,0.2,1.1,0.2c0.6,0,1.1-0.1,1.4-0.3s0.7-0.5,1-0.9l0.9,1.1
						c-0.2,0.3-0.4,0.5-0.7,0.8s-0.7,0.4-1.1,0.6S-12.1-104.8-12.7-104.8z"/>
					<path class="st28" d="M-3.3-104.8c-0.6,0-1.2-0.1-1.7-0.3s-0.9-0.5-1.3-0.9s-0.6-0.9-0.8-1.5s-0.3-1.3-0.3-2.1v-1.2
						c0-0.9,0.1-1.7,0.3-2.4c0.2-0.7,0.5-1.2,0.9-1.6s0.8-0.7,1.3-0.9c0.5-0.2,1-0.3,1.4-0.3c0.7,0,1.2,0.1,1.7,0.3
						c0.5,0.2,0.8,0.5,1.1,1s0.5,0.9,0.6,1.6c0.1,0.7,0.2,1.3,0.2,2.1v1h-6.6v-1.5h4.9v-0.2c0-0.5-0.1-1-0.2-1.4s-0.3-0.7-0.6-1
						s-0.7-0.4-1.2-0.4c-0.3,0-0.6,0.1-0.9,0.2c-0.3,0.1-0.5,0.3-0.7,0.6s-0.3,0.6-0.4,1.1s-0.2,1-0.2,1.8v1.2
						c0,0.6,0.1,1.1,0.2,1.5s0.3,0.7,0.5,1s0.5,0.5,0.8,0.6s0.7,0.2,1.1,0.2c0.6,0,1.1-0.1,1.4-0.3s0.7-0.5,1-0.9l0.9,1.1
						c-0.2,0.3-0.4,0.5-0.7,0.8s-0.7,0.4-1.1,0.6S-2.7-104.8-3.3-104.8z"/>
					<path class="st28" d="M10.7-115.6v1.4H5.8v-1.4H10.7z M7.4-118.1h1.7v10.5c0,0.4,0,0.6,0.1,0.8c0.1,0.2,0.2,0.3,0.3,0.4
						s0.3,0.1,0.4,0.1c0.1,0,0.2,0,0.4,0s0.2-0.1,0.3-0.1v1.5c-0.1,0-0.3,0.1-0.5,0.1s-0.4,0.1-0.7,0.1c-0.4,0-0.7-0.1-1-0.3
						s-0.6-0.5-0.8-0.9s-0.3-1-0.3-1.7L7.4-118.1L7.4-118.1z"/>
					<path class="st28" d="M12.4-109.8v-1c0-0.8,0.1-1.5,0.3-2.2s0.5-1.1,0.9-1.6s0.8-0.7,1.3-0.9s1-0.3,1.6-0.3s1.1,0.1,1.6,0.3
						s0.9,0.5,1.3,0.9s0.7,0.9,0.9,1.6s0.3,1.3,0.3,2.2v1c0,0.8-0.1,1.5-0.3,2.2s-0.5,1.1-0.9,1.6s-0.8,0.7-1.3,0.9s-1,0.3-1.6,0.3
						s-1.1-0.1-1.6-0.3s-0.9-0.5-1.3-0.9s-0.7-0.9-0.9-1.6C12.5-108.3,12.4-109,12.4-109.8z M14.1-110.8v1c0,0.6,0.1,1.1,0.2,1.5
						c0.1,0.4,0.3,0.8,0.5,1.1s0.5,0.5,0.8,0.7s0.6,0.2,0.9,0.2c0.4,0,0.7-0.1,1-0.2s0.5-0.4,0.7-0.7c0.2-0.3,0.3-0.7,0.4-1.1
						s0.1-0.9,0.1-1.5v-1c0-0.6-0.1-1.1-0.2-1.5s-0.3-0.8-0.5-1.1s-0.5-0.5-0.8-0.7s-0.6-0.2-0.9-0.2s-0.6,0.1-0.9,0.2
						c-0.3,0.1-0.5,0.4-0.7,0.7s-0.4,0.7-0.5,1.1C14.1-111.9,14.1-111.4,14.1-110.8z"/>
					<path class="st28" d="M34.3-119.2h1.8v10c0,1.1-0.2,1.9-0.6,2.6c-0.4,0.7-0.9,1.1-1.6,1.4s-1.4,0.4-2.2,0.4s-1.6-0.1-2.2-0.4
						s-1.2-0.8-1.6-1.4s-0.6-1.5-0.6-2.6v-10h1.8v10c0,0.7,0.1,1.3,0.3,1.7s0.5,0.7,0.9,0.9c0.4,0.2,0.8,0.3,1.4,0.3
						c0.5,0,1-0.1,1.4-0.3c0.4-0.2,0.7-0.5,0.9-0.9s0.3-1,0.3-1.7V-119.2L34.3-119.2z"/>
					<path class="st28" d="M43.8-107.7c0-0.3-0.1-0.5-0.2-0.7s-0.3-0.4-0.6-0.6s-0.7-0.4-1.2-0.6s-0.9-0.4-1.3-0.6
						c-0.4-0.2-0.7-0.4-1-0.6s-0.5-0.5-0.6-0.8s-0.2-0.7-0.2-1.1s0.1-0.8,0.2-1.2s0.4-0.7,0.7-1s0.6-0.5,1.1-0.6s0.9-0.2,1.4-0.2
						c0.7,0,1.3,0.1,1.8,0.4s0.9,0.7,1.2,1.1s0.4,1,0.4,1.6h-1.7c0-0.3-0.1-0.6-0.2-0.8c-0.1-0.2-0.3-0.5-0.6-0.6s-0.6-0.2-0.9-0.2
						c-0.4,0-0.7,0.1-0.9,0.2s-0.4,0.3-0.5,0.5s-0.2,0.5-0.2,0.7s0,0.4,0.1,0.5s0.2,0.3,0.3,0.4s0.3,0.2,0.6,0.4
						c0.3,0.2,0.5,0.3,0.9,0.4c0.7,0.3,1.3,0.6,1.8,0.8s0.9,0.6,1.1,1c0.2,0.4,0.4,0.9,0.4,1.4s-0.1,0.9-0.2,1.3s-0.4,0.7-0.7,1
						s-0.7,0.5-1.1,0.6s-0.9,0.2-1.4,0.2c-0.8,0-1.5-0.2-2-0.5s-1-0.7-1.2-1.2s-0.4-1.1-0.4-1.6h1.7c0,0.5,0.1,0.9,0.3,1.2
						s0.5,0.5,0.7,0.6s0.6,0.2,0.9,0.2c0.4,0,0.7-0.1,1-0.2s0.5-0.3,0.6-0.5S43.8-107.4,43.8-107.7z"/>
					<path class="st28" d="M51.5-104.8c-0.6,0-1.2-0.1-1.7-0.3s-0.9-0.5-1.3-0.9s-0.6-0.9-0.8-1.5s-0.3-1.3-0.3-2.1v-1.2
						c0-0.9,0.1-1.7,0.3-2.4c0.2-0.7,0.5-1.2,0.9-1.6s0.8-0.7,1.3-0.9c0.5-0.2,1-0.3,1.4-0.3c0.7,0,1.2,0.1,1.7,0.3
						c0.5,0.2,0.8,0.5,1.1,1s0.5,0.9,0.6,1.6s0.2,1.3,0.2,2.1v1h-6.6v-1.5h4.9v-0.2c0-0.5-0.1-1-0.2-1.4s-0.3-0.7-0.6-1
						s-0.7-0.4-1.2-0.4c-0.3,0-0.6,0.1-0.9,0.2c-0.3,0.1-0.5,0.3-0.7,0.6s-0.3,0.6-0.4,1.1s-0.2,1-0.2,1.8v1.2
						c0,0.6,0.1,1.1,0.2,1.5s0.3,0.7,0.5,1s0.5,0.5,0.8,0.6s0.7,0.2,1.1,0.2c0.6,0,1.1-0.1,1.4-0.3s0.7-0.5,1-0.9l0.9,1.1
						c-0.2,0.3-0.4,0.5-0.7,0.8s-0.7,0.4-1.1,0.6S52.1-104.8,51.5-104.8z"/>
				</g>
			</g>
		</g>
	</g>
</g>
<g id="g-root-tx_freetous_1qaq4151ccvz0v-stroke" transform="translate(137.8363037109375, 182)">
</g>
<g id="g-root-ic_inte_qtf17t1ccvxfl-fill" transform="translate(254, 167)">
</g>
<g id="g-root-ic_inte_qtf17t1ccvxfl-stroke" transform="translate(254, 167)">
	<g id="ic_inte_qtf17t1ccvxfl-stroke">
		<g>
			<path class="st2" d="M-31.7-94h15.2 M-30.5-118h38 M-11.5-106h-23 M-14.8-82.2c-11.8-1.7-20.3-12.1-19.7-24
				c0.7-11.9,10.2-21.3,22.1-21.8s22.2,8.2,23.7,20 M-13-127.9c-11.2,12.1-11.7,27.8-1.9,42.9 M-10-127.9c5.4,5.6,8.6,13,8.9,20.9
				 M10.5-86.3v1.3c0,1.7-1.3,3-3,3h-15c-1.7,0-3-1.3-3-3v-10c0-1.7,1.3-3,3-3h15c1.7,0,3,1.3,3,3v1.3 M7.1-98l-2.3-4.6
				c-0.4-0.7-1.2-1-2-0.7L-7.5-98 M6.5-90.5C6.8-90.5,7-90.3,7-90s-0.2,0.5-0.5,0.5S6-89.7,6-90S6.2-90.5,6.5-90.5 M11.5-88
				c0,1.1-0.9,2-2,2h-4c-2.2,0-4-1.8-4-4s1.8-4,4-4h4c1.1,0,2,0.9,2,2V-88z"/>
		</g>
	</g>
</g>
<g id="g-root-ic_1_1lua7zd1ccrp4x-fill" transform="translate(470, 584)">
</g>
<g id="g-root-ic_1_1lua7zd1ccrp4x-stroke" transform="translate(470, 584)">
	<g id="ic_1_1lua7zd1ccrp4x-stroke">
		<g>
			<path class="st2" d="M-20.7-65.9v-10.8c-1.6-1.5-2.9-3.3-3.8-5.3 M-2.5-65.9v-5.2h2.6c1.4,0,2.7-0.5,3.7-1.5s1.5-2.3,1.5-3.7
				v-5.2h3.3c0.2,0,0.4-0.1,0.6-0.2c0.2-0.1,0.3-0.2,0.5-0.4c0.1-0.2,0.2-0.4,0.2-0.6s0-0.4-0.1-0.6c-3.9-10.2-6.5-19.4-15.7-21.3
				 M-21.6-87.5c6.2,0,11.3-5.1,11.3-11.3c0-6.2-5.1-11.3-11.3-11.3s-11.3,5.1-11.3,11.3S-27.8-87.5-21.6-87.5z M-13.3-91.1l6.8,6.7
				 M-24.7-102.2c0-1.6,1.3-3.1,3.1-3.1c1.6,0,3.1,1.3,3.1,3.1c0,1.6-1.3,3.1-3.1,3.1v1.4 M-21.6-93.1c-0.2,0-0.4,0.2-0.4,0.4
				c0,0.2,0.2,0.4,0.4,0.4 M-21.6-93.1c0.2,0,0.4,0.2,0.4,0.4c0,0.2-0.2,0.4-0.4,0.4"/>
		</g>
	</g>
</g>
<g id="g-root-tx_versatil_quo2jt1ccuk97-fill" transform="translate(530, 590)">
	<g id="tx_versatil_quo2jt1ccuk97-fill-merged">
		<g>
			<g>
				<g class="st23">
					<path class="st29" d="M-31.1-102.2l3.4,12.1l0.4,2.2h-1.4l-4.4-14.2L-31.1-102.2L-31.1-102.2z M-28.1-90.2l3.4-12.1h2L-27.1-88
						h-1.4L-28.1-90.2z"/>
					<path class="st29" d="M-17.2-87.8c-0.6,0-1.2-0.1-1.7-0.3s-0.9-0.5-1.3-0.9s-0.6-0.9-0.8-1.5s-0.3-1.3-0.3-2.1v-1.2
						c0-0.9,0.1-1.7,0.3-2.4c0.2-0.7,0.5-1.2,0.9-1.6s0.8-0.7,1.3-0.9c0.5-0.2,1-0.3,1.4-0.3c0.7,0,1.2,0.1,1.7,0.3
						c0.5,0.2,0.8,0.5,1.1,1s0.5,0.9,0.6,1.6s0.2,1.3,0.2,2.1v1h-6.6v-1.5h4.9v-0.2c0-0.5-0.1-1-0.2-1.4s-0.3-0.7-0.6-1
						s-0.7-0.4-1.2-0.4c-0.3,0-0.6,0.1-0.9,0.2s-0.5,0.3-0.7,0.6s-0.3,0.6-0.4,1.1s-0.2,1-0.2,1.8v1.2c0,0.6,0.1,1.1,0.2,1.5
						s0.3,0.7,0.5,1s0.5,0.5,0.8,0.6s0.7,0.2,1.1,0.2c0.6,0,1.1-0.1,1.4-0.3s0.7-0.5,1-0.9l0.9,1.1c-0.2,0.3-0.4,0.5-0.7,0.8
						s-0.7,0.4-1.1,0.6S-16.6-87.8-17.2-87.8z"/>
					<path class="st29" d="M-9.9-96.9v8.9h-1.7v-10.6h1.7V-96.9z M-7.3-98.6v1.7C-7.4-97-7.5-97-7.6-97s-0.2,0-0.4,0
						c-0.3,0-0.6,0.1-0.9,0.2c-0.3,0.1-0.5,0.3-0.6,0.5s-0.3,0.5-0.4,0.8s-0.2,0.7-0.2,1.1l-0.4,0.3c0-0.6,0.1-1.2,0.2-1.8
						s0.3-1.1,0.5-1.5s0.5-0.8,0.8-1s0.7-0.4,1.2-0.4c0.1,0,0.2,0,0.4,0S-7.3-98.7-7.3-98.6z"/>
					<path class="st29" d="M-0.4-90.7c0-0.3-0.1-0.5-0.2-0.7s-0.3-0.4-0.6-0.6s-0.7-0.4-1.2-0.6s-0.9-0.4-1.3-0.6s-0.7-0.4-1-0.6
						s-0.5-0.5-0.6-0.8s-0.2-0.7-0.2-1.2s0.1-0.8,0.2-1.2s0.4-0.7,0.7-1s0.6-0.5,1.1-0.6s0.9-0.2,1.4-0.2c0.7,0,1.3,0.1,1.8,0.4
						s0.9,0.7,1.2,1.1s0.4,1,0.4,1.6h-1.8c0-0.3-0.1-0.6-0.2-0.8S-1-97-1.3-97.1s-0.6-0.2-0.9-0.2c-0.4,0-0.7,0.1-0.9,0.2
						s-0.4,0.3-0.5,0.5s-0.2,0.5-0.2,0.7s0,0.4,0.1,0.5s0.2,0.3,0.3,0.4s0.3,0.2,0.6,0.4c0.3,0.2,0.5,0.3,0.9,0.4
						c0.7,0.3,1.3,0.6,1.8,0.8s0.9,0.6,1.1,1s0.4,0.9,0.4,1.4s-0.1,0.9-0.2,1.3s-0.4,0.7-0.7,1s-0.7,0.5-1.1,0.6
						C-1-88-1.5-87.9-2-87.9c-0.8,0-1.5-0.2-2-0.5s-1-0.7-1.2-1.2s-0.4-1.1-0.4-1.6h1.7c0,0.5,0.1,0.9,0.3,1.2s0.5,0.5,0.7,0.6
						s0.6,0.2,0.9,0.2c0.4,0,0.7-0.1,1-0.2s0.5-0.3,0.6-0.5S-0.4-90.4-0.4-90.7z"/>
					<path class="st29" d="M9-94.4v1.3H7.8c-0.4,0-0.8,0-1.1,0.1s-0.6,0.2-0.9,0.4c-0.3,0.2-0.3,0.4-0.5,0.6s-0.2,0.5-0.2,0.9
						s0.1,0.8,0.2,1s0.3,0.4,0.5,0.5s0.5,0.2,0.9,0.2s0.8-0.1,1.2-0.3c0.4-0.2,0.6-0.4,0.8-0.7C8.9-90.7,9-91,9-91.2l0.4,0.8
						c0,0.3-0.1,0.5-0.2,0.8S8.7-89,8.5-88.7C8.3-88.4,8-88.2,7.6-88s-0.7,0.3-1.1,0.3c-0.6,0-1.1-0.1-1.6-0.4s-0.8-0.6-1.1-1
						s-0.4-1-0.4-1.7c0-0.5,0.1-1,0.3-1.4s0.4-0.8,0.8-1.1s0.8-0.6,1.3-0.7s1.1-0.3,1.8-0.3L9-94.4L9-94.4z M8.8-89.8v-5.7
						c0-0.4-0.1-0.8-0.2-1S8.3-96.9,8-97.1s-0.6-0.2-0.9-0.2c-0.4,0-0.7,0.1-0.9,0.2s-0.5,0.3-0.6,0.6S5.4-96,5.4-95.7H3.7
						c0-0.4,0.1-0.8,0.2-1.1c0.1-0.3,0.4-0.7,0.7-1c0.3-0.3,0.7-0.5,1.1-0.7s0.9-0.3,1.5-0.3c0.7,0,1.2,0.1,1.7,0.3s0.9,0.6,1.2,1
						s0.4,1.1,0.4,1.9v5.2c0,0.4,0,0.7,0.1,1.1s0.1,0.7,0.2,1v0.3H9c-0.1-0.2-0.2-0.5-0.2-0.8S8.8-89.5,8.8-89.8z"/>
					<path class="st29" d="M17-98.6v1.4h-4.9v-1.4H17z M13.7-101.1h1.7v10.5c0,0.4,0,0.6,0.1,0.8c0.1,0.2,0.2,0.3,0.3,0.4
						s0.3,0.1,0.4,0.1s0.2,0,0.4,0s0.2-0.1,0.3-0.1v1.5c-0.1,0-0.3,0.1-0.5,0.1s-0.4,0.1-0.7,0.1c-0.4,0-0.7-0.1-1-0.3
						s-0.6-0.5-0.8-0.9s-0.3-1-0.3-1.7L13.7-101.1L13.7-101.1z"/>
					<path class="st29" d="M19.1-101.4c0-0.3,0.1-0.5,0.2-0.7s0.4-0.3,0.7-0.3s0.6,0.1,0.7,0.3c0.1,0.2,0.2,0.4,0.2,0.7
						c0,0.3-0.1,0.5-0.2,0.7s-0.4,0.3-0.7,0.3s-0.6-0.1-0.7-0.3S19.1-101.1,19.1-101.4z M21-98.6V-88h-1.7v-10.6H21z"/>
					<path class="st29" d="M25.5-103v15h-1.7v-15H25.5z"/>
					<path class="st29" d="M32.1-87.8c-0.6,0-1.2-0.1-1.7-0.3s-0.9-0.5-1.3-0.9s-0.6-0.9-0.8-1.5S28-91.8,28-92.6v-1.2
						c0-0.9,0.1-1.7,0.3-2.4c0.2-0.7,0.5-1.2,0.9-1.6s0.8-0.7,1.3-0.9c0.5-0.2,1-0.3,1.4-0.3c0.7,0,1.2,0.1,1.7,0.3
						c0.5,0.2,0.8,0.5,1.1,1s0.5,0.9,0.6,1.6s0.2,1.3,0.2,2.1v1h-6.6v-1.5h4.9v-0.2c0-0.5-0.1-1-0.2-1.4s-0.3-0.7-0.6-1
						s-0.7-0.4-1.2-0.4c-0.3,0-0.6,0.1-0.9,0.2s-0.5,0.3-0.7,0.6s-0.3,0.6-0.4,1.1s-0.2,1-0.2,1.8v1.2c0,0.6,0.1,1.1,0.2,1.5
						s0.3,0.7,0.5,1s0.5,0.5,0.8,0.6s0.7,0.2,1.1,0.2c0.6,0,1.1-0.1,1.4-0.3s0.7-0.5,1-0.9l0.9,1.1c-0.2,0.3-0.4,0.5-0.7,0.8
						s-0.7,0.4-1.1,0.6S32.7-87.8,32.1-87.8z"/>
					<path class="st29" d="M47-93.6h-3.1v-1.5H47c0.6,0,1.1-0.1,1.4-0.4s0.6-0.6,0.8-1s0.2-0.9,0.2-1.4s-0.1-0.9-0.2-1.4
						s-0.4-0.8-0.8-1c-0.4-0.2-0.8-0.4-1.4-0.4h-2.7V-88h-1.8v-14.2H47c0.9,0,1.7,0.2,2.3,0.6s1.1,0.9,1.4,1.5s0.5,1.4,0.5,2.2
						c0,0.9-0.2,1.7-0.5,2.3s-0.8,1.1-1.4,1.5S47.9-93.6,47-93.6z"/>
					<path class="st29" d="M55.1-96.9v8.9h-1.7v-10.6h1.7V-96.9z M57.7-98.6v1.7c-0.1,0-0.3-0.1-0.4-0.1s-0.2,0-0.4,0
						c-0.3,0-0.6,0.1-0.9,0.2c-0.3,0.1-0.5,0.3-0.6,0.5s-0.3,0.5-0.4,0.8s-0.2,0.7-0.2,1.1l-0.4,0.3c0-0.6,0.1-1.2,0.2-1.8
						s0.3-1.1,0.5-1.5s0.5-0.8,0.8-1s0.7-0.4,1.2-0.4c0.1,0,0.2,0,0.4,0S57.6-98.7,57.7-98.6z"/>
					<path class="st29" d="M64.9-94.4v1.3h-1.2c-0.4,0-0.8,0-1.1,0.1s-0.6,0.2-0.9,0.4c-0.3,0.2-0.4,0.4-0.6,0.6s-0.2,0.5-0.2,0.9
						s0.1,0.8,0.2,1c0.1,0.2,0.3,0.4,0.5,0.5s0.5,0.2,0.9,0.2s0.8-0.1,1.2-0.3c0.4-0.2,0.6-0.4,0.8-0.7c0.2-0.3,0.3-0.6,0.3-0.8
						l0.4,0.8c0,0.3-0.1,0.5-0.2,0.8s-0.3,0.6-0.6,0.8c-0.3,0.2-0.5,0.5-0.9,0.7s-0.7,0.3-1.1,0.3c-0.6,0-1.1-0.1-1.6-0.4
						s-0.8-0.6-1.1-1s-0.4-1-0.4-1.7c0-0.5,0.1-1,0.3-1.4s0.4-0.8,0.8-1.1s0.8-0.6,1.3-0.7s1.1-0.3,1.8-0.3
						C63.5-94.4,64.9-94.4,64.9-94.4z M64.6-89.8v-5.7c0-0.4-0.1-0.8-0.2-1s-0.3-0.4-0.6-0.6c-0.3-0.2-0.6-0.2-0.9-0.2
						c-0.4,0-0.7,0.1-0.9,0.2s-0.5,0.3-0.6,0.6s-0.2,0.5-0.2,0.8h-1.7c0-0.4,0.1-0.8,0.2-1.1s0.4-0.7,0.7-1s0.7-0.5,1.1-0.7
						c0.4-0.2,0.9-0.3,1.5-0.3c0.7,0,1.2,0.1,1.7,0.3s0.9,0.6,1.2,1c0.3,0.4,0.4,1.1,0.4,1.9v5.2c0,0.4,0,0.7,0.1,1.1s0.1,0.7,0.2,1
						v0.3h-1.8c-0.1-0.2-0.2-0.5-0.2-0.8C64.6-89.1,64.6-89.5,64.6-89.8z"/>
					<path class="st29" d="M72.7-89.3c0.3,0,0.7-0.1,0.9-0.2s0.5-0.4,0.7-0.7c0.2-0.3,0.3-0.7,0.3-1.2h1.6c0,0.7-0.2,1.3-0.5,1.9
						s-0.8,0.9-1.3,1.2c-0.5,0.3-1.1,0.4-1.8,0.4c-0.7,0-1.3-0.1-1.8-0.3s-0.9-0.5-1.2-1s-0.6-0.9-0.7-1.5s-0.2-1.3-0.2-2.1V-94
						c0-0.8,0.1-1.5,0.2-2.1s0.4-1.1,0.7-1.5s0.7-0.7,1.2-1s1.1-0.3,1.8-0.3c0.7,0,1.3,0.2,1.9,0.5s0.9,0.7,1.2,1.3s0.5,1.3,0.5,2.1
						h-1.6c0-0.5-0.1-1-0.3-1.3c-0.2-0.3-0.4-0.6-0.7-0.8c-0.3-0.2-0.6-0.3-1-0.3c-0.5,0-0.8,0.1-1.1,0.2c-0.3,0.1-0.5,0.4-0.7,0.7
						c-0.2,0.3-0.3,0.7-0.4,1.1s-0.1,0.9-0.1,1.4v1.2c0,0.5,0,1,0.1,1.4s0.2,0.8,0.4,1.1c0.2,0.3,0.4,0.5,0.7,0.7
						C71.8-89.4,72.2-89.3,72.7-89.3z"/>
					<path class="st29" d="M82.1-98.6v1.4h-4.9v-1.4H82.1z M78.8-101.1h1.7v10.5c0,0.4,0,0.6,0.1,0.8c0.1,0.2,0.2,0.3,0.3,0.4
						c0.1,0.1,0.3,0.1,0.4,0.1s0.2,0,0.4,0s0.2-0.1,0.3-0.1v1.5c-0.1,0-0.3,0.1-0.5,0.1s-0.4,0.1-0.7,0.1c-0.4,0-0.7-0.1-1-0.3
						s-0.6-0.5-0.8-0.9s-0.3-1-0.3-1.7L78.8-101.1L78.8-101.1z"/>
					<path class="st29" d="M84.2-101.4c0-0.3,0.1-0.5,0.2-0.7s0.4-0.3,0.7-0.3s0.6,0.1,0.7,0.3c0.1,0.2,0.2,0.4,0.2,0.7
						c0,0.3-0.1,0.5-0.2,0.7s-0.4,0.3-0.7,0.3s-0.6-0.1-0.7-0.3S84.2-101.1,84.2-101.4z M86-98.6V-88h-1.7v-10.6H86z"/>
					<path class="st29" d="M92.4-89.3c0.3,0,0.7-0.1,0.9-0.2s0.5-0.4,0.7-0.7c0.2-0.3,0.3-0.7,0.3-1.2h1.6c0,0.7-0.2,1.3-0.5,1.9
						s-0.8,0.9-1.3,1.2c-0.5,0.3-1.1,0.4-1.8,0.4S91-88,90.5-88.2s-0.9-0.5-1.2-1s-0.6-0.9-0.7-1.5s-0.2-1.3-0.2-2.1V-94
						c0-0.8,0.1-1.5,0.2-2.1s0.4-1.1,0.7-1.5s0.7-0.7,1.2-1s1.1-0.3,1.8-0.3s1.3,0.2,1.9,0.5s0.9,0.7,1.2,1.3s0.5,1.3,0.5,2.1h-1.6
						c0-0.5-0.1-1-0.3-1.3c-0.2-0.3-0.4-0.6-0.7-0.8c-0.3-0.2-0.6-0.3-1-0.3c-0.5,0-0.8,0.1-1.1,0.2c-0.3,0.1-0.5,0.4-0.7,0.7
						c-0.2,0.3-0.3,0.7-0.4,1.1S90-94.5,90-94v1.2c0,0.5,0,1,0.1,1.4s0.2,0.8,0.4,1.1c0.2,0.3,0.4,0.5,0.7,0.7
						C91.5-89.4,92-89.3,92.4-89.3z"/>
					<path class="st29" d="M101.8-87.8c-0.6,0-1.2-0.1-1.7-0.3s-0.9-0.5-1.3-0.9s-0.6-0.9-0.8-1.5s-0.3-1.3-0.3-2.1v-1.2
						c0-0.9,0.1-1.7,0.3-2.4c0.2-0.7,0.5-1.2,0.9-1.6s0.8-0.7,1.3-0.9c0.5-0.2,1-0.3,1.4-0.3c0.7,0,1.2,0.1,1.7,0.3
						c0.5,0.2,0.8,0.5,1.1,1s0.5,0.9,0.6,1.6s0.2,1.3,0.2,2.1v1h-6.6v-1.5h4.9v-0.2c0-0.5-0.1-1-0.2-1.4s-0.3-0.7-0.6-1
						c-0.3-0.3-0.7-0.4-1.2-0.4c-0.3,0-0.6,0.1-0.9,0.2s-0.5,0.3-0.7,0.6s-0.3,0.6-0.4,1.1s-0.2,1-0.2,1.8v1.2
						c0,0.6,0.1,1.1,0.2,1.5s0.3,0.7,0.5,1s0.5,0.5,0.8,0.6s0.7,0.2,1.1,0.2c0.6,0,1.1-0.1,1.4-0.3s0.7-0.5,1-0.9l0.9,1.1
						c-0.2,0.3-0.4,0.5-0.7,0.8s-0.7,0.4-1.1,0.6S102.4-87.8,101.8-87.8z"/>
				</g>
			</g>
		</g>
	</g>
</g>
<g id="g-root-tx_versatil_quo2jt1ccuk97-stroke" transform="translate(530, 590)">
</g>
<g id="g-root-tx_benefits_dgpko91ccvwue-fill" transform="translate(166.52499389648438, 38)" class="st30">
	<g id="tx_benefits_dgpko91ccvwue-fill-merged" class="st31">
		<g>
			<text transform="matrix(1 0 0 1 -33.474 -82)" style="fill:#F4F4F4; font-family:'Helvetica-Bold'; font-size:25px;">Benefits of Delayed Auditory Feedback</text>
		</g>
	</g>
</g>
<g id="g-root-tx_benefits_dgpko91ccvwue-stroke" transform="translate(166.52499389648438, 38)">
</g>
<g id="g-root-tx_worksonp_407ah1ccrqww-stroke" transform="translate(38.46966552734375, 542)">
</g>
</svg>
