<?xml version="1.0" encoding="utf-8"?>
<!-- Generator: Adobe Illustrator 26.3.1, SVG Export Plug-In . SVG Version: 6.00 Build 0)  -->
<svg version="1.1" id="Layer_1" xmlns="http://www.w3.org/2000/svg" xmlns:xlink="http://www.w3.org/1999/xlink" x="0px" y="0px"
	 viewBox="0 0 838 370" style="enable-background:new 0 0 838 370;" xml:space="preserve">
<style type="text/css">
	.st0{fill-rule:evenodd;clip-rule:evenodd;fill:#E55753;}
	.st1{fill:none;stroke:#FFFFFF;stroke-width:2;stroke-linecap:round;stroke-linejoin:round;}
	.st2{fill-rule:evenodd;clip-rule:evenodd;fill:#DE8431;}
	.st3{fill-rule:evenodd;clip-rule:evenodd;fill:#E0CB15;}
	.st4{fill-rule:evenodd;clip-rule:evenodd;fill:#3CC583;}
	.st5{enable-background:new    ;}
	.st6{fill:#FFFFFF;}
	.st7{fill:none;stroke:#F4F4F4;stroke-width:2;stroke-linecap:round;stroke-linejoin:round;}
	.st8{fill:none;stroke:#F4F4F4;stroke-width:2;stroke-linecap:round;stroke-linejoin:round;stroke-dasharray:5,7;}
</style>
<g id="g-root-cp_start_g-start_18jfnpl1ap5d6v-fill" transform="translate(62, 110)">
	<g id="cp_start_g-start_18jfnpl1ap5d6v-fill-merged">
		<g>
			<path class="st0" d="M-21,232.7c0,5.9,2.5,11.6,7,15.8S-3.4,255,3,255h132c6.4,0,12.5-2.3,17-6.5s7-9.8,7-15.8V-81
				c0-6.4-2.5-12.5-7-17s-10.6-7-17-7H3c-6.4,0-12.5,2.5-17,7s-7,10.6-7,17V232.7"/>
		</g>
	</g>
</g>
<g id="g-root-cp_start_g-start_18jfnpl1ap5d6v-stroke" transform="translate(62, 110)">
	<g id="cp_start_g-start_18jfnpl1ap5d6v-stroke">
		<g>
			<path class="st1" d="M159-69v-12c0-6.4-2.5-12.5-7-17s-10.6-7-17-7H3c-6.4,0-12.5,2.5-17,7s-7,10.6-7,17v12 M159,99V-69 M-21-69
				V99 M159,99v133.7c0,5.9-2.5,11.6-7,15.8s-10.6,6.5-17,6.5H3c-6.4,0-12.5-2.3-17-6.5s-7-9.8-7-15.8V99"/>
		</g>
	</g>
</g>
<g id="g-root-cp_1_g-1_143m5l51ap5dz4-fill" transform="translate(254, 110)">
	<g id="cp_1_g-1_143m5l51ap5dz4-fill-merged">
		<g>
			<path class="st2" d="M-21,232.7c0,5.9,2.5,11.6,7,15.8S-3.4,255,3,255h132c6.4,0,12.5-2.3,17-6.5s7-9.8,7-15.8V-81
				c0-6.4-2.5-12.5-7-17s-10.6-7-17-7H3c-6.4,0-12.5,2.5-17,7s-7,10.6-7,17V232.7"/>
		</g>
	</g>
</g>
<g id="g-root-cp_1_g-1_143m5l51ap5dz4-stroke" transform="translate(254, 110)">
	<g id="cp_1_g-1_143m5l51ap5dz4-stroke">
		<g>
			<path class="st1" d="M159,99V-69 M-21-69V99 M159,99v133.7c0,5.9-2.5,11.6-7,15.8s-10.6,6.5-17,6.5H3c-6.4,0-12.5-2.3-17-6.5
				s-7-9.8-7-15.8V99 M159-69v-12c0-6.4-2.5-12.5-7-17s-10.6-7-17-7H3c-6.4,0-12.5,2.5-17,7s-7,10.6-7,17v12"/>
		</g>
	</g>
</g>
<g id="g-root-cp_2_g-2_qs5n7t1ap5fk1-fill" transform="translate(446, 110)">
	<g id="cp_2_g-2_qs5n7t1ap5fk1-fill-merged">
		<g>
			<path class="st3" d="M-21,232.7c0,5.9,2.5,11.6,7,15.8S-3.4,255,3,255h132c6.4,0,12.5-2.3,17-6.5s7-9.8,7-15.8V-81
				c0-6.4-2.5-12.5-7-17s-10.6-7-17-7H3c-6.4,0-12.5,2.5-17,7s-7,10.6-7,17V232.7"/>
		</g>
	</g>
</g>
<g id="g-root-cp_2_g-2_qs5n7t1ap5fk1-stroke" transform="translate(446, 110)">
	<g id="cp_2_g-2_qs5n7t1ap5fk1-stroke">
		<g>
			<path class="st1" d="M159-69v-12c0-6.4-2.5-12.5-7-17s-10.6-7-17-7H3c-6.4,0-12.5,2.5-17,7s-7,10.6-7,17v12 M159,99V-69 M-21-69
				V99 M159,99v133.7c0,5.9-2.5,11.6-7,15.8s-10.6,6.5-17,6.5H3c-6.4,0-12.5-2.3-17-6.5s-7-9.8-7-15.8V99"/>
		</g>
	</g>
</g>
<g id="g-root-cp_end_g-end_hx54211ap5d6y-fill" transform="translate(638, 110)">
	<g id="cp_end_g-end_hx54211ap5d6y-fill-merged">
		<g>
			<path class="st4" d="M-21,232.7c0,5.9,2.5,11.6,7,15.8S-3.4,255,3,255h132c6.4,0,12.5-2.3,17-6.5s7-9.8,7-15.8V-81
				c0-6.4-2.5-12.5-7-17s-10.6-7-17-7H3c-6.4,0-12.5,2.5-17,7s-7,10.6-7,17V232.7"/>
		</g>
	</g>
</g>
<g id="g-root-cp_end_g-end_hx54211ap5d6y-stroke" transform="translate(638, 110)">
	<g id="cp_end_g-end_hx54211ap5d6y-stroke">
		<g>
			<path class="st1" d="M159-69v-12c0-6.4-2.5-12.5-7-17s-10.6-7-17-7H3c-6.4,0-12.5,2.5-17,7s-7,10.6-7,17v12 M159,99V-69 M-21-69
				V99 M159,99v133.7c0,5.9-2.5,11.6-7,15.8s-10.6,6.5-17,6.5H3c-6.4,0-12.5-2.3-17-6.5s-7-9.8-7-15.8V99"/>
		</g>
	</g>
</g>
<g id="g-root-cp_0_g-0_dhblxl1ap5dz7-fill" transform="translate(26, 278)">
</g>
<g id="g-root-cp_0_g-0_1_4lolop1ap5erw-fill" transform="translate(269, 359)">
</g>
<g id="g-root-tx_unadjust_1lw54951ap5ds6-fill" transform="translate(96.58334350585938, 158)">
	<g id="tx_unadjust_1lw54951ap5ds6-fill-merged">
		<g>
			<g class="st5">
				<path class="st6" d="M-9-86.5v-8.8h3.1v8.8c0,1.5-0.2,2.7-0.7,3.6c-0.9,1.6-2.6,2.3-5.1,2.3s-4.2-0.8-5.1-2.3
					c-0.5-0.9-0.7-2-0.7-3.6v-8.8h3.1v8.8c0,1,0.1,1.7,0.4,2.2c0.4,0.8,1.2,1.2,2.4,1.2s2-0.4,2.4-1.2C-9.1-84.8-9-85.6-9-86.5z"/>
				<path class="st6" d="M1.7-89.6c-0.9,0-1.6,0.4-1.9,1.2c-0.2,0.4-0.3,1-0.3,1.6v5.8h-2.8v-10.6h2.7v1.6c0.4-0.5,0.7-0.9,1-1.2
					c0.6-0.4,1.3-0.6,2.2-0.6c1.1,0,2,0.3,2.7,0.9s1,1.5,1,2.9v7.2H3.5v-6.5c0-0.6-0.1-1-0.2-1.3C3-89.3,2.5-89.6,1.7-89.6z"/>
				<path class="st6" d="M9.4-90.5c0.7-0.9,2-1.4,3.8-1.4c1.2,0,2.2,0.2,3.1,0.7c0.9,0.5,1.4,1.3,1.4,2.6v4.9c0,0.3,0,0.7,0,1.2
					c0,0.4,0.1,0.6,0.2,0.7s0.2,0.2,0.4,0.3v0.4h-3c-0.1-0.2-0.1-0.4-0.2-0.6S15-82.1,15-82.3c-0.4,0.4-0.8,0.8-1.3,1.1
					c-0.6,0.3-1.3,0.5-2,0.5c-1,0-1.8-0.3-2.4-0.8s-0.9-1.3-0.9-2.3c0-1.3,0.5-2.3,1.5-2.8c0.6-0.3,1.4-0.5,2.4-0.7l0.9-0.1
					c0.5-0.1,0.9-0.1,1.1-0.2c0.4-0.2,0.6-0.4,0.6-0.8s-0.2-0.7-0.5-0.9s-0.7-0.2-1.3-0.2c-0.7,0-1.1,0.2-1.4,0.5
					c-0.2,0.2-0.3,0.6-0.4,1H8.6C8.6-89.1,8.9-89.9,9.4-90.5z M11.4-83c0.3,0.2,0.6,0.3,1,0.3c0.6,0,1.2-0.2,1.7-0.5s0.8-1,0.8-1.9
					v-1c-0.2,0.1-0.4,0.2-0.5,0.3s-0.4,0.1-0.7,0.2l-0.6,0.1c-0.6,0.1-1,0.2-1.3,0.4C11.2-85,11-84.6,11-84
					C11-83.6,11.2-83.2,11.4-83z"/>
				<path class="st6" d="M29.8-95.4V-81h-2.7v-1.5c-0.4,0.6-0.8,1.1-1.4,1.4s-1.1,0.4-1.9,0.4c-1.2,0-2.3-0.5-3.1-1.5
					s-1.3-2.3-1.3-3.9c0-1.8,0.4-3.2,1.3-4.3s2-1.6,3.4-1.6c0.6,0,1.2,0.1,1.7,0.4s0.9,0.7,1.2,1.2v-5.1L29.8-95.4L29.8-95.4z
					 M22.3-86.3c0,1,0.2,1.8,0.6,2.4s1,0.9,1.8,0.9s1.4-0.3,1.8-0.9s0.6-1.3,0.6-2.3c0-1.3-0.3-2.2-1-2.8c-0.4-0.3-0.9-0.5-1.4-0.5
					c-0.8,0-1.4,0.3-1.8,0.9S22.3-87.2,22.3-86.3z"/>
				<path class="st6" d="M32.4-91.6h2.8v11.7c0,1.1-0.2,1.9-0.6,2.4s-1.3,0.8-2.5,0.8c-0.1,0-0.2,0-0.4,0s-0.4,0-0.6,0V-79
					c0.2,0,0.3,0,0.3,0s0.1,0,0.2,0c0.3,0,0.5-0.1,0.6-0.2s0.2-0.4,0.2-0.8V-91.6z M32.4-95.5h2.8v2.6h-2.8V-95.5z"/>
				<path class="st6" d="M44.7-82.5c0,0-0.1,0.1-0.2,0.3s-0.2,0.3-0.4,0.4c-0.4,0.4-0.9,0.7-1.3,0.8s-0.9,0.2-1.4,0.2
					c-1.6,0-2.6-0.6-3.2-1.7c-0.3-0.6-0.5-1.5-0.5-2.8v-6.4h2.9v6.4c0,0.6,0.1,1.1,0.2,1.4c0.3,0.5,0.8,0.8,1.5,0.8
					c1,0,1.6-0.4,2-1.2c0.2-0.4,0.3-1,0.3-1.7v-5.8h2.8V-81h-2.7C44.7-81,44.7-82.5,44.7-82.5z"/>
				<path class="st6" d="M57.4-91.2c0.8,0.5,1.3,1.5,1.4,2.8H56c0-0.4-0.1-0.6-0.3-0.8c-0.3-0.4-0.8-0.6-1.6-0.6
					c-0.6,0-1,0.1-1.3,0.3s-0.4,0.4-0.4,0.7c0,0.3,0.1,0.5,0.4,0.7c0.3,0.1,1.2,0.4,2.9,0.8c1.1,0.3,1.9,0.7,2.5,1.2
					c0.5,0.5,0.8,1.2,0.8,2c0,1.1-0.4,1.9-1.2,2.6s-2,1-3.6,1c-1.7,0-2.9-0.4-3.7-1.1s-1.2-1.6-1.2-2.7h2.8c0.1,0.5,0.2,0.8,0.4,1.1
					c0.3,0.4,1,0.6,1.9,0.6c0.5,0,1-0.1,1.3-0.2s0.5-0.4,0.5-0.7c0-0.3-0.1-0.5-0.4-0.7s-1.2-0.4-2.9-0.8c-1.2-0.3-2.1-0.7-2.5-1.1
					c-0.5-0.4-0.7-1.1-0.7-1.9c0-1,0.4-1.8,1.2-2.5s1.9-1.1,3.3-1.1C55.5-91.9,56.6-91.7,57.4-91.2z"/>
				<path class="st6" d="M66.1-83v2.1h-1.3c-1.3,0-2.2-0.2-2.7-0.7c-0.3-0.3-0.5-0.8-0.5-1.5v-6.6h-1.5v-2h1.5v-3h2.8v3h1.7v2h-1.7
					v5.6c0,0.4,0.1,0.7,0.2,0.8s0.4,0.2,1,0.2c0.1,0,0.2,0,0.3,0S66-83,66.1-83z"/>
				<path class="st6" d="M77-84.1c-0.1,0.6-0.4,1.3-1,1.9c-0.9,1-2.2,1.6-3.8,1.6c-1.4,0-2.5-0.4-3.6-1.3S67-84.2,67-86.2
					c0-1.8,0.5-3.3,1.4-4.2s2.1-1.5,3.6-1.5c0.9,0,1.7,0.2,2.4,0.5s1.3,0.9,1.8,1.6c0.4,0.6,0.7,1.4,0.8,2.2
					c0.1,0.5,0.1,1.2,0.1,2.1h-7.3c0,1.1,0.4,1.8,1,2.2c0.4,0.3,0.8,0.4,1.4,0.4s1-0.2,1.4-0.5c0.2-0.2,0.4-0.4,0.5-0.7H77z
					 M74.2-87.4c0-0.7-0.3-1.3-0.7-1.7s-0.9-0.6-1.5-0.6s-1.1,0.2-1.5,0.6s-0.6,1-0.7,1.6L74.2-87.4L74.2-87.4z"/>
				<path class="st6" d="M88.7-95.4V-81H86v-1.5c-0.4,0.6-0.8,1.1-1.4,1.4s-1.1,0.4-1.9,0.4c-1.2,0-2.3-0.5-3.1-1.5
					s-1.3-2.3-1.3-3.9c0-1.8,0.4-3.2,1.3-4.3s2-1.6,3.4-1.6c0.6,0,1.2,0.1,1.7,0.4s0.9,0.7,1.2,1.2v-5.1L88.7-95.4L88.7-95.4z
					 M81.2-86.3c0,1,0.2,1.8,0.6,2.4s1,0.9,1.8,0.9s1.4-0.3,1.8-0.9s0.6-1.3,0.6-2.3c0-1.3-0.3-2.2-1-2.8c-0.4-0.3-0.9-0.5-1.4-0.5
					c-0.8,0-1.4,0.3-1.8,0.9S81.2-87.2,81.2-86.3z"/>
			</g>
			<g class="st5">
				<path class="st6" d="M5.3-59.1c0.7,0,1.3-0.1,1.7-0.2c0.8-0.3,1.3-0.9,1.3-1.7c0-0.5-0.2-0.8-0.6-1.1c-0.4-0.3-1.1-0.5-2-0.7
					l-1.5-0.3c-1.5-0.3-2.5-0.7-3.1-1.1c-1-0.7-1.5-1.7-1.5-3.1c0-1.3,0.5-2.4,1.4-3.2s2.3-1.3,4.1-1.3c1.5,0,2.8,0.4,3.9,1.2
					s1.6,2,1.7,3.5H7.8c0-0.9-0.4-1.5-1.1-1.9c-0.5-0.2-1.1-0.4-1.7-0.4c-0.8,0-1.4,0.2-1.9,0.5s-0.7,0.7-0.7,1.3
					c0,0.5,0.2,0.9,0.7,1.2C3.4-66.2,4-66,4.9-65.8l2.5,0.6c1.1,0.3,1.9,0.6,2.5,1c0.9,0.7,1.3,1.7,1.3,2.9c0,1.3-0.5,2.4-1.5,3.3
					s-2.4,1.3-4.3,1.3S2.1-57.1,1-58s-1.6-2-1.6-3.5h2.9c0.1,0.7,0.3,1.1,0.5,1.5C3.3-59.4,4.1-59.1,5.3-59.1z"/>
				<path class="st6" d="M22.1-66.5c0.9,0.9,1.3,2.3,1.3,4c0,1.9-0.4,3.3-1.3,4.3s-1.9,1.5-3.3,1.5c-0.8,0-1.5-0.2-2.1-0.6
					c-0.3-0.2-0.6-0.6-0.9-1v5.5H13v-14.8h2.7v1.6c0.3-0.5,0.6-0.8,1-1.1c0.6-0.5,1.4-0.7,2.2-0.7C20.2-67.9,21.2-67.4,22.1-66.5z
					 M20.5-62.3c0-0.8-0.2-1.5-0.6-2.2c-0.4-0.7-1-0.9-1.8-0.9c-1,0-1.7,0.5-2.1,1.4c-0.2,0.5-0.3,1.2-0.3,1.9c0,1.2,0.3,2.1,1,2.6
					c0.4,0.3,0.9,0.4,1.4,0.4c0.8,0,1.4-0.3,1.8-0.9S20.5-61.3,20.5-62.3z"/>
				<path class="st6" d="M34.5-60.1c-0.1,0.6-0.4,1.3-1,1.9c-0.9,1-2.2,1.6-3.8,1.6c-1.4,0-2.5-0.4-3.6-1.3s-1.6-2.3-1.6-4.3
					c0-1.8,0.5-3.3,1.4-4.2s2.1-1.5,3.6-1.5c0.9,0,1.7,0.2,2.4,0.5s1.3,0.9,1.8,1.6c0.4,0.6,0.7,1.4,0.8,2.2
					c0.1,0.5,0.1,1.2,0.1,2.1h-7.3c0,1.1,0.4,1.8,1,2.2c0.4,0.3,0.8,0.4,1.4,0.4s1-0.2,1.4-0.5c0.2-0.2,0.4-0.4,0.5-0.7
					C31.6-60.1,34.5-60.1,34.5-60.1z M31.7-63.4c0-0.7-0.3-1.3-0.7-1.7s-0.9-0.6-1.5-0.6s-1.1,0.2-1.5,0.6s-0.6,1-0.7,1.6L31.7-63.4
					L31.7-63.4z"/>
				<path class="st6" d="M45.6-60.1c-0.1,0.6-0.4,1.3-1,1.9c-0.9,1-2.2,1.6-3.8,1.6c-1.4,0-2.5-0.4-3.6-1.3s-1.6-2.3-1.6-4.3
					c0-1.8,0.5-3.3,1.4-4.2s2.1-1.5,3.6-1.5c0.9,0,1.7,0.2,2.4,0.5s1.3,0.9,1.8,1.6c0.4,0.6,0.7,1.4,0.8,2.2
					c0.1,0.5,0.1,1.2,0.1,2.1h-7.3c0,1.1,0.4,1.8,1,2.2c0.4,0.3,0.8,0.4,1.4,0.4c0.6,0,1-0.2,1.4-0.5c0.2-0.2,0.4-0.4,0.5-0.7
					C42.7-60.1,45.6-60.1,45.6-60.1z M42.9-63.4c0-0.7-0.3-1.3-0.7-1.7s-0.9-0.6-1.5-0.6s-1.1,0.2-1.5,0.6s-0.6,1-0.7,1.6L42.9-63.4
					L42.9-63.4z"/>
				<path class="st6" d="M56.8-63.8H54c-0.1-0.4-0.2-0.8-0.4-1.1c-0.3-0.4-0.8-0.6-1.5-0.6c-0.9,0-1.6,0.5-1.9,1.4
					c-0.2,0.5-0.3,1.2-0.3,2s0.1,1.4,0.3,1.9c0.3,0.9,1,1.3,1.9,1.3c0.7,0,1.1-0.2,1.4-0.5s0.4-0.8,0.5-1.4h2.8
					c-0.1,0.8-0.4,1.6-0.9,2.4c-0.9,1.2-2.2,1.8-3.9,1.8s-3-0.5-3.8-1.5s-1.2-2.3-1.2-4c0-1.8,0.4-3.3,1.3-4.3s2.1-1.5,3.7-1.5
					c1.3,0,2.4,0.3,3.3,0.9S56.7-65.3,56.8-63.8z"/>
				<path class="st6" d="M68.4-63.2v6.2h-2.8v-6.5c0-0.6-0.1-1-0.3-1.4c-0.3-0.5-0.7-0.7-1.4-0.7c-0.7,0-1.3,0.2-1.7,0.7
					s-0.6,1.2-0.6,2.1v5.8h-2.8v-14.3h2.8v5.1c0.4-0.6,0.9-1,1.4-1.3s1.1-0.4,1.7-0.4c0.7,0,1.3,0.1,1.8,0.3s1,0.6,1.3,1
					s0.5,0.8,0.5,1.2S68.4-64.2,68.4-63.2z"/>
			</g>
		</g>
	</g>
</g>
<g id="g-root-tx_unadjust_1lw54951ap5ds6-stroke" transform="translate(96.58334350585938, 158)">
</g>
<g id="g-root-tx_dafactiv_v9ukll1ap5ds8-fill" transform="translate(304.85833740234375, 158)">
	<g id="tx_dafactiv_v9ukll1ap5ds8-fill-merged">
		<g>
			<g class="st5">
				<path class="st6" d="M4.8-81h-6.2v-14.4h6.2c0.9,0,1.6,0.1,2.2,0.3c1,0.3,1.8,0.9,2.5,1.8c0.5,0.7,0.8,1.5,1,2.3
					s0.3,1.6,0.3,2.4c0,1.9-0.4,3.5-1.2,4.9C8.6-81.9,7-81,4.8-81z M7-91.7c-0.5-0.8-1.4-1.2-2.7-1.2H1.5v9.4h2.8
					c1.4,0,2.4-0.7,3-2.1c0.3-0.8,0.5-1.7,0.5-2.7C7.7-89.8,7.5-90.9,7-91.7z"/>
				<path class="st6" d="M21.4-84h-5.3l-1,3H12l5.1-14.4h3.4L25.6-81h-3.3L21.4-84z M20.6-86.4l-1.8-5.7L17-86.4H20.6z"/>
				<path class="st6" d="M37.7-92.8h-7.2v3.3h6.3v2.5h-6.3v6h-3v-14.4h10.2V-92.8z"/>
			</g>
			<g class="st5">
				<path class="st6" d="M-11.4-62.2h-3.1v5.2h-3v-14.4h6.3c1.4,0,2.6,0.4,3.5,1.1s1.3,1.9,1.3,3.4c0,1.7-0.4,2.9-1.3,3.6
					C-8.6-62.6-9.8-62.2-11.4-62.2z M-10-65.2c0.4-0.3,0.6-0.9,0.6-1.6s-0.2-1.3-0.6-1.6s-0.9-0.5-1.7-0.5h-2.8v4.2h2.8
					C-10.9-64.7-10.4-64.8-10-65.2z"/>
				<path class="st6" d="M1-65.1c-1.1,0-1.9,0.4-2.3,1.1c-0.2,0.4-0.3,1-0.3,1.9v5.1h-2.8v-10.6h2.7v1.9c0.4-0.7,0.8-1.2,1.1-1.5
					c0.5-0.4,1.2-0.7,2-0.7c0.1,0,0.1,0,0.1,0s0.1,0,0.2,0v2.9c-0.2,0-0.3,0-0.5,0S1.1-65.1,1-65.1z"/>
				<path class="st6" d="M3.8-66.5c0.7-0.9,2-1.4,3.8-1.4c1.2,0,2.2,0.2,3.1,0.7s1.4,1.3,1.4,2.6v4.9c0,0.3,0,0.7,0,1.2
					c0,0.4,0.1,0.6,0.2,0.7s0.2,0.2,0.4,0.3v0.4h-3c-0.1-0.2-0.1-0.4-0.2-0.6S9.4-58,9.4-58.2c-0.4,0.4-0.8,0.8-1.3,1.1
					c-0.6,0.3-1.3,0.5-2,0.5c-1,0-1.8-0.3-2.4-0.8s-0.9-1.3-0.9-2.3c0-1.3,0.5-2.3,1.5-2.8c0.6-0.3,1.4-0.5,2.4-0.7l0.9-0.1
					c0.5-0.1,0.9-0.1,1.1-0.2c0.4-0.2,0.6-0.4,0.6-0.8S9.1-65,8.8-65.2s-0.7-0.2-1.3-0.2c-0.7,0-1.1,0.2-1.4,0.5
					c-0.2,0.2-0.3,0.6-0.4,1H3C3.1-65.1,3.4-65.9,3.8-66.5z M5.9-59c0.3,0.2,0.6,0.3,1,0.3c0.6,0,1.2-0.2,1.7-0.5s0.8-1,0.8-1.9v-1
					C9.2-62,9-61.9,8.9-61.8s-0.6,0-0.9,0.1l-0.6,0.1c-0.6,0.1-1,0.2-1.3,0.4C5.7-61,5.5-60.6,5.5-60C5.5-59.6,5.6-59.2,5.9-59z"/>
				<path class="st6" d="M23.8-63.8h-2.9c-0.1-0.4-0.2-0.8-0.4-1.1c-0.3-0.4-0.8-0.6-1.5-0.6c-0.9,0-1.6,0.5-1.9,1.4
					c-0.2,0.5-0.3,1.2-0.3,2s0.1,1.4,0.3,1.9c0.3,0.9,1,1.3,1.9,1.3c0.7,0,1.1-0.2,1.4-0.5s0.4-0.8,0.5-1.4h2.8
					c-0.1,0.8-0.4,1.6-0.9,2.4c-0.9,1.2-2.2,1.8-3.9,1.8s-3-0.5-3.8-1.5s-1.2-2.3-1.2-4c0-1.8,0.4-3.3,1.3-4.3s2.1-1.5,3.7-1.5
					c1.3,0,2.4,0.3,3.3,0.9S23.6-65.3,23.8-63.8z"/>
				<path class="st6" d="M30.5-59v2.1h-1.3c-1.3,0-2.2-0.2-2.7-0.7c-0.3-0.3-0.5-0.8-0.5-1.5v-6.6h-1.5v-2H26v-3h2.8v3h1.7v2h-1.7
					v5.6c0,0.4,0.1,0.7,0.2,0.8s0.4,0.2,1,0.2c0.1,0,0.2,0,0.3,0S30.5-59,30.5-59z"/>
				<path class="st6" d="M35.2-71.5v2.6h-2.8v-2.6H35.2z M35.2-67.6V-57h-2.8v-10.6H35.2z"/>
				<path class="st6" d="M47.1-63.8h-2.9c-0.1-0.4-0.2-0.8-0.4-1.1c-0.3-0.4-0.8-0.6-1.5-0.6c-0.9,0-1.6,0.5-1.9,1.4
					c-0.2,0.5-0.3,1.2-0.3,2s0.1,1.4,0.3,1.9c0.3,0.9,1,1.3,1.9,1.3c0.7,0,1.1-0.2,1.4-0.5s0.4-0.8,0.5-1.4H47
					c-0.1,0.8-0.4,1.6-0.9,2.4c-0.9,1.2-2.2,1.8-3.9,1.8s-3-0.5-3.8-1.5s-1.2-2.3-1.2-4c0-1.8,0.4-3.3,1.3-4.3s2.1-1.5,3.7-1.5
					c1.3,0,2.4,0.3,3.3,0.9S46.9-65.3,47.1-63.8z"/>
				<path class="st6" d="M58.1-60.1c-0.1,0.6-0.4,1.3-1,1.9c-0.9,1-2.2,1.6-3.8,1.6c-1.4,0-2.5-0.4-3.6-1.3s-1.6-2.3-1.6-4.3
					c0-1.8,0.5-3.3,1.4-4.2s2.1-1.5,3.6-1.5c0.9,0,1.7,0.2,2.4,0.5s1.3,0.9,1.8,1.6c0.4,0.6,0.7,1.4,0.8,2.2
					c0.1,0.5,0.1,1.2,0.1,2.1H51c0,1.1,0.4,1.8,1,2.2c0.4,0.3,0.8,0.4,1.4,0.4c0.6,0,1-0.2,1.4-0.5c0.2-0.2,0.4-0.4,0.5-0.7
					C55.3-60.1,58.1-60.1,58.1-60.1z M55.4-63.4c0-0.7-0.3-1.3-0.7-1.7s-0.9-0.6-1.5-0.6s-1.1,0.2-1.5,0.6s-0.6,1-0.7,1.6L55.4-63.4
					L55.4-63.4z"/>
			</g>
		</g>
	</g>
</g>
<g id="g-root-tx_dafactiv_v9ukll1ap5ds8-stroke" transform="translate(304.85833740234375, 158)">
</g>
<g id="g-root-tx_brainadj_4nk0y11ap5dsa-fill" transform="translate(481.88330078125, 158)">
	<g id="tx_brainadj_4nk0y11ap5dsa-fill-merged">
		<g>
			<g class="st5">
				<path class="st6" d="M17.7-81h-6.5v-14.4h7c1.8,0,3,0.5,3.8,1.5c0.4,0.6,0.7,1.3,0.7,2.2c0,0.9-0.2,1.6-0.7,2.1
					c-0.2,0.3-0.6,0.6-1.1,0.8c0.7,0.3,1.3,0.7,1.7,1.3s0.6,1.3,0.6,2.1c0,0.9-0.2,1.6-0.6,2.3c-0.3,0.4-0.6,0.8-1,1.1
					c-0.5,0.4-1,0.6-1.6,0.7S18.4-81,17.7-81z M19.1-90.1c0.4-0.2,0.6-0.7,0.6-1.3c0-0.7-0.3-1.1-0.8-1.3c-0.4-0.1-1-0.2-1.7-0.2H14
					v3.2h3.5C18.2-89.7,18.7-89.8,19.1-90.1z M17.6-87.3H14v3.8h3.5c0.6,0,1.1-0.1,1.5-0.3c0.6-0.3,1-0.9,1-1.8
					c0-0.7-0.3-1.3-0.9-1.5C18.8-87.2,18.3-87.3,17.6-87.3z"/>
				<path class="st6" d="M30.7-89.1c-1.1,0-1.9,0.4-2.3,1.1c-0.2,0.4-0.3,1-0.3,1.9v5.1h-2.8v-10.6H28v1.9c0.4-0.7,0.8-1.2,1.1-1.5
					c0.5-0.4,1.2-0.7,2-0.7c0.1,0,0.1,0,0.1,0s0.1,0,0.2,0v2.9c-0.2,0-0.3,0-0.5,0S30.8-89.1,30.7-89.1z"/>
				<path class="st6" d="M33.5-90.5c0.7-0.9,2-1.4,3.8-1.4c1.2,0,2.2,0.2,3.1,0.7s1.4,1.3,1.4,2.6v4.9c0,0.3,0,0.7,0,1.2
					c0,0.4,0.1,0.6,0.2,0.7s0.2,0.2,0.4,0.3v0.4h-3c-0.1-0.2-0.1-0.4-0.2-0.6s-0.1-0.4-0.1-0.6c-0.4,0.4-0.8,0.8-1.3,1.1
					c-0.6,0.3-1.3,0.5-2,0.5c-1,0-1.8-0.3-2.4-0.8s-0.9-1.3-0.9-2.3c0-1.3,0.5-2.3,1.5-2.8c0.6-0.3,1.4-0.5,2.4-0.7l0.9-0.1
					c0.5-0.1,0.9-0.1,1.1-0.2c0.4-0.2,0.6-0.4,0.6-0.8s-0.2-0.7-0.5-0.9s-0.7-0.2-1.3-0.2c-0.7,0-1.1,0.2-1.4,0.5
					c-0.2,0.2-0.3,0.6-0.4,1h-2.7C32.8-89.1,33.1-89.9,33.5-90.5z M35.6-83c0.3,0.2,0.6,0.3,1,0.3c0.6,0,1.2-0.2,1.7-0.5
					s0.8-1,0.8-1.9v-1c-0.2,0.1-0.4,0.2-0.5,0.3s-0.4,0.1-0.7,0.2l-0.6,0.1c-0.6,0.1-1,0.2-1.3,0.4c-0.4,0.3-0.6,0.6-0.6,1.2
					C35.2-83.6,35.3-83.2,35.6-83z"/>
				<path class="st6" d="M47.1-95.5v2.6h-2.8v-2.6H47.1z M47.1-91.6V-81h-2.8v-10.6H47.1z"/>
				<path class="st6" d="M54.8-89.6c-0.9,0-1.6,0.4-1.9,1.2c-0.2,0.4-0.3,1-0.3,1.6v5.8h-2.8v-10.6h2.7v1.6c0.4-0.5,0.7-0.9,1-1.2
					c0.6-0.4,1.3-0.6,2.2-0.6c1.1,0,2,0.3,2.7,0.9s1,1.5,1,2.9v7.2h-2.9v-6.5c0-0.6-0.1-1-0.2-1.3C56.1-89.3,55.6-89.6,54.8-89.6z"
					/>
			</g>
			<g class="st5">
				<path class="st6" d="M-9.1-60h-5.3l-1,3h-3.1l5.1-14.4h3.4L-4.9-57h-3.3L-9.1-60z M-9.9-62.4l-1.8-5.7l-1.9,5.7
					C-13.6-62.4-9.9-62.4-9.9-62.4z"/>
				<path class="st6" d="M6.4-71.4V-57H3.7v-1.5c-0.4,0.6-0.8,1.1-1.4,1.4s-1.1,0.4-1.9,0.4c-1.2,0-2.3-0.5-3.1-1.5S-4-60.5-4-62.1
					c0-1.8,0.4-3.2,1.3-4.3c0.8-1,2-1.6,3.4-1.6c0.6,0,1.2,0.1,1.7,0.4s0.9,0.7,1.2,1.2v-5.1L6.4-71.4L6.4-71.4z M-1.1-62.3
					c0,1,0.2,1.8,0.6,2.4c0.4,0.6,1,0.9,1.8,0.9s1.4-0.3,1.8-0.9s0.6-1.3,0.6-2.3c0-1.3-0.3-2.2-1-2.8c-0.4-0.3-0.9-0.5-1.4-0.5
					c-0.8,0-1.4,0.3-1.8,0.9S-1.1-63.2-1.1-62.3z"/>
				<path class="st6" d="M9.1-67.6h2.8v11.7c0,1.1-0.2,1.9-0.6,2.4c-0.4,0.5-1.3,0.8-2.5,0.8c-0.1,0-0.2,0-0.4,0s-0.4,0-0.6,0V-55
					c0.2,0,0.3,0,0.3,0c0.1,0,0.1,0,0.2,0c0.3,0,0.5-0.1,0.6-0.2C9-55.3,9.1-55.6,9.1-56V-67.6z M9.1-71.5h2.8v2.6H9.1V-71.5z"/>
				<path class="st6" d="M21.3-58.5c0,0-0.1,0.1-0.2,0.3s-0.2,0.3-0.4,0.4c-0.4,0.4-0.9,0.7-1.3,0.8s-0.9,0.2-1.4,0.2
					c-1.6,0-2.6-0.6-3.2-1.7c-0.3-0.6-0.5-1.5-0.5-2.8v-6.4h2.9v6.4c0,0.6,0.1,1.1,0.2,1.4c0.3,0.5,0.8,0.8,1.5,0.8
					c1,0,1.6-0.4,2-1.2c0.2-0.4,0.3-1,0.3-1.7v-5.8H24V-57h-2.7V-58.5z"/>
				<path class="st6" d="M34.1-67.2c0.8,0.5,1.3,1.5,1.4,2.8h-2.8c0-0.4-0.1-0.6-0.3-0.8c-0.3-0.4-0.8-0.6-1.6-0.6
					c-0.6,0-1,0.1-1.3,0.3c-0.3,0.2-0.4,0.4-0.4,0.7c0,0.3,0.1,0.5,0.4,0.7c0.3,0.1,1.2,0.4,2.9,0.8c1.1,0.3,1.9,0.7,2.5,1.2
					c0.5,0.5,0.8,1.2,0.8,2c0,1.1-0.4,1.9-1.2,2.6c-0.8,0.7-2,1-3.6,1c-1.7,0-2.9-0.4-3.7-1.1c-0.8-0.7-1.2-1.6-1.2-2.7h2.8
					c0.1,0.5,0.2,0.8,0.4,1.1c0.3,0.4,1,0.6,1.9,0.6c0.5,0,1-0.1,1.3-0.2s0.5-0.4,0.5-0.7s-0.1-0.5-0.4-0.7
					c-0.3-0.2-1.2-0.4-2.9-0.8c-1.2-0.3-2.1-0.7-2.5-1.1c-0.5-0.4-0.7-1.1-0.7-1.9c0-1,0.4-1.8,1.2-2.5s1.9-1.1,3.3-1.1
					C32.1-67.9,33.2-67.7,34.1-67.2z"/>
				<path class="st6" d="M42.7-59v2.1h-1.3c-1.3,0-2.2-0.2-2.7-0.7c-0.3-0.3-0.5-0.8-0.5-1.5v-6.6h-1.5v-2h1.5v-3H41v3h1.7v2H41v5.6
					c0,0.4,0.1,0.7,0.2,0.8c0.1,0.1,0.4,0.2,1,0.2c0.1,0,0.2,0,0.3,0C42.5-59,42.6-59,42.7-59z"/>
				<path class="st6" d="M50.5-64.7c-0.2-0.5-0.7-0.8-1.4-0.8c-0.8,0-1.3,0.3-1.6,0.8c-0.1,0.3-0.2,0.7-0.2,1.3v6.4h-2.8v-10.6h2.7
					v1.6c0.3-0.6,0.7-0.9,1-1.2c0.5-0.4,1.2-0.6,2.1-0.6c0.8,0,1.5,0.2,2,0.5c0.4,0.3,0.7,0.8,0.9,1.3c0.4-0.6,0.8-1.1,1.4-1.4
					c0.6-0.3,1.2-0.4,1.9-0.4c0.5,0,0.9,0.1,1.4,0.3c0.5,0.2,0.9,0.5,1.2,1c0.3,0.4,0.5,0.8,0.6,1.4c0.1,0.4,0.1,0.9,0.1,1.6v6.7
					h-2.9v-6.8c0-0.4-0.1-0.7-0.2-1c-0.2-0.5-0.7-0.7-1.4-0.7c-0.8,0-1.3,0.3-1.6,1c-0.1,0.3-0.2,0.7-0.2,1.2v6.3h-2.8v-6.3
					C50.7-64,50.6-64.4,50.5-64.7z"/>
				<path class="st6" d="M71.4-60.1c-0.1,0.6-0.4,1.3-1,1.9c-0.9,1-2.2,1.6-3.8,1.6c-1.4,0-2.5-0.4-3.6-1.3s-1.6-2.3-1.6-4.3
					c0-1.8,0.5-3.3,1.4-4.2c0.9-1,2.1-1.5,3.6-1.5c0.9,0,1.7,0.2,2.4,0.5c0.7,0.3,1.3,0.9,1.8,1.6c0.4,0.6,0.7,1.4,0.8,2.2
					c0.1,0.5,0.1,1.2,0.1,2.1h-7.3c0,1.1,0.4,1.8,1,2.2c0.4,0.3,0.8,0.4,1.4,0.4s1-0.2,1.4-0.5c0.2-0.2,0.4-0.4,0.5-0.7
					C68.5-60.1,71.4-60.1,71.4-60.1z M68.7-63.4c0-0.7-0.3-1.3-0.7-1.7s-0.9-0.6-1.5-0.6s-1.1,0.2-1.5,0.6s-0.6,1-0.7,1.6L68.7-63.4
					L68.7-63.4z"/>
				<path class="st6" d="M78.4-65.6c-0.9,0-1.6,0.4-1.9,1.2c-0.2,0.4-0.3,1-0.3,1.6v5.8h-2.8v-10.6h2.7v1.6c0.4-0.5,0.7-0.9,1-1.2
					c0.6-0.4,1.3-0.6,2.2-0.6c1.1,0,2,0.3,2.7,0.9s1,1.5,1,2.9v7.2h-2.9v-6.5c0-0.6-0.1-1-0.2-1.3C79.7-65.3,79.2-65.6,78.4-65.6z"
					/>
				<path class="st6" d="M90.5-59v2.1h-1.3c-1.3,0-2.2-0.2-2.7-0.7C86.2-57.9,86-58.3,86-59v-6.6h-1.5v-2H86v-3h2.8v3h1.7v2h-1.7
					v5.6c0,0.4,0.1,0.7,0.2,0.8s0.4,0.2,1,0.2c0.1,0,0.2,0,0.3,0C90.3-59,90.4-59,90.5-59z"/>
			</g>
		</g>
	</g>
</g>
<g id="g-root-tx_brainadj_4nk0y11ap5dsa-stroke" transform="translate(481.88330078125, 158)">
</g>
<g id="g-root-tx_adjusted_1d2dj9l1ap5dl8-fill" transform="translate(683.4166870117188, 158)">
	<g id="tx_adjusted_1d2dj9l1ap5dl8-fill-merged">
		<g>
			<g class="st5">
				<path class="st6" d="M-9-84h-5.3l-1,3h-3.1l5.1-14.4h3.4l5,14.4h-3.3L-9-84z M-9.9-86.4l-1.8-5.7l-1.9,5.7H-9.9z"/>
				<path class="st6" d="M6.4-95.4V-81H3.7v-1.5c-0.4,0.6-0.8,1.1-1.4,1.4s-1.1,0.4-1.9,0.4c-1.2,0-2.3-0.5-3.1-1.5S-4-84.5-4-86.1
					c0-1.8,0.4-3.2,1.3-4.3c0.8-1,2-1.6,3.4-1.6c0.6,0,1.2,0.1,1.7,0.4s0.9,0.7,1.2,1.2v-5.1L6.4-95.4L6.4-95.4z M-1.1-86.3
					c0,1,0.2,1.8,0.6,2.4s1,0.9,1.8,0.9s1.4-0.3,1.8-0.9s0.6-1.3,0.6-2.3c0-1.3-0.3-2.2-1-2.8c-0.4-0.3-0.9-0.5-1.4-0.5
					c-0.8,0-1.4,0.3-1.8,0.9S-1.1-87.2-1.1-86.3z"/>
				<path class="st6" d="M9.1-91.6h2.8v11.7c0,1.1-0.2,1.9-0.6,2.4c-0.4,0.5-1.3,0.8-2.5,0.8c-0.1,0-0.2,0-0.4,0s-0.4,0-0.6,0V-79
					c0.2,0,0.3,0,0.3,0c0.1,0,0.1,0,0.2,0c0.3,0,0.5-0.1,0.6-0.2s0.2-0.4,0.2-0.8V-91.6z M9.1-95.5h2.8v2.6H9.1V-95.5z"/>
				<path class="st6" d="M21.3-82.5c0,0-0.1,0.1-0.2,0.3c-0.1,0.2-0.2,0.3-0.4,0.4c-0.4,0.4-0.9,0.7-1.3,0.8
					c-0.4,0.1-0.9,0.2-1.4,0.2c-1.6,0-2.6-0.6-3.2-1.7c-0.3-0.6-0.5-1.5-0.5-2.8v-6.4h2.9v6.4c0,0.6,0.1,1.1,0.2,1.4
					c0.3,0.5,0.8,0.8,1.5,0.8c1,0,1.6-0.4,2-1.2c0.2-0.4,0.3-1,0.3-1.7v-5.8H24V-81h-2.7V-82.5z"/>
				<path class="st6" d="M34.1-91.2c0.8,0.5,1.3,1.5,1.4,2.8h-2.8c0-0.4-0.1-0.6-0.3-0.8c-0.3-0.4-0.8-0.6-1.6-0.6
					c-0.6,0-1,0.1-1.3,0.3c-0.3,0.2-0.4,0.4-0.4,0.7c0,0.3,0.1,0.5,0.4,0.7c0.3,0.1,1.2,0.4,2.9,0.8c1.1,0.3,1.9,0.7,2.5,1.2
					c0.5,0.5,0.8,1.2,0.8,2c0,1.1-0.4,1.9-1.2,2.6s-2,1-3.6,1c-1.7,0-2.9-0.4-3.7-1.1c-0.8-0.7-1.2-1.6-1.2-2.7h2.8
					c0.1,0.5,0.2,0.8,0.4,1.1c0.3,0.4,1,0.6,1.9,0.6c0.5,0,1-0.1,1.3-0.2s0.5-0.4,0.5-0.7c0-0.3-0.1-0.5-0.4-0.7
					c-0.3-0.2-1.2-0.4-2.9-0.8c-1.2-0.3-2.1-0.7-2.5-1.1c-0.5-0.4-0.7-1.1-0.7-1.9c0-1,0.4-1.8,1.2-2.5s1.9-1.1,3.3-1.1
					C32.1-91.9,33.2-91.7,34.1-91.2z"/>
				<path class="st6" d="M42.7-83v2.1h-1.3c-1.3,0-2.2-0.2-2.7-0.7c-0.3-0.3-0.5-0.8-0.5-1.5v-6.6h-1.5v-2h1.5v-3H41v3h1.7v2H41v5.6
					c0,0.4,0.1,0.7,0.2,0.8c0.1,0.1,0.4,0.2,1,0.2c0.1,0,0.2,0,0.3,0C42.5-83,42.6-83,42.7-83z"/>
				<path class="st6" d="M53.6-84.1c-0.1,0.6-0.4,1.3-1,1.9c-0.9,1-2.2,1.6-3.8,1.6c-1.4,0-2.5-0.4-3.6-1.3s-1.6-2.3-1.6-4.3
					c0-1.8,0.5-3.3,1.4-4.2c0.9-1,2.1-1.5,3.6-1.5c0.9,0,1.7,0.2,2.4,0.5s1.3,0.9,1.8,1.6c0.4,0.6,0.7,1.4,0.8,2.2
					c0.1,0.5,0.1,1.2,0.1,2.1h-7.3c0,1.1,0.4,1.8,1,2.2c0.4,0.3,0.8,0.4,1.4,0.4c0.6,0,1-0.2,1.4-0.5c0.2-0.2,0.4-0.4,0.5-0.7
					C50.7-84.1,53.6-84.1,53.6-84.1z M50.9-87.4c0-0.7-0.3-1.3-0.7-1.7s-0.9-0.6-1.5-0.6s-1.1,0.2-1.5,0.6s-0.6,1-0.7,1.6L50.9-87.4
					L50.9-87.4z"/>
				<path class="st6" d="M65.3-95.4V-81h-2.7v-1.5c-0.4,0.6-0.8,1.1-1.4,1.4s-1.1,0.4-1.9,0.4c-1.2,0-2.3-0.5-3.1-1.5S55-84.5,55-86
					c0-1.8,0.4-3.2,1.3-4.3c0.8-1,2-1.6,3.4-1.6c0.6,0,1.2,0.1,1.7,0.4s0.9,0.7,1.2,1.2v-5.1H65.3z M57.8-86.3c0,1,0.2,1.8,0.6,2.4
					c0.4,0.6,1,0.9,1.8,0.9s1.4-0.3,1.8-0.9s0.6-1.3,0.6-2.3c0-1.3-0.3-2.2-1-2.8c-0.4-0.3-0.9-0.5-1.4-0.5c-0.8,0-1.4,0.3-1.8,0.9
					S57.8-87.2,57.8-86.3z"/>
			</g>
			<g class="st5">
				<path class="st6" d="M-3.1-59.1c0.7,0,1.3-0.1,1.7-0.2c0.8-0.3,1.3-0.9,1.3-1.7c0-0.5-0.2-0.8-0.6-1.1s-1.1-0.5-2-0.7l-1.5-0.3
					c-1.5-0.3-2.5-0.7-3.1-1.1c-1-0.7-1.5-1.7-1.5-3.1c0-1.3,0.5-2.4,1.4-3.2s2.3-1.3,4.1-1.3c1.5,0,2.8,0.4,3.9,1.2
					c1.1,0.8,1.6,2,1.7,3.5h-2.9c0-0.9-0.4-1.5-1.1-1.9c-0.5-0.2-1.1-0.4-1.7-0.4c-0.8,0-1.4,0.2-1.9,0.5C-5.7-68.5-6-68.1-6-67.5
					c0,0.5,0.2,0.9,0.7,1.2c0.3,0.2,0.9,0.4,1.9,0.6l2.5,0.6c1.1,0.3,1.9,0.6,2.5,1c0.9,0.7,1.3,1.7,1.3,2.9c0,1.3-0.5,2.4-1.5,3.3
					s-2.4,1.3-4.3,1.3s-3.3-0.4-4.4-1.3s-1.6-2-1.6-3.5H-6c0.1,0.7,0.3,1.1,0.5,1.5C-5.1-59.4-4.3-59.1-3.1-59.1z"/>
				<path class="st6" d="M13.7-66.5c0.9,0.9,1.3,2.3,1.3,4c0,1.9-0.4,3.3-1.3,4.3c-0.8,1-1.9,1.5-3.3,1.5c-0.8,0-1.5-0.2-2.1-0.6
					c-0.3-0.2-0.6-0.6-0.9-1v5.5H4.7v-14.8h2.7v1.6c0.3-0.5,0.6-0.8,1-1.1c0.6-0.5,1.4-0.7,2.2-0.7C11.8-67.9,12.9-67.4,13.7-66.5z
					 M12.2-62.3c0-0.8-0.2-1.5-0.6-2.2c-0.4-0.6-1-0.9-1.8-0.9c-1,0-1.7,0.5-2.1,1.4c-0.2,0.5-0.3,1.2-0.3,1.9c0,1.2,0.3,2.1,1,2.6
					C8.8-59.2,9.2-59,9.8-59c0.8,0,1.4-0.3,1.8-0.9C12-60.5,12.2-61.3,12.2-62.3z"/>
				<path class="st6" d="M26.1-60.1c-0.1,0.6-0.4,1.3-1,1.9c-0.9,1-2.2,1.6-3.8,1.6c-1.4,0-2.5-0.4-3.6-1.3s-1.6-2.3-1.6-4.3
					c0-1.8,0.5-3.3,1.4-4.2c0.9-1,2.1-1.5,3.6-1.5c0.9,0,1.7,0.2,2.4,0.5c0.7,0.3,1.3,0.9,1.8,1.6c0.4,0.6,0.7,1.4,0.8,2.2
					c0.1,0.5,0.1,1.2,0.1,2.1H19c0,1.1,0.4,1.8,1,2.2c0.4,0.3,0.8,0.4,1.4,0.4s1-0.2,1.4-0.5c0.2-0.2,0.4-0.4,0.5-0.7
					C23.3-60.1,26.1-60.1,26.1-60.1z M23.4-63.4c0-0.7-0.3-1.3-0.7-1.7s-0.9-0.6-1.5-0.6s-1.1,0.2-1.5,0.6s-0.6,1-0.7,1.6L23.4-63.4
					L23.4-63.4z"/>
				<path class="st6" d="M37.3-60.1c-0.1,0.6-0.4,1.3-1,1.9c-0.9,1-2.2,1.6-3.8,1.6c-1.4,0-2.5-0.4-3.6-1.3s-1.6-2.3-1.6-4.3
					c0-1.8,0.5-3.3,1.4-4.2c0.9-1,2.1-1.5,3.6-1.5c0.9,0,1.7,0.2,2.4,0.5s1.3,0.9,1.8,1.6c0.4,0.6,0.7,1.4,0.8,2.2
					c0.1,0.5,0.1,1.2,0.1,2.1h-7.3c0,1.1,0.4,1.8,1,2.2c0.4,0.3,0.8,0.4,1.4,0.4c0.6,0,1-0.2,1.4-0.5c0.2-0.2,0.4-0.4,0.5-0.7
					C34.4-60.1,37.3-60.1,37.3-60.1z M34.5-63.4c0-0.7-0.3-1.3-0.7-1.7s-0.9-0.6-1.5-0.6c-0.6,0-1.1,0.2-1.5,0.6s-0.6,1-0.7,1.6
					L34.5-63.4L34.5-63.4z"/>
				<path class="st6" d="M48.5-63.8h-2.9c-0.1-0.4-0.2-0.8-0.4-1.1c-0.3-0.4-0.8-0.6-1.5-0.6c-0.9,0-1.6,0.5-1.9,1.4
					c-0.2,0.5-0.3,1.2-0.3,2s0.1,1.4,0.3,1.9c0.3,0.9,1,1.3,1.9,1.3c0.7,0,1.1-0.2,1.4-0.5s0.4-0.8,0.5-1.4h2.8
					c-0.1,0.8-0.4,1.6-0.9,2.4c-0.9,1.2-2.2,1.8-3.9,1.8s-3-0.5-3.8-1.5s-1.2-2.3-1.2-4c0-1.8,0.4-3.3,1.3-4.3
					c0.9-1,2.1-1.5,3.7-1.5c1.3,0,2.4,0.3,3.3,0.9S48.3-65.3,48.5-63.8z"/>
				<path class="st6" d="M60-63.2v6.2h-2.8v-6.5c0-0.6-0.1-1-0.3-1.4c-0.3-0.5-0.7-0.7-1.4-0.7s-1.3,0.2-1.7,0.7s-0.6,1.2-0.6,2.1
					v5.8h-2.8v-14.3h2.8v5.1c0.4-0.6,0.9-1,1.4-1.3c0.5-0.2,1.1-0.4,1.7-0.4c0.7,0,1.3,0.1,1.8,0.3s1,0.6,1.3,1s0.5,0.8,0.5,1.2
					C60-64.9,60-64.2,60-63.2z"/>
			</g>
		</g>
	</g>
</g>
<g id="g-root-tx_adjusted_1d2dj9l1ap5dl8-stroke" transform="translate(683.4166870117188, 158)">
</g>
<g id="g-root-tx_rapidunc_18kolvt1ap5fd3-fill" transform="translate(84.16665649414062, 218)">
	<g id="tx_rapidunc_18kolvt1ap5fd3-fill-merged">
		<g>
			<g>
				<g class="st5">
					<path class="st6" d="M-10.8-97.7h3c0.7,0,1.3,0.1,1.7,0.4s0.8,0.6,1.1,1.1c0.2,0.5,0.4,1.1,0.4,1.8c0,0.5-0.1,0.9-0.2,1.3
						c-0.2,0.4-0.4,0.7-0.7,1s-0.7,0.5-1.1,0.6L-7-91.3h-2.7v-1.1h1.9c0.4,0,0.8-0.1,1-0.3c0.3-0.2,0.5-0.4,0.6-0.7S-6-94-6-94.4
						s-0.1-0.8-0.2-1.1s-0.3-0.5-0.6-0.7s-0.6-0.3-1.1-0.3h-1.6v9.5h-1.3V-97.7z M-5.7-87l-2.1-4.8h1.4l2.2,4.8v0.1L-5.7-87L-5.7-87
						z"/>
					<path class="st6" d="M1-91.8v1H0.1c-0.3,0-0.6,0-0.8,0.1s-0.5,0.2-0.6,0.3c-0.2,0.1-0.3,0.3-0.4,0.5c-0.1,0.2-0.1,0.4-0.1,0.7
						c0,0.3,0,0.6,0.1,0.8c0.1,0.2,0.2,0.3,0.4,0.4s0.3,0,0.6,0s0.6-0.1,0.9-0.2s0.4-0.3,0.6-0.5C0.9-88.9,1-89.1,1-89.3l0.3,0.6
						c0,0.2-0.1,0.4-0.2,0.6s-0.2,0.4-0.4,0.6C0.5-87.3,0.3-87.1,0-87s-0.5,0.2-0.8,0.2c-0.5,0-0.9-0.1-1.2-0.3
						c-0.3-0.2-0.6-0.4-0.8-0.8s-0.3-0.8-0.3-1.3c0-0.4,0.1-0.7,0.2-1.1s0.3-0.6,0.6-0.8c0.3-0.2,0.6-0.4,1-0.6
						c0.4-0.1,0.8-0.2,1.4-0.2H1V-91.8z M0.8-88.4v-4.3c0-0.3,0-0.6-0.1-0.8c-0.1-0.2-0.2-0.3-0.4-0.4S-0.2-94-0.5-94
						s-0.5,0.1-0.7,0.2s-0.3,0.3-0.5,0.4c-0.1,0.2-0.2,0.4-0.2,0.6h-1.3c0-0.3,0.1-0.6,0.2-0.8c0.1-0.3,0.3-0.5,0.5-0.8
						c0.2-0.2,0.5-0.4,0.8-0.5s0.7-0.2,1.1-0.2c0.5,0,0.9,0.1,1.3,0.2c0.4,0.2,0.7,0.4,0.9,0.8s0.3,0.8,0.3,1.4v3.9
						c0,0.3,0,0.5,0.1,0.8c0,0.3,0.1,0.6,0.2,0.8v0.1H1c-0.1-0.2-0.1-0.4-0.1-0.6C0.8-87.9,0.8-88.1,0.8-88.4z"/>
					<path class="st6" d="M5.4-93.4v9.4H4.1v-11h1.2L5.4-93.4z M9.9-91.3v0.7c0,0.6-0.1,1.2-0.2,1.6c-0.1,0.5-0.3,0.9-0.5,1.2
						c-0.2,0.3-0.5,0.5-0.8,0.7s-0.7,0.2-1.1,0.2S6.5-87,6.2-87.1c-0.3-0.2-0.6-0.4-0.8-0.7S5-88.5,4.9-88.9s-0.2-0.9-0.2-1.4v-1.1
						c0-0.6,0.1-1.1,0.2-1.5s0.3-0.8,0.5-1.1c0.2-0.3,0.5-0.6,0.8-0.7c0.3-0.1,0.7-0.2,1.1-0.2s0.8,0.1,1.1,0.2S9-94.3,9.2-94
						s0.4,0.7,0.5,1.2C9.8-92.5,9.9-92,9.9-91.3z M8.6-90.6v-0.7c0-0.4,0-0.8-0.1-1.1c-0.1-0.3-0.2-0.6-0.3-0.8
						c-0.1-0.2-0.3-0.4-0.5-0.5c-0.2-0.1-0.5-0.2-0.8-0.2s-0.5,0.1-0.7,0.2c-0.2,0.1-0.4,0.3-0.5,0.4c-0.1,0.2-0.3,0.4-0.4,0.6
						S5.1-92.2,5.1-92v2.2c0.1,0.3,0.2,0.6,0.3,0.9s0.3,0.5,0.6,0.7C6.2-88,6.5-88,6.8-88c0.3,0,0.6-0.1,0.8-0.2
						c0.2-0.1,0.4-0.3,0.5-0.5c0.1-0.2,0.2-0.5,0.3-0.8S8.6-90.1,8.6-90.6z"/>
					<path class="st6" d="M11.6-97c0-0.2,0.1-0.4,0.2-0.6c0.1-0.2,0.3-0.2,0.5-0.2s0.4,0.1,0.6,0.2C13-97.4,13-97.2,13-97
						s-0.1,0.4-0.2,0.5c-0.1,0.1-0.3,0.2-0.6,0.2c-0.3,0-0.4-0.1-0.5-0.2S11.6-96.8,11.6-97z M12.9-94.9v7.9h-1.3v-7.9H12.9z"/>
					<path class="st6" d="M14.7-90.6v-0.7c0-0.7,0.1-1.2,0.2-1.7c0.1-0.5,0.3-0.9,0.5-1.2c0.2-0.3,0.5-0.5,0.8-0.7
						c0.3-0.2,0.7-0.2,1.1-0.2c0.4,0,0.8,0.1,1.1,0.2c0.3,0.2,0.5,0.4,0.7,0.7c0.2,0.3,0.4,0.7,0.5,1.1s0.2,1,0.2,1.5v1
						c0,0.6-0.1,1.1-0.2,1.5c-0.1,0.4-0.3,0.8-0.5,1.1c-0.2,0.3-0.4,0.6-0.7,0.7c-0.3,0.1-0.7,0.2-1.1,0.2s-0.7-0.1-1.1-0.2
						c-0.3-0.2-0.6-0.4-0.8-0.7c-0.2-0.3-0.4-0.7-0.5-1.2C14.7-89.4,14.7-90,14.7-90.6z M16-91.3v0.7c0,0.4,0,0.8,0.1,1.1
						c0.1,0.3,0.2,0.6,0.3,0.8c0.1,0.2,0.3,0.4,0.5,0.5c0.2,0.1,0.5,0.2,0.8,0.2c0.4,0,0.7-0.1,0.9-0.3c0.2-0.2,0.4-0.4,0.6-0.7
						c0.1-0.3,0.2-0.6,0.3-0.9V-92c0-0.2-0.1-0.5-0.2-0.7s-0.2-0.4-0.3-0.6s-0.3-0.3-0.5-0.4c-0.2-0.1-0.4-0.2-0.7-0.2
						c-0.3,0-0.6,0.1-0.8,0.2c-0.2,0.1-0.4,0.3-0.5,0.5s-0.2,0.5-0.3,0.8C16-92.1,16-91.8,16-91.3z M19.1-88.5v-9.7h1.3V-87h-1.2
						L19.1-88.5z"/>
					<path class="st6" d="M23.7-88.6v1.1c0,0.4-0.1,0.9-0.3,1.4c-0.2,0.5-0.5,0.9-0.9,1.2l-0.8-0.5c0.2-0.2,0.3-0.4,0.4-0.7
						c0.1-0.2,0.2-0.5,0.2-0.7c0.1-0.2,0.1-0.5,0.1-0.8v-1.1L23.7-88.6L23.7-88.6z"/>
					<path class="st6" d="M33-90.5h0.5c0,0.5,0,1-0.1,1.5c-0.1,0.4-0.2,0.8-0.4,1.2c-0.2,0.3-0.5,0.6-0.8,0.8
						c-0.3,0.2-0.7,0.3-1.2,0.3c-0.3,0-0.6-0.1-0.9-0.2s-0.5-0.3-0.7-0.5s-0.3-0.5-0.4-0.9s-0.2-0.8-0.2-1.4v-5.1h1.3v5.1
						c0,0.4,0,0.7,0.1,0.9c0.1,0.2,0.1,0.4,0.3,0.5c0.1,0.1,0.2,0.2,0.4,0.3s0.1,0,0.3,0c0.5,0,0.8-0.1,1.1-0.3
						c0.3-0.2,0.5-0.5,0.6-0.9C33-89.6,33-90,33-90.5z M32.8-88.8v-6.1h1.3v7.9h-1.2L32.8-88.8z"/>
					<path class="st6" d="M37.3-93.2v6.2H36v-7.9h1.2L37.3-93.2z M37-91.3h-0.5c0-0.5,0.1-1,0.2-1.5c0.1-0.5,0.3-0.9,0.6-1.2
						c0.2-0.3,0.5-0.6,0.9-0.8c0.3-0.2,0.7-0.3,1.1-0.3c0.3,0,0.6,0.1,0.9,0.2c0.3,0.1,0.5,0.3,0.7,0.5s0.3,0.5,0.4,0.9
						c0.1,0.4,0.1,0.8,0.1,1.3v5.2h-1.3v-5.2c0-0.4,0-0.7-0.1-1s-0.2-0.4-0.4-0.5s-0.4-0.2-0.7-0.2s-0.5,0.1-0.7,0.2
						s-0.4,0.3-0.6,0.6c-0.2,0.2-0.3,0.5-0.4,0.9C37.1-92,37-91.6,37-91.3z"/>
					<path class="st6" d="M46.1-88c0.3,0,0.5-0.1,0.7-0.2s0.4-0.3,0.5-0.5s0.2-0.5,0.2-0.9h1.2c0,0.5-0.2,1-0.4,1.4s-0.6,0.7-1,0.9
						C46.9-87.1,46.5-87,46-87s-1-0.1-1.3-0.2s-0.7-0.4-0.9-0.7c-0.2-0.3-0.4-0.7-0.6-1.1c-0.1-0.5-0.2-1-0.2-1.5v-0.9
						c0-0.6,0.1-1.1,0.2-1.5c0.1-0.5,0.3-0.8,0.6-1.1c0.2-0.3,0.6-0.6,0.9-0.7s0.8-0.2,1.3-0.2s1,0.1,1.4,0.3c0.4,0.2,0.7,0.6,0.9,1
						s0.3,0.9,0.4,1.5h-1.2c0-0.4-0.1-0.7-0.2-1c-0.1-0.3-0.3-0.5-0.5-0.6s-0.5-0.2-0.8-0.2s-0.6,0.1-0.8,0.2s-0.4,0.3-0.5,0.5
						s-0.2,0.5-0.3,0.8s-0.1,0.7-0.1,1v0.9c0,0.4,0,0.7,0.1,1.1c0.1,0.3,0.1,0.6,0.3,0.8c0.1,0.2,0.3,0.4,0.5,0.5
						C45.4-88,45.7-88,46.1-88z"/>
					<path class="st6" d="M50-90.6v-0.8c0-0.6,0.1-1.2,0.2-1.6c0.2-0.5,0.4-0.9,0.7-1.2c0.3-0.3,0.6-0.5,1-0.7s0.8-0.2,1.2-0.2
						s0.8,0.1,1.2,0.2c0.4,0.2,0.7,0.4,1,0.7c0.3,0.3,0.5,0.7,0.7,1.2s0.2,1,0.2,1.6v0.8c0,0.6-0.1,1.2-0.2,1.6
						c-0.2,0.5-0.4,0.9-0.7,1.2s-0.6,0.5-1,0.7s-0.8,0.2-1.2,0.2s-0.8-0.1-1.2-0.2s-0.7-0.4-1-0.7s-0.5-0.7-0.7-1.2
						C50.1-89.4,50-90,50-90.6z M51.3-91.3v0.8c0,0.4,0,0.8,0.1,1.1c0.1,0.3,0.2,0.6,0.4,0.8c0.2,0.2,0.3,0.4,0.6,0.5
						C52.6-88,52.8-88,53-88c0.3,0,0.6-0.1,0.8-0.2s0.4-0.3,0.6-0.5c0.1-0.2,0.3-0.5,0.3-0.8c0.1-0.3,0.1-0.7,0.1-1.1v-0.8
						c0-0.4,0-0.8-0.1-1.1c-0.1-0.3-0.2-0.6-0.4-0.8c-0.2-0.2-0.4-0.4-0.6-0.5S53.3-94,53-94c-0.2,0-0.5,0.1-0.7,0.2
						s-0.4,0.3-0.6,0.5c-0.2,0.2-0.3,0.5-0.4,0.8C51.3-92.2,51.3-91.8,51.3-91.3z"/>
					<path class="st6" d="M59.1-93.2v6.2h-1.3v-7.9H59L59.1-93.2z M58.8-91.3h-0.5c0-0.5,0.1-1,0.2-1.5c0.1-0.5,0.3-0.9,0.6-1.2
						c0.2-0.3,0.5-0.6,0.9-0.8c0.3-0.2,0.7-0.3,1.1-0.3c0.3,0,0.6,0.1,0.9,0.2c0.3,0.1,0.5,0.3,0.7,0.5s0.3,0.5,0.4,0.9
						c0.1,0.4,0.1,0.8,0.1,1.3v5.2h-1.3v-5.2c0-0.4,0-0.7-0.1-1s-0.2-0.4-0.4-0.5s-0.4-0.2-0.7-0.2s-0.5,0.1-0.7,0.2
						s-0.4,0.3-0.6,0.6c-0.2,0.2-0.3,0.5-0.4,0.9C58.8-92,58.8-91.6,58.8-91.3z"/>
					<path class="st6" d="M67.9-94.9v1h-3.7v-1H67.9z M65.4-96.9h1.3v7.9c0,0.3,0,0.5,0.1,0.6s0.1,0.2,0.3,0.3
						c0.2,0.1,0.2,0.1,0.3,0.1s0.2,0,0.3,0s0.2,0,0.2-0.1v1.1c-0.1,0-0.2,0.1-0.4,0.1c-0.1,0-0.3,0-0.6,0c-0.3,0-0.5-0.1-0.8-0.2
						c-0.2-0.1-0.4-0.4-0.6-0.7c-0.1-0.3-0.2-0.7-0.2-1.3L65.4-96.9L65.4-96.9z"/>
					<path class="st6" d="M70.8-93.7v6.7h-1.3v-7.9h1.3V-93.7z M72.7-95v1.3c-0.1,0-0.2,0-0.3,0c-0.1,0-0.2,0-0.3,0
						c-0.2,0-0.5,0-0.6,0.1c-0.2,0.1-0.3,0.2-0.5,0.4s-0.2,0.4-0.3,0.6s-0.1,0.5-0.2,0.8l-0.3,0.2c0-0.5,0-0.9,0.1-1.3
						s0.2-0.8,0.4-1.1c0.2-0.3,0.4-0.6,0.6-0.8c0.3-0.2,0.6-0.3,0.9-0.3c0.1,0,0.2,0,0.3,0C72.6-95,72.7-95,72.7-95z"/>
					<path class="st6" d="M73.8-90.6v-0.8c0-0.6,0.1-1.2,0.2-1.6c0.2-0.5,0.4-0.9,0.7-1.2c0.3-0.3,0.6-0.5,1-0.7s0.8-0.2,1.2-0.2
						c0.4,0,0.8,0.1,1.2,0.2c0.4,0.2,0.7,0.4,1,0.7c0.3,0.3,0.5,0.7,0.7,1.2s0.2,1,0.2,1.6v0.8c0,0.6-0.1,1.2-0.2,1.6
						c-0.2,0.5-0.4,0.9-0.7,1.2s-0.6,0.5-1,0.7s-0.8,0.2-1.2,0.2s-0.8-0.1-1.2-0.2s-0.7-0.4-1-0.7S74.2-88.5,74-89
						C73.9-89.4,73.8-90,73.8-90.6z M75.1-91.3v0.8c0,0.4,0,0.8,0.1,1.1c0.1,0.3,0.2,0.6,0.4,0.8c0.2,0.2,0.3,0.4,0.6,0.5
						c0.2,0.1,0.4,0.2,0.7,0.2c0.3,0,0.6-0.1,0.8-0.2c0.2-0.1,0.4-0.3,0.6-0.5c0.1-0.2,0.3-0.5,0.3-0.8c0.1-0.3,0.1-0.7,0.1-1.1
						v-0.8c0-0.4,0-0.8-0.1-1.1c-0.1-0.3-0.2-0.6-0.4-0.8c-0.2-0.2-0.4-0.4-0.6-0.5s-0.5-0.2-0.7-0.2s-0.5,0.1-0.7,0.2
						s-0.4,0.3-0.6,0.5s-0.3,0.5-0.4,0.8C75.1-92.2,75.1-91.8,75.1-91.3z"/>
					<path class="st6" d="M83-98.2V-87h-1.3v-11.2H83z"/>
					<path class="st6" d="M86.4-98.2V-87h-1.3v-11.2H86.4z"/>
					<path class="st6" d="M91.3-86.9c-0.5,0-0.9-0.1-1.3-0.2s-0.7-0.4-1-0.6c-0.3-0.3-0.5-0.7-0.6-1.1s-0.2-1-0.2-1.6v-0.9
						c0-0.7,0.1-1.3,0.2-1.8c0.2-0.5,0.4-0.9,0.7-1.2c0.3-0.3,0.6-0.5,0.9-0.6c0.4-0.1,0.7-0.2,1.1-0.2c0.5,0,0.9,0.1,1.3,0.2
						c0.4,0.2,0.6,0.4,0.9,0.7s0.4,0.7,0.5,1.2s0.2,1,0.2,1.6v0.8h-5v-1.1h3.7v-0.2c0-0.4-0.1-0.8-0.2-1.1c-0.1-0.3-0.2-0.6-0.4-0.7
						c-0.2-0.2-0.5-0.3-0.9-0.3c-0.2,0-0.5,0-0.7,0.1s-0.4,0.2-0.5,0.4c-0.1,0.2-0.3,0.5-0.3,0.8c-0.1,0.3-0.1,0.8-0.1,1.3v0.9
						c0,0.4,0,0.8,0.1,1.1c0.1,0.3,0.2,0.6,0.4,0.8c0.2,0.2,0.4,0.3,0.6,0.4s0.5,0.1,0.8,0.1c0.4,0,0.8-0.1,1.1-0.3
						c0.3-0.2,0.5-0.4,0.7-0.6l0.7,0.8c-0.1,0.2-0.3,0.4-0.6,0.6c-0.2,0.2-0.5,0.3-0.8,0.4C92.2-86.9,91.8-86.9,91.3-86.9z"/>
					<path class="st6" d="M95.2-90.6v-0.7c0-0.7,0.1-1.2,0.2-1.7s0.3-0.9,0.5-1.2c0.2-0.3,0.5-0.5,0.8-0.7s0.7-0.2,1.1-0.2
						s0.8,0.1,1.1,0.2c0.3,0.2,0.5,0.4,0.7,0.7c0.2,0.3,0.4,0.7,0.5,1.1s0.2,1,0.2,1.5v1c0,0.6-0.1,1.1-0.2,1.5s-0.3,0.8-0.5,1.1
						s-0.4,0.6-0.7,0.7s-0.7,0.2-1.1,0.2s-0.7-0.1-1.1-0.2c-0.3-0.2-0.6-0.4-0.8-0.7c-0.2-0.3-0.4-0.7-0.5-1.2
						C95.3-89.4,95.2-90,95.2-90.6z M96.5-91.3v0.7c0,0.4,0,0.8,0.1,1.1c0.1,0.3,0.2,0.6,0.3,0.8c0.1,0.2,0.3,0.4,0.5,0.5
						s0.5,0.2,0.8,0.2c0.4,0,0.7-0.1,0.9-0.3s0.4-0.4,0.6-0.7c0.1-0.3,0.2-0.6,0.3-0.9V-92c0-0.2-0.1-0.5-0.2-0.7s-0.2-0.4-0.3-0.6
						c-0.1-0.2-0.3-0.3-0.5-0.4s-0.4-0.2-0.7-0.2c-0.3,0-0.6,0.1-0.8,0.2c-0.2,0.1-0.4,0.3-0.5,0.5s-0.2,0.5-0.3,0.8
						C96.5-92.1,96.5-91.8,96.5-91.3z M99.6-88.5v-9.7h1.3V-87h-1.2L99.6-88.5z"/>
				</g>
			</g>
			<g>
				<g class="st5">
					<path class="st6" d="M32.7-71c0-0.2,0-0.4-0.1-0.5c-0.1-0.2-0.3-0.3-0.5-0.4c-0.2-0.1-0.5-0.3-0.9-0.5s-0.7-0.3-1-0.5
						c-0.3-0.1-0.5-0.3-0.7-0.5S29.1-73.8,29-74s-0.2-0.5-0.2-0.8s0.1-0.6,0.2-0.9s0.3-0.5,0.5-0.7s0.5-0.4,0.8-0.5s0.7-0.2,1-0.2
						c0.5,0,1,0.1,1.4,0.3c0.4,0.2,0.7,0.5,0.9,0.9c0.2,0.4,0.3,0.8,0.3,1.2h-1.3c0-0.2,0-0.4-0.1-0.6c-0.1-0.2-0.2-0.4-0.4-0.5
						S31.7-76,31.4-76c-0.3,0-0.5,0.1-0.7,0.2s-0.3,0.2-0.4,0.4c-0.1,0.2-0.1,0.3-0.1,0.5c0,0.1,0,0.3,0.1,0.4
						c0,0.1,0.1,0.2,0.2,0.3c0.1,0.1,0.2,0.2,0.4,0.3c0.2,0.1,0.4,0.2,0.7,0.3c0.5,0.2,1,0.4,1.4,0.6c0.4,0.2,0.6,0.5,0.8,0.8
						s0.3,0.6,0.3,1.1c0,0.3-0.1,0.7-0.2,0.9c-0.1,0.3-0.3,0.5-0.5,0.7s-0.5,0.4-0.8,0.5s-0.7,0.2-1.1,0.2c-0.6,0-1.1-0.1-1.5-0.4
						c-0.4-0.2-0.7-0.5-0.9-0.9c-0.2-0.4-0.3-0.8-0.3-1.2h1.3c0,0.4,0.1,0.7,0.3,0.9c0.2,0.2,0.3,0.3,0.6,0.4s0.4,0.1,0.7,0.1
						c0.3,0,0.5,0,0.7-0.1s0.3-0.2,0.4-0.4C32.9-70.6,32.7-70.8,32.7-71z"/>
					<path class="st6" d="M37-75.4v9.4h-1.3v-11h1.2L37-75.4z M41.4-73.3v0.7c0,0.6-0.1,1.2-0.2,1.6c-0.1,0.5-0.3,0.9-0.5,1.2
						c-0.2,0.3-0.5,0.5-0.8,0.7s-0.7,0.2-1.1,0.2c-0.4,0-0.8-0.1-1.1-0.2c-0.3-0.2-0.6-0.4-0.8-0.7c-0.2-0.3-0.4-0.7-0.5-1.1
						c-0.1-0.4-0.2-0.9-0.2-1.4v-1.1c0-0.6,0.1-1.1,0.2-1.5c0.1-0.4,0.3-0.8,0.5-1.1c0.2-0.3,0.5-0.6,0.8-0.7s0.7-0.2,1.1-0.2
						c0.4,0,0.8,0.1,1.1,0.2s0.6,0.4,0.8,0.7c0.2,0.3,0.4,0.7,0.5,1.2C41.4-74.5,41.4-74,41.4-73.3z M40.1-72.6v-0.7
						c0-0.4,0-0.8-0.1-1.1c-0.1-0.3-0.2-0.6-0.3-0.8s-0.3-0.4-0.5-0.5s-0.5-0.2-0.8-0.2s-0.5,0.1-0.7,0.2s-0.4,0.3-0.5,0.4
						c-0.1,0.2-0.3,0.4-0.4,0.6c-0.1,0.2-0.2,0.5-0.2,0.7v2.2c0.1,0.3,0.2,0.6,0.3,0.9s0.3,0.5,0.6,0.7c0.2,0.2,0.5,0.3,0.9,0.3
						c0.3,0,0.6-0.1,0.8-0.2s0.4-0.3,0.5-0.5s0.2-0.5,0.3-0.8C40.1-71.8,40.1-72.1,40.1-72.6z"/>
					<path class="st6" d="M45.9-68.9c-0.5,0-0.9-0.1-1.3-0.2c-0.4-0.1-0.7-0.4-1-0.6c-0.3-0.3-0.5-0.7-0.6-1.1s-0.2-1-0.2-1.6v-0.9
						c0-0.7,0.1-1.3,0.2-1.8c0.2-0.5,0.4-0.9,0.7-1.2c0.3-0.3,0.6-0.5,0.9-0.6c0.4-0.1,0.7-0.2,1.1-0.2c0.5,0,0.9,0.1,1.3,0.2
						c0.4,0.2,0.6,0.4,0.9,0.7s0.4,0.7,0.5,1.2s0.2,1,0.2,1.6v0.8h-5v-1.1h3.7v-0.2c0-0.4-0.1-0.8-0.2-1.1c-0.1-0.3-0.2-0.6-0.4-0.7
						c-0.2-0.2-0.5-0.3-0.9-0.3c-0.2,0-0.5,0-0.7,0.1s-0.4,0.2-0.5,0.4c-0.1,0.2-0.3,0.5-0.3,0.8c-0.1,0.3-0.1,0.8-0.1,1.3v0.9
						c0,0.4,0,0.8,0.1,1.1c0.1,0.3,0.2,0.6,0.4,0.8c0.2,0.2,0.4,0.3,0.6,0.4C45.4-70,45.7-70,46-70c0.4,0,0.8-0.1,1.1-0.3
						c0.3-0.2,0.5-0.4,0.7-0.6l0.7,0.8c-0.1,0.2-0.3,0.4-0.6,0.6c-0.2,0.2-0.5,0.3-0.8,0.4C46.8-68.9,46.4-68.9,45.9-68.9z"/>
					<path class="st6" d="M53-68.9c-0.5,0-0.9-0.1-1.3-0.2c-0.4-0.1-0.7-0.4-1-0.6c-0.3-0.3-0.5-0.7-0.6-1.1s-0.2-1-0.2-1.6v-0.9
						c0-0.7,0.1-1.3,0.2-1.8c0.2-0.5,0.4-0.9,0.7-1.2c0.3-0.3,0.6-0.5,0.9-0.6c0.4-0.1,0.7-0.2,1.1-0.2c0.5,0,0.9,0.1,1.3,0.2
						c0.4,0.2,0.6,0.4,0.9,0.7s0.4,0.7,0.5,1.2s0.2,1,0.2,1.6v0.8h-5v-1.1h3.7v-0.2c0-0.4-0.1-0.8-0.2-1.1c-0.1-0.3-0.2-0.6-0.4-0.7
						c-0.2-0.2-0.5-0.3-0.9-0.3c-0.2,0-0.5,0-0.7,0.1s-0.4,0.2-0.5,0.4c-0.1,0.2-0.3,0.5-0.3,0.8c-0.1,0.3-0.1,0.8-0.1,1.3v0.9
						c0,0.4,0,0.8,0.1,1.1c0.1,0.3,0.2,0.6,0.4,0.8c0.2,0.2,0.4,0.3,0.6,0.4C52.5-70,52.7-70,53-70c0.4,0,0.8-0.1,1.1-0.3
						c0.3-0.2,0.5-0.4,0.7-0.6l0.7,0.8c-0.1,0.2-0.3,0.4-0.6,0.6c-0.2,0.2-0.5,0.3-0.8,0.4C53.8-68.9,53.4-68.9,53-68.9z"/>
					<path class="st6" d="M59.9-70c0.3,0,0.5-0.1,0.7-0.2s0.4-0.3,0.5-0.5s0.2-0.5,0.2-0.9h1.2c0,0.5-0.2,1-0.4,1.4s-0.6,0.7-1,0.9
						c-0.4,0.2-0.8,0.3-1.3,0.3s-1-0.1-1.3-0.2s-0.7-0.4-0.9-0.7c-0.2-0.3-0.4-0.7-0.6-1.1c-0.1-0.5-0.2-1-0.2-1.5v-0.9
						c0-0.6,0.1-1.1,0.2-1.5c0.1-0.5,0.3-0.8,0.6-1.1c0.2-0.3,0.6-0.6,0.9-0.7s0.8-0.2,1.3-0.2s1,0.1,1.4,0.3c0.4,0.2,0.7,0.6,0.9,1
						s0.3,0.9,0.4,1.5h-1.2c0-0.4-0.1-0.7-0.2-1c-0.1-0.3-0.3-0.5-0.5-0.6s-0.5-0.2-0.8-0.2s-0.6,0.1-0.8,0.2s-0.4,0.3-0.5,0.5
						s-0.2,0.5-0.3,0.8s-0.1,0.7-0.1,1v0.9c0,0.4,0,0.7,0.1,1.1c0.1,0.3,0.1,0.6,0.3,0.8c0.1,0.2,0.3,0.4,0.5,0.5
						C59.3-70,59.6-70,59.9-70z"/>
					<path class="st6" d="M65.4-80.2V-69h-1.3v-11.2H65.4z M65.1-73.3h-0.5c0-0.5,0.1-1,0.2-1.5c0.1-0.5,0.3-0.9,0.6-1.2
						c0.2-0.3,0.5-0.6,0.9-0.8c0.3-0.2,0.7-0.3,1.1-0.3c0.3,0,0.6,0.1,0.9,0.2c0.3,0.1,0.5,0.3,0.7,0.5c0.2,0.2,0.3,0.5,0.4,0.9
						s0.1,0.8,0.1,1.3v5.2h-1.3v-5.2c0-0.4,0-0.7-0.1-1s-0.2-0.4-0.4-0.5c-0.2-0.1-0.4-0.2-0.7-0.2c-0.3,0-0.5,0.1-0.7,0.2
						c-0.2,0.1-0.4,0.3-0.6,0.6c-0.2,0.2-0.3,0.5-0.4,0.9C65.1-74,65.1-73.6,65.1-73.3z"/>
				</g>
			</g>
		</g>
	</g>
</g>
<g id="g-root-tx_rapidunc_18kolvt1ap5fd3-stroke" transform="translate(84.16665649414062, 218)">
</g>
<g id="g-root-tx_speechra_1qbycuy1af2z9f-fill" transform="translate(288.25, 218)">
	<g id="tx_speechra_1qbycuy1af2z9f-fill-merged">
		<g>
			<g>
				<g class="st5">
					<path class="st6" d="M-7.4-96.7l-2.9,9.7h-1.4l3.4-10.7h0.9V-96.7z M-5-90.9v1.2h-5.1v-1.2H-5z M-5-87l-2.9-9.7v-0.9H-7
						l3.4,10.7L-5-87L-5-87z"/>
					<path class="st6" d="M1.9-90.5h0.5c0,0.5,0,1-0.1,1.5c-0.1,0.4-0.2,0.8-0.4,1.2c-0.2,0.3-0.5,0.6-0.8,0.8
						c-0.3,0.2-0.7,0.3-1.2,0.3c-0.3,0-0.6-0.1-0.9-0.2c-0.3-0.1-0.5-0.3-0.7-0.5s-0.3-0.5-0.4-0.9s-0.2-0.8-0.2-1.4v-5.1H-1v5.1
						c0,0.4,0,0.7,0.1,0.9c0.1,0.2,0.1,0.4,0.3,0.5c0.1,0.1,0.2,0.2,0.4,0.3s0.1,0,0.2,0c0.5,0,0.8-0.1,1.1-0.3
						c0.3-0.2,0.5-0.5,0.6-0.9C1.8-89.6,1.9-90,1.9-90.5z M1.6-88.8v-6.1h1.3v7.9H1.7L1.6-88.8z"/>
					<path class="st6" d="M4.6-90.6v-0.7c0-0.7,0.1-1.2,0.2-1.7c0.1-0.5,0.3-0.9,0.5-1.2c0.2-0.3,0.5-0.5,0.8-0.7
						c0.3-0.2,0.7-0.2,1.1-0.2c0.4,0,0.8,0.1,1.1,0.2c0.3,0.2,0.5,0.4,0.7,0.7c0.2,0.3,0.4,0.7,0.5,1.1s0.2,1,0.2,1.5v1
						c0,0.6-0.1,1.1-0.2,1.5s-0.3,1-0.5,1.3s-0.4,0.6-0.7,0.7s-0.7,0.2-1.1,0.2S6.5-87,6.1-87.1c-0.3-0.2-0.6-0.4-0.8-0.7
						c-0.2-0.3-0.4-0.7-0.5-1.2C4.7-89.4,4.6-90,4.6-90.6z M5.9-91.3v0.7c0,0.4,0,0.8,0.1,1.1c0.1,0.3,0.2,0.6,0.3,0.8
						c0.1,0.2,0.3,0.4,0.5,0.5C7-88.1,7.3-88,7.6-88c0.4,0,0.7-0.1,0.9-0.3S8.9-88.7,9-89s0.2-0.6,0.3-0.9V-92
						c0-0.2-0.1-0.5-0.2-0.7c-0.1-0.2-0.2-0.4-0.3-0.6c-0.1-0.2-0.3-0.3-0.5-0.4s-0.4-0.2-0.7-0.2c-0.3,0-0.6,0.1-0.8,0.2
						c-0.2,0.1-0.4,0.3-0.5,0.5C6.2-93,6.1-92.7,6-92.4C5.9-92.1,5.9-91.8,5.9-91.3z M9-88.5v-9.7h1.3V-87H9.1L9-88.5z"/>
					<path class="st6" d="M12.3-97c0-0.2,0.1-0.4,0.2-0.6s0.3-0.2,0.5-0.2s0.4,0.1,0.6,0.2c0.1,0.2,0.2,0.3,0.2,0.6
						c0,0.2-0.1,0.4-0.2,0.5c-0.1,0.1-0.3,0.2-0.6,0.2s-0.4-0.1-0.5-0.2S12.3-96.8,12.3-97z M13.7-94.9v7.9h-1.3v-7.9H13.7z"/>
					<path class="st6" d="M15.5-90.6v-0.8c0-0.6,0.1-1.2,0.2-1.6c0.2-0.5,0.4-0.9,0.7-1.2c0.3-0.3,0.6-0.5,1-0.7s0.8-0.2,1.2-0.2
						c0.4,0,0.8,0.1,1.2,0.2c0.4,0.2,0.7,0.4,1,0.7c0.3,0.3,0.5,0.7,0.7,1.2c0.2,0.5,0.2,1,0.2,1.6v0.8c0,0.6-0.1,1.2-0.2,1.6
						c-0.2,0.5-0.4,0.9-0.7,1.2s-0.6,0.5-1,0.7s-0.8,0.2-1.2,0.2c-0.4,0-0.8-0.1-1.2-0.2s-0.7-0.4-1-0.7s-0.5-0.7-0.7-1.2
						C15.6-89.4,15.5-90,15.5-90.6z M16.8-91.3v0.8c0,0.4,0,0.8,0.1,1.1c0.1,0.3,0.2,0.6,0.4,0.8c0.2,0.2,0.3,0.4,0.6,0.5
						c0.2,0.1,0.4,0.2,0.7,0.2s0.6-0.1,0.8-0.2c0.2-0.1,0.4-0.3,0.6-0.5c0.1-0.2,0.3-0.5,0.3-0.8c0.1-0.3,0.1-0.7,0.1-1.1v-0.8
						c0-0.4,0-0.8-0.1-1.1c-0.1-0.3-0.2-0.6-0.4-0.8c-0.2-0.2-0.4-0.4-0.6-0.5C19-93.9,18.8-94,18.5-94c-0.2,0-0.5,0.1-0.7,0.2
						c-0.2,0.1-0.4,0.3-0.6,0.5s-0.3,0.5-0.4,0.8C16.8-92.2,16.8-91.8,16.8-91.3z"/>
					<path class="st6" d="M29.9-94.9v1h-3.7v-1H29.9z M28.6-87h-1.3v-8.8c0-0.6,0.1-1.1,0.3-1.4c0.2-0.4,0.4-0.7,0.8-0.9
						c0.3-0.2,0.7-0.3,1.2-0.3c0.1,0,0.3,0,0.4,0s0.3,0,0.4,0.1l-0.1,1.1c-0.1,0-0.2,0-0.3-0.1c-0.1,0-0.2,0-0.3,0
						c-0.2,0-0.4,0.1-0.6,0.2s-0.3,0.3-0.4,0.5s-0.1,0.5-0.1,0.8V-87z"/>
					<path class="st6" d="M34.3-86.9c-0.5,0-0.9-0.1-1.3-0.2s-0.7-0.4-1-0.6c-0.3-0.3-0.5-0.7-0.6-1.1s-0.2-1-0.2-1.6v-0.9
						c0-0.7,0.1-1.3,0.2-1.8c0.2-0.5,0.4-0.9,0.7-1.2c0.3-0.3,0.6-0.5,0.9-0.6c0.4-0.1,0.7-0.2,1.1-0.2c0.5,0,0.9,0.1,1.3,0.2
						c0.4,0.2,0.6,0.4,0.9,0.7s0.4,0.7,0.5,1.2s0.2,1,0.2,1.6v0.8h-5v-1.1h3.7v-0.2c0-0.4-0.1-0.8-0.2-1.1c-0.1-0.3-0.2-0.6-0.4-0.7
						c-0.2-0.2-0.5-0.3-0.9-0.3c-0.2,0-0.5,0-0.7,0.1s-0.4,0.2-0.5,0.4c-0.1,0.2-0.3,0.5-0.3,0.8c-0.1,0.3-0.1,0.8-0.1,1.3v0.9
						c0,0.4,0,0.8,0.1,1.1c0.1,0.3,0.2,0.6,0.4,0.8c0.2,0.2,0.4,0.3,0.6,0.4s0.5,0.1,0.8,0.1c0.4,0,0.8-0.1,1.1-0.3
						c0.3-0.2,0.5-0.4,0.7-0.6l0.7,0.8c-0.1,0.2-0.3,0.4-0.6,0.6c-0.2,0.2-0.5,0.3-0.8,0.4C35.2-86.9,34.8-86.9,34.3-86.9z"/>
					<path class="st6" d="M41.3-86.9c-0.5,0-0.9-0.1-1.3-0.2c-0.4-0.1-0.7-0.4-1-0.6c-0.3-0.3-0.5-0.7-0.6-1.1
						c-0.1-0.4-0.2-1-0.2-1.6v-0.9c0-0.7,0.1-1.3,0.2-1.8c0.2-0.5,0.4-0.9,0.7-1.2c0.3-0.3,0.6-0.5,0.9-0.6c0.4-0.1,0.7-0.2,1.1-0.2
						c0.5,0,0.9,0.1,1.3,0.2c0.4,0.2,0.6,0.4,0.9,0.7s0.4,0.7,0.5,1.2s0.2,1,0.2,1.6v0.8h-5v-1.1h3.7v-0.2c0-0.4-0.1-0.8-0.2-1.1
						c-0.1-0.3-0.2-0.6-0.4-0.7c-0.2-0.2-0.5-0.3-0.9-0.3c-0.2,0-0.5,0-0.7,0.1s-0.4,0.2-0.5,0.4c-0.1,0.2-0.3,0.5-0.3,0.8
						c-0.1,0.3-0.1,0.8-0.1,1.3v0.9c0,0.4,0,0.8,0.1,1.1c0.1,0.3,0.2,0.6,0.4,0.8c0.2,0.2,0.4,0.3,0.6,0.4c0.2,0.1,0.5,0.1,0.8,0.1
						c0.4,0,0.8-0.1,1.1-0.3c0.3-0.2,0.5-0.4,0.7-0.6l0.7,0.8c-0.1,0.2-0.3,0.4-0.6,0.6c-0.2,0.2-0.5,0.3-0.8,0.4
						C42.2-86.9,41.8-86.9,41.3-86.9z"/>
					<path class="st6" d="M45.3-90.6v-0.7c0-0.7,0.1-1.2,0.2-1.7c0.1-0.5,0.3-0.9,0.5-1.2c0.2-0.3,0.5-0.5,0.8-0.7s0.7-0.2,1.1-0.2
						c0.4,0,0.8,0.1,1.1,0.2c0.3,0.2,0.5,0.4,0.7,0.7c0.2,0.3,0.4,0.7,0.5,1.1s0.2,1,0.2,1.5v1c0,0.6-0.1,1.1-0.2,1.5
						s-0.3,0.8-0.5,1.1s-0.4,0.6-0.7,0.7s-0.7,0.2-1.1,0.2c-0.4,0-0.7-0.1-1.1-0.2c-0.3-0.2-0.6-0.4-0.8-0.7
						c-0.2-0.3-0.4-0.7-0.5-1.2C45.3-89.4,45.3-90,45.3-90.6z M46.6-91.3v0.7c0,0.4,0,0.8,0.1,1.1c0.1,0.3,0.2,0.6,0.3,0.8
						c0.1,0.2,0.3,0.4,0.5,0.5S48-88,48.3-88c0.4,0,0.7-0.1,0.9-0.3s0.4-0.4,0.6-0.7c0.1-0.3,0.2-0.6,0.3-0.9V-92
						c0-0.2-0.1-0.5-0.2-0.7c-0.1-0.2-0.2-0.4-0.3-0.6s-0.3-0.3-0.5-0.4s-0.4-0.2-0.7-0.2s-0.6,0.1-0.8,0.2s-0.4,0.3-0.5,0.5
						s-0.2,0.5-0.3,0.8C46.6-92.1,46.6-91.8,46.6-91.3z M49.7-88.5v-9.7H51V-87h-1.2L49.7-88.5z"/>
					<path class="st6" d="M53-98.2h1.3v9.7L54.2-87H53V-98.2z M58.7-91.3v0.7c0,0.6-0.1,1.2-0.2,1.6c-0.1,0.5-0.3,0.9-0.5,1.2
						c-0.2,0.3-0.5,0.5-0.8,0.7s-0.7,0.2-1.1,0.2c-0.4,0-0.8-0.1-1.1-0.2s-0.5-0.4-0.7-0.7s-0.4-0.7-0.5-1.1s-0.2-0.9-0.2-1.5v-1
						c0-0.6,0.1-1.1,0.2-1.5c0.1-0.4,0.3-0.8,0.5-1.1c0.2-0.3,0.4-0.6,0.7-0.7s0.7-0.2,1.1-0.2c0.4,0,0.8,0.1,1.1,0.2
						s0.6,0.4,0.8,0.7c0.2,0.3,0.4,0.7,0.5,1.2C58.7-92.5,58.7-92,58.7-91.3z M57.4-90.6v-0.7c0-0.4,0-0.8-0.1-1.1
						c-0.1-0.3-0.1-0.6-0.3-0.8s-0.3-0.4-0.5-0.5s-0.5-0.2-0.8-0.2s-0.5,0.1-0.7,0.2s-0.4,0.3-0.5,0.4c-0.1,0.2-0.3,0.4-0.4,0.6
						c-0.1,0.2-0.2,0.5-0.2,0.7v2.1c0.1,0.3,0.2,0.6,0.3,0.9s0.3,0.5,0.6,0.7s0.5,0.3,0.9,0.3c0.3,0,0.6-0.1,0.8-0.2
						s0.4-0.3,0.5-0.5s0.2-0.5,0.3-0.8C57.4-89.8,57.4-90.1,57.4-90.6z"/>
					<path class="st6" d="M64.5-91.8v1h-0.9c-0.3,0-0.6,0-0.8,0.1s-0.5,0.2-0.6,0.3c-0.2,0.1-0.3,0.3-0.4,0.5
						c-0.1,0.2-0.1,0.4-0.1,0.7c0,0.3,0,0.6,0.1,0.8c0.1,0.2,0.2,0.3,0.4,0.4s0.4,0.1,0.7,0.1s0.6-0.1,0.9-0.2s0.4-0.3,0.6-0.5
						c0.1-0.2,0.2-0.4,0.2-0.6l0.3,0.6c0,0.2-0.1,0.4-0.2,0.6c-0.1,0.2-0.2,0.4-0.4,0.6c-0.2,0.2-0.4,0.4-0.7,0.5s-0.5,0.2-0.8,0.2
						c-0.5,0-0.9-0.1-1.2-0.3c-0.3-0.2-0.6-0.4-0.8-0.8s-0.3-0.8-0.3-1.3c0-0.4,0.1-0.7,0.2-1.1s0.3-0.6,0.6-0.8
						c0.3-0.2,0.6-0.4,1-0.6c0.4-0.1,0.8-0.2,1.4-0.2C63.7-91.8,64.5-91.8,64.5-91.8z M64.3-88.4v-4.3c0-0.3,0-0.6-0.1-0.8
						c-0.1-0.2-0.2-0.3-0.4-0.4S63.3-94,63-94s-0.5,0.1-0.7,0.2s-0.3,0.3-0.5,0.4c-0.1,0.2-0.2,0.4-0.2,0.6h-1.3
						c0-0.3,0.1-0.6,0.2-0.8c0.1-0.3,0.3-0.5,0.5-0.8c0.2-0.2,0.5-0.4,0.8-0.5s0.7-0.2,1.1-0.2c0.5,0,0.9,0.1,1.3,0.2
						c0.4,0.2,0.7,0.4,0.9,0.8s0.3,0.8,0.3,1.4v3.9c0,0.3,0,0.5,0.1,0.8c0,0.3,0.1,0.6,0.2,0.8v0.1h-1.3c-0.1-0.2-0.1-0.4-0.1-0.6
						C64.3-87.9,64.3-88.1,64.3-88.4z"/>
					<path class="st6" d="M70.3-88c0.3,0,0.5-0.1,0.7-0.2s0.4-0.3,0.5-0.5s0.2-0.5,0.2-0.9H73c0,0.5-0.2,1-0.4,1.4
						c-0.2,0.4-0.6,0.7-1,0.9c-0.4,0.2-0.8,0.3-1.3,0.3s-1-0.1-1.3-0.2s-0.7-0.4-0.9-0.7c-0.2-0.3-0.4-0.7-0.6-1.1
						c-0.1-0.5-0.2-1-0.2-1.5v-0.9c0-0.6,0.1-1.1,0.2-1.5c0.1-0.5,0.3-0.8,0.6-1.1c0.2-0.3,0.6-0.6,0.9-0.7s0.8-0.2,1.3-0.2
						s1,0.1,1.4,0.3c0.4,0.2,0.7,0.6,0.9,1c0.2,0.4,0.3,0.9,0.4,1.5h-1.2c0-0.4-0.1-0.7-0.2-1s-0.3-0.5-0.5-0.6s-0.5-0.2-0.8-0.2
						c-0.3,0-0.6,0.1-0.8,0.2s-0.4,0.3-0.5,0.5s-0.2,0.5-0.3,0.8c-0.1,0.3-0.1,0.7-0.1,1v0.9c0,0.4,0,0.7,0.1,1.1
						c0.1,0.3,0.1,0.6,0.3,0.8c0.1,0.2,0.3,0.4,0.5,0.5C69.7-88,70-88,70.3-88z"/>
					<path class="st6" d="M75.8-98.2V-87h-1.3v-11.2H75.8z M79.8-94.9L77-91.2l-1.7,2l-0.1-1.4l1.2-1.7l1.9-2.6
						C78.3-94.9,79.8-94.9,79.8-94.9z M78.6-87l-2.2-3.8l0.7-1.2l3.1,5H78.6z"/>
				</g>
			</g>
			<g>
				<g class="st5">
					<path class="st6" d="M9.4-79c0-0.2,0.1-0.4,0.2-0.6c0.1-0.2,0.3-0.2,0.5-0.2c0.2,0,0.4,0.1,0.6,0.2c0.1,0.2,0.2,0.3,0.2,0.6
						c0,0.2-0.1,0.4-0.2,0.5c-0.1,0.1-0.3,0.2-0.6,0.2s-0.4-0.1-0.5-0.2S9.4-78.8,9.4-79z M10.8-76.9v7.9H9.5v-7.9H10.8z"/>
					<path class="st6" d="M16.7-71c0-0.2,0-0.4-0.1-0.5c-0.1-0.2-0.3-0.3-0.5-0.4c-0.2-0.1-0.5-0.3-0.9-0.5c-0.4-0.2-0.7-0.3-1-0.5
						c-0.3-0.1-0.5-0.3-0.7-0.5S13.1-73.8,13-74s-0.2-0.5-0.2-0.8s0.1-0.6,0.2-0.9s0.3-0.5,0.5-0.7s0.5-0.4,0.8-0.5s0.7-0.2,1-0.2
						c0.5,0,1,0.1,1.4,0.3c0.4,0.2,0.7,0.5,0.9,0.9c0.2,0.4,0.3,0.8,0.3,1.2h-1.3c0-0.2,0-0.4-0.1-0.6s-0.3-0.3-0.5-0.5
						c-0.2-0.1-0.4-0.2-0.7-0.2s-0.5,0.1-0.7,0.2s-0.3,0.2-0.4,0.4c-0.1,0.2-0.1,0.3-0.1,0.5c0,0.1,0,0.3,0.1,0.4
						c0,0.1,0.1,0.2,0.2,0.3c0.1,0.1,0.2,0.2,0.4,0.3c0.2,0.1,0.4,0.2,0.7,0.3c0.5,0.2,1,0.4,1.4,0.6s0.6,0.5,0.8,0.8
						c0.2,0.3,0.3,0.6,0.3,1.1c0,0.3-0.1,0.7-0.2,0.9c-0.1,0.3-0.3,0.5-0.5,0.7c-0.2,0.2-0.5,0.4-0.9,0.5c-0.3,0.1-0.7,0.2-1.1,0.2
						c-0.6,0-1.1-0.1-1.5-0.4c-0.4-0.2-0.7-0.5-0.9-0.9c-0.2-0.4-0.3-0.8-0.3-1.2h1.3c0,0.4,0.1,0.7,0.3,0.9
						c0.2,0.2,0.3,0.3,0.6,0.4c0.3,0.1,0.4,0,0.6,0c0.3,0,0.5,0,0.7-0.1c0.2-0.1,0.3-0.2,0.4-0.4S16.7-70.8,16.7-71z"/>
					<path class="st6" d="M22.9-72.6v-0.7c0-0.7,0.1-1.2,0.2-1.7s0.3-0.9,0.5-1.2c0.2-0.3,0.5-0.5,0.8-0.7s0.7-0.2,1.1-0.2
						s0.8,0.1,1.1,0.2c0.3,0.2,0.5,0.4,0.7,0.7c0.2,0.3,0.4,0.7,0.5,1.1s0.2,1,0.2,1.5v1c0,0.6-0.1,1.1-0.2,1.5s-0.3,0.8-0.5,1.1
						s-0.4,0.6-0.7,0.7s-0.7,0.2-1.1,0.2s-0.7-0.1-1.1-0.2c-0.3-0.2-0.6-0.4-0.8-0.7c-0.2-0.3-0.4-0.7-0.5-1.2
						C22.9-71.4,22.9-72,22.9-72.6z M24.1-73.3v0.7c0,0.4,0,0.8,0.1,1.1c0.1,0.3,0.2,0.6,0.3,0.8c0.1,0.2,0.3,0.4,0.5,0.5
						s0.5,0.2,0.8,0.2c0.4,0,0.7-0.1,0.9-0.3s0.4-0.4,0.6-0.7c0.1-0.3,0.2-0.6,0.3-0.9V-74c0-0.2-0.1-0.5-0.2-0.7s-0.2-0.4-0.3-0.6
						c-0.1-0.2-0.3-0.3-0.5-0.4s-0.4-0.2-0.7-0.2c-0.3,0-0.6,0.1-0.8,0.2c-0.2,0.1-0.4,0.3-0.5,0.5s-0.2,0.5-0.3,0.8
						C24.2-74.1,24.1-73.8,24.1-73.3z M27.3-70.5v-9.7h1.3V-69h-1.2L27.3-70.5z"/>
					<path class="st6" d="M33.4-68.9c-0.5,0-0.9-0.1-1.3-0.2c-0.4-0.1-0.7-0.4-1-0.6c-0.3-0.3-0.5-0.7-0.6-1.1s-0.2-1-0.2-1.6v-0.9
						c0-0.7,0.1-1.3,0.2-1.8c0.2-0.5,0.4-0.9,0.7-1.2c0.3-0.3,0.6-0.5,0.9-0.6c0.4-0.1,0.7-0.2,1.1-0.2c0.5,0,0.9,0.1,1.3,0.2
						c0.4,0.2,0.6,0.4,0.9,0.7c0.3,0.3,0.4,0.7,0.5,1.2c0.1,0.5,0.2,1,0.2,1.6v0.8h-5v-1.1h3.7v-0.2c0-0.4-0.1-0.8-0.2-1.1
						c-0.1-0.3-0.2-0.6-0.4-0.7C34-75.9,33.7-76,33.3-76c-0.2,0-0.5,0-0.7,0.1s-0.4,0.2-0.5,0.4c-0.1,0.2-0.3,0.5-0.3,0.8
						c-0.1,0.3-0.1,0.8-0.1,1.3v0.9c0,0.4,0,0.8,0.1,1.1c0.1,0.3,0.2,0.6,0.4,0.8c0.2,0.2,0.4,0.3,0.6,0.4s0.5,0.1,0.8,0.1
						c0.4,0,0.8-0.1,1.1-0.3c0.3-0.2,0.5-0.4,0.7-0.6l0.6,1c-0.1,0.2-0.3,0.4-0.6,0.6c-0.2,0.2-0.5,0.3-0.8,0.4
						C34.3-68.9,33.9-68.9,33.4-68.9z"/>
					<path class="st6" d="M39-80.2V-69h-1.3v-11.2H39z"/>
					<path class="st6" d="M45.1-73.8v1h-0.9c-0.3,0-0.6,0-0.8,0.1s-0.5,0.2-0.6,0.3c-0.2,0.1-0.3,0.3-0.4,0.5
						c-0.1,0.2-0.1,0.4-0.1,0.7c0,0.3,0,0.6,0.1,0.8c0.1,0.2,0.2,0.3,0.4,0.4s0.4,0.1,0.7,0.1s0.6-0.1,0.9-0.2s0.4-0.3,0.6-0.5
						c0-0.4,0-0.6,0-0.8l0.3,0.6c0,0.2-0.1,0.4-0.2,0.6c-0.1,0.2-0.2,0.4-0.4,0.6s-0.4,0.4-0.7,0.5s-0.5,0.2-0.8,0.2
						c-0.5,0-0.9-0.1-1.2-0.3c-0.3-0.2-0.6-0.4-0.8-0.8s-0.3-0.8-0.3-1.3c0-0.4,0.1-0.7,0.2-1.1s0.3-0.6,0.6-0.8
						c0.3-0.2,0.6-0.4,1-0.6c0.4-0.1,0.8-0.2,1.4-0.2h1V-73.8z M44.9-70.4v-4.3c0-0.3,0-0.6-0.1-0.8c-0.1-0.2-0.2-0.3-0.4-0.4
						S43.9-76,43.7-76c-0.3,0-0.5,0.1-0.7,0.2s-0.3,0.3-0.5,0.4c-0.1,0.2-0.2,0.4-0.2,0.6H41c0-0.3,0.1-0.6,0.2-0.8
						c0.1-0.3,0.3-0.5,0.5-0.8c0.2-0.2,0.5-0.4,0.8-0.5s0.7-0.2,1.1-0.2c0.5,0,0.9,0.1,1.3,0.2c0.4,0.2,0.7,0.4,0.9,0.8
						s0.3,0.8,0.3,1.4v3.9c0,0.3,0,0.5,0.1,0.8c0,0.3,0.1,0.6,0.2,0.8v0.1h-1.3C45-69.3,45-69.5,45-69.7
						C44.9-69.9,44.9-70.1,44.9-70.4z"/>
					<path class="st6" d="M48.9-76.9l1.6,6.2l0.3,1.4l-0.9,0.5l-2.4-8.1H48.9z M50.1-69.8l1.8-7.1h1.4l-2.6,9.1
						c-0.1,0.2-0.1,0.4-0.3,0.6c-0.1,0.2-0.2,0.4-0.4,0.6s-0.4,0.4-0.6,0.5c-0.2,0.1-0.5,0.2-0.8,0.2c-0.1,0-0.2,0-0.4,0
						S48-66,47.9-66v-1H48c0.1,0,0.1,0,0.1,0c0.3,0,0.5,0,0.6-0.1c0.2-0.1,0.3-0.2,0.5-0.4c0.1-0.2,0.2-0.4,0.3-0.8L50.1-69.8z"/>
					<path class="st6" d="M57.3-68.9c-0.5,0-0.9-0.1-1.3-0.2c-0.4-0.1-0.7-0.4-1-0.6c-0.3-0.3-0.5-0.7-0.6-1.1s-0.2-1-0.2-1.6v-0.9
						c0-0.7,0.1-1.3,0.2-1.8c0.2-0.5,0.4-0.9,0.7-1.2c0.3-0.3,0.6-0.5,0.9-0.6c0.4-0.1,0.7-0.2,1.1-0.2c0.5,0,0.9,0.1,1.3,0.2
						c0.4,0.2,0.6,0.4,0.9,0.7s0.4,0.7,0.5,1.2s0.2,1,0.2,1.6v0.8h-5v-1.1h3.7v-0.2c0-0.4-0.1-0.8-0.2-1.1c-0.1-0.3-0.2-0.6-0.4-0.7
						c-0.2-0.2-0.5-0.3-0.9-0.3c-0.2,0-0.5,0-0.7,0.1s-0.4,0.2-0.5,0.4c-0.1,0.2-0.3,0.5-0.3,0.8c-0.1,0.3-0.1,0.8-0.1,1.3v0.9
						c0,0.4,0,0.8,0.1,1.1c0.1,0.3,0.2,0.6,0.4,0.8c0.2,0.2,0.4,0.3,0.6,0.4c0.2,0.1,0.5,0.1,0.8,0.1c0.4,0,0.8-0.1,1.1-0.3
						c0.3-0.2,0.5-0.4,0.7-0.6l0.7,0.8c-0.1,0.2-0.3,0.4-0.6,0.6c-0.2,0.2-0.5,0.3-0.8,0.4C58.2-68.9,57.8-68.9,57.3-68.9z"/>
					<path class="st6" d="M61.2-72.6v-0.7c0-0.7,0.1-1.2,0.2-1.7c0.1-0.5,0.3-0.9,0.5-1.2c0.2-0.3,0.5-0.5,0.8-0.7s0.7-0.2,1.1-0.2
						s0.8,0.1,1.1,0.2c0.3,0.2,0.5,0.4,0.7,0.7c0.2,0.3,0.4,0.7,0.5,1.1s0.2,1,0.2,1.5v1c0,0.6-0.1,1.1-0.2,1.5s-0.3,0.8-0.5,1.1
						s-0.4,0.6-0.7,0.7c-0.3,0.1-0.7,0.2-1.1,0.2c-0.4,0-0.7-0.1-1.1-0.2c-0.3-0.2-0.6-0.4-0.8-0.7c-0.2-0.3-0.4-0.7-0.5-1.2
						C61.3-71.4,61.2-72,61.2-72.6z M62.5-73.3v0.7c0,0.4,0,0.8,0.1,1.1c0.1,0.3,0.2,0.6,0.3,0.8c0.1,0.2,0.3,0.4,0.5,0.5
						s0.5,0.2,0.8,0.2c0.4,0,0.7-0.1,0.9-0.3s0.4-0.4,0.6-0.7c0.1-0.3,0.2-0.6,0.3-0.9V-74c0-0.2-0.1-0.5-0.2-0.7s-0.2-0.4-0.3-0.6
						c-0.1-0.2-0.3-0.3-0.5-0.4c-0.2-0.1-0.4-0.2-0.7-0.2c-0.3,0-0.6,0.1-0.8,0.2s-0.4,0.3-0.5,0.5s-0.2,0.5-0.3,0.8
						C62.6-74.1,62.5-73.8,62.5-73.3z M65.7-70.5v-9.7H67V-69h-1.2L65.7-70.5z"/>
				</g>
			</g>
		</g>
	</g>
</g>
<g id="g-root-tx_speechra_1qbycuy1af2z9f-stroke" transform="translate(288.25, 218)">
</g>
<g id="g-root-tx_speechra_1qd7kjt1ap5f63-fill" transform="translate(460.42498779296875, 218)">
	<g id="tx_speechra_1qd7kjt1ap5f63-fill-merged">
		<g>
			<g>
				<g class="st5">
					<path class="st6" d="M20.4-89.7c0-0.2,0-0.5-0.1-0.7s-0.2-0.4-0.3-0.5s-0.4-0.3-0.6-0.4s-0.6-0.3-1-0.4
						c-0.4-0.2-0.8-0.3-1.2-0.5s-0.7-0.4-0.9-0.7c-0.3-0.2-0.4-0.5-0.6-0.9s-0.2-0.7-0.2-1.1s0.1-0.8,0.2-1.2
						c0.1-0.4,0.3-0.7,0.6-0.9c0.3-0.3,0.6-0.5,1-0.6s0.8-0.2,1.3-0.2c0.7,0,1.3,0.2,1.8,0.5s0.8,0.7,1.1,1.2c0.2,0.5,0.4,1,0.4,1.6
						h-1.3c0-0.4-0.1-0.8-0.2-1.1c-0.1-0.3-0.3-0.6-0.6-0.7c-0.3-0.2-0.6-0.3-1.1-0.3c-0.4,0-0.7,0.1-1,0.2
						c-0.3,0.2-0.4,0.4-0.6,0.6c-0.1,0.3-0.2,0.6-0.2,0.9c0,0.2,0,0.4,0.1,0.6s0.2,0.4,0.4,0.5c0.2,0.2,0.4,0.3,0.6,0.4
						c0.2,0.1,0.5,0.3,0.9,0.4c0.5,0.2,1,0.4,1.3,0.6c0.3,0.2,0.7,0.4,0.9,0.7c0.2,0.3,0.4,0.6,0.5,0.9s0.2,0.7,0.2,1.1
						s-0.1,0.8-0.2,1.2c-0.1,0.4-0.4,0.7-0.6,0.9s-0.6,0.4-1,0.6c-0.4,0.1-0.8,0.2-1.3,0.2c-0.4,0-0.8-0.1-1.2-0.2s-0.8-0.3-1.1-0.6
						c-0.3-0.3-0.6-0.6-0.8-1s-0.3-0.9-0.3-1.4h1.3c0,0.4,0.1,0.7,0.2,0.9c0.1,0.3,0.3,0.5,0.4,0.6c0.2,0.2,0.4,0.3,0.7,0.4
						c0.2,0.1,0.5,0.1,0.8,0.1c0.4,0,0.7-0.1,1-0.2c0.3-0.1,0.5-0.3,0.6-0.6C20.3-89,20.4-89.3,20.4-89.7z"/>
					<path class="st6" d="M24.6-93.4v9.4h-1.3v-11h1.2L24.6-93.4z M29.1-91.3v0.7c0,0.6-0.1,1.2-0.2,1.6c-0.1,0.5-0.3,0.9-0.5,1.2
						c-0.2,0.3-0.5,0.5-0.8,0.7s-0.7,0.2-1.1,0.2s-0.8-0.1-1.1-0.2c-0.3-0.2-0.6-0.4-0.8-0.7c-0.2-0.3-0.4-0.7-0.5-1.1
						s-0.2-0.9-0.2-1.4v-1.1c0-0.6,0.1-1.1,0.2-1.5s0.3-0.8,0.5-1.1c0.2-0.3,0.5-0.6,0.8-0.7c0.3-0.2,0.7-0.2,1.1-0.2
						s0.8,0.1,1.1,0.2c0.3,0.1,0.6,0.4,0.8,0.7c0.2,0.3,0.4,0.7,0.5,1.2C29-92.5,29.1-92,29.1-91.3z M27.8-90.6v-0.7
						c0-0.4,0-0.8-0.1-1.1c-0.1-0.3-0.2-0.6-0.3-0.8s-0.3-0.4-0.5-0.5s-0.5-0.2-0.8-0.2s-0.5,0.1-0.7,0.2s-0.4,0.3-0.5,0.4
						c-0.1,0.2-0.3,0.4-0.4,0.6s-0.2,0.5-0.2,0.7v2.2c0.1,0.3,0.2,0.6,0.3,0.9c0.1,0.3,0.3,0.5,0.6,0.7c0.2,0.2,0.5,0.3,0.9,0.3
						c0.3,0,0.6-0.1,0.8-0.2c0.2-0.1,0.4-0.3,0.5-0.5s0.2-0.5,0.3-0.8C27.7-89.8,27.8-90.1,27.8-90.6z"/>
					<path class="st6" d="M33.6-86.9c-0.5,0-0.9-0.1-1.3-0.2c-0.4-0.1-0.7-0.4-1-0.6c-0.3-0.3-0.5-0.7-0.6-1.1s-0.2-1-0.2-1.6v-0.9
						c0-0.7,0.1-1.3,0.2-1.8c0.2-0.5,0.4-0.9,0.7-1.2c0.3-0.3,0.6-0.5,0.9-0.6c0.4-0.1,0.7-0.2,1.1-0.2c0.5,0,0.9,0.1,1.3,0.2
						c0.4,0.2,0.6,0.4,0.9,0.7s0.4,0.7,0.5,1.2c0.1,0.5,0.2,1,0.2,1.6v0.8h-5v-1.1H35v-0.2c0-0.4-0.1-0.8-0.2-1.1
						c-0.1-0.3-0.2-0.6-0.4-0.7c-0.2-0.2-0.5-0.3-0.9-0.3c-0.2,0-0.5,0-0.7,0.1s-0.4,0.2-0.5,0.4C32.2-93.3,32-93,32-92.7
						c-0.1,0.3-0.1,0.8-0.1,1.3v0.9c0,0.4,0,0.8,0.1,1.1c0.1,0.3,0.2,0.6,0.4,0.8c0.2,0.2,0.4,0.3,0.6,0.4s0.5,0.1,0.8,0.1
						c0.4,0,0.8-0.1,1.1-0.3c0.3-0.2,0.5-0.4,0.7-0.6l0.7,0.8c-0.1,0.2-0.3,0.4-0.6,0.6c-0.2,0.2-0.5,0.3-0.8,0.4
						C34.4-86.9,34-86.9,33.6-86.9z"/>
					<path class="st6" d="M40.6-86.9c-0.5,0-0.9-0.1-1.3-0.2c-0.4-0.1-0.7-0.4-1-0.6c-0.3-0.3-0.5-0.7-0.6-1.1
						c-0.1-0.4-0.2-1-0.2-1.6v-0.9c0-0.7,0.1-1.3,0.2-1.8c0.2-0.5,0.4-0.9,0.7-1.2c0.3-0.3,0.6-0.5,0.9-0.6c0.4-0.1,0.7-0.2,1.1-0.2
						c0.5,0,0.9,0.1,1.3,0.2c0.4,0.2,0.6,0.4,0.9,0.7s0.4,0.7,0.5,1.2s0.2,1,0.2,1.6v0.8h-5v-1.1H42v-0.2c0-0.4-0.1-0.8-0.2-1.1
						c-0.1-0.3-0.2-0.6-0.4-0.7c-0.2-0.2-0.5-0.3-0.9-0.3c-0.2,0-0.5,0-0.7,0.1s-0.4,0.2-0.5,0.4C39.2-93.3,39-93,39-92.7
						c-0.1,0.3-0.1,0.8-0.1,1.3v0.9c0,0.4,0,0.8,0.1,1.1c0.1,0.3,0.2,0.6,0.4,0.8c0.2,0.2,0.4,0.3,0.6,0.4c0.2,0.1,0.5,0.1,0.8,0.1
						c0.4,0,0.8-0.1,1.1-0.3c0.3-0.2,0.5-0.4,0.7-0.6l0.7,0.8c-0.1,0.2-0.3,0.4-0.6,0.6c-0.2,0.2-0.5,0.3-0.8,0.4
						C41.5-86.9,41.1-86.9,40.6-86.9z"/>
					<path class="st6" d="M47.6-88c0.3,0,0.5-0.1,0.7-0.2s0.4-0.3,0.5-0.5s0.2-0.5,0.2-0.9h1.2c0,0.5-0.2,1-0.4,1.4s-0.6,0.7-1,0.9
						C48.4-87.1,48-87,47.5-87s-1-0.1-1.3-0.2c-0.4-0.2-0.7-0.4-0.9-0.7c-0.2-0.3-0.4-0.7-0.6-1.1c-0.1-0.5-0.2-1-0.2-1.5v-0.9
						c0-0.6,0.1-1.1,0.2-1.5c0.1-0.5,0.3-0.8,0.6-1.1c0.2-0.3,0.6-0.6,0.9-0.7c0.4-0.2,0.8-0.2,1.3-0.2s1,0.1,1.4,0.3
						c0.4,0.2,0.7,0.6,0.9,1s0.3,0.9,0.4,1.5H49c0-0.4-0.1-0.7-0.2-1c-0.1-0.3-0.3-0.5-0.5-0.6s-0.5-0.2-0.8-0.2s-0.6,0.1-0.8,0.2
						s-0.4,0.3-0.5,0.5s-0.2,0.5-0.3,0.8s-0.1,0.7-0.1,1v0.9c0,0.4,0,0.7,0.1,1.1c0.1,0.3,0.1,0.6,0.3,0.8c0.1,0.2,0.3,0.4,0.5,0.5
						C46.9-88,47.2-88,47.6-88z"/>
					<path class="st6" d="M53-98.2V-87h-1.3v-11.2H53z M52.7-91.3h-0.5c0-0.5,0.1-1,0.2-1.5c0.1-0.5,0.3-0.9,0.6-1.2
						c0.2-0.3,0.5-0.6,0.9-0.8c0.3-0.2,0.7-0.3,1.1-0.3c0.3,0,0.6,0.1,0.9,0.2c0.3,0.1,0.5,0.3,0.7,0.5s0.3,0.5,0.4,0.9
						c0.1,0.4,0.2,0.8,0.2,1.3v5.2h-1.3v-5.2c0-0.4,0-0.7-0.1-1s-0.2-0.4-0.4-0.5s-0.4-0.2-0.7-0.2s-0.5,0.1-0.7,0.2
						s-0.4,0.3-0.6,0.6c-0.2,0.2-0.3,0.5-0.4,0.9C52.8-92,52.7-91.6,52.7-91.3z"/>
					<path class="st6" d="M63.7-93.7v6.7h-1.3v-7.9h1.3V-93.7z M65.7-95v1.3c-0.1,0-0.2,0-0.3,0s-0.2,0-0.3,0c-0.2,0-0.5,0-0.6,0.1
						c-0.2,0.1-0.3,0.2-0.5,0.4c-0.2,0.2-0.2,0.4-0.3,0.6s-0.1,0.5-0.2,0.8l-0.3,0.2c0-0.5,0-0.9,0.1-1.3s0.2-0.8,0.4-1.1
						c0.2-0.3,0.4-0.6,0.6-0.8c0.3-0.2,0.6-0.3,0.9-0.3c0.1,0,0.2,0,0.3,0C65.6-95,65.7-95,65.7-95z"/>
					<path class="st6" d="M71.1-91.8v1h-0.9c-0.3,0-0.6,0-0.8,0.1c-0.3,0.1-0.5,0.2-0.6,0.3c-0.2,0.1-0.3,0.3-0.4,0.5
						c-0.1,0.2-0.1,0.4-0.1,0.7c0,0.3,0,0.6,0.1,0.8c0.1,0.2,0.2,0.3,0.4,0.4c0.2,0.1,0.4,0.1,0.7,0.1c0.3,0,0.6-0.1,0.9-0.2
						s0.4-0.3,0.6-0.5c0.1-0.2,0.2-0.4,0.2-0.6l0.3,0.6c0,0.2-0.1,0.4-0.2,0.6s-0.2,0.4-0.4,0.6s-0.4,0.4-0.7,0.5
						c-0.3,0.1-0.5,0.2-0.8,0.2c-0.5,0-0.9-0.1-1.2-0.3c-0.3-0.2-0.6-0.4-0.8-0.8c-0.2-0.4-0.3-0.8-0.3-1.3c0-0.4,0.1-0.7,0.2-1.1
						c0.1-0.4,0.3-0.6,0.6-0.8c0.3-0.2,0.6-0.4,1-0.6c0.4-0.1,0.8-0.2,1.4-0.2C70.3-91.8,71.1-91.8,71.1-91.8z M70.9-88.4v-4.3
						c0-0.3,0-0.6-0.1-0.8c-0.1-0.2-0.2-0.3-0.4-0.4C70.2-94,70-94,69.7-94c-0.3,0-0.5,0.1-0.7,0.2c-0.2,0.1-0.3,0.3-0.5,0.4
						c-0.1,0.2-0.2,0.4-0.2,0.6H67c0-0.3,0.1-0.6,0.2-0.8c0.1-0.3,0.3-0.5,0.5-0.8c0.2-0.2,0.5-0.4,0.8-0.5c0.3-0.1,0.7-0.2,1.1-0.2
						c0.5,0,0.9,0.1,1.3,0.2c0.4,0.2,0.7,0.4,0.9,0.8s0.3,0.8,0.3,1.4v3.9c0,0.3,0,0.5,0.1,0.8c0,0.3,0.1,0.6,0.2,0.8v0.1h-1.3
						C71-87.3,71-87.5,71-87.7C70.9-87.9,70.9-88.1,70.9-88.4z"/>
					<path class="st6" d="M77.1-94.9v1h-3.7v-1H77.1z M74.6-96.9h1.3v7.9c0,0.3,0,0.5,0.1,0.6s0.2,0.2,0.3,0.3s0.2,0.1,0.3,0.1
						c0.1,0,0.2,0,0.3,0c0.1,0,0.2,0,0.2-0.1v1.1c-0.1,0-0.2,0.1-0.4,0.1c-0.1,0-0.3,0-0.6,0c-0.3,0-0.5-0.1-0.8-0.2
						c-0.2-0.1-0.4-0.4-0.6-0.7c-0.1-0.3-0.2-0.7-0.2-1.3L74.6-96.9L74.6-96.9z"/>
					<path class="st6" d="M81.5-86.9c-0.5,0-0.9-0.1-1.3-0.2s-0.7-0.4-1-0.6c-0.3-0.3-0.5-0.7-0.6-1.1s-0.2-1-0.2-1.6v-0.9
						c0-0.7,0.1-1.3,0.2-1.8c0.2-0.5,0.4-0.9,0.7-1.2c0.3-0.3,0.6-0.5,0.9-0.6c0.4-0.1,0.7-0.2,1.1-0.2c0.5,0,0.9,0.1,1.3,0.2
						c0.4,0.2,0.6,0.4,0.9,0.7s0.4,0.7,0.5,1.2s0.2,1,0.2,1.6v0.8h-5v-1.1h3.7v-0.2c0-0.4-0.1-0.8-0.2-1.1c-0.1-0.3-0.2-0.6-0.4-0.7
						c-0.3-0.2-0.6-0.3-1-0.3c-0.2,0-0.5,0-0.7,0.1s-0.4,0.2-0.5,0.4c-0.1,0.2-0.3,0.5-0.3,0.8c-0.1,0.3-0.1,0.8-0.1,1.3v0.9
						c0,0.4,0,0.8,0.1,1.1c0.1,0.3,0.2,0.6,0.4,0.8c0.2,0.2,0.4,0.3,0.6,0.4C81-88,81.2-88,81.5-88c0.4,0,0.8-0.1,1.1-0.3
						c0.3-0.2,0.5-0.4,0.7-0.6L84-88c-0.1,0.2-0.3,0.4-0.6,0.6c-0.2,0.2-0.5,0.3-0.8,0.4C82.3-86.9,81.9-86.9,81.5-86.9z"/>
					<path class="st6" d="M89.1-97c0-0.2,0.1-0.4,0.2-0.6s0.3-0.2,0.5-0.2s0.4,0.1,0.6,0.2c0.1,0.2,0.2,0.3,0.2,0.6
						c0,0.2-0.1,0.4-0.2,0.5s-0.3,0.2-0.6,0.2s-0.4-0.1-0.5-0.2S89.1-96.8,89.1-97z M90.5-94.9v7.9h-1.3v-7.9H90.5z"/>
					<path class="st6" d="M96.4-89c0-0.2,0-0.4-0.1-0.5c-0.1-0.2-0.3-0.3-0.5-0.4s-0.5-0.3-0.9-0.5s-0.7-0.3-1-0.5
						c-0.3-0.1-0.5-0.3-0.7-0.5s-0.4-0.4-0.5-0.6s-0.2-0.5-0.2-0.8s0.1-0.6,0.2-0.9s0.3-0.5,0.5-0.7s0.5-0.4,0.8-0.5s0.7-0.2,1-0.2
						c0.5,0,1,0.1,1.4,0.3s0.7,0.5,0.9,0.9c0.2,0.4,0.3,0.8,0.3,1.2h-1.3c0-0.2,0-0.4-0.1-0.6s-0.2-0.4-0.4-0.5
						C95.5-93.9,95.3-94,95-94s-0.5,0.1-0.7,0.2s-0.3,0.2-0.4,0.4c-0.1,0.2-0.1,0.3-0.1,0.5c0,0.1,0,0.3,0.1,0.4
						c0,0.1,0.1,0.2,0.2,0.3c0.1,0.1,0.2,0.2,0.4,0.3c0.2,0.1,0.4,0.2,0.7,0.3c0.5,0.2,1,0.4,1.4,0.6s0.6,0.5,0.8,0.8
						c0.2,0.3,0.3,0.6,0.3,1.1c0,0.3-0.1,0.7-0.2,0.9c-0.1,0.3-0.3,0.5-0.5,0.7s-0.5,0.4-0.8,0.5s-0.7,0.2-1.1,0.2
						c-0.6,0-1.1-0.1-1.5-0.4c-0.4-0.2-0.7-0.5-0.9-0.9c-0.2-0.4-0.3-0.8-0.3-1.2h1.3c0,0.4,0.1,0.7,0.3,0.9
						c0.2,0.2,0.3,0.3,0.6,0.4s0.4,0.1,0.7,0.1c0.3,0,0.5,0,0.7-0.1s0.3-0.2,0.4-0.4C96.3-88.6,96.4-88.8,96.4-89z"/>
				</g>
			</g>
			<g>
				<g class="st5">
					<path class="st6" d="M-6.8-72.5h0.5c0,0.5,0,1-0.1,1.5c-0.1,0.4-0.2,0.8-0.4,1.2C-7-69.5-7.3-69.2-7.6-69
						c-0.3,0.2-0.7,0.3-1.2,0.3c-0.3,0-0.6-0.1-0.9-0.2c-0.3-0.1-0.5-0.3-0.7-0.5s-0.3-0.5-0.4-0.9s-0.2-0.8-0.2-1.4v-5.1h1.3v5.1
						c0,0.4,0,0.7,0.1,0.9c0.1,0.2,0.1,0.4,0.3,0.5c0.1,0.1,0.2,0.2,0.4,0.3s0.3,0.1,0.4,0.1c0.5,0,0.8-0.1,1.1-0.3
						c0.3-0.2,0.5-0.5,0.6-0.9C-6.8-71.6-6.8-72-6.8-72.5z M-7-70.8v-6.1h1.3v7.9h-1.2L-7-70.8z"/>
					<path class="st6" d="M-2.5-75.2v6.2h-1.3v-7.9h1.2L-2.5-75.2z M-2.8-73.3h-0.5c0-0.5,0.1-1,0.2-1.5c0.1-0.5,0.3-0.9,0.6-1.2
						c0.2-0.3,0.5-0.6,0.9-0.8c0.3-0.2,0.7-0.3,1.1-0.3c0.3,0,0.6,0.1,0.9,0.2s0.5,0.3,0.7,0.5s0.3,0.5,0.4,0.9s0.2,0.8,0.2,1.3v5.2
						H0.4v-5.2c0-0.4,0-0.7-0.1-1s-0.2-0.4-0.4-0.5c-0.2-0.1-0.4-0.2-0.7-0.2c-0.3,0-0.5,0.1-0.7,0.2s-0.4,0.3-0.6,0.6
						c-0.2,0.2-0.3,0.5-0.4,0.9C-2.7-74-2.8-73.6-2.8-73.3z"/>
					<path class="st6" d="M6.2-70c0.3,0,0.5-0.1,0.7-0.2c0.2-0.1,0.4-0.3,0.5-0.5c0.1-0.2,0.2-0.5,0.2-0.9h1.2c0,0.5-0.2,1-0.4,1.4
						s-0.6,0.7-1,0.9C7-69.1,6.6-69,6.1-69s-1-0.1-1.3-0.2c-0.4-0.2-0.7-0.4-0.9-0.7c-0.2-0.3-0.4-0.7-0.6-1.1
						c-0.1-0.5-0.2-1-0.2-1.5v-0.9c0-0.6,0.1-1.1,0.2-1.5c0.1-0.5,0.3-0.8,0.6-1.1c0.2-0.3,0.6-0.6,0.9-0.7c0.4-0.2,0.8-0.2,1.3-0.2
						s1,0.1,1.4,0.3c0.4,0.2,0.7,0.6,0.9,1c0.2,0.4,0.3,0.9,0.4,1.5H7.7c0-0.4-0.1-0.7-0.2-1c-0.1-0.3-0.3-0.5-0.5-0.6
						C6.8-75.9,6.5-76,6.2-76s-0.6,0.1-0.8,0.2c-0.2,0.1-0.4,0.3-0.5,0.5s-0.2,0.5-0.3,0.8s-0.1,0.7-0.1,1v0.9c0,0.4,0,0.7,0.1,1.1
						c0.1,0.3,0.1,0.6,0.3,0.8c0.1,0.2,0.3,0.4,0.5,0.5C5.6-70,5.9-70,6.2-70z"/>
					<path class="st6" d="M10.2-72.6v-0.8c0-0.6,0.1-1.2,0.2-1.6c0.2-0.5,0.4-0.9,0.7-1.2c0.3-0.3,0.6-0.5,1-0.7
						c0.4-0.2,0.8-0.2,1.2-0.2c0.4,0,0.8,0.1,1.2,0.2c0.4,0.2,0.7,0.4,1,0.7c0.2,0.4,0.4,0.8,0.5,1.2c0.2,0.5,0.2,1,0.2,1.6v0.8
						c0.1,0.6,0,1.2-0.2,1.6c-0.2,0.5-0.4,0.9-0.7,1.2s-0.6,0.5-1,0.7c-0.4,0.2-0.8,0.2-1.2,0.2s-0.7,0-1.1-0.2
						c-0.4-0.2-0.7-0.4-1-0.7c-0.3-0.3-0.5-0.7-0.7-1.2C10.2-71.4,10.2-72,10.2-72.6z M11.5-73.3v0.8c0,0.4,0,0.8,0.1,1.1
						c0.1,0.3,0.2,0.6,0.4,0.8c0.2,0.2,0.3,0.4,0.6,0.5C12.7-70,13-70,13.2-70c0.3,0,0.6,0,0.8-0.1c0.2-0.1,0.4-0.3,0.6-0.5
						c0.1-0.2,0.3-0.5,0.3-0.8c0.1-0.4,0.1-0.7,0.1-1.2v-0.8c0-0.4,0-0.8-0.1-1.1c-0.1-0.3-0.2-0.6-0.4-0.8
						c-0.2-0.2-0.4-0.4-0.6-0.5S13.5-76,13.2-76c-0.2,0-0.5,0.1-0.7,0.2s-0.4,0.3-0.6,0.5s-0.3,0.5-0.4,0.8
						C11.5-74.2,11.5-73.8,11.5-73.3z"/>
					<path class="st6" d="M19.2-75.2v6.2H18v-7.9h1.2V-75.2z M18.9-73.3h-0.5c0-0.5,0.1-1,0.2-1.5c0.1-0.5,0.3-0.9,0.6-1.2
						c0.2-0.3,0.5-0.6,0.9-0.8c0.3-0.2,0.7-0.3,1.1-0.3c0.3,0,0.6,0.1,0.9,0.2c0.3,0.1,0.5,0.3,0.7,0.5c0.2,0.2,0.3,0.5,0.4,0.9
						s0.2,0.8,0.2,1.3v5.2H22v-5.2c0-0.4,0-0.7-0.1-1s-0.2-0.4-0.4-0.5c-0.2-0.1-0.4-0.2-0.7-0.2c-0.3,0-0.5,0.1-0.7,0.2
						c-0.2,0.1-0.4,0.3-0.6,0.6c-0.2,0.2-0.3,0.5-0.4,0.9C19-74,18.9-73.6,18.9-73.3z"/>
					<path class="st6" d="M29.1-71c0-0.2,0-0.4-0.1-0.5c-0.1-0.2-0.3-0.3-0.5-0.4s-0.5-0.3-0.9-0.5s-0.7-0.3-1-0.5
						c-0.3-0.1-0.5-0.3-0.7-0.5s-0.4-0.4-0.5-0.6s-0.2-0.5-0.2-0.8s0.1-0.6,0.2-0.9s0.3-0.5,0.5-0.7s0.5-0.4,0.8-0.5s0.7-0.2,1-0.2
						c0.5,0,1,0.1,1.4,0.3s0.7,0.5,0.9,0.9c0.2,0.4,0.3,0.8,0.3,1.2H29c0-0.2,0-0.4-0.1-0.6s-0.2-0.4-0.4-0.5
						C28.2-75.9,28-76,27.7-76s-0.5,0.1-0.7,0.2s-0.3,0.2-0.4,0.4c-0.1,0.2-0.1,0.3-0.1,0.5c0,0.1,0,0.3,0.1,0.4
						c0,0.1,0.1,0.2,0.2,0.3c0.1,0.1,0.2,0.2,0.4,0.3c0.2,0.1,0.4,0.2,0.7,0.3c0.5,0.2,1,0.4,1.4,0.6s0.6,0.5,0.8,0.8
						c0.2,0.3,0.3,0.6,0.3,1.1c0,0.3-0.1,0.7-0.2,0.9c-0.1,0.3-0.3,0.5-0.5,0.7s-0.5,0.4-0.8,0.5s-0.7,0.2-1.1,0.2
						c-0.6,0-1.1-0.1-1.5-0.4c-0.4-0.2-0.7-0.5-0.9-0.9c-0.2-0.4-0.3-0.8-0.3-1.2h1.3c0,0.4,0.1,0.7,0.3,0.9
						c0.2,0.2,0.3,0.3,0.6,0.4s0.4,0.1,0.7,0.1c0.3,0,0.5,0,0.7-0.1s0.3-0.2,0.4-0.4C29-70.6,29.1-70.8,29.1-71z"/>
					<path class="st6" d="M34.8-70c0.3,0,0.5-0.1,0.7-0.2s0.4-0.3,0.5-0.5c0.1-0.2,0.2-0.5,0.2-0.9h1.2c0,0.5-0.2,1-0.4,1.4
						s-0.6,0.7-1,0.9c-0.4,0.2-0.8,0.3-1.3,0.3s-1-0.1-1.3-0.2c-0.4-0.2-0.7-0.4-0.9-0.7c-0.2-0.3-0.4-0.7-0.6-1.1
						c-0.1-0.5-0.2-1-0.2-1.5v-0.9c0-0.6,0.1-1.1,0.2-1.5c0.1-0.5,0.3-0.8,0.6-1.1c0.2-0.3,0.6-0.6,0.9-0.7c0.4-0.2,0.8-0.2,1.3-0.2
						s1,0.1,1.4,0.3c0.4,0.2,0.7,0.6,0.9,1c0.2,0.4,0.3,0.9,0.4,1.5h-1.2c0-0.4-0.1-0.7-0.2-1c-0.1-0.3-0.3-0.5-0.5-0.6
						s-0.5-0.2-0.8-0.2s-0.6,0.1-0.8,0.2c-0.2,0.1-0.4,0.3-0.5,0.5c-0.1,0.2-0.2,0.5-0.3,0.8c-0.1,0.3-0.1,0.7-0.1,1v0.9
						c0,0.4,0,0.7,0.1,1.1c0.1,0.3,0.1,0.6,0.3,0.8c0.1,0.2,0.3,0.4,0.5,0.5C34.2-70,34.5-70,34.8-70z"/>
					<path class="st6" d="M39-79c0-0.2,0.1-0.4,0.2-0.6c0.1-0.2,0.3-0.2,0.5-0.2s0.4,0.1,0.6,0.2c0.1,0.2,0.2,0.3,0.2,0.6
						c0,0.2-0.1,0.4-0.2,0.5c-0.1,0.1-0.3,0.2-0.6,0.2s-0.4-0.1-0.5-0.2C39.1-78.6,39-78.8,39-79z M40.4-76.9v7.9h-1.3v-7.9H40.4z"
						/>
					<path class="st6" d="M42.2-72.6v-0.8c0-0.6,0.1-1.2,0.2-1.6c0.2-0.5,0.4-0.9,0.7-1.2c0.3-0.3,0.6-0.5,1-0.7s0.8-0.2,1.2-0.2
						s0.8,0.1,1.2,0.2c0.4,0.2,0.7,0.4,1,0.7c0.3,0.3,0.5,0.7,0.7,1.2s0.2,1,0.2,1.6v0.8c0,0.6-0.1,1.2-0.2,1.6
						c-0.2,0.5-0.4,0.9-0.7,1.2s-0.6,0.5-1,0.7s-0.8,0.2-1.2,0.2s-0.8-0.1-1.2-0.2s-0.7-0.4-1-0.7c-0.3-0.3-0.5-0.7-0.7-1.2
						C42.2-71.4,42.2-72,42.2-72.6z M43.5-73.3v0.8c0,0.4,0,0.8,0.1,1.1c0.1,0.3,0.2,0.6,0.4,0.8c0.2,0.2,0.3,0.4,0.6,0.5
						C44.7-70,45-70,45.2-70c0.3,0,0.5-0.1,0.8-0.2c0.2-0.1,0.4-0.3,0.6-0.5c0.1-0.2,0.3-0.5,0.3-0.8c0.1-0.3,0.1-0.7,0.1-1.1v-0.8
						c0-0.4,0-0.8-0.1-1.1c-0.1-0.3-0.2-0.6-0.4-0.8c-0.2-0.2-0.4-0.4-0.6-0.5c-0.2-0.1-0.5-0.2-0.7-0.2s-0.5,0.1-0.7,0.2
						s-0.4,0.3-0.6,0.5c-0.2,0.2-0.3,0.5-0.4,0.8C43.5-74.2,43.5-73.8,43.5-73.3z"/>
					<path class="st6" d="M54.2-72.5h0.5c0,0.5,0,1-0.1,1.5c-0.1,0.4-0.2,0.8-0.4,1.2c-0.2,0.3-0.5,0.6-0.8,0.8
						c-0.3,0.2-0.7,0.3-1.2,0.3c-0.3,0-0.6-0.1-0.9-0.2c-0.3-0.1-0.5-0.3-0.7-0.5s-0.3-0.5-0.4-0.9c-0.1-0.4-0.2-0.8-0.2-1.4v-5.1
						h1.3v5.1c0,0.4,0,0.7,0.1,0.9c0.1,0.2,0.1,0.4,0.3,0.5c0.1,0.1,0.2,0.2,0.4,0.3s0.3,0.1,0.4,0.1c0.5,0,0.8-0.1,1.1-0.3
						c0.3-0.2,0.5-0.5,0.6-0.9C54.1-71.6,54.2-72,54.2-72.5z M54-70.8v-6.1h1.3v7.9H54V-70.8z"/>
					<path class="st6" d="M61.1-71c0-0.2,0-0.4-0.1-0.5c-0.1-0.2-0.3-0.3-0.5-0.4s-0.5-0.3-0.9-0.5s-0.7-0.3-1-0.5
						c-0.3-0.1-0.5-0.3-0.7-0.5s-0.4-0.4-0.5-0.6s-0.2-0.5-0.2-0.8s0.1-0.6,0.2-0.9c0.1-0.3,0.3-0.5,0.5-0.7s0.5-0.4,0.8-0.5
						s0.7-0.2,1-0.2c0.5,0,1,0.1,1.4,0.3s0.7,0.5,0.9,0.9s0.3,0.8,0.3,1.2H61c0-0.2,0-0.4-0.1-0.6s-0.2-0.4-0.4-0.5
						C60.2-75.9,60-76,59.7-76s-0.5,0.1-0.7,0.2s-0.3,0.2-0.4,0.4c-0.1,0.2-0.1,0.3-0.1,0.5c0,0.1,0,0.3,0.1,0.4
						c0,0.1,0.1,0.2,0.2,0.3c0.1,0.1,0.2,0.2,0.4,0.3c0.2,0.1,0.4,0.2,0.7,0.3c0.5,0.2,1,0.4,1.4,0.6s0.6,0.5,0.8,0.8
						s0.3,0.6,0.3,1.1c0,0.3-0.1,0.7-0.2,0.9c-0.1,0.3-0.3,0.5-0.5,0.7s-0.5,0.4-0.8,0.5s-0.7,0.2-1.1,0.2c-0.6,0-1.1-0.1-1.5-0.4
						c-0.4-0.2-0.7-0.5-0.9-0.9s-0.3-0.8-0.3-1.2h1.3c0,0.4,0.1,0.7,0.3,0.9c0.2,0.2,0.3,0.3,0.6,0.4s0.4,0.1,0.7,0.1s0.5,0,0.7-0.1
						s0.3-0.2,0.4-0.4C61-70.6,61.1-70.8,61.1-71z"/>
					<path class="st6" d="M65.4-80.2V-69h-1.3v-11.2H65.4z"/>
					<path class="st6" d="M68.2-76.9l1.6,6.2l0.3,1.4l-0.9,0.5l-2.4-8.1H68.2z M69.3-69.8l1.8-7.1h1.4l-2.6,9.1
						c-0.1,0.2-0.1,0.4-0.3,0.6c-0.1,0.2-0.2,0.4-0.4,0.6c-0.2,0.2-0.4,0.4-0.6,0.5s-0.5,0.2-0.8,0.2c-0.1,0-0.2,0-0.4,0
						c-0.1,0-0.2-0.1-0.3-0.1v-1h0.1c0.1,0,0.1,0,0.1,0c0.3,0,0.5,0,0.6-0.1c0.2-0.1,0.3-0.2,0.5-0.4c0.1-0.2,0.2-0.4,0.3-0.8
						L69.3-69.8z"/>
					<path class="st6" d="M81-71c0-0.2,0-0.4-0.1-0.5c-0.1-0.2-0.3-0.3-0.5-0.4s-0.5-0.3-0.9-0.5s-0.7-0.3-1-0.5
						c-0.3-0.1-0.5-0.3-0.7-0.5s-0.4-0.4-0.5-0.6s-0.2-0.5-0.2-0.8s0.1-0.6,0.2-0.9s0.3-0.5,0.5-0.7s0.5-0.4,0.8-0.5s0.7-0.2,1-0.2
						c0.5,0,1,0.1,1.4,0.3s0.7,0.5,0.9,0.9c0.2,0.4,0.3,0.8,0.3,1.2H81c0-0.2,0-0.4-0.1-0.6s-0.2-0.4-0.4-0.5
						C80.2-75.9,80-76,79.7-76s-0.5,0.1-0.7,0.2s-0.3,0.2-0.4,0.4c-0.1,0.2-0.1,0.3-0.1,0.5c0,0.1,0,0.3,0.1,0.4
						c0,0.1,0.1,0.2,0.2,0.3c0.1,0.1,0.2,0.2,0.4,0.3c0.2,0.1,0.4,0.2,0.7,0.3c0.5,0.2,1,0.4,1.4,0.6s0.6,0.5,0.8,0.8
						c0.2,0.3,0.3,0.6,0.3,1.1c0,0.3-0.1,0.7-0.2,0.9c-0.1,0.3-0.3,0.5-0.5,0.7s-0.5,0.4-0.8,0.5s-0.7,0.2-1.1,0.2
						c-0.6,0-1.1-0.1-1.5-0.4c-0.4-0.2-0.7-0.5-0.9-0.9c-0.2-0.4-0.3-0.8-0.3-1.2h1.3c0,0.4,0.1,0.7,0.3,0.9
						c0.2,0.2,0.3,0.3,0.6,0.4s0.4,0.1,0.7,0.1c0.3,0,0.5,0,0.7-0.1s0.3-0.2,0.4-0.4C81-70.6,81-70.8,81-71z"/>
					<path class="st6" d="M85.4-80.2V-69h-1.3v-11.2H85.4z"/>
					<path class="st6" d="M87.2-72.6v-0.8c0-0.6,0.1-1.2,0.2-1.6c0.2-0.5,0.4-0.9,0.7-1.2c0.3-0.3,0.6-0.5,1-0.7s0.8-0.2,1.2-0.2
						c0.4,0,0.8,0.1,1.2,0.2c0.4,0.2,0.7,0.4,1,0.7c0.3,0.3,0.5,0.7,0.7,1.2s0.2,1,0.2,1.6v0.8c0,0.6-0.1,1.2-0.2,1.6
						c-0.2,0.5-0.4,0.9-0.7,1.2s-0.6,0.5-1,0.7s-0.8,0.2-1.2,0.2s-0.8-0.1-1.2-0.2s-0.7-0.4-1-0.7c-0.3-0.3-0.5-0.7-0.7-1.2
						C87.3-71.4,87.2-72,87.2-72.6z M88.5-73.3v0.8c0,0.4,0,0.8,0.1,1.1c0.1,0.3,0.2,0.6,0.4,0.8c0.2,0.2,0.3,0.4,0.6,0.5
						C89.8-70,90-70,90.3-70s0.6-0.1,0.8-0.2c0.2-0.1,0.4-0.3,0.6-0.5c0.1-0.2,0.3-0.5,0.3-0.8c0.1-0.3,0.1-0.7,0.1-1.1v-0.8
						c0-0.4,0-0.8-0.1-1.1c-0.1-0.3-0.2-0.6-0.4-0.8c-0.2-0.2-0.4-0.4-0.6-0.5S90.5-76,90.3-76s-0.5,0.1-0.7,0.2s-0.4,0.3-0.6,0.5
						s-0.3,0.5-0.4,0.8C88.5-74.2,88.5-73.8,88.5-73.3z"/>
					<path class="st6" d="M95.7-76.9l1.5,6.6v1.3h-0.9l-1.9-7.9H95.7z M96.6-70.4l1.8-6.5h0.8l-0.1,1.3L97.4-69h-0.8V-70.4z
						 M99.4-76.9l1.7,6.4l0.1,1.5h-0.8l-1.8-6.6l-0.1-1.3H99.4z M100.7-70.4l1.4-6.5h1.3l-1.9,7.9h-0.8V-70.4z"/>
					<path class="st6" d="M107.6-68.9c-0.5,0-0.9-0.1-1.3-0.2s-0.7-0.4-1-0.6c-0.3-0.3-0.5-0.7-0.6-1.1s-0.2-1-0.2-1.6v-0.9
						c0-0.7,0.1-1.3,0.2-1.8c0.2-0.5,0.4-0.9,0.7-1.2c0.3-0.3,0.6-0.5,0.9-0.6c0.4-0.1,0.7-0.2,1.1-0.2c0.5,0,0.9,0.1,1.3,0.2
						c0.4,0.2,0.6,0.4,0.9,0.7s0.4,0.7,0.5,1.2s0.2,1,0.2,1.6v0.8h-5v-1.1h3.7v-0.2c0-0.4-0.1-0.8-0.2-1.1c-0.1-0.3-0.2-0.6-0.4-0.7
						c-0.2-0.2-0.5-0.3-0.9-0.3c-0.2,0-0.5,0-0.7,0.1s-0.4,0.2-0.5,0.4c-0.1,0.2-0.3,0.5-0.3,0.8c-0.1,0.3-0.1,0.8-0.1,1.3v0.9
						c0,0.4,0,0.8,0.1,1.1c0.1,0.3,0.2,0.6,0.4,0.8c0.2,0.2,0.4,0.3,0.6,0.4s0.5,0.1,0.8,0.1c0.4,0,0.8-0.1,1.1-0.3
						c0.3-0.2,0.5-0.4,0.7-0.6l0.7,0.8c-0.1,0.2-0.3,0.4-0.6,0.6c-0.2,0.2-0.5,0.3-0.8,0.4C108.4-68.9,108-68.9,107.6-68.9z"/>
					<path class="st6" d="M111.5-72.6v-0.7c0-0.7,0.1-1.2,0.2-1.7s0.3-0.9,0.5-1.2c0.2-0.3,0.5-0.5,0.8-0.7s0.7-0.2,1.1-0.2
						s0.8,0.1,1.1,0.2c0.3,0.2,0.5,0.4,0.7,0.7c0.2,0.3,0.4,0.7,0.5,1.1s0.2,1,0.2,1.5v1c0,0.6-0.1,1.1-0.2,1.5s-0.3,0.8-0.5,1.1
						s-0.4,0.6-0.7,0.7s-0.7,0.2-1.1,0.2s-0.7-0.1-1.1-0.2c-0.3-0.2-0.6-0.4-0.8-0.7c-0.2-0.3-0.4-0.7-0.5-1.2
						C111.6-71.4,111.5-72,111.5-72.6z M112.8-73.3v0.7c0,0.4,0,0.8,0.1,1.1c0.1,0.3,0.2,0.6,0.3,0.8c0.1,0.2,0.3,0.4,0.5,0.5
						s0.5,0.2,0.8,0.2c0.4,0,0.7-0.1,0.9-0.3s0.4-0.4,0.6-0.7c0.1-0.3,0.2-0.6,0.3-0.9V-74c0-0.2-0.1-0.5-0.2-0.7s-0.2-0.4-0.3-0.6
						c-0.1-0.2-0.3-0.3-0.5-0.4s-0.4-0.2-0.7-0.2c-0.3,0-0.6,0.1-0.8,0.2c-0.2,0.1-0.4,0.3-0.5,0.5s-0.2,0.5-0.3,0.8
						C112.8-74.1,112.8-73.8,112.8-73.3z M115.9-70.5v-9.7h1.3V-69H116L115.9-70.5z"/>
				</g>
			</g>
		</g>
	</g>
</g>
<g id="g-root-tx_speechra_1qd7kjt1ap5f63-stroke" transform="translate(460.42498779296875, 218)">
</g>
<g id="g-root-tx_delibera_zqx0w91ap5f65-fill" transform="translate(655.0750122070312, 218)">
	<g id="tx_delibera_zqx0w91ap5f65-fill-merged">
		<g>
			<g>
				<g class="st5">
					<path class="st6" d="M-7.5-97.7V-87h-1.3v-10.7H-7.5z M-6.4-87h-1.8v-1.2h1.8c0.6,0,1.2-0.1,1.6-0.4c0.4-0.2,0.7-0.6,0.9-1.1
						c0.2-0.5,0.3-1.1,0.3-1.8v-1.8c0-0.6-0.1-1.1-0.2-1.5s-0.3-0.7-0.5-1s-0.5-0.5-0.8-0.6s-0.7-0.2-1.1-0.2h-2v-1.2h2
						c0.6,0,1.1,0.1,1.6,0.3c0.5,0.2,0.9,0.5,1.2,0.8c0.3,0.4,0.6,0.8,0.8,1.4s0.3,1.2,0.3,1.9v1.8c0,0.7-0.1,1.4-0.3,1.9
						c-0.2,0.6-0.5,1-0.8,1.4c-0.4,0.4-0.8,0.7-1.3,0.8C-5.2-87.1-5.8-87-6.4-87z"/>
					<path class="st6" d="M2.4-86.9c-0.5,0-0.9-0.1-1.3-0.2s-0.7-0.4-1-0.6c-0.3-0.3-0.5-0.7-0.6-1.1s-0.2-1-0.2-1.6v-0.9
						c0-0.7,0.1-1.3,0.2-1.8c0.2-0.5,0.4-0.9,0.7-1.2c0.3-0.3,0.6-0.5,0.9-0.6c0.4-0.1,0.7-0.2,1.1-0.2c0.5,0,0.9,0.1,1.3,0.2
						c0.4,0.2,0.6,0.4,0.9,0.7s0.4,0.7,0.5,1.2s0.2,1,0.2,1.6v0.8h-5v-1.1h3.7v-0.2c0-0.4-0.1-0.8-0.2-1.1c-0.1-0.3-0.2-0.6-0.4-0.7
						c-0.3-0.2-0.6-0.3-1-0.3c-0.2,0-0.5,0-0.7,0.1S1.1-93.7,1-93.5c-0.1,0.2-0.3,0.5-0.3,0.8c-0.1,0.3-0.1,0.8-0.1,1.3v0.9
						c0,0.4,0,0.8,0.1,1.1c0.1,0.3,0.2,0.6,0.4,0.8c0.2,0.2,0.4,0.3,0.6,0.4C1.9-88,2.1-88,2.4-88c0.4,0,0.8-0.1,1.1-0.3
						c0.3-0.2,0.5-0.4,0.7-0.6l0.7,0.8c-0.1,0.2-0.3,0.4-0.6,0.6c-0.2,0.2-0.5,0.3-0.8,0.4C3.2-86.9,2.8-86.9,2.4-86.9z"/>
					<path class="st6" d="M8-98.2V-87H6.7v-11.2H8z"/>
					<path class="st6" d="M10-97c0-0.2,0.1-0.4,0.2-0.6c0.1-0.2,0.3-0.2,0.5-0.2c0.2,0,0.4,0.1,0.6,0.2c0.1,0.2,0.2,0.3,0.2,0.6
						c0,0.2-0.1,0.4-0.2,0.5c-0.1,0.1-0.3,0.2-0.6,0.2c-0.3,0-0.4-0.1-0.5-0.2C10.1-96.6,10-96.8,10-97z M11.4-94.9v7.9h-1.3v-7.9
						H11.4z"/>
					<path class="st6" d="M13.4-98.2h1.3v9.7L14.6-87h-1.2V-98.2z M19.2-91.3v0.7c0,0.6-0.1,1.2-0.2,1.6c-0.1,0.5-0.3,0.9-0.5,1.2
						c-0.2,0.3-0.5,0.5-0.8,0.7c-0.3,0.2-0.7,0.2-1.1,0.2s-0.8-0.1-1.1-0.2s-0.5-0.4-0.7-0.7s-0.4-0.7-0.5-1.2
						c-0.1-0.4-0.2-0.9-0.2-1.5v-1c0-0.6,0.1-1.1,0.2-1.5c0.1-0.4,0.3-0.8,0.5-1.1c0.2-0.3,0.4-0.6,0.7-0.7c0.3-0.1,0.7-0.2,1.1-0.2
						s0.8,0.1,1.1,0.2c0.3,0.1,0.6,0.4,0.8,0.7c0.2,0.3,0.4,0.7,0.5,1.2C19.1-92.5,19.2-92,19.2-91.3z M17.9-90.6v-0.7
						c0-0.4,0-0.8-0.1-1.1c-0.1-0.3-0.1-0.6-0.3-0.8c-0.2-0.2-0.3-0.5-0.5-0.6c-0.2-0.1-0.5-0.2-0.8-0.2c-0.3,0-0.5,0.1-0.7,0.2
						s-0.4,0.3-0.5,0.4c-0.1,0.2-0.3,0.4-0.4,0.6c-0.1,0.2-0.2,0.5-0.2,0.7v2.1c0.1,0.3,0.2,0.6,0.3,0.9c0.1,0.3,0.3,0.5,0.6,0.7
						c0.3,0.2,0.6,0.4,0.9,0.4c0.3,0,0.5-0.1,0.8-0.2c0.2-0.1,0.4-0.3,0.5-0.5s0.2-0.5,0.3-0.8C17.9-89.8,17.9-90.1,17.9-90.6z"/>
					<path class="st6" d="M23.7-86.9c-0.5,0-0.9-0.1-1.3-0.2c-0.4-0.1-0.7-0.4-1-0.6c-0.3-0.3-0.5-0.7-0.6-1.1s-0.2-1-0.2-1.6v-0.9
						c0-0.7,0.1-1.3,0.2-1.8c0.2-0.5,0.4-0.9,0.7-1.2c0.3-0.3,0.6-0.5,0.9-0.6c0.4-0.1,0.7-0.2,1.1-0.2c0.5,0,0.9,0.1,1.3,0.2
						c0.4,0.2,0.6,0.4,0.9,0.7s0.4,0.7,0.5,1.2s0.2,1,0.2,1.6v0.8h-5v-1.1H25v-0.2c0-0.4-0.1-0.8-0.2-1.1c-0.1-0.3-0.2-0.6-0.4-0.7
						c-0.2-0.2-0.5-0.3-0.9-0.3c-0.2,0-0.5,0-0.7,0.1c-0.2,0.1-0.4,0.2-0.5,0.4C22.2-93.3,22-93,22-92.7c-0.1,0.3-0.1,0.8-0.1,1.3
						v0.9c0,0.4,0,0.8,0.1,1.1c0.1,0.3,0.2,0.6,0.4,0.8c0.2,0.2,0.4,0.3,0.6,0.4s0.5,0.1,0.8,0.1c0.4,0,0.8-0.1,1.1-0.3
						c0.3-0.2,0.5-0.4,0.7-0.6l0.7,0.8c-0.1,0.2-0.3,0.4-0.6,0.6c-0.2,0.2-0.5,0.3-0.8,0.4C24.5-86.9,24.1-86.9,23.7-86.9z"/>
					<path class="st6" d="M29.2-93.7v6.7h-1.3v-7.9h1.3V-93.7z M31.1-95v1.3c-0.1,0-0.2,0-0.3,0c-0.1,0-0.2,0-0.3,0
						c-0.2,0-0.5,0-0.6,0.1c-0.2,0.1-0.3,0.2-0.5,0.4s-0.2,0.4-0.3,0.6c-0.1,0.2-0.1,0.5-0.2,0.8l-0.3,0.2c0-0.5,0-0.9,0.1-1.3
						s0.2-0.8,0.4-1.1c0.2-0.3,0.4-0.6,0.6-0.8c0.3-0.2,0.6-0.3,0.9-0.3c0.1,0,0.2,0,0.3,0C31-95,31.1-95,31.1-95z"/>
					<path class="st6" d="M36.5-91.8v1h-0.9c-0.3,0-0.6,0-0.8,0.1c-0.3,0.1-0.5,0.2-0.6,0.3c-0.2,0.1-0.3,0.3-0.4,0.5
						c-0.1,0.2-0.1,0.4-0.1,0.7c0,0.3,0,0.6,0.1,0.8c0.1,0.2,0.2,0.3,0.4,0.4c0.2,0.1,0.4,0.1,0.7,0.1s0.6-0.1,0.9-0.2
						s0.4-0.3,0.6-0.5c0.1-0.2,0.2-0.4,0.2-0.6l0.3,0.6c0,0.2-0.1,0.4-0.2,0.6c-0.1,0.2-0.2,0.4-0.4,0.6c-0.2,0.2-0.4,0.4-0.7,0.5
						s-0.5,0.2-0.8,0.2c-0.5,0-0.9-0.1-1.2-0.3c-0.3-0.2-0.6-0.4-0.8-0.8c-0.2-0.4-0.3-0.8-0.3-1.3c0-0.4,0.1-0.7,0.2-1.1
						c0.1-0.4,0.3-0.6,0.6-0.8c0.3-0.2,0.6-0.4,1-0.6c0.4-0.1,0.8-0.2,1.4-0.2C35.7-91.8,36.5-91.8,36.5-91.8z M36.3-88.4v-4.3
						c0-0.3,0-0.6-0.1-0.8c-0.1-0.2-0.2-0.3-0.4-0.4C35.6-94,35.4-94,35.1-94s-0.5,0.1-0.7,0.2s-0.3,0.3-0.5,0.4
						c-0.1,0.2-0.2,0.4-0.2,0.6h-1.3c0-0.3,0.1-0.6,0.2-0.8c0.1-0.3,0.3-0.5,0.5-0.8c0.2-0.2,0.5-0.4,0.8-0.5s0.7-0.2,1.1-0.2
						c0.5,0,0.9,0.1,1.3,0.2c0.4,0.2,0.7,0.4,0.9,0.8c0.2,0.4,0.3,0.8,0.3,1.4v3.9c0,0.3,0,0.5,0.1,0.8c0,0.3,0.1,0.6,0.2,0.8v0.1
						h-1.3c-0.1-0.2-0.1-0.4-0.1-0.6C36.3-87.9,36.3-88.1,36.3-88.4z"/>
					<path class="st6" d="M42.5-94.9v1h-3.7v-1H42.5z M40-96.9h1.3v7.9c0,0.3,0,0.5,0.1,0.6s0.1,0.2,0.3,0.3S41.9-88,42-88
						s0.2,0,0.3,0s0.2,0,0.2-0.1v1.1c-0.1,0-0.2,0.1-0.4,0.1c-0.1,0-0.3,0-0.6,0S41-87,40.7-87.1c-0.2-0.1-0.4-0.4-0.6-0.7
						c0-0.2-0.1-0.6-0.1-1.2V-96.9z"/>
					<path class="st6" d="M46.9-86.9c-0.5,0-0.9-0.1-1.3-0.2c-0.4-0.1-0.7-0.4-1-0.6c-0.3-0.3-0.5-0.7-0.6-1.1s-0.2-1-0.2-1.6v-0.9
						c0-0.7,0.1-1.3,0.2-1.8c0.2-0.5,0.4-0.9,0.7-1.2c0.3-0.3,0.6-0.5,0.9-0.6c0.4-0.1,0.7-0.2,1.1-0.2c0.5,0,0.9,0.1,1.3,0.2
						c0.4,0.2,0.6,0.4,0.9,0.7s0.4,0.7,0.5,1.2s0.2,1,0.2,1.6v0.8h-5v-1.1h3.7v-0.2c0-0.4-0.1-0.8-0.2-1.1c-0.1-0.3-0.2-0.6-0.4-0.7
						c-0.2-0.2-0.5-0.3-0.9-0.3c-0.2,0-0.5,0-0.7,0.1s-0.4,0.2-0.5,0.4c-0.1,0.2-0.3,0.5-0.3,0.8c-0.1,0.3-0.1,0.8-0.1,1.3v0.9
						c0,0.4,0,0.8,0.1,1.1c0.1,0.3,0.2,0.6,0.4,0.8c0.2,0.2,0.4,0.3,0.6,0.4C46.4-88,46.7-88,47-88c0.4,0,0.8-0.1,1.1-0.3
						c0.3-0.2,0.5-0.4,0.7-0.6l0.7,0.8c-0.1,0.2-0.3,0.4-0.6,0.6c-0.2,0.2-0.5,0.3-0.8,0.4C47.8-86.9,47.4-86.9,46.9-86.9z"/>
					<path class="st6" d="M52.4-88.6v1.1c0,0.4-0.1,0.9-0.3,1.4s-0.5,0.9-0.9,1.2l-0.8-0.5c0.2-0.2,0.3-0.4,0.4-0.7
						c0.1-0.2,0.2-0.5,0.2-0.7c0.1-0.2,0.1-0.5,0.1-0.8v-1.1L52.4-88.6L52.4-88.6z"/>
					<path class="st6" d="M61.3-89c0-0.2,0-0.4-0.1-0.5c-0.1-0.2-0.3-0.3-0.5-0.4s-0.5-0.3-0.9-0.5s-0.7-0.3-1-0.5
						c-0.3-0.1-0.5-0.3-0.7-0.5s-0.4-0.4-0.5-0.6s-0.2-0.5-0.2-0.8s0.1-0.6,0.2-0.9c0.1-0.3,0.3-0.5,0.5-0.7s0.5-0.4,0.8-0.5
						s0.7-0.2,1-0.2c0.5,0,1,0.1,1.4,0.3s0.7,0.5,0.9,0.9s0.3,0.8,0.3,1.2h-1.3c0-0.2,0-0.4-0.1-0.6s-0.2-0.4-0.4-0.5
						C60.5-93.9,60.3-94,60-94s-0.5,0.1-0.7,0.2s-0.3,0.2-0.4,0.4c-0.1,0.2-0.1,0.3-0.1,0.5c0,0.1,0,0.3,0.1,0.4
						c0,0.1,0.1,0.2,0.2,0.3c0.1,0.1,0.2,0.2,0.4,0.3c0.2,0.1,0.4,0.2,0.7,0.3c0.5,0.2,1,0.4,1.4,0.6s0.6,0.5,0.8,0.8
						s0.3,0.6,0.3,1.1c0,0.3-0.1,0.7-0.2,0.9c-0.1,0.3-0.3,0.5-0.5,0.7s-0.5,0.4-0.8,0.5s-0.7,0.2-1.1,0.2c-0.6,0-1.1-0.1-1.5-0.4
						c-0.4-0.2-0.7-0.5-0.9-0.9s-0.3-0.8-0.3-1.2h1.3c0,0.4,0.1,0.7,0.3,0.9c0.2,0.2,0.3,0.3,0.6,0.4s0.2,0,0.4,0
						c0.3,0,0.5,0,0.7-0.1s0.3-0.2,0.4-0.4C61.3-88.6,61.3-88.8,61.3-89z"/>
					<path class="st6" d="M65.6-93.3v6.3h-1.3v-7.9h1.2L65.6-93.3z M65.4-91.3h-0.6c0-0.5,0-1,0.2-1.5c0.1-0.5,0.3-0.9,0.5-1.2
						c0.2-0.3,0.5-0.6,0.9-0.8c0.3-0.2,0.7-0.3,1.2-0.3c0.3,0,0.6,0.1,0.8,0.2c0.3,0.1,0.5,0.3,0.7,0.5c0.2,0.2,0.3,0.5,0.5,0.9
						c0.1,0.4,0.2,0.8,0.2,1.3v5.3h-1.3v-5.2c0-0.4-0.1-0.7-0.2-1c-0.1-0.2-0.3-0.4-0.5-0.5c-0.2-0.1-0.4-0.2-0.7-0.2
						c-0.3,0-0.6,0.1-0.8,0.2c-0.2,0.1-0.4,0.3-0.5,0.6c-0.1,0.2-0.2,0.5-0.3,0.9C65.4-92,65.4-91.6,65.4-91.3z M69.6-92l-0.9,0.3
						c0-0.4,0-0.9,0.2-1.3c0.1-0.4,0.3-0.8,0.5-1.1c0.2-0.3,0.5-0.6,0.8-0.7c0.3-0.2,0.7-0.3,1.2-0.3c0.4,0,0.7,0.1,1,0.2
						c0.3,0.1,0.5,0.3,0.7,0.5s0.3,0.5,0.4,0.9s0.1,0.8,0.1,1.3v5.2h-1.3v-5.2c0-0.4-0.1-0.8-0.2-1c-0.1-0.2-0.3-0.4-0.5-0.5
						c-0.2-0.1-0.4-0.2-0.7-0.2c-0.2,0-0.4,0.1-0.6,0.2c-0.2,0.1-0.3,0.2-0.4,0.4c-0.1,0.2-0.2,0.4-0.3,0.6
						C69.7-92.5,69.6-92.3,69.6-92z"/>
					<path class="st6" d="M75.4-90.6v-0.8c0-0.6,0.1-1.2,0.2-1.6c0.2-0.5,0.4-0.9,0.7-1.2c0.3-0.3,0.6-0.5,1-0.7s0.8-0.2,1.2-0.2
						c0.4,0,0.8,0.1,1.2,0.2c0.4,0.2,0.7,0.4,1,0.7c0.3,0.3,0.5,0.7,0.7,1.2s0.2,1,0.2,1.6v0.8c0,0.6-0.1,1.2-0.2,1.6
						c-0.2,0.5-0.4,0.9-0.7,1.2s-0.6,0.5-1,0.7s-0.8,0.2-1.2,0.2s-0.8-0.1-1.2-0.2s-0.7-0.4-1-0.7c-0.3-0.3-0.5-0.7-0.7-1.2
						C75.4-89.4,75.4-90,75.4-90.6z M76.7-91.3v0.8c0,0.4,0,0.8,0.1,1.1c0.1,0.3,0.2,0.6,0.4,0.8c0.2,0.2,0.3,0.4,0.6,0.5
						c0.2,0.1,0.4,0.2,0.7,0.2c0.3,0,0.5-0.1,0.8-0.2c0.2-0.1,0.4-0.3,0.6-0.5c0.1-0.2,0.3-0.5,0.3-0.8c0.1-0.3,0.1-0.7,0.1-1.1
						v-0.8c0-0.4,0-0.8-0.1-1.1c-0.1-0.3-0.2-0.6-0.4-0.8c-0.2-0.2-0.4-0.4-0.6-0.5s-0.5-0.2-0.7-0.2s-0.5,0.1-0.7,0.2
						s-0.4,0.3-0.6,0.5s-0.3,0.5-0.4,0.8C76.7-92.2,76.7-91.8,76.7-91.3z"/>
					<path class="st6" d="M82.9-90.6v-0.8c0-0.6,0.1-1.2,0.2-1.6c0.2-0.5,0.4-0.9,0.7-1.2c0.3-0.3,0.6-0.5,1-0.7s0.8-0.2,1.2-0.2
						c0.4,0,0.8,0.1,1.2,0.2c0.4,0.2,0.7,0.4,1,0.7c0.3,0.3,0.5,0.7,0.7,1.2s0.2,1,0.2,1.6v0.8c0,0.6-0.1,1.2-0.2,1.6
						c-0.2,0.5-0.4,0.9-0.7,1.2s-0.6,0.5-1,0.7s-0.8,0.2-1.2,0.2s-0.8-0.1-1.2-0.2s-0.7-0.4-1-0.7c-0.3-0.3-0.5-0.7-0.7-1.2
						C83-89.4,82.9-90,82.9-90.6z M84.2-91.3v0.8c0,0.4,0,0.8,0.1,1.1c0.1,0.3,0.2,0.6,0.4,0.8c0.2,0.2,0.3,0.4,0.6,0.5
						C85.5-88,85.7-88,86-88s0.5-0.1,0.8-0.2c0.2-0.1,0.4-0.3,0.6-0.5c0.1-0.2,0.3-0.5,0.3-0.8c0.1-0.3,0.1-0.7,0.1-1.1v-0.8
						c0-0.4,0-0.8-0.1-1.1c-0.1-0.3-0.2-0.6-0.4-0.8c-0.2-0.2-0.4-0.4-0.6-0.5S86.2-94,86-94s-0.5,0.1-0.7,0.2s-0.4,0.3-0.6,0.5
						s-0.3,0.5-0.4,0.8C84.2-92.2,84.2-91.8,84.2-91.3z"/>
					<path class="st6" d="M93.6-94.9v1h-3.7v-1H93.6z M91.1-96.9h1.3v7.9c0,0.3,0,0.5,0.1,0.6s0.2,0.2,0.3,0.3S93-88,93.1-88
						s0.2,0,0.3,0c0.1,0,0.2,0,0.2-0.1v1.1c-0.1,0-0.2,0.1-0.4,0.1c-0.1,0-0.3,0-0.6,0c-0.3,0-0.5-0.1-0.8-0.2
						c-0.2-0.1-0.4-0.4-0.6-0.7c-0.1-0.3-0.2-0.7-0.2-1.3L91.1-96.9L91.1-96.9z"/>
					<path class="st6" d="M96.4-98.2V-87h-1.3v-11.2H96.4z M96.1-91.3h-0.5c0-0.5,0.1-1,0.2-1.5s0.3-0.9,0.6-1.2
						c0.2-0.3,0.5-0.6,0.9-0.8c0.3-0.2,0.7-0.3,1.1-0.3c0.3,0,0.6,0.1,0.9,0.2s0.5,0.3,0.7,0.5s0.3,0.5,0.4,0.9s0.2,0.8,0.2,1.3v5.2
						h-1.3v-5.2c0-0.4,0-0.7-0.1-1s-0.2-0.4-0.4-0.5c-0.2-0.1-0.4-0.2-0.7-0.2c-0.3,0-0.5,0.1-0.7,0.2s-0.4,0.3-0.6,0.6
						c-0.2,0.2-0.3,0.5-0.4,0.9C96.2-92,96.1-91.6,96.1-91.3z"/>
					<path class="st6" d="M105.2-86.9c-0.5,0-0.9-0.1-1.3-0.2s-0.7-0.4-1-0.6c-0.3-0.3-0.5-0.7-0.6-1.1s-0.2-1-0.2-1.6v-0.9
						c0-0.7,0.1-1.3,0.2-1.8c0.2-0.5,0.4-0.9,0.7-1.2c0.3-0.3,0.6-0.5,0.9-0.6c0.4-0.1,0.7-0.2,1.1-0.2c0.5,0,0.9,0.1,1.3,0.2
						c0.4,0.2,0.6,0.4,0.9,0.7s0.4,0.7,0.5,1.2s0.2,1,0.2,1.6v0.8h-5v-1.1h3.7v-0.2c0-0.4-0.1-0.8-0.2-1.1c-0.1-0.3-0.2-0.6-0.4-0.7
						c-0.2-0.2-0.5-0.3-0.9-0.3c-0.2,0-0.5,0-0.7,0.1s-0.4,0.2-0.5,0.4c-0.1,0.2-0.3,0.5-0.3,0.8c-0.1,0.3-0.1,0.8-0.1,1.3v0.9
						c0,0.4,0,0.8,0.1,1.1c0.1,0.3,0.2,0.6,0.4,0.8c0.2,0.2,0.4,0.3,0.6,0.4c0.1,0.2,0.4,0.2,0.7,0.2c0.4,0,0.8-0.1,1.1-0.3
						c0.3-0.2,0.5-0.4,0.7-0.6l0.7,0.8c-0.1,0.2-0.3,0.4-0.6,0.6c-0.2,0.2-0.5,0.3-0.8,0.4C106.1-86.9,105.7-86.9,105.2-86.9z"/>
					<path class="st6" d="M110.7-93.7v6.7h-1.3v-7.9h1.3V-93.7z M112.7-95v1.3c-0.1,0-0.2,0-0.3,0c-0.1,0-0.2,0-0.3,0
						c-0.2,0-0.5,0-0.6,0.1c-0.2,0.1-0.3,0.2-0.5,0.4s-0.2,0.4-0.3,0.6c-0.1,0.2-0.1,0.5-0.2,0.8l-0.3,0.2c0-0.5,0-0.9,0.1-1.3
						s0.2-0.8,0.4-1.1c0.2-0.3,0.4-0.6,0.6-0.8c0.3-0.2,0.6-0.3,0.9-0.3c0.1,0,0.2,0,0.3,0C112.6-95,112.6-95,112.7-95z"/>
				</g>
			</g>
			<g>
				<g class="st5">
					<path class="st6" d="M39.8-71c0-0.2,0-0.4-0.1-0.5c-0.1-0.2-0.3-0.3-0.5-0.4s-0.5-0.3-0.9-0.5c-0.4-0.2-0.7-0.3-1-0.5
						c-0.3-0.1-0.5-0.3-0.7-0.5s-0.4-0.4-0.5-0.6c-0.1-0.2-0.2-0.5-0.2-0.8s0.1-0.6,0.2-0.9c0.1-0.3,0.3-0.5,0.5-0.7
						s0.5-0.4,0.8-0.5s0.7-0.2,1-0.2c0.5,0,1,0.1,1.4,0.3c0.4,0.2,0.7,0.5,0.9,0.9c0.2,0.4,0.3,0.8,0.3,1.2h-1.3
						c0-0.2,0-0.4-0.1-0.6c-0.1-0.2-0.2-0.4-0.4-0.5C39-75.9,38.8-76,38.5-76s-0.5,0.1-0.7,0.2s-0.3,0.2-0.4,0.4
						c-0.1,0.2-0.1,0.3-0.1,0.5c0,0.1,0,0.3,0.1,0.4c0,0.1,0.1,0.2,0.2,0.3c0.1,0.1,0.2,0.2,0.4,0.3c0.2,0.1,0.4,0.2,0.7,0.3
						c0.5,0.2,1,0.4,1.4,0.6c0.4,0.2,0.6,0.5,0.8,0.8c0.2,0.3,0.3,0.6,0.3,1.1c0,0.3-0.1,0.7-0.2,0.9c-0.1,0.3-0.3,0.5-0.5,0.7
						S40-69.1,39.7-69s-0.7,0.2-1.1,0.2c-0.6,0-1.1-0.1-1.5-0.4c-0.4-0.2-0.7-0.5-0.9-0.9s-0.3-0.8-0.3-1.2H37
						c0,0.4,0.1,0.7,0.3,0.9c0.2,0.2,0.3,0.3,0.6,0.4c0.3,0.1,0.4,0.1,0.7,0.1c0.3,0,0.5,0,0.7-0.1s0.3-0.2,0.4-0.4
						C39.7-70.6,39.8-70.8,39.8-71z"/>
					<path class="st6" d="M44.1-75.4v9.4h-1.3v-11H44L44.1-75.4z M48.5-73.3v0.7c0,0.6-0.1,1.2-0.2,1.6c-0.1,0.5-0.3,0.9-0.5,1.2
						c-0.2,0.3-0.5,0.5-0.8,0.7s-0.7,0.2-1.1,0.2s-0.8-0.1-1.1-0.2c-0.3-0.2-0.6-0.4-0.8-0.7c-0.2-0.3-0.4-0.7-0.5-1.1
						s-0.2-0.9-0.2-1.4v-1.1c0-0.6,0.1-1.1,0.2-1.5c0.1-0.4,0.3-0.8,0.5-1.1c0.2-0.3,0.5-0.6,0.8-0.7c0.3-0.2,0.7-0.2,1.1-0.2
						c0.4,0,0.8,0.1,1.1,0.2s0.6,0.4,0.8,0.7c0.2,0.3,0.4,0.7,0.5,1.2C48.5-74.5,48.5-74,48.5-73.3z M47.2-72.6v-0.7
						c0-0.4,0-0.8-0.1-1.1c-0.1-0.3-0.2-0.6-0.3-0.8s-0.3-0.4-0.5-0.5s-0.5-0.2-0.8-0.2s-0.5,0.1-0.7,0.2s-0.4,0.3-0.5,0.4
						c-0.1,0.2-0.3,0.4-0.4,0.6c-0.1,0.2-0.2,0.5-0.2,0.7v2.2c0.1,0.3,0.2,0.6,0.3,0.9s0.3,0.5,0.6,0.7c0.2,0.2,0.5,0.3,0.9,0.3
						c0.3,0,0.6-0.1,0.8-0.2s0.4-0.3,0.5-0.5s0.2-0.5,0.3-0.8C47.2-71.8,47.2-72.1,47.2-72.6z"/>
					<path class="st6" d="M53-68.9c-0.5,0-0.9-0.1-1.3-0.2c-0.4-0.1-0.7-0.4-1-0.6c-0.3-0.3-0.5-0.7-0.6-1.1s-0.2-1-0.2-1.6v-0.9
						c0-0.7,0.1-1.3,0.2-1.8c0.2-0.5,0.4-0.9,0.7-1.2c0.3-0.3,0.6-0.5,0.9-0.6c0.4-0.1,0.7-0.2,1.1-0.2c0.5,0,0.9,0.1,1.3,0.2
						c0.4,0.2,0.6,0.4,0.9,0.7s0.4,0.7,0.5,1.2s0.2,1,0.2,1.6v0.8h-5v-1.1h3.7v-0.2c0-0.4-0.1-0.8-0.2-1.1c-0.1-0.3-0.2-0.6-0.4-0.7
						c-0.2-0.2-0.5-0.3-0.9-0.3c-0.2,0-0.5,0-0.7,0.1s-0.4,0.2-0.5,0.4c-0.1,0.2-0.3,0.5-0.3,0.8c-0.1,0.3-0.1,0.8-0.1,1.3v0.9
						c0,0.4,0,0.8,0.1,1.1c0.1,0.3,0.2,0.6,0.4,0.8c0.2,0.2,0.4,0.3,0.6,0.4c0.2,0.1,0.5,0.1,0.8,0.1c0.4,0,0.8-0.1,1.1-0.3
						c0.3-0.2,0.5-0.4,0.7-0.6l0.7,0.8c-0.1,0.2-0.3,0.4-0.6,0.6c-0.2,0.2-0.5,0.3-0.8,0.4C53.9-68.9,53.5-68.9,53-68.9z"/>
					<path class="st6" d="M60-68.9c-0.5,0-0.9-0.1-1.3-0.2c-0.4-0.1-0.7-0.4-1-0.6c-0.3-0.3-0.5-0.7-0.6-1.1s-0.2-1-0.2-1.6v-0.9
						c0-0.7,0.1-1.3,0.2-1.8c0.2-0.5,0.4-0.9,0.7-1.2c0.3-0.3,0.6-0.5,0.9-0.6c0.4-0.1,0.7-0.2,1.1-0.2c0.5,0,0.9,0.1,1.3,0.2
						c0.4,0.2,0.6,0.4,0.9,0.7s0.4,0.7,0.5,1.2s0.2,1,0.2,1.6v0.8h-5v-1.1h3.7v-0.2c0-0.4-0.1-0.8-0.2-1.1c-0.1-0.3-0.2-0.6-0.4-0.7
						c-0.2-0.2-0.5-0.3-0.9-0.3c-0.2,0-0.5,0-0.7,0.1s-0.4,0.2-0.5,0.4c-0.1,0.2-0.3,0.5-0.3,0.8c-0.1,0.3-0.1,0.8-0.1,1.3v0.9
						c0,0.4,0,0.8,0.1,1.1c0.1,0.3,0.2,0.6,0.4,0.8c0.2,0.2,0.4,0.3,0.6,0.4c0.2,0.1,0.5,0.1,0.8,0.1c0.4,0,0.8-0.1,1.1-0.3
						c0.3-0.2,0.5-0.4,0.7-0.6l0.7,0.8c-0.1,0.2-0.3,0.4-0.6,0.6c-0.2,0.2-0.5,0.3-0.8,0.4C60.9-68.9,60.5-68.9,60-68.9z"/>
					<path class="st6" d="M67-70c0.3,0,0.5-0.1,0.7-0.2c0.2-0.1,0.4-0.3,0.5-0.5s0.2-0.5,0.2-0.9h1.2c0,0.5-0.2,1-0.4,1.4
						c-0.2,0.4-0.6,0.7-1,0.9c-0.4,0.2-0.8,0.3-1.3,0.3s-1-0.1-1.3-0.2c-0.4-0.2-0.7-0.4-0.9-0.7c-0.2-0.3-0.4-0.7-0.6-1.1
						c-0.1-0.5-0.2-1-0.2-1.5v-0.9c0-0.6,0.1-1.1,0.2-1.5c0.1-0.5,0.3-0.8,0.6-1.1c0.2-0.3,0.6-0.6,0.9-0.7c0.4-0.2,0.8-0.2,1.3-0.2
						s1,0.1,1.4,0.3c0.4,0.2,0.7,0.6,0.9,1c0.2,0.4,0.3,0.9,0.4,1.5h-1.2c0-0.4-0.1-0.7-0.2-1c-0.1-0.3-0.3-0.5-0.5-0.6
						C67.5-75.9,67.3-76,67-76c-0.3,0-0.6,0.1-0.8,0.2c-0.2,0.1-0.4,0.3-0.5,0.5s-0.2,0.5-0.3,0.8s-0.1,0.7-0.1,1v0.9
						c0,0.4,0,0.7,0.1,1.1c0.1,0.3,0.1,0.6,0.3,0.8c0.1,0.2,0.3,0.4,0.5,0.5C66.4-70,66.6-70,67-70z"/>
					<path class="st6" d="M72.5-80.2V-69h-1.3v-11.2H72.5z M72.1-73.3h-0.5c0-0.5,0.1-1,0.2-1.5c0.1-0.5,0.3-0.9,0.6-1.2
						c0.2-0.3,0.5-0.6,0.9-0.8c0.3-0.2,0.7-0.3,1.1-0.3c0.3,0,0.6,0.1,0.9,0.2s0.5,0.3,0.7,0.5s0.3,0.5,0.4,0.9s0.1,0.8,0.1,1.3v5.2
						h-1.3v-5.2c0-0.4,0-0.7-0.1-1s-0.2-0.4-0.4-0.5c-0.2-0.1-0.4-0.2-0.7-0.2c-0.3,0-0.5,0.1-0.7,0.2s-0.4,0.3-0.6,0.6
						c-0.2,0.2-0.3,0.5-0.4,0.9C72.2-74,72.1-73.6,72.1-73.3z"/>
				</g>
			</g>
		</g>
	</g>
</g>
<g id="g-root-tx_delibera_zqx0w91ap5f65-stroke" transform="translate(655.0750122070312, 218)">
</g>
<g id="g-root-cp_0_g-0_dhblxl1ap5dz7-stroke_00000169537355939581925380000012748969558312785033_" transform="translate(26, 278)">
	<g id="cp_0_g-0_dhblxl1ap5dz7-stroke_00000124843302682177531830000018054094237609046163_">
		<g>
			<path class="st7" d="M787.8,24l7,8l7-8 M787.8,24l7,8l7-8 M765.8,2l-7-8l-7,8 M765.8,2l-7-8l-7,8 M765.8,14l-7-8l-7,8 M765.8,14
				l-7-8l-7,8 M765.8,26l-7-8l-7,8 M765.8,26l-7-8l-7,8 M738.8-20.8l-16-12.9l-16,12.9 M738.8-20.8l-16-12.9l-16,12.9 M738.8-1.4
				l-16-12.9l-16,12.9 M738.8-1.4l-16-12.9l-16,12.9 M738.8,18l-16-12.9l-16,12.9 M738.8,18l-16-12.9l-16,12.9 M138.8-20.8l-16-12.9
				l-16,12.9 M138.8-20.8l-16-12.9l-16,12.9 M138.8-1.4l-16-12.9l-16,12.9 M138.8-1.4l-16-12.9l-16,12.9 M138.8,18l-16-12.9
				l-16,12.9 M138.8,18l-16-12.9l-16,12.9 M78.8-20.8l-16-12.9l-16,12.9 M78.8-20.8l-16-12.9l-16,12.9 M78.8-1.4l-16-12.9l-16,12.9
				 M78.8-1.4l-16-12.9l-16,12.9 M78.8,18l-16-12.9L46.8,18 M78.8,18l-16-12.9L46.8,18 M35.8,4.9l-9.1-7.4l-9.2,7.4 M35.8,4.9
				l-9.1-7.4l-9.2,7.4 M35.8,15.9l-9.1-7.4l-9.2,7.4 M35.8,15.9l-9.1-7.4l-9.2,7.4 M35.8,27l-9.1-7.4L17.5,27 M35.8,27l-9.1-7.4
				L17.5,27 M691.8,24l7,8l7-8 M691.8,24l7,8l7-8 M295.8,24l7,8l7-8 M295.8,24l7,8l7-8 M271.8,24l7,8l7-8 M271.8,24l7,8l7-8
				 M247.8,24l7,8l7-8 M247.8,24l7,8l7-8 M79.8,24l7,8l7-8 M79.8,24l7,8l7-8 M-16.2,24l7,8l7-8 M-16.2,24l7,8l7-8 M265.8,20
				L245.6,8.1c-6.5-3.8-12.3-8.6-17.3-14.3l-20.8-23.9c-1.2-1.4-2.8-2.3-4.7-2.6c-1.8-0.3-3.7,0.1-5.2,1.1l-8.5,5.3
				c-1.7,1-3.5,1.7-5.5,1.9c-1.9,0.3-3.9,0.1-5.8-0.5c-2-0.6-4.1-0.8-6.1-0.4c-2,0.3-4,1.1-5.7,2.3l-11.2,7.8
				c-2.1,1.4-4.5,2.5-7,2.9c-2.5,0.5-5.1,0.5-7.6-0.1l-2.1-0.5 M200.6-12.2l7.5-4.4c0.9-0.6,2-0.9,3.1-1s2.2,0,3.2,0.4
				c2.9,1,5.5,2.4,8,4.2 M213.2-24l3,0.5 M557.8-24.5l3-0.5 M212.8-33v8.9l0.4,0.1 M219,29.2l-11-15.7c-0.5-0.8-1.3-1.3-2.2-1.5
				c-2.5-0.5-4.9-1.3-7.2-2.2c-0.7-0.3-1.5-0.4-2.3-0.2s-1.4,0.6-1.9,1.2l-6.7,8.2 M192.2,13.5l-7.5-4.1c-1-0.5-2.1-0.8-3.2-0.6
				c-1.1,0.1-2.1,0.6-3,1.3l-9.1,8 M585.7,39l-10-18.7c-1.8-3.4-4.7-6.2-8.3-7.8l-6.8-3.1c-3.4-1.5-6.3-4.1-8.2-7.2l-6-9.8
				c-0.3-0.4-0.6-0.8-1.1-1.1c-0.5-0.3-0.9-0.4-1.4-0.5c-0.5-0.1-1,0-1.5,0.2s-0.9,0.5-1.2,0.8L535.4-2c-3.1,3.4-6.1,7-8.7,10.8
				c-2.9,4.2-5.5,8.7-7.8,13.3l-2.1,4.9 M562.3,23.2c0,0,5.9-5.8,10.5-7 M613.1,1.6l12.3-10.3c1.4-1.2,3.2-2,5-2.1
				c1.9-0.2,3.7,0.2,5.4,1l7.6,4c3.3,1.8,7.1,2.4,10.8,1.8l2.4-0.4c5.2-0.8,10.2-2.4,14.8-4.8l16.1-8.3c0.7-0.4,1.5-0.5,2.3-0.4
				s1.5,0.5,2.1,1.1l4.7,4.7 M547.3-6.3l13.5-18.5l13-17.8c1.1-1.5,2.7-2.8,4.4-3.5c1.8-0.8,3.7-1,5.6-0.8l13,1.6
				c1.7,0.2,3.5,0.1,5.2-0.5c1.7-0.5,3.2-1.4,4.5-2.6l6-5.6c3.8-3.6,8.1-6.6,12.7-9.1l0.6-0.3c1.7-0.9,3.5-1.4,5.4-1.4
				s3.7,0.4,5.4,1.3l3.7,1.9c1.9,1,3.9,1.4,6,1.3c2.1-0.1,4.1-0.8,5.8-2l12.4-8.5c2.1-1.5,4.6-2.2,7.2-2.2h15.2c2.9,0,5.7,1,8,2.8
				L710.8-57 M675.7-47.5l2.8-6.7c1.3-3,3.3-5.7,5.9-7.8l10.3-8.1 M649.2-20.7l-8.4-7.2c-1.5-1.3-3.3-2.2-5.3-2.6
				c-1.9-0.4-3.9-0.3-5.8,0.4l-8.3,2.7c-2.2,0.7-4.5,0.8-6.7,0.1c-2.2-0.6-4.2-1.9-5.6-3.6l-12.2-14.4 M-21.2,39h828 M794.8,39V21
				 M758.8-13v52 M722.8-45v84 M122.8-45v84 M62.8-45v84 M26.7-9v48 M698.8,39V21 M302.8,39V21 M278.8,39V21 M254.8,39V21 M86.8,39
				V21 M-9.2,39V21 M560.8-33v8.2 M644.8-87h-18v-12h18l-3,6L644.8-87z M626.8-105v41.2 M263.8-54c2.2,0,4-1.8,4-4s-1.8-4-4-4
				s-4,1.8-4,4S261.6-54,263.8-54z M261.7-50.6v6.9c0,0.2,0,0.3,0.1,0.5c0.1,0.1,0.2,0.2,0.4,0.3c0.1,0.1,0.3,0.1,0.5,0.1
				s0.3-0.1,0.4-0.2l4.9-4.2 M258.3-39.8v2.6c0,0.3,0.1,0.7,0.3,1c0.2,0.3,0.4,0.5,0.7,0.7c2.5,1.3,8.8,5.6,10,17.3 M257.7-51.4
				c-2.2,3.5-3.4,7.5-3.6,11.6c0,0.3-0.1,0.6-0.2,0.8c-0.1,0.3-0.3,0.5-0.6,0.6s-0.5,0.3-0.8,0.3s-0.6,0-0.8-0.1
				c-1-0.3-1.9-0.9-2.8-1.5c-0.7-0.6-1.2-1.4-1.4-2.3c-0.2-0.9-0.1-1.8,0.2-2.6c1.2-2.7,3.4-7.2,6.5-9.8c0.2-0.2,0.5-0.3,0.8-0.3
				c0.3,0,0.6,0.1,0.8,0.3l1.5,1.2c0.2,0.2,0.4,0.5,0.4,0.8S257.9-51.7,257.7-51.4z M258.3-31.1L251-20.3"/>
		</g>
	</g>
</g>
<g id="g-root-cp_0_g-0_1_4lolop1ap5erw-stroke_00000017503731837881538250000002894573641252068741_" transform="translate(269, 359)">
	<g id="cp_0_g-0_1_4lolop1ap5erw-stroke_00000107585620463300287600000003075621447638226107_">
		<g>
			<path class="st8" d="M-21.5-103.6c37.3,5.6,180.9,23.8,333-1.4"/>
		</g>
	</g>
</g>
</svg>
