<?xml version="1.0" encoding="utf-8"?>
<!-- Generator: Adobe Illustrator 26.3.1, SVG Export Plug-In . SVG Version: 6.00 Build 0)  -->
<svg version="1.1" id="Layer_1" xmlns="http://www.w3.org/2000/svg" xmlns:xlink="http://www.w3.org/1999/xlink" x="0px" y="0px"
	 viewBox="0 0 841 376" style="enable-background:new 0 0 841 376;" xml:space="preserve">
<style type="text/css">
	.st0{fill-rule:evenodd;clip-rule:evenodd;fill:#FB6762;}
	.st1{fill:none;stroke:#2C2C2C;stroke-width:2;stroke-linecap:round;stroke-linejoin:round;}
	.st2{fill-rule:evenodd;clip-rule:evenodd;fill:#F79438;}
	.st3{fill-rule:evenodd;clip-rule:evenodd;fill:#FFE711;}
	.st4{fill-rule:evenodd;clip-rule:evenodd;fill:#43DD93;}
	.st5{enable-background:new    ;}
	.st6{fill:#2C2C2C;}
	.st7{fill:none;stroke:#484848;stroke-width:2;stroke-linecap:round;stroke-linejoin:round;}
	.st8{fill:none;stroke:#484848;stroke-width:2;stroke-linecap:round;stroke-linejoin:round;stroke-dasharray:5,7;}
</style>
<g id="g-root-cp_start_g-start_18jfnpl1ap5d6v-fill" transform="translate(62, 110)">
	<g id="cp_start_g-start_18jfnpl1ap5d6v-fill-merged">
		<g>
			<path class="st0" d="M-20,235.7c0,5.9,2.5,11.6,7,15.8S-2.4,258,4,258h132c6.4,0,12.5-2.3,17-6.5s7-9.8,7-15.8V-78
				c0-6.4-2.5-12.5-7-17s-10.6-7-17-7H4c-6.4,0-12.5,2.5-17,7s-7,10.6-7,17V235.7"/>
		</g>
	</g>
</g>
<g id="g-root-cp_start_g-start_18jfnpl1ap5d6v-stroke" transform="translate(62, 110)">
	<g id="cp_start_g-start_18jfnpl1ap5d6v-stroke">
		<g>
			<path class="st1" d="M160-66v-12c0-6.4-2.5-12.5-7-17s-10.6-7-17-7H4c-6.4,0-12.5,2.5-17,7s-7,10.6-7,17v12 M160,102V-66 M-20-66
				v168 M160,102v133.7c0,5.9-2.5,11.6-7,15.8s-10.6,6.5-17,6.5H4c-6.4,0-12.5-2.3-17-6.5s-7-9.8-7-15.8V102"/>
		</g>
	</g>
</g>
<g id="g-root-cp_1_g-1_143m5l51ap5dz4-fill" transform="translate(254, 110)">
	<g id="cp_1_g-1_143m5l51ap5dz4-fill-merged">
		<g>
			<path class="st2" d="M-20,235.7c0,5.9,2.5,11.6,7,15.8S-2.4,258,4,258h132c6.4,0,12.5-2.3,17-6.5s7-9.8,7-15.8V-78
				c0-6.4-2.5-12.5-7-17s-10.6-7-17-7H4c-6.4,0-12.5,2.5-17,7s-7,10.6-7,17V235.7"/>
		</g>
	</g>
</g>
<g id="g-root-cp_1_g-1_143m5l51ap5dz4-stroke" transform="translate(254, 110)">
	<g id="cp_1_g-1_143m5l51ap5dz4-stroke">
		<g>
			<path class="st1" d="M160,102V-66 M-20-66v168 M160,102v133.7c0,5.9-2.5,11.6-7,15.8s-10.6,6.5-17,6.5H4c-6.4,0-12.5-2.3-17-6.5
				s-7-9.8-7-15.8V102 M160-66v-12c0-6.4-2.5-12.5-7-17s-10.6-7-17-7H4c-6.4,0-12.5,2.5-17,7s-7,10.6-7,17v12"/>
		</g>
	</g>
</g>
<g id="g-root-cp_2_g-2_qs5n7t1ap5fk1-fill" transform="translate(446, 110)">
	<g id="cp_2_g-2_qs5n7t1ap5fk1-fill-merged">
		<g>
			<path class="st3" d="M-20,235.7c0,5.9,2.5,11.6,7,15.8S-2.4,258,4,258h132c6.4,0,12.5-2.3,17-6.5s7-9.8,7-15.8V-78
				c0-6.4-2.5-12.5-7-17s-10.6-7-17-7H4c-6.4,0-12.5,2.5-17,7s-7,10.6-7,17V235.7"/>
		</g>
	</g>
</g>
<g id="g-root-cp_2_g-2_qs5n7t1ap5fk1-stroke" transform="translate(446, 110)">
	<g id="cp_2_g-2_qs5n7t1ap5fk1-stroke">
		<g>
			<path class="st1" d="M160-66v-12c0-6.4-2.5-12.5-7-17s-10.6-7-17-7H4c-6.4,0-12.5,2.5-17,7s-7,10.6-7,17v12 M160,102V-66 M-20-66
				v168 M160,102v133.7c0,5.9-2.5,11.6-7,15.8s-10.6,6.5-17,6.5H4c-6.4,0-12.5-2.3-17-6.5s-7-9.8-7-15.8V102"/>
		</g>
	</g>
</g>
<g id="g-root-cp_end_g-end_hx54211ap5d6y-fill" transform="translate(638, 110)">
	<g id="cp_end_g-end_hx54211ap5d6y-fill-merged">
		<g>
			<path class="st4" d="M-20,235.7c0,5.9,2.5,11.6,7,15.8S-2.4,258,4,258h132c6.4,0,12.5-2.3,17-6.5s7-9.8,7-15.8V-78
				c0-6.4-2.5-12.5-7-17s-10.6-7-17-7H4c-6.4,0-12.5,2.5-17,7s-7,10.6-7,17V235.7"/>
		</g>
	</g>
</g>
<g id="g-root-cp_end_g-end_hx54211ap5d6y-stroke" transform="translate(638, 110)">
	<g id="cp_end_g-end_hx54211ap5d6y-stroke">
		<g>
			<path class="st1" d="M160-66v-12c0-6.4-2.5-12.5-7-17s-10.6-7-17-7H4c-6.4,0-12.5,2.5-17,7s-7,10.6-7,17v12 M160,102V-66 M-20-66
				v168 M160,102v133.7c0,5.9-2.5,11.6-7,15.8s-10.6,6.5-17,6.5H4c-6.4,0-12.5-2.3-17-6.5s-7-9.8-7-15.8V102"/>
		</g>
	</g>
</g>
<g id="g-root-cp_0_g-0_dhblxl1ap5dz7-fill" transform="translate(26, 278)">
</g>
<g id="g-root-cp_0_g-0_1_4lolop1ap5erw-fill" transform="translate(269, 359)">
</g>
<g id="g-root-tx_unadjust_1lw54951ap5ds6-fill" transform="translate(96.58334350585938, 158)">
	<g id="tx_unadjust_1lw54951ap5ds6-fill-merged">
		<g>
			<g class="st5">
				<path class="st6" d="M-8-83.5v-8.8h3.1v8.8c0,1.5-0.2,2.7-0.7,3.6c-0.9,1.6-2.6,2.3-5.1,2.3s-4.2-0.8-5.1-2.3
					c-0.5-0.9-0.7-2-0.7-3.6v-8.8h3.1v8.8c0,1,0.1,1.7,0.4,2.2c0.4,0.8,1.2,1.2,2.4,1.2s2-0.4,2.4-1.2C-8.1-81.8-8-82.6-8-83.5z"/>
				<path class="st6" d="M2.7-86.6c-0.9,0-1.6,0.4-1.9,1.2c-0.2,0.4-0.3,1-0.3,1.6v5.8h-2.8v-10.6h2.7v1.6c0.4-0.5,0.7-0.9,1-1.2
					c0.6-0.4,1.3-0.6,2.2-0.6c1.1,0,2,0.3,2.7,0.9s1,1.5,1,2.9v7.2H4.5v-6.5c0-0.6-0.1-1-0.2-1.3C4-86.3,3.5-86.6,2.7-86.6z"/>
				<path class="st6" d="M10.4-87.5c0.7-0.9,2-1.4,3.8-1.4c1.2,0,2.2,0.2,3.1,0.7s1.4,1.3,1.4,2.6v4.9c0,0.3,0,0.7,0,1.2
					c0,0.4,0.1,0.6,0.2,0.7s0.2,0.2,0.4,0.3v0.4h-3c-0.1-0.2-0.1-0.4-0.2-0.6c0-0.2-0.1-0.4-0.1-0.6c-0.4,0.4-0.8,0.8-1.3,1.1
					c-0.6,0.3-1.3,0.5-2,0.5c-1,0-1.8-0.3-2.4-0.8s-0.9-1.3-0.9-2.3c0-1.3,0.5-2.3,1.5-2.8c0.6-0.3,1.4-0.5,2.4-0.7l0.9-0.1
					c0.5-0.1,0.9-0.1,1.1-0.2c0.4-0.2,0.6-0.4,0.6-0.8s-0.2-0.7-0.5-0.9s-0.7-0.2-1.3-0.2c-0.7,0-1.1,0.2-1.4,0.5
					c-0.2,0.2-0.3,0.6-0.4,1H9.6C9.6-86.1,9.9-86.9,10.4-87.5z M12.4-80c0.3,0.2,0.6,0.3,1,0.3c0.6,0,1.2-0.2,1.7-0.5s0.8-1,0.8-1.9
					v-1c-0.2,0.1-0.4,0.2-0.5,0.3s-0.4,0.1-0.7,0.2l-0.6,0.1c-0.6,0.1-1,0.2-1.3,0.4C12.2-82,12-81.6,12-81
					C12-80.6,12.2-80.2,12.4-80z"/>
				<path class="st6" d="M30.8-92.4V-78h-2.7v-1.5c-0.4,0.6-0.8,1.1-1.4,1.4s-1.1,0.4-1.9,0.4c-1.2,0-2.3-0.5-3.1-1.5
					s-1.3-2.3-1.3-3.9c0-1.8,0.4-3.2,1.3-4.3s2-1.6,3.4-1.6c0.6,0,1.2,0.1,1.7,0.4s0.9,0.7,1.2,1.2v-5.1L30.8-92.4L30.8-92.4z
					 M23.3-83.3c0,1,0.2,1.8,0.6,2.4s1,0.9,1.8,0.9s1.4-0.3,1.8-0.9s0.6-1.3,0.6-2.3c0-1.3-0.3-2.2-1-2.8c-0.4-0.3-0.9-0.5-1.4-0.5
					c-0.8,0-1.4,0.3-1.8,0.9S23.3-84.2,23.3-83.3z"/>
				<path class="st6" d="M33.4-88.6h2.8v11.7c0,1.1-0.2,1.9-0.6,2.4s-1.3,0.8-2.5,0.8c-0.1,0-0.2,0-0.4,0s-0.4,0-0.6,0V-76
					c0.2,0,0.3,0,0.3,0s0.1,0,0.2,0c0.3,0,0.5-0.1,0.6-0.2s0.2-0.4,0.2-0.8V-88.6z M33.4-92.5h2.8v2.6h-2.8V-92.5z"/>
				<path class="st6" d="M45.7-79.5c0,0-0.1,0.1-0.2,0.3s-0.2,0.3-0.4,0.4c-0.4,0.4-0.9,0.7-1.3,0.8s-0.9,0.2-1.4,0.2
					c-1.6,0-2.6-0.6-3.2-1.7c-0.3-0.6-0.5-1.5-0.5-2.8v-6.4h2.9v6.4c0,0.6,0.1,1.1,0.2,1.4c0.3,0.5,0.8,0.8,1.5,0.8
					c1,0,1.6-0.4,2-1.2c0.2-0.4,0.3-1,0.3-1.7v-5.8h2.8V-78h-2.7C45.7-78,45.7-79.5,45.7-79.5z"/>
				<path class="st6" d="M58.4-88.2c0.8,0.5,1.3,1.5,1.4,2.8H57c0-0.4-0.1-0.6-0.3-0.8c-0.3-0.4-0.8-0.6-1.6-0.6
					c-0.6,0-1,0.1-1.3,0.3s-0.4,0.4-0.4,0.7c0,0.3,0.1,0.5,0.4,0.7c0.3,0.1,1.2,0.4,2.9,0.8c1.1,0.3,1.9,0.7,2.5,1.2
					c0.5,0.5,0.8,1.2,0.8,2c0,1.1-0.4,1.9-1.2,2.6s-2,1-3.6,1c-1.7,0-2.9-0.4-3.7-1.1s-1.2-1.6-1.2-2.7h2.8c0.1,0.5,0.2,0.8,0.4,1.1
					c0.3,0.4,1,0.6,1.9,0.6c0.5,0,1-0.1,1.3-0.2s0.5-0.4,0.5-0.7c0-0.3-0.1-0.5-0.4-0.7s-1.2-0.4-2.9-0.8c-1.2-0.3-2.1-0.7-2.5-1.1
					c-0.5-0.4-0.7-1.1-0.7-1.9c0-1,0.4-1.8,1.2-2.5s1.9-1.1,3.3-1.1C56.5-88.9,57.6-88.7,58.4-88.2z"/>
				<path class="st6" d="M67.1-80v2.1h-1.3c-1.3,0-2.2-0.2-2.7-0.7c-0.3-0.3-0.5-0.8-0.5-1.5v-6.6h-1.5v-2h1.5v-3h2.8v3h1.7v2h-1.7
					v5.6c0,0.4,0.1,0.7,0.2,0.8s0.4,0.2,1,0.2c0.1,0,0.2,0,0.3,0S67-80,67.1-80z"/>
				<path class="st6" d="M78-81.1c-0.1,0.6-0.4,1.3-1,1.9c-0.9,1-2.2,1.6-3.8,1.6c-1.4,0-2.5-0.4-3.6-1.3S68-81.2,68-83.2
					c0-1.8,0.5-3.3,1.4-4.2s2.1-1.5,3.6-1.5c0.9,0,1.7,0.2,2.4,0.5s1.3,0.9,1.8,1.6c0.4,0.6,0.7,1.4,0.8,2.2
					c0.1,0.5,0.1,1.2,0.1,2.1h-7.3c0,1.1,0.4,1.8,1,2.2c0.4,0.3,0.8,0.4,1.4,0.4s1-0.2,1.4-0.5c0.2-0.2,0.4-0.4,0.5-0.7H78z
					 M75.2-84.4c0-0.7-0.3-1.3-0.7-1.7s-0.9-0.6-1.5-0.6s-1.1,0.2-1.5,0.6s-0.6,1-0.7,1.6L75.2-84.4L75.2-84.4z"/>
				<path class="st6" d="M89.7-92.4V-78H87v-1.5c-0.4,0.6-0.8,1.1-1.4,1.4s-1.1,0.4-1.9,0.4c-1.2,0-2.3-0.5-3.1-1.5
					s-1.3-2.3-1.3-3.9c0-1.8,0.4-3.2,1.3-4.3s2-1.6,3.4-1.6c0.6,0,1.2,0.1,1.7,0.4s0.9,0.7,1.2,1.2v-5.1L89.7-92.4L89.7-92.4z
					 M82.2-83.3c0,1,0.2,1.8,0.6,2.4s1,0.9,1.8,0.9s1.4-0.3,1.8-0.9s0.6-1.3,0.6-2.3c0-1.3-0.3-2.2-1-2.8c-0.4-0.3-0.9-0.5-1.4-0.5
					c-0.8,0-1.4,0.3-1.8,0.9S82.2-84.2,82.2-83.3z"/>
			</g>
			<g class="st5">
				<path class="st6" d="M6.3-56.1c0.7,0,1.3-0.1,1.7-0.2c0.8-0.3,1.3-0.9,1.3-1.7c0-0.5-0.2-0.8-0.6-1.1c-0.4-0.3-1.1-0.5-2-0.7
					l-1.5-0.3c-1.5-0.3-2.5-0.7-3.1-1.1c-1-0.7-1.5-1.7-1.5-3.1c0-1.3,0.5-2.4,1.4-3.2s2.3-1.3,4.1-1.3c1.5,0,2.8,0.4,3.9,1.2
					s1.6,2,1.7,3.5H8.8c0-0.9-0.4-1.5-1.1-1.9c-0.5-0.2-1.1-0.4-1.7-0.4c-0.8,0-1.4,0.2-1.9,0.5s-0.7,0.7-0.7,1.3
					c0,0.5,0.2,0.9,0.7,1.2C4.4-63.2,5-63,5.9-62.8l2.5,0.6c1.1,0.3,1.9,0.6,2.5,1c0.9,0.7,1.3,1.7,1.3,2.9c0,1.3-0.5,2.4-1.5,3.3
					s-2.4,1.3-4.3,1.3S3.1-54.1,2-55s-1.6-2-1.6-3.5h2.9c0.1,0.7,0.3,1.1,0.5,1.5C4.3-56.4,5.1-56.1,6.3-56.1z"/>
				<path class="st6" d="M23.1-63.5c0.9,0.9,1.3,2.3,1.3,4c0,1.9-0.4,3.3-1.3,4.3s-1.9,1.5-3.3,1.5c-0.8,0-1.5-0.2-2.1-0.6
					c-0.3-0.2-0.6-0.6-0.9-1v5.5H14v-14.8h2.7v1.6c0.3-0.5,0.6-0.8,1-1.1c0.6-0.5,1.4-0.7,2.2-0.7C21.2-64.9,22.2-64.4,23.1-63.5z
					 M21.5-59.3c0-0.8-0.2-1.5-0.6-2.2s-1-0.9-1.8-0.9c-1,0-1.7,0.5-2.1,1.4c-0.2,0.5-0.3,1.2-0.3,1.9c0,1.2,0.3,2.1,1,2.6
					c0.4,0.3,0.9,0.4,1.4,0.4c0.8,0,1.4-0.3,1.8-0.9S21.5-58.3,21.5-59.3z"/>
				<path class="st6" d="M35.5-57.1c-0.1,0.6-0.4,1.3-1,1.9c-0.9,1-2.2,1.6-3.8,1.6c-1.4,0-2.5-0.4-3.6-1.3s-1.6-2.3-1.6-4.3
					c0-1.8,0.5-3.3,1.4-4.2c0.9-0.9,2.1-1.5,3.6-1.5c0.9,0,1.7,0.2,2.4,0.5s1.3,0.9,1.8,1.6c0.4,0.6,0.7,1.4,0.8,2.2
					c0.1,0.5,0.1,1.2,0.1,2.1h-7.3c0,1.1,0.4,1.8,1,2.2c0.4,0.3,0.8,0.4,1.4,0.4s1-0.2,1.4-0.5c0.2-0.2,0.4-0.4,0.5-0.7
					C32.6-57.1,35.5-57.1,35.5-57.1z M32.7-60.4c0-0.7-0.3-1.3-0.7-1.7s-0.9-0.6-1.5-0.6s-1.1,0.2-1.5,0.6s-0.6,1-0.7,1.6h4.4V-60.4
					z"/>
				<path class="st6" d="M46.6-57.1c-0.1,0.6-0.4,1.3-1,1.9c-0.9,1-2.2,1.6-3.8,1.6c-1.4,0-2.5-0.4-3.6-1.3s-1.6-2.3-1.6-4.3
					c0-1.8,0.5-3.3,1.4-4.2c0.9-0.9,2.1-1.5,3.6-1.5c0.9,0,1.7,0.2,2.4,0.5s1.3,0.9,1.8,1.6c0.4,0.6,0.7,1.4,0.8,2.2
					c0.1,0.5,0.1,1.2,0.1,2.1h-7.3c0,1.1,0.4,1.8,1,2.2c0.4,0.3,0.8,0.4,1.4,0.4c0.6,0,1-0.2,1.4-0.5c0.2-0.2,0.4-0.4,0.5-0.7
					C43.7-57.1,46.6-57.1,46.6-57.1z M43.9-60.4c0-0.7-0.3-1.3-0.7-1.7s-0.9-0.6-1.5-0.6s-1.1,0.2-1.5,0.6s-0.6,1-0.7,1.6h4.4V-60.4
					z"/>
				<path class="st6" d="M57.8-60.8H55c-0.1-0.4-0.2-0.8-0.4-1.1c-0.3-0.4-0.8-0.6-1.5-0.6c-0.9,0-1.6,0.5-1.9,1.4
					c-0.2,0.5-0.3,1.2-0.3,2s0.1,1.4,0.3,1.9c0.3,0.9,1,1.3,1.9,1.3c0.7,0,1.1-0.2,1.4-0.5s0.4-0.8,0.5-1.4h2.8
					c-0.1,0.8-0.4,1.6-0.9,2.4c-0.9,1.2-2.2,1.8-3.9,1.8s-3-0.5-3.8-1.5s-1.2-2.3-1.2-4c0-1.8,0.4-3.3,1.3-4.3s2.1-1.5,3.7-1.5
					c1.3,0,2.4,0.3,3.3,0.9S57.7-62.3,57.8-60.8z"/>
				<path class="st6" d="M69.4-60.2v6.2h-2.8v-6.5c0-0.6-0.1-1-0.3-1.4c-0.3-0.5-0.7-0.7-1.4-0.7c-0.7,0-1.3,0.2-1.7,0.7
					s-0.6,1.2-0.6,2.1v5.8h-2.8v-14.3h2.8v5.1c0.4-0.6,0.9-1,1.4-1.3c0.5-0.3,1.1-0.4,1.7-0.4c0.7,0,1.3,0.1,1.8,0.3s1,0.6,1.3,1
					s0.5,0.8,0.5,1.2S69.4-61.2,69.4-60.2z"/>
			</g>
		</g>
	</g>
</g>
<g id="g-root-tx_unadjust_1lw54951ap5ds6-stroke" transform="translate(96.58334350585938, 158)">
</g>
<g id="g-root-tx_dafactiv_v9ukll1ap5ds8-fill" transform="translate(304.85833740234375, 158)">
	<g id="tx_dafactiv_v9ukll1ap5ds8-fill-merged">
		<g>
			<g class="st5">
				<path class="st6" d="M5.8-78h-6.2v-14.4h6.2c0.9,0,1.6,0.1,2.2,0.3c1,0.3,1.8,0.9,2.5,1.8c0.5,0.7,0.8,1.5,1,2.3
					s0.3,1.6,0.3,2.4c0,1.9-0.4,3.5-1.2,4.9C9.6-78.9,8-78,5.8-78z M8-88.7c-0.5-0.8-1.4-1.2-2.7-1.2H2.5v9.4h2.8
					c1.4,0,2.4-0.7,3-2.1c0.3-0.8,0.5-1.7,0.5-2.7C8.7-86.8,8.5-87.9,8-88.7z"/>
				<path class="st6" d="M22.4-81h-5.3l-1,3H13l5.1-14.4h3.4L26.6-78h-3.3L22.4-81z M21.6-83.4l-1.8-5.7L18-83.4H21.6z"/>
				<path class="st6" d="M38.7-89.8h-7.2v3.3h6.3v2.5h-6.3v6h-3v-14.4h10.2V-89.8z"/>
			</g>
			<g class="st5">
				<path class="st6" d="M-10.4-59.2h-3.1v5.2h-3v-14.4h6.3c1.4,0,2.6,0.4,3.5,1.1s1.3,1.9,1.3,3.4c0,1.7-0.4,2.9-1.3,3.6
					S-8.8-59.2-10.4-59.2z M-9-62.2c0.4-0.3,0.6-0.9,0.6-1.6c0-0.7-0.2-1.3-0.6-1.6s-0.9-0.5-1.7-0.5h-2.8v4.2h2.8
					C-9.9-61.7-9.4-61.8-9-62.2z"/>
				<path class="st6" d="M2-62.1c-1.1,0-1.9,0.4-2.3,1.1c-0.2,0.4-0.3,1-0.3,1.9v5.1h-2.8v-10.6h2.7v1.9c0.4-0.7,0.8-1.2,1.1-1.5
					c0.5-0.4,1.2-0.7,2-0.7c0.1,0,0.1,0,0.1,0s0.1,0,0.2,0v2.9c-0.2,0-0.3,0-0.5,0S2.1-62.1,2-62.1z"/>
				<path class="st6" d="M4.8-63.5c0.7-0.9,2-1.4,3.8-1.4c1.2,0,2.2,0.2,3.1,0.7s1.4,1.3,1.4,2.6v4.9c0,0.3,0,0.7,0,1.2
					c0,0.4,0.1,0.6,0.2,0.7s0.2,0.2,0.4,0.3v0.4h-3c-0.1-0.2-0.1-0.4-0.2-0.6s-0.1-0.4-0.1-0.6c-0.4,0.4-0.8,0.8-1.3,1.1
					c-0.6,0.3-1.3,0.5-2,0.5c-1,0-1.8-0.3-2.4-0.8s-0.9-1.3-0.9-2.3c0-1.3,0.5-2.3,1.5-2.8c0.6-0.3,1.4-0.5,2.4-0.7l0.9-0.1
					c0.5-0.1,0.9-0.1,1.1-0.2c0.4-0.2,0.6-0.4,0.6-0.8c0-0.4-0.2-0.7-0.5-0.9s-0.7-0.2-1.3-0.2c-0.7,0-1.1,0.2-1.4,0.5
					c-0.2,0.2-0.3,0.6-0.4,1H4C4.1-62.1,4.4-62.9,4.8-63.5z M6.9-56c0.3,0.2,0.6,0.3,1,0.3c0.6,0,1.2-0.2,1.7-0.5s0.8-1,0.8-1.9v-1
					c-0.2,0.1-0.4,0.2-0.5,0.3s-0.6,0-0.9,0.1l-0.6,0.1c-0.6,0.1-1,0.2-1.3,0.4C6.7-58,6.5-57.6,6.5-57C6.5-56.6,6.6-56.2,6.9-56z"
					/>
				<path class="st6" d="M24.8-60.8h-2.9c-0.1-0.4-0.2-0.8-0.4-1.1c-0.3-0.4-0.8-0.6-1.5-0.6c-0.9,0-1.6,0.5-1.9,1.4
					c-0.2,0.5-0.3,1.2-0.3,2s0.1,1.4,0.3,1.9c0.3,0.9,1,1.3,1.9,1.3c0.7,0,1.1-0.2,1.4-0.5s0.4-0.8,0.5-1.4h2.8
					c-0.1,0.8-0.4,1.6-0.9,2.4c-0.9,1.2-2.2,1.8-3.9,1.8s-3-0.5-3.8-1.5s-1.2-2.3-1.2-4c0-1.8,0.4-3.3,1.3-4.3
					c0.9-1,2.1-1.5,3.7-1.5c1.3,0,2.4,0.3,3.3,0.9S24.6-62.3,24.8-60.8z"/>
				<path class="st6" d="M31.5-56v2.1h-1.3c-1.3,0-2.2-0.2-2.7-0.7c-0.3-0.3-0.5-0.8-0.5-1.5v-6.6h-1.5v-2H27v-3h2.8v3h1.7v2h-1.7
					v5.6c0,0.4,0.1,0.7,0.2,0.8s0.4,0.2,1,0.2c0.1,0,0.2,0,0.3,0S31.5-56,31.5-56z"/>
				<path class="st6" d="M36.2-68.5v2.6h-2.8v-2.6H36.2z M36.2-64.6V-54h-2.8v-10.6H36.2z"/>
				<path class="st6" d="M48.1-60.8h-2.9c-0.1-0.4-0.2-0.8-0.4-1.1c-0.3-0.4-0.8-0.6-1.5-0.6c-0.9,0-1.6,0.5-1.9,1.4
					c-0.2,0.5-0.3,1.2-0.3,2s0.1,1.4,0.3,1.9c0.3,0.9,1,1.3,1.9,1.3c0.7,0,1.1-0.2,1.4-0.5s0.4-0.8,0.5-1.4H48
					c-0.1,0.8-0.4,1.6-0.9,2.4c-0.9,1.2-2.2,1.8-3.9,1.8s-3-0.5-3.8-1.5s-1.2-2.3-1.2-4c0-1.8,0.4-3.3,1.3-4.3s2.1-1.5,3.7-1.5
					c1.3,0,2.4,0.3,3.3,0.9S47.9-62.3,48.1-60.8z"/>
				<path class="st6" d="M59.1-57.1c-0.1,0.6-0.4,1.3-1,1.9c-0.9,1-2.2,1.6-3.8,1.6c-1.4,0-2.5-0.4-3.6-1.3s-1.6-2.3-1.6-4.3
					c0-1.8,0.5-3.3,1.4-4.2c0.9-0.9,2.1-1.5,3.6-1.5c0.9,0,1.7,0.2,2.4,0.5s1.3,0.9,1.8,1.6c0.4,0.6,0.7,1.4,0.8,2.2
					c0.1,0.5,0.1,1.2,0.1,2.1H52c0,1.1,0.4,1.8,1,2.2c0.4,0.3,0.8,0.4,1.4,0.4c0.6,0,1-0.2,1.4-0.5c0.2-0.2,0.4-0.4,0.5-0.7
					C56.3-57.1,59.1-57.1,59.1-57.1z M56.4-60.4c0-0.7-0.3-1.3-0.7-1.7s-0.9-0.6-1.5-0.6s-1.1,0.2-1.5,0.6s-0.6,1-0.7,1.6h4.4V-60.4
					z"/>
			</g>
		</g>
	</g>
</g>
<g id="g-root-tx_dafactiv_v9ukll1ap5ds8-stroke" transform="translate(304.85833740234375, 158)">
</g>
<g id="g-root-tx_brainadj_4nk0y11ap5dsa-fill" transform="translate(481.88330078125, 158)">
	<g id="tx_brainadj_4nk0y11ap5dsa-fill-merged">
		<g>
			<g class="st5">
				<path class="st6" d="M18.7-78h-6.5v-14.4h7c1.8,0,3,0.5,3.8,1.5c0.4,0.6,0.7,1.3,0.7,2.2c0,0.9-0.2,1.6-0.7,2.1
					c-0.2,0.3-0.6,0.6-1.1,0.8c0.7,0.3,1.3,0.7,1.7,1.3s0.6,1.3,0.6,2.1c0,0.9-0.2,1.6-0.6,2.3c-0.3,0.4-0.6,0.8-1,1.1
					c-0.5,0.4-1,0.6-1.6,0.7S19.4-78,18.7-78z M20.1-87.1c0.4-0.2,0.6-0.7,0.6-1.3c0-0.7-0.3-1.1-0.8-1.3c-0.4-0.1-1-0.2-1.7-0.2H15
					v3.2h3.5C19.2-86.7,19.7-86.8,20.1-87.1z M18.6-84.3H15v3.8h3.5c0.6,0,1.1-0.1,1.5-0.3c0.6-0.3,1-0.9,1-1.8
					c0-0.7-0.3-1.3-0.9-1.5C19.8-84.2,19.3-84.3,18.6-84.3z"/>
				<path class="st6" d="M31.7-86.1c-1.1,0-1.9,0.4-2.3,1.1c-0.2,0.4-0.3,1-0.3,1.9v5.1h-2.8v-10.6H29v1.9c0.4-0.7,0.8-1.2,1.1-1.5
					c0.5-0.4,1.2-0.7,2-0.7c0.1,0,0.1,0,0.1,0s0.1,0,0.2,0v2.9c-0.2,0-0.3,0-0.5,0S31.8-86.1,31.7-86.1z"/>
				<path class="st6" d="M34.5-87.5c0.7-0.9,2-1.4,3.8-1.4c1.2,0,2.2,0.2,3.1,0.7s1.4,1.3,1.4,2.6v4.9c0,0.3,0,0.7,0,1.2
					c0,0.4,0.1,0.6,0.2,0.7s0.2,0.2,0.4,0.3v0.4h-3c-0.1-0.2-0.1-0.4-0.2-0.6s-0.1-0.4-0.1-0.6c-0.4,0.4-0.8,0.8-1.3,1.1
					c-0.6,0.3-1.3,0.5-2,0.5c-1,0-1.8-0.3-2.4-0.8s-0.9-1.3-0.9-2.3c0-1.3,0.5-2.3,1.5-2.8c0.6-0.3,1.4-0.5,2.4-0.7l0.9-0.1
					c0.5-0.1,0.9-0.1,1.1-0.2c0.4-0.2,0.6-0.4,0.6-0.8s-0.2-0.7-0.5-0.9s-0.7-0.2-1.3-0.2c-0.7,0-1.1,0.2-1.4,0.5
					c-0.2,0.2-0.3,0.6-0.4,1h-2.7C33.8-86.1,34.1-86.9,34.5-87.5z M36.6-80c0.3,0.2,0.6,0.3,1,0.3c0.6,0,1.2-0.2,1.7-0.5
					s0.8-1,0.8-1.9v-1c-0.2,0.1-0.4,0.2-0.5,0.3s-0.4,0.1-0.7,0.2l-0.6,0.1c-0.6,0.1-1,0.2-1.3,0.4c-0.4,0.3-0.6,0.6-0.6,1.2
					C36.2-80.6,36.3-80.2,36.6-80z"/>
				<path class="st6" d="M48.1-92.5v2.6h-2.8v-2.6H48.1z M48.1-88.6V-78h-2.8v-10.6H48.1z"/>
				<path class="st6" d="M55.8-86.6c-0.9,0-1.6,0.4-1.9,1.2c-0.2,0.4-0.3,1-0.3,1.6v5.8h-2.8v-10.6h2.7v1.6c0.4-0.5,0.7-0.9,1-1.2
					c0.6-0.4,1.3-0.6,2.2-0.6c1.1,0,2,0.3,2.7,0.9s1,1.5,1,2.9v7.2h-2.9v-6.5c0-0.6-0.1-1-0.2-1.3C57.1-86.3,56.6-86.6,55.8-86.6z"
					/>
			</g>
			<g class="st5">
				<path class="st6" d="M-8.1-57h-5.3l-1,3h-3.1l5.1-14.4H-9L-3.9-54h-3.3L-8.1-57z M-8.9-59.4l-1.8-5.7l-1.9,5.7
					C-12.6-59.4-8.9-59.4-8.9-59.4z"/>
				<path class="st6" d="M7.4-68.4V-54H4.7v-1.5c-0.4,0.6-0.8,1.1-1.4,1.4s-1.1,0.4-1.9,0.4c-1.2,0-2.3-0.5-3.1-1.5S-3-57.5-3-59.1
					c0-1.8,0.4-3.2,1.3-4.3c0.8-1,2-1.6,3.4-1.6c0.6,0,1.2,0.1,1.7,0.4s0.9,0.7,1.2,1.2v-5.1L7.4-68.4L7.4-68.4z M-0.1-59.3
					c0,1,0.2,1.8,0.6,2.4c0.4,0.6,1,0.9,1.8,0.9s1.4-0.3,1.8-0.9s0.6-1.3,0.6-2.3c0-1.3-0.3-2.2-1-2.8c-0.4-0.3-0.9-0.5-1.4-0.5
					c-0.8,0-1.4,0.3-1.8,0.9S-0.1-60.2-0.1-59.3z"/>
				<path class="st6" d="M10.1-64.6h2.8v11.7c0,1.1-0.2,1.9-0.6,2.4c-0.4,0.5-1.3,0.8-2.5,0.8c-0.1,0-0.2,0-0.4,0s-0.4,0-0.6,0V-52
					c0.2,0,0.3,0,0.3,0c0.1,0,0.1,0,0.2,0c0.3,0,0.5-0.1,0.6-0.2c0.1-0.1,0.2-0.4,0.2-0.8V-64.6z M10.1-68.5h2.8v2.6h-2.8V-68.5z"/>
				<path class="st6" d="M22.3-55.5c0,0-0.1,0.1-0.2,0.3s-0.2,0.3-0.4,0.4c-0.4,0.4-0.9,0.7-1.3,0.8s-0.9,0.2-1.4,0.2
					c-1.6,0-2.6-0.6-3.2-1.7c-0.3-0.6-0.5-1.5-0.5-2.8v-6.4h2.9v6.4c0,0.6,0.1,1.1,0.2,1.4c0.3,0.5,0.8,0.8,1.5,0.8
					c1,0,1.6-0.4,2-1.2c0.2-0.4,0.3-1,0.3-1.7v-5.8H25V-54h-2.7V-55.5z"/>
				<path class="st6" d="M35.1-64.2c0.8,0.5,1.3,1.5,1.4,2.8h-2.8c0-0.4-0.1-0.6-0.3-0.8c-0.3-0.4-0.8-0.6-1.6-0.6
					c-0.6,0-1,0.1-1.3,0.3s-0.4,0.4-0.4,0.7s0.1,0.5,0.4,0.7c0.3,0.1,1.2,0.4,2.9,0.8c1.1,0.3,1.9,0.7,2.5,1.2
					c0.5,0.5,0.8,1.2,0.8,2c0,1.1-0.4,1.9-1.2,2.6c-0.8,0.7-2,1-3.6,1c-1.7,0-2.9-0.4-3.7-1.1c-0.8-0.7-1.2-1.6-1.2-2.7h2.8
					c0.1,0.5,0.2,0.8,0.4,1.1c0.3,0.4,1,0.6,1.9,0.6c0.5,0,1-0.1,1.3-0.2s0.5-0.4,0.5-0.7s-0.1-0.5-0.4-0.7
					c-0.3-0.2-1.2-0.4-2.9-0.8c-1.2-0.3-2.1-0.7-2.5-1.1c-0.5-0.4-0.7-1.1-0.7-1.9c0-1,0.4-1.8,1.2-2.5c0.8-0.7,1.9-1.1,3.3-1.1
					C33.1-64.9,34.2-64.7,35.1-64.2z"/>
				<path class="st6" d="M43.7-56v2.1h-1.3c-1.3,0-2.2-0.2-2.7-0.7c-0.3-0.3-0.5-0.8-0.5-1.5v-6.6h-1.5v-2h1.5v-3H42v3h1.7v2H42v5.6
					c0,0.4,0.1,0.7,0.2,0.8c0.1,0.1,0.4,0.2,1,0.2c0.1,0,0.2,0,0.3,0C43.5-56,43.6-56,43.7-56z"/>
				<path class="st6" d="M51.5-61.7c-0.2-0.5-0.7-0.8-1.4-0.8c-0.8,0-1.3,0.3-1.6,0.8c-0.1,0.3-0.2,0.7-0.2,1.3v6.4h-2.8v-10.6h2.7
					v1.6c0.3-0.6,0.7-0.9,1-1.2c0.5-0.4,1.2-0.6,2.1-0.6c0.8,0,1.5,0.2,2,0.5c0.4,0.3,0.7,0.8,0.9,1.3c0.4-0.6,0.8-1.1,1.4-1.4
					c0.6-0.3,1.2-0.4,1.9-0.4c0.5,0,0.9,0.1,1.4,0.3c0.5,0.2,0.9,0.5,1.2,1c0.3,0.4,0.5,0.8,0.6,1.4c0.1,0.4,0.1,0.9,0.1,1.6v6.7
					h-2.9v-6.8c0-0.4-0.1-0.7-0.2-1c-0.2-0.5-0.7-0.7-1.4-0.7c-0.8,0-1.3,0.3-1.6,1c-0.1,0.3-0.2,0.7-0.2,1.2v6.3h-2.8v-6.3
					C51.7-61,51.6-61.4,51.5-61.7z"/>
				<path class="st6" d="M72.4-57.1c-0.1,0.6-0.4,1.3-1,1.9c-0.9,1-2.2,1.6-3.8,1.6c-1.4,0-2.5-0.4-3.6-1.3s-1.6-2.3-1.6-4.3
					c0-1.8,0.5-3.3,1.4-4.2c0.9-1,2.1-1.5,3.6-1.5c0.9,0,1.7,0.2,2.4,0.5c0.7,0.3,1.3,0.9,1.8,1.6c0.4,0.6,0.7,1.4,0.8,2.2
					c0.1,0.5,0.1,1.2,0.1,2.1h-7.3c0,1.1,0.4,1.8,1,2.2c0.4,0.3,0.8,0.4,1.4,0.4s1-0.2,1.4-0.5c0.2-0.2,0.4-0.4,0.5-0.7
					C69.5-57.1,72.4-57.1,72.4-57.1z M69.7-60.4c0-0.7-0.3-1.3-0.7-1.7s-0.9-0.6-1.5-0.6s-1.1,0.2-1.5,0.6c-0.4,0.4-0.6,1-0.7,1.6
					h4.4V-60.4z"/>
				<path class="st6" d="M79.4-62.6c-0.9,0-1.6,0.4-1.9,1.2c-0.2,0.4-0.3,1-0.3,1.6v5.8h-2.8v-10.6h2.7v1.6c0.4-0.5,0.7-0.9,1-1.2
					c0.6-0.4,1.3-0.6,2.2-0.6c1.1,0,2,0.3,2.7,0.9s1,1.5,1,2.9v7.2h-2.9v-6.5c0-0.6-0.1-1-0.2-1.3C80.7-62.3,80.2-62.6,79.4-62.6z"
					/>
				<path class="st6" d="M91.5-56v2.1h-1.3c-1.3,0-2.2-0.2-2.7-0.7C87.2-54.9,87-55.3,87-56v-6.6h-1.5v-2H87v-3h2.8v3h1.7v2h-1.7
					v5.6c0,0.4,0.1,0.7,0.2,0.8s0.4,0.2,1,0.2c0.1,0,0.2,0,0.3,0C91.3-56,91.4-56,91.5-56z"/>
			</g>
		</g>
	</g>
</g>
<g id="g-root-tx_brainadj_4nk0y11ap5dsa-stroke" transform="translate(481.88330078125, 158)">
</g>
<g id="g-root-tx_adjusted_1d2dj9l1ap5dl8-fill" transform="translate(683.4166870117188, 158)">
	<g id="tx_adjusted_1d2dj9l1ap5dl8-fill-merged">
		<g>
			<g class="st5">
				<path class="st6" d="M-8-81h-5.3l-1,3h-3.1l5.1-14.4H-9L-3.9-78h-3.3L-8-81z M-8.9-83.4l-1.8-5.7l-1.9,5.7H-8.9z"/>
				<path class="st6" d="M7.4-92.4V-78H4.7v-1.5c-0.4,0.6-0.8,1.1-1.4,1.4s-1.1,0.4-1.9,0.4c-1.2,0-2.3-0.5-3.1-1.5S-3-81.5-3-83.1
					c0-1.8,0.4-3.2,1.3-4.3c0.8-1,2-1.6,3.4-1.6c0.6,0,1.2,0.1,1.7,0.4s0.9,0.7,1.2,1.2v-5.1L7.4-92.4L7.4-92.4z M-0.1-83.3
					c0,1,0.2,1.8,0.6,2.4s1,0.9,1.8,0.9s1.4-0.3,1.8-0.9s0.6-1.3,0.6-2.3c0-1.3-0.3-2.2-1-2.8c-0.4-0.3-0.9-0.5-1.4-0.5
					c-0.8,0-1.4,0.3-1.8,0.9S-0.1-84.2-0.1-83.3z"/>
				<path class="st6" d="M10.1-88.6h2.8v11.7c0,1.1-0.2,1.9-0.6,2.4c-0.4,0.5-1.3,0.8-2.5,0.8c-0.1,0-0.2,0-0.4,0s-0.4,0-0.6,0V-76
					c0.2,0,0.3,0,0.3,0c0.1,0,0.1,0,0.2,0c0.3,0,0.5-0.1,0.6-0.2s0.2-0.4,0.2-0.8V-88.6z M10.1-92.5h2.8v2.6h-2.8V-92.5z"/>
				<path class="st6" d="M22.3-79.5c0,0-0.1,0.1-0.2,0.3c-0.1,0.2-0.2,0.3-0.4,0.4c-0.4,0.4-0.9,0.7-1.3,0.8
					c-0.4,0.1-0.9,0.2-1.4,0.2c-1.6,0-2.6-0.6-3.2-1.7c-0.3-0.6-0.5-1.5-0.5-2.8v-6.4h2.9v6.4c0,0.6,0.1,1.1,0.2,1.4
					c0.3,0.5,0.8,0.8,1.5,0.8c1,0,1.6-0.4,2-1.2c0.2-0.4,0.3-1,0.3-1.7v-5.8H25V-78h-2.7V-79.5z"/>
				<path class="st6" d="M35.1-88.2c0.8,0.5,1.3,1.5,1.4,2.8h-2.8c0-0.4-0.1-0.6-0.3-0.8c-0.3-0.4-0.8-0.6-1.6-0.6
					c-0.6,0-1,0.1-1.3,0.3c-0.3,0.2-0.4,0.4-0.4,0.7c0,0.3,0.1,0.5,0.4,0.7c0.3,0.1,1.2,0.4,2.9,0.8c1.1,0.3,1.9,0.7,2.5,1.2
					c0.5,0.5,0.8,1.2,0.8,2c0,1.1-0.4,1.9-1.2,2.6s-2,1-3.6,1c-1.7,0-2.9-0.4-3.7-1.1c-0.8-0.7-1.2-1.6-1.2-2.7h2.8
					c0.1,0.5,0.2,0.8,0.4,1.1c0.3,0.4,1,0.6,1.9,0.6c0.5,0,1-0.1,1.3-0.2s0.5-0.4,0.5-0.7c0-0.3-0.1-0.5-0.4-0.7
					c-0.3-0.2-1.2-0.4-2.9-0.8c-1.2-0.3-2.1-0.7-2.5-1.1c-0.5-0.4-0.7-1.1-0.7-1.9c0-1,0.4-1.8,1.2-2.5s1.9-1.1,3.3-1.1
					C33.1-88.9,34.2-88.7,35.1-88.2z"/>
				<path class="st6" d="M43.7-80v2.1h-1.3c-1.3,0-2.2-0.2-2.7-0.7c-0.3-0.3-0.5-0.8-0.5-1.5v-6.6h-1.5v-2h1.5v-3H42v3h1.7v2H42v5.6
					c0,0.4,0.1,0.7,0.2,0.8c0.1,0.1,0.4,0.2,1,0.2c0.1,0,0.2,0,0.3,0C43.5-80,43.6-80,43.7-80z"/>
				<path class="st6" d="M54.6-81.1c-0.1,0.6-0.4,1.3-1,1.9c-0.9,1-2.2,1.6-3.8,1.6c-1.4,0-2.5-0.4-3.6-1.3s-1.6-2.3-1.6-4.3
					c0-1.8,0.5-3.3,1.4-4.2c0.9-1,2.1-1.5,3.6-1.5c0.9,0,1.7,0.2,2.4,0.5s1.3,0.9,1.8,1.6c0.4,0.6,0.7,1.4,0.8,2.2
					c0.1,0.5,0.1,1.2,0.1,2.1h-7.3c0,1.1,0.4,1.8,1,2.2c0.4,0.3,0.8,0.4,1.4,0.4c0.6,0,1-0.2,1.4-0.5c0.2-0.2,0.4-0.4,0.5-0.7
					C51.7-81.1,54.6-81.1,54.6-81.1z M51.9-84.4c0-0.7-0.3-1.3-0.7-1.7s-0.9-0.6-1.5-0.6s-1.1,0.2-1.5,0.6s-0.6,1-0.7,1.6L51.9-84.4
					L51.9-84.4z"/>
				<path class="st6" d="M66.3-92.4V-78h-2.7v-1.5c-0.4,0.6-0.8,1.1-1.4,1.4s-1.1,0.4-1.9,0.4c-1.2,0-2.3-0.5-3.1-1.5S56-81.5,56-83
					c0-1.8,0.4-3.2,1.3-4.3c0.8-1,2-1.6,3.4-1.6c0.6,0,1.2,0.1,1.7,0.4s0.9,0.7,1.2,1.2v-5.1H66.3z M58.8-83.3c0,1,0.2,1.8,0.6,2.4
					c0.4,0.6,1,0.9,1.8,0.9s1.4-0.3,1.8-0.9s0.6-1.3,0.6-2.3c0-1.3-0.3-2.2-1-2.8c-0.4-0.3-0.9-0.5-1.4-0.5c-0.8,0-1.4,0.3-1.8,0.9
					S58.8-84.2,58.8-83.3z"/>
			</g>
			<g class="st5">
				<path class="st6" d="M-2.1-56.1c0.7,0,1.3-0.1,1.7-0.2c0.8-0.3,1.3-0.9,1.3-1.7c0-0.5-0.2-0.8-0.6-1.1s-1.1-0.5-2-0.7l-1.5-0.3
					c-1.5-0.3-2.5-0.7-3.1-1.1c-1-0.7-1.5-1.7-1.5-3.1c0-1.3,0.5-2.4,1.4-3.2s2.3-1.3,4.1-1.3c1.5,0,2.8,0.4,3.9,1.2
					c1.1,0.8,1.6,2,1.7,3.5H0.5C0.4-65,0-65.6-0.7-66c-0.5-0.2-1.1-0.4-1.7-0.4c-0.8,0-1.4,0.2-1.9,0.5C-4.7-65.5-5-65.1-5-64.5
					c0,0.5,0.2,0.9,0.7,1.2c0.3,0.2,0.9,0.4,1.9,0.6l2.5,0.6c1.1,0.3,1.9,0.6,2.5,1c0.9,0.7,1.3,1.7,1.3,2.9c0,1.3-0.5,2.4-1.5,3.3
					S0-53.6-1.9-53.6s-3.3-0.4-4.4-1.3s-1.6-2-1.6-3.5H-5c0.1,0.7,0.3,1.1,0.5,1.5C-4.1-56.4-3.3-56.1-2.1-56.1z"/>
				<path class="st6" d="M14.7-63.5c0.9,0.9,1.3,2.3,1.3,4c0,1.9-0.4,3.3-1.3,4.3c-0.8,1-1.9,1.5-3.3,1.5c-0.8,0-1.5-0.2-2.1-0.6
					c-0.3-0.2-0.6-0.6-0.9-1v5.5H5.7v-14.8h2.7v1.6c0.3-0.5,0.6-0.8,1-1.1c0.6-0.5,1.4-0.7,2.2-0.7C12.8-64.9,13.9-64.4,14.7-63.5z
					 M13.2-59.3c0-0.8-0.2-1.5-0.6-2.2c-0.4-0.6-1-0.9-1.8-0.9c-1,0-1.7,0.5-2.1,1.4c-0.2,0.5-0.3,1.2-0.3,1.9c0,1.2,0.3,2.1,1,2.6
					c0.4,0.3,0.9,0.4,1.4,0.4c0.8,0,1.4-0.3,1.8-0.9C13-57.5,13.2-58.3,13.2-59.3z"/>
				<path class="st6" d="M27.1-57.1c-0.1,0.6-0.4,1.3-1,1.9c-0.9,1-2.2,1.6-3.8,1.6c-1.4,0-2.5-0.4-3.6-1.3s-1.6-2.3-1.6-4.3
					c0-1.8,0.5-3.3,1.4-4.2c0.9-1,2.1-1.5,3.6-1.5c0.9,0,1.7,0.2,2.4,0.5c0.7,0.3,1.3,0.9,1.8,1.6c0.4,0.6,0.7,1.4,0.8,2.2
					c0.1,0.5,0.1,1.2,0.1,2.1H20c0,1.1,0.4,1.8,1,2.2c0.4,0.3,0.8,0.4,1.4,0.4s1-0.2,1.4-0.5c0.2-0.2,0.4-0.4,0.5-0.7
					C24.3-57.1,27.1-57.1,27.1-57.1z M24.4-60.4c0-0.7-0.3-1.3-0.7-1.7s-0.9-0.6-1.5-0.6s-1.1,0.2-1.5,0.6c-0.4,0.4-0.6,1-0.7,1.6
					h4.4V-60.4z"/>
				<path class="st6" d="M38.3-57.1c-0.1,0.6-0.4,1.3-1,1.9c-0.9,1-2.2,1.6-3.8,1.6c-1.4,0-2.5-0.4-3.6-1.3s-1.6-2.3-1.6-4.3
					c0-1.8,0.5-3.3,1.4-4.2c0.9-1,2.1-1.5,3.6-1.5c0.9,0,1.7,0.2,2.4,0.5s1.3,0.9,1.8,1.6c0.4,0.6,0.7,1.4,0.8,2.2
					c0.1,0.5,0.1,1.2,0.1,2.1h-7.3c0,1.1,0.4,1.8,1,2.2c0.4,0.3,0.8,0.4,1.4,0.4c0.6,0,1-0.2,1.4-0.5c0.2-0.2,0.4-0.4,0.5-0.7
					C35.4-57.1,38.3-57.1,38.3-57.1z M35.5-60.4c0-0.7-0.3-1.3-0.7-1.7s-0.9-0.6-1.5-0.6s-1.1,0.2-1.5,0.6c-0.4,0.4-0.6,1-0.7,1.6
					h4.4V-60.4z"/>
				<path class="st6" d="M49.5-60.8h-2.9c-0.1-0.4-0.2-0.8-0.4-1.1c-0.3-0.4-0.8-0.6-1.5-0.6c-0.9,0-1.6,0.5-1.9,1.4
					c-0.2,0.5-0.3,1.2-0.3,2s0.1,1.4,0.3,1.9c0.3,0.9,1,1.3,1.9,1.3c0.7,0,1.1-0.2,1.4-0.5s0.4-0.8,0.5-1.4h2.8
					c-0.1,0.8-0.4,1.6-0.9,2.4c-0.9,1.2-2.2,1.8-3.9,1.8s-3-0.5-3.8-1.5s-1.2-2.3-1.2-4c0-1.8,0.4-3.3,1.3-4.3
					c0.9-1,2.1-1.5,3.7-1.5c1.3,0,2.4,0.3,3.3,0.9S49.3-62.3,49.5-60.8z"/>
				<path class="st6" d="M61-60.2v6.2h-2.8v-6.5c0-0.6-0.1-1-0.3-1.4c-0.3-0.5-0.7-0.7-1.4-0.7s-1.3,0.2-1.7,0.7s-0.6,1.2-0.6,2.1
					v5.8h-2.8v-14.3h2.8v5.1c0.4-0.6,0.9-1,1.4-1.3c0.5-0.2,1.1-0.4,1.7-0.4c0.7,0,1.3,0.1,1.8,0.3s1,0.6,1.3,1s0.5,0.8,0.5,1.2
					C61-61.9,61-61.2,61-60.2z"/>
			</g>
		</g>
	</g>
</g>
<g id="g-root-tx_adjusted_1d2dj9l1ap5dl8-stroke" transform="translate(683.4166870117188, 158)">
</g>
<g id="g-root-tx_rapidunc_18kolvt1ap5fd3-fill" transform="translate(84.16665649414062, 218)">
	<g id="tx_rapidunc_18kolvt1ap5fd3-fill-merged">
		<g>
			<g>
				<g class="st5">
					<path class="st6" d="M-9.8-94.7h3c0.7,0,1.3,0.1,1.7,0.4s0.8,0.6,1.1,1.1c0.2,0.5,0.4,1.1,0.4,1.8c0,0.5-0.1,0.9-0.2,1.3
						c-0.2,0.4-0.4,0.7-0.7,1s-0.7,0.5-1.1,0.6L-6-88.3h-2.7v-1.1h1.9c0.4,0,0.8-0.1,1-0.3c0.3-0.2,0.5-0.4,0.6-0.7S-5-91-5-91.4
						s-0.1-0.8-0.2-1.1s-0.3-0.5-0.6-0.7s-0.6-0.3-1.1-0.3h-1.6v9.5h-1.3V-94.7z M-4.7-84l-2.1-4.8h1.4l2.2,4.8v0.1L-4.7-84L-4.7-84
						z"/>
					<path class="st6" d="M2-88.8v1H1.1c-0.3,0-0.6,0-0.8,0.1s-0.5,0.2-0.6,0.3c-0.2,0.1-0.3,0.3-0.4,0.5s-0.1,0.4-0.1,0.7
						c0,0.3,0,0.6,0.1,0.8c0.1,0.2,0.2,0.3,0.4,0.4s0.3,0,0.6,0s0.6-0.1,0.9-0.2s0.4-0.3,0.6-0.5C1.9-85.9,2-86.1,2-86.3l0.3,0.6
						c0,0.2-0.1,0.4-0.2,0.6s-0.2,0.4-0.4,0.6C1.5-84.3,1.3-84.1,1-84s-0.5,0.2-0.8,0.2c-0.5,0-0.9-0.1-1.2-0.3
						c-0.3-0.2-0.6-0.4-0.8-0.8s-0.3-0.8-0.3-1.3c0-0.4,0.1-0.7,0.2-1.1s0.3-0.6,0.6-0.8c0.3-0.2,0.6-0.4,1-0.6
						c0.4-0.1,0.8-0.2,1.4-0.2H2V-88.8z M1.8-85.4v-4.3c0-0.3,0-0.6-0.1-0.8c-0.1-0.2-0.2-0.3-0.4-0.4S0.8-91,0.5-91
						S0-90.9-0.2-90.8s-0.3,0.3-0.5,0.4c-0.1,0.2-0.2,0.4-0.2,0.6h-1.3c0-0.3,0.1-0.6,0.2-0.8c0.1-0.3,0.3-0.5,0.5-0.8
						c0.2-0.2,0.5-0.4,0.8-0.5s0.7-0.2,1.1-0.2c0.5,0,0.9,0.1,1.3,0.2c0.4,0.2,0.7,0.4,0.9,0.8s0.3,0.8,0.3,1.4v3.9
						c0,0.3,0,0.5,0.1,0.8c0,0.3,0.1,0.6,0.2,0.8v0.1H2c-0.1-0.2-0.1-0.4-0.1-0.6C1.8-84.9,1.8-85.1,1.8-85.4z"/>
					<path class="st6" d="M6.4-90.4v9.4H5.1v-11h1.2L6.4-90.4z M10.9-88.3v0.7c0,0.6-0.1,1.2-0.2,1.6c-0.1,0.5-0.3,0.9-0.5,1.2
						c-0.2,0.3-0.5,0.5-0.8,0.7s-0.7,0.2-1.1,0.2S7.5-84,7.2-84.1c-0.3-0.2-0.6-0.4-0.8-0.7S6-85.5,5.9-85.9s-0.2-0.9-0.2-1.4v-1.1
						c0-0.6,0.1-1.1,0.2-1.5s0.3-0.8,0.5-1.1c0.2-0.3,0.5-0.6,0.8-0.7s0.7-0.2,1.1-0.2c0.4,0,0.8,0.1,1.1,0.2s0.6,0.4,0.8,0.7
						c0.2,0.3,0.4,0.7,0.5,1.2C10.8-89.5,10.9-89,10.9-88.3z M9.6-87.6v-0.7c0-0.4,0-0.8-0.1-1.1c-0.1-0.3-0.2-0.6-0.3-0.8
						c-0.1-0.2-0.3-0.4-0.5-0.5s-0.5-0.2-0.8-0.2c-0.3,0-0.5,0.1-0.7,0.2s-0.4,0.3-0.5,0.4c-0.1,0.2-0.3,0.4-0.4,0.6
						S6.1-89.2,6.1-89v2.2c0.1,0.3,0.2,0.6,0.3,0.9s0.3,0.5,0.6,0.7C7.2-85,7.5-85,7.8-85c0.3,0,0.6-0.1,0.8-0.2s0.4-0.3,0.5-0.5
						s0.2-0.5,0.3-0.8S9.6-87.1,9.6-87.6z"/>
					<path class="st6" d="M12.6-94c0-0.2,0.1-0.4,0.2-0.6c0.1-0.2,0.3-0.2,0.5-0.2s0.4,0.1,0.6,0.2C14-94.4,14-94.2,14-94
						s-0.1,0.4-0.2,0.5c-0.1,0.1-0.3,0.2-0.6,0.2s-0.4-0.1-0.5-0.2S12.6-93.8,12.6-94z M13.9-91.9v7.9h-1.3v-7.9H13.9z"/>
					<path class="st6" d="M15.7-87.6v-0.7c0-0.7,0.1-1.2,0.2-1.7s0.3-0.9,0.5-1.2c0.2-0.3,0.5-0.5,0.8-0.7s0.7-0.2,1.1-0.2
						s0.8,0.1,1.1,0.2c0.3,0.2,0.5,0.4,0.7,0.7c0.2,0.3,0.4,0.7,0.5,1.1s0.2,1,0.2,1.5v1c0,0.6-0.1,1.1-0.2,1.5s-0.3,0.8-0.5,1.1
						c-0.2,0.3-0.4,0.6-0.7,0.7c-0.3,0.1-0.7,0.2-1.1,0.2s-0.7-0.1-1.1-0.2c-0.3-0.2-0.6-0.4-0.8-0.7c-0.2-0.3-0.4-0.7-0.5-1.2
						C15.7-86.4,15.7-87,15.7-87.6z M17-88.3v0.7c0,0.4,0,0.8,0.1,1.1c0.1,0.3,0.2,0.6,0.3,0.8c0.1,0.2,0.3,0.4,0.5,0.5
						s0.5,0.2,0.8,0.2c0.4,0,0.7-0.1,0.9-0.3c0.2-0.2,0.4-0.4,0.6-0.7c0.1-0.3,0.2-0.6,0.3-0.9V-89c0-0.2-0.1-0.5-0.2-0.7
						s-0.2-0.4-0.3-0.6s-0.3-0.3-0.5-0.4s-0.4-0.2-0.7-0.2c-0.3,0-0.6,0.1-0.8,0.2c-0.2,0.1-0.4,0.3-0.5,0.5s-0.2,0.5-0.3,0.8
						C17-89.1,17-88.8,17-88.3z M20.1-85.5v-9.7h1.3V-84h-1.2L20.1-85.5z"/>
					<path class="st6" d="M24.7-85.6v1.1c0,0.4-0.1,0.9-0.3,1.4c-0.2,0.5-0.5,0.9-0.9,1.2l-0.8-0.5c0.2-0.2,0.3-0.4,0.4-0.7
						c0.1-0.2,0.2-0.5,0.2-0.7c0.1-0.2,0.1-0.5,0.1-0.8v-1.1L24.7-85.6L24.7-85.6z"/>
					<path class="st6" d="M34-87.5h0.5c0,0.5,0,1-0.1,1.5c-0.1,0.4-0.2,0.8-0.4,1.2c-0.2,0.3-0.5,0.6-0.8,0.8
						c-0.3,0.2-0.7,0.3-1.2,0.3c-0.3,0-0.6-0.1-0.9-0.2s-0.5-0.3-0.7-0.5s-0.3-0.5-0.4-0.9s-0.2-0.8-0.2-1.4v-5.1h1.3v5.1
						c0,0.4,0,0.7,0.1,0.9c0.1,0.2,0.1,0.4,0.3,0.5c0.1,0.1,0.2,0.2,0.4,0.3c0.2,0.1,0.1,0,0.3,0c0.5,0,0.8-0.1,1.1-0.3
						c0.3-0.2,0.5-0.5,0.6-0.9C34-86.6,34-87,34-87.5z M33.8-85.8v-6.1h1.3v7.9h-1.2L33.8-85.8z"/>
					<path class="st6" d="M38.3-90.2v6.2H37v-7.9h1.2L38.3-90.2z M38-88.3h-0.5c0-0.5,0.1-1,0.2-1.5c0.1-0.5,0.3-0.9,0.6-1.2
						c0.2-0.3,0.5-0.6,0.9-0.8c0.3-0.2,0.7-0.3,1.1-0.3c0.3,0,0.6,0.1,0.9,0.2c0.3,0.1,0.5,0.3,0.7,0.5s0.3,0.5,0.4,0.9
						c0.1,0.4,0.1,0.8,0.1,1.3v5.2h-1.3v-5.2c0-0.4,0-0.7-0.1-1s-0.2-0.4-0.4-0.5s-0.4-0.2-0.7-0.2s-0.5,0.1-0.7,0.2
						s-0.4,0.3-0.6,0.6c-0.2,0.2-0.3,0.5-0.4,0.9C38.1-89,38-88.6,38-88.3z"/>
					<path class="st6" d="M47.1-85c0.3,0,0.5-0.1,0.7-0.2s0.4-0.3,0.5-0.5s0.2-0.5,0.2-0.9h1.2c0,0.5-0.2,1-0.4,1.4s-0.6,0.7-1,0.9
						C47.9-84.1,47.5-84,47-84s-1-0.1-1.3-0.2s-0.7-0.4-0.9-0.7c-0.2-0.3-0.4-0.7-0.6-1.1c-0.1-0.5-0.2-1-0.2-1.5v-0.9
						c0-0.6,0.1-1.1,0.2-1.5c0.1-0.5,0.3-0.8,0.6-1.1c0.2-0.3,0.6-0.6,0.9-0.7s0.8-0.2,1.3-0.2s1,0.1,1.4,0.3c0.4,0.2,0.7,0.6,0.9,1
						s0.3,0.9,0.4,1.5h-1.2c0-0.4-0.1-0.7-0.2-1c-0.1-0.3-0.3-0.5-0.5-0.6s-0.5-0.2-0.8-0.2s-0.6,0.1-0.8,0.2s-0.4,0.3-0.5,0.5
						s-0.2,0.5-0.3,0.8s-0.1,0.7-0.1,1v0.9c0,0.4,0,0.7,0.1,1.1c0.1,0.3,0.1,0.6,0.3,0.8c0.1,0.2,0.3,0.4,0.5,0.5
						C46.4-85,46.7-85,47.1-85z"/>
					<path class="st6" d="M51-87.6v-0.8c0-0.6,0.1-1.2,0.2-1.6c0.2-0.5,0.4-0.9,0.7-1.2c0.3-0.3,0.6-0.5,1-0.7s0.8-0.2,1.2-0.2
						s0.8,0.1,1.2,0.2c0.4,0.2,0.7,0.4,1,0.7c0.3,0.3,0.5,0.7,0.7,1.2s0.2,1,0.2,1.6v0.8c0,0.6-0.1,1.2-0.2,1.6
						c-0.2,0.5-0.4,0.9-0.7,1.2s-0.6,0.5-1,0.7s-0.8,0.2-1.2,0.2s-0.8-0.1-1.2-0.2s-0.7-0.4-1-0.7s-0.5-0.7-0.7-1.2
						C51.1-86.4,51-87,51-87.6z M52.3-88.3v0.8c0,0.4,0,0.8,0.1,1.1c0.1,0.3,0.2,0.6,0.4,0.8c0.2,0.2,0.3,0.4,0.6,0.5
						C53.6-85,53.8-85,54-85c0.3,0,0.6-0.1,0.8-0.2s0.4-0.3,0.6-0.5c0.1-0.2,0.3-0.5,0.3-0.8c0.1-0.3,0.1-0.7,0.1-1.1v-0.8
						c0-0.4,0-0.8-0.1-1.1c-0.1-0.3-0.2-0.6-0.4-0.8c-0.2-0.2-0.4-0.4-0.6-0.5S54.3-91,54-91c-0.2,0-0.5,0.1-0.7,0.2
						s-0.4,0.3-0.6,0.5c-0.2,0.2-0.3,0.5-0.4,0.8C52.3-89.2,52.3-88.8,52.3-88.3z"/>
					<path class="st6" d="M60.1-90.2v6.2h-1.3v-7.9H60L60.1-90.2z M59.8-88.3h-0.5c0-0.5,0.1-1,0.2-1.5c0.1-0.5,0.3-0.9,0.6-1.2
						c0.2-0.3,0.5-0.6,0.9-0.8c0.3-0.2,0.7-0.3,1.1-0.3c0.3,0,0.6,0.1,0.9,0.2c0.3,0.1,0.5,0.3,0.7,0.5s0.3,0.5,0.4,0.9
						s0.1,0.8,0.1,1.3v5.2h-1.3v-5.2c0-0.4,0-0.7-0.1-1s-0.2-0.4-0.4-0.5s-0.4-0.2-0.7-0.2s-0.5,0.1-0.7,0.2s-0.4,0.3-0.6,0.6
						c-0.2,0.2-0.3,0.5-0.4,0.9C59.8-89,59.8-88.6,59.8-88.3z"/>
					<path class="st6" d="M68.9-91.9v1h-3.7v-1H68.9z M66.4-93.9h1.3v7.9c0,0.3,0,0.5,0.1,0.6s0.1,0.2,0.3,0.3
						c0.2,0.1,0.2,0.1,0.3,0.1s0.2,0,0.3,0s0.2,0,0.2-0.1v1.1c-0.1,0-0.2,0.1-0.4,0.1c-0.1,0-0.3,0-0.6,0c-0.3,0-0.5-0.1-0.8-0.2
						c-0.2-0.1-0.4-0.4-0.6-0.7c-0.1-0.3-0.2-0.7-0.2-1.3L66.4-93.9L66.4-93.9z"/>
					<path class="st6" d="M71.8-90.7v6.7h-1.3v-7.9h1.3V-90.7z M73.7-92v1.3c-0.1,0-0.2,0-0.3,0c-0.1,0-0.2,0-0.3,0
						c-0.2,0-0.5,0-0.6,0.1c-0.2,0.1-0.3,0.2-0.5,0.4s-0.2,0.4-0.3,0.6c-0.1,0.2-0.1,0.5-0.2,0.8l-0.3,0.2c0-0.5,0-0.9,0.1-1.3
						s0.2-0.8,0.4-1.1c0.2-0.3,0.4-0.6,0.6-0.8c0.3-0.2,0.6-0.3,0.9-0.3c0.1,0,0.2,0,0.3,0C73.6-92,73.7-92,73.7-92z"/>
					<path class="st6" d="M74.8-87.6v-0.8c0-0.6,0.1-1.2,0.2-1.6c0.2-0.5,0.4-0.9,0.7-1.2c0.3-0.3,0.6-0.5,1-0.7s0.8-0.2,1.2-0.2
						c0.4,0,0.8,0.1,1.2,0.2c0.4,0.2,0.7,0.4,1,0.7c0.3,0.3,0.5,0.7,0.7,1.2s0.2,1,0.2,1.6v0.8c0,0.6-0.1,1.2-0.2,1.6
						c-0.2,0.5-0.4,0.9-0.7,1.2s-0.6,0.5-1,0.7s-0.8,0.2-1.2,0.2s-0.8-0.1-1.2-0.2s-0.7-0.4-1-0.7S75.2-85.5,75-86
						C74.9-86.4,74.8-87,74.8-87.6z M76.1-88.3v0.8c0,0.4,0,0.8,0.1,1.1c0.1,0.3,0.2,0.6,0.4,0.8c0.2,0.2,0.3,0.4,0.6,0.5
						c0.2,0.1,0.4,0.2,0.7,0.2c0.3,0,0.6-0.1,0.8-0.2c0.2-0.1,0.4-0.3,0.6-0.5c0.1-0.2,0.3-0.5,0.3-0.8c0.1-0.3,0.1-0.7,0.1-1.1
						v-0.8c0-0.4,0-0.8-0.1-1.1c-0.1-0.3-0.2-0.6-0.4-0.8c-0.2-0.2-0.4-0.4-0.6-0.5s-0.5-0.2-0.7-0.2s-0.5,0.1-0.7,0.2
						s-0.4,0.3-0.6,0.5s-0.3,0.5-0.4,0.8C76.1-89.2,76.1-88.8,76.1-88.3z"/>
					<path class="st6" d="M84-95.2V-84h-1.3v-11.2H84z"/>
					<path class="st6" d="M87.4-95.2V-84h-1.3v-11.2H87.4z"/>
					<path class="st6" d="M92.3-83.9c-0.5,0-0.9-0.1-1.3-0.2s-0.7-0.4-1-0.6c-0.3-0.3-0.5-0.7-0.6-1.1s-0.2-1-0.2-1.6v-0.9
						c0-0.7,0.1-1.3,0.2-1.8c0.2-0.5,0.4-0.9,0.7-1.2c0.3-0.3,0.6-0.5,0.9-0.6c0.4-0.1,0.7-0.2,1.1-0.2c0.5,0,0.9,0.1,1.3,0.2
						c0.4,0.2,0.6,0.4,0.9,0.7s0.4,0.7,0.5,1.2s0.2,1,0.2,1.6v0.8h-5v-1.1h3.7v-0.2c0-0.4-0.1-0.8-0.2-1.1c-0.1-0.3-0.2-0.6-0.4-0.7
						c-0.2-0.2-0.5-0.3-0.9-0.3c-0.2,0-0.5,0-0.7,0.1s-0.4,0.2-0.5,0.4c-0.1,0.2-0.3,0.5-0.3,0.8c-0.1,0.3-0.1,0.8-0.1,1.3v0.9
						c0,0.4,0,0.8,0.1,1.1c0.1,0.3,0.2,0.6,0.4,0.8c0.2,0.2,0.4,0.3,0.6,0.4s0.5,0.1,0.8,0.1c0.4,0,0.8-0.1,1.1-0.3
						c0.3-0.2,0.5-0.4,0.7-0.6l0.7,0.8c-0.1,0.2-0.3,0.4-0.6,0.6c-0.2,0.2-0.5,0.3-0.8,0.4C93.2-83.9,92.8-83.9,92.3-83.9z"/>
					<path class="st6" d="M96.2-87.6v-0.7c0-0.7,0.1-1.2,0.2-1.7s0.3-0.9,0.5-1.2c0.2-0.3,0.5-0.5,0.8-0.7s0.7-0.2,1.1-0.2
						s0.8,0.1,1.1,0.2c0.3,0.2,0.5,0.4,0.7,0.7c0.2,0.3,0.4,0.7,0.5,1.1s0.2,1,0.2,1.5v1c0,0.6-0.1,1.1-0.2,1.5s-0.3,0.8-0.5,1.1
						s-0.4,0.6-0.7,0.7s-0.7,0.2-1.1,0.2s-0.7-0.1-1.1-0.2c-0.3-0.2-0.6-0.4-0.8-0.7c-0.2-0.3-0.4-0.7-0.5-1.2
						C96.3-86.4,96.2-87,96.2-87.6z M97.5-88.3v0.7c0,0.4,0,0.8,0.1,1.1c0.1,0.3,0.2,0.6,0.3,0.8c0.1,0.2,0.3,0.4,0.5,0.5
						s0.5,0.2,0.8,0.2c0.4,0,0.7-0.1,0.9-0.3s0.4-0.4,0.6-0.7c0.1-0.3,0.2-0.6,0.3-0.9V-89c0-0.2-0.1-0.5-0.2-0.7s-0.2-0.4-0.3-0.6
						c-0.1-0.2-0.3-0.3-0.5-0.4s-0.4-0.2-0.7-0.2c-0.3,0-0.6,0.1-0.8,0.2c-0.2,0.1-0.4,0.3-0.5,0.5s-0.2,0.5-0.3,0.8
						C97.5-89.1,97.5-88.8,97.5-88.3z M100.6-85.5v-9.7h1.3V-84h-1.2L100.6-85.5z"/>
				</g>
			</g>
			<g>
				<g class="st5">
					<path class="st6" d="M33.7-68c0-0.2,0-0.4-0.1-0.5c-0.1-0.2-0.3-0.3-0.5-0.4s-0.5-0.3-0.9-0.5c-0.4-0.2-0.7-0.3-1-0.5
						c-0.3-0.1-0.5-0.3-0.7-0.5S30.1-70.8,30-71s-0.2-0.5-0.2-0.8s0.1-0.6,0.2-0.9s0.3-0.5,0.5-0.7s0.5-0.4,0.8-0.5s0.7-0.2,1-0.2
						c0.5,0,1,0.1,1.4,0.3c0.4,0.2,0.7,0.5,0.9,0.9s0.3,0.8,0.3,1.2h-1.3c0-0.2,0-0.4-0.1-0.6s-0.2-0.4-0.4-0.5S32.7-73,32.4-73
						s-0.5,0.1-0.7,0.2s-0.3,0.2-0.4,0.4c-0.1,0.2-0.1,0.3-0.1,0.5c0,0.1,0,0.3,0.1,0.4c0,0.1,0.1,0.2,0.2,0.3
						c0.1,0.1,0.2,0.2,0.4,0.3c0.2,0.1,0.4,0.2,0.7,0.3c0.5,0.2,1,0.4,1.4,0.6s0.6,0.5,0.8,0.8s0.3,0.6,0.3,1.1
						c0,0.3-0.1,0.7-0.2,0.9c-0.1,0.3-0.3,0.5-0.5,0.7s-0.5,0.4-0.8,0.5s-0.7,0.2-1.1,0.2c-0.6,0-1.1-0.1-1.5-0.4
						c-0.4-0.2-0.7-0.5-0.9-0.9c-0.2-0.4-0.3-0.8-0.3-1.2h1.3c0,0.4,0.1,0.7,0.3,0.9c0.2,0.2,0.3,0.3,0.6,0.4
						c0.3,0.1,0.4,0.1,0.7,0.1s0.5,0,0.7-0.1s0.3-0.2,0.4-0.4C33.9-67.6,33.7-67.8,33.7-68z"/>
					<path class="st6" d="M38-72.4v9.4h-1.3v-11h1.2L38-72.4z M42.4-70.3v0.7c0,0.6-0.1,1.2-0.2,1.6c-0.1,0.5-0.3,0.9-0.5,1.2
						c-0.2,0.3-0.5,0.5-0.8,0.7s-0.7,0.2-1.1,0.2S39-66,38.7-66.1c-0.3-0.2-0.6-0.4-0.8-0.7c-0.2-0.3-0.4-0.7-0.5-1.1
						s-0.2-0.9-0.2-1.4v-1.1c0-0.6,0.1-1.1,0.2-1.5c0.1-0.4,0.3-0.8,0.5-1.1c0.2-0.3,0.5-0.6,0.8-0.7s0.7-0.2,1.1-0.2
						s0.8,0.1,1.1,0.2s0.6,0.4,0.8,0.7c0.2,0.3,0.4,0.7,0.5,1.2C42.4-71.5,42.4-71,42.4-70.3z M41.1-69.6v-0.7c0-0.4,0-0.8-0.1-1.1
						c-0.1-0.3-0.2-0.6-0.3-0.8s-0.3-0.4-0.5-0.5s-0.5-0.2-0.8-0.2s-0.5,0.1-0.7,0.2s-0.4,0.3-0.5,0.4c-0.1,0.2-0.3,0.4-0.4,0.6
						c-0.1,0.2-0.2,0.5-0.2,0.7v2.2c0.1,0.3,0.2,0.6,0.3,0.9s0.3,0.5,0.6,0.7c0.2,0.2,0.5,0.3,0.9,0.3c0.3,0,0.6-0.1,0.8-0.2
						s0.4-0.3,0.5-0.5s0.2-0.5,0.3-0.8C41.1-68.8,41.1-69.1,41.1-69.6z"/>
					<path class="st6" d="M46.9-65.9c-0.5,0-0.9-0.1-1.3-0.2c-0.4-0.1-0.7-0.4-1-0.6c-0.3-0.3-0.5-0.7-0.6-1.1s-0.2-1-0.2-1.6v-0.9
						c0-0.7,0.1-1.3,0.2-1.8c0.2-0.5,0.4-0.9,0.7-1.2c0.3-0.3,0.6-0.5,0.9-0.6c0.4-0.1,0.7-0.2,1.1-0.2c0.5,0,0.9,0.1,1.3,0.2
						c0.4,0.2,0.6,0.4,0.9,0.7s0.4,0.7,0.5,1.2s0.2,1,0.2,1.6v0.8h-5v-1.1h3.7v-0.2c0-0.4-0.1-0.8-0.2-1.1c-0.1-0.3-0.2-0.6-0.4-0.7
						c-0.2-0.2-0.5-0.3-0.9-0.3c-0.2,0-0.5,0-0.7,0.1s-0.4,0.2-0.5,0.4c-0.1,0.2-0.3,0.5-0.3,0.8c-0.1,0.3-0.1,0.8-0.1,1.3v0.9
						c0,0.4,0,0.8,0.1,1.1c0.1,0.3,0.2,0.6,0.4,0.8c0.2,0.2,0.4,0.3,0.6,0.4C46.4-67,46.7-67,47-67c0.4,0,0.8-0.1,1.1-0.3
						c0.3-0.2,0.5-0.4,0.7-0.6l0.7,0.8c-0.1,0.2-0.3,0.4-0.6,0.6c-0.2,0.2-0.5,0.3-0.8,0.4C47.8-65.9,47.4-65.9,46.9-65.9z"/>
					<path class="st6" d="M54-65.9c-0.5,0-0.9-0.1-1.3-0.2c-0.4-0.1-0.7-0.4-1-0.6c-0.3-0.3-0.5-0.7-0.6-1.1s-0.2-1-0.2-1.6v-0.9
						c0-0.7,0.1-1.3,0.2-1.8c0.2-0.5,0.4-0.9,0.7-1.2c0.3-0.3,0.6-0.5,0.9-0.6c0.4-0.1,0.7-0.2,1.1-0.2c0.5,0,0.9,0.1,1.3,0.2
						c0.4,0.2,0.6,0.4,0.9,0.7s0.4,0.7,0.5,1.2s0.2,1,0.2,1.6v0.8h-5v-1.1h3.7v-0.2c0-0.4-0.1-0.8-0.2-1.1c-0.1-0.3-0.2-0.6-0.4-0.7
						c-0.2-0.2-0.5-0.3-0.9-0.3c-0.2,0-0.5,0-0.7,0.1s-0.4,0.2-0.5,0.4c-0.1,0.2-0.3,0.5-0.3,0.8c-0.1,0.3-0.1,0.8-0.1,1.3v0.9
						c0,0.4,0,0.8,0.1,1.1c0.1,0.3,0.2,0.6,0.4,0.8c0.2,0.2,0.4,0.3,0.6,0.4C53.5-67,53.7-67,54-67c0.4,0,0.8-0.1,1.1-0.3
						c0.3-0.2,0.5-0.4,0.7-0.6l0.7,0.8c-0.1,0.2-0.3,0.4-0.6,0.6c-0.2,0.2-0.5,0.3-0.8,0.4C54.8-65.9,54.4-65.9,54-65.9z"/>
					<path class="st6" d="M60.9-67c0.3,0,0.5-0.1,0.7-0.2s0.4-0.3,0.5-0.5s0.2-0.5,0.2-0.9h1.2c0,0.5-0.2,1-0.4,1.4s-0.6,0.7-1,0.9
						c-0.4,0.2-0.8,0.3-1.3,0.3s-1-0.1-1.3-0.2s-0.7-0.4-0.9-0.7c-0.2-0.3-0.4-0.7-0.6-1.1c-0.1-0.5-0.2-1-0.2-1.5v-0.9
						c0-0.6,0.1-1.1,0.2-1.5c0.1-0.5,0.3-0.8,0.6-1.1c0.2-0.3,0.6-0.6,0.9-0.7s0.8-0.2,1.3-0.2s1,0.1,1.4,0.3c0.4,0.2,0.7,0.6,0.9,1
						s0.3,0.9,0.4,1.5h-1.2c0-0.4-0.1-0.7-0.2-1c-0.1-0.3-0.3-0.5-0.5-0.6s-0.5-0.2-0.8-0.2s-0.6,0.1-0.8,0.2s-0.4,0.3-0.5,0.5
						s-0.2,0.5-0.3,0.8s-0.1,0.7-0.1,1v0.9c0,0.4,0,0.7,0.1,1.1c0.1,0.3,0.1,0.6,0.3,0.8c0.1,0.2,0.3,0.4,0.5,0.5
						C60.3-67,60.6-67,60.9-67z"/>
					<path class="st6" d="M66.4-77.2V-66h-1.3v-11.2H66.4z M66.1-70.3h-0.5c0-0.5,0.1-1,0.2-1.5s0.3-0.9,0.6-1.2
						c0.2-0.3,0.5-0.6,0.9-0.8c0.3-0.2,0.7-0.3,1.1-0.3c0.3,0,0.6,0.1,0.9,0.2s0.5,0.3,0.7,0.5s0.3,0.5,0.4,0.9s0.1,0.8,0.1,1.3v5.2
						h-1.3v-5.2c0-0.4,0-0.7-0.1-1s-0.2-0.4-0.4-0.5c-0.2-0.1-0.4-0.2-0.7-0.2c-0.3,0-0.5,0.1-0.7,0.2s-0.4,0.3-0.6,0.6
						c-0.2,0.2-0.3,0.5-0.4,0.9C66.1-71,66.1-70.6,66.1-70.3z"/>
				</g>
			</g>
		</g>
	</g>
</g>
<g id="g-root-tx_rapidunc_18kolvt1ap5fd3-stroke" transform="translate(84.16665649414062, 218)">
</g>
<g id="g-root-tx_speechra_1qbycuy1af2z9f-fill" transform="translate(288.25, 218)">
	<g id="tx_speechra_1qbycuy1af2z9f-fill-merged">
		<g>
			<g>
				<g class="st5">
					<path class="st6" d="M-6.4-93.7L-9.3-84h-1.4l3.4-10.7h0.9C-6.4-94.7-6.4-93.7-6.4-93.7z M-4-87.9v1.2h-5.1v-1.2H-4z M-4-84
						l-2.9-9.7v-0.9H-6L-2.7-84H-4z"/>
					<path class="st6" d="M2.9-87.5h0.5c0,0.5,0,1-0.1,1.5c-0.1,0.4-0.2,0.8-0.4,1.2c-0.2,0.3-0.5,0.6-0.8,0.8
						c-0.3,0.2-0.7,0.3-1.2,0.3c-0.3,0-0.6-0.1-0.9-0.2s-0.5-0.3-0.7-0.5s-0.3-0.5-0.4-0.9s-0.2-0.8-0.2-1.4v-5.1H0v5.1
						c0,0.4,0,0.7,0.1,0.9c0.1,0.2,0.1,0.4,0.3,0.5c0.1,0.1,0.2,0.2,0.4,0.3s0.1,0,0.2,0c0.5,0,0.8-0.1,1.1-0.3
						c0.3-0.2,0.5-0.5,0.6-0.9C2.8-86.6,2.9-87,2.9-87.5z M2.6-85.8v-6.1h1.3v7.9H2.7L2.6-85.8z"/>
					<path class="st6" d="M5.6-87.6v-0.7c0-0.7,0.1-1.2,0.2-1.7s0.3-0.9,0.5-1.2c0.2-0.3,0.5-0.5,0.8-0.7s0.7-0.2,1.1-0.2
						c0.4,0,0.8,0.1,1.1,0.2c0.3,0.2,0.5,0.4,0.7,0.7c0.2,0.3,0.4,0.7,0.5,1.1s0.2,1,0.2,1.5v1c0,0.6-0.1,1.1-0.2,1.5
						s-0.3,1-0.5,1.3s-0.4,0.6-0.7,0.7s-0.7,0.2-1.1,0.2c-0.4,0-0.7-0.1-1.1-0.2c-0.3-0.2-0.6-0.4-0.8-0.7c-0.2-0.3-0.4-0.7-0.5-1.2
						C5.7-86.4,5.6-87,5.6-87.6z M6.9-88.3v0.7c0,0.4,0,0.8,0.1,1.1c0.1,0.3,0.2,0.6,0.3,0.8c0.1,0.2,0.3,0.4,0.5,0.5
						C8-85.1,8.3-85,8.6-85c0.4,0,0.7-0.1,0.9-0.3S9.9-85.7,10-86s0.2-0.6,0.3-0.9V-89c0-0.2-0.1-0.5-0.2-0.7
						c-0.1-0.2-0.2-0.4-0.3-0.6s-0.3-0.3-0.5-0.4s-0.4-0.2-0.7-0.2S8-90.8,7.8-90.7s-0.4,0.3-0.5,0.5C7.2-90,7.1-89.7,7-89.4
						C6.9-89.1,6.9-88.8,6.9-88.3z M10-85.5v-9.7h1.3V-84h-1.2L10-85.5z"/>
					<path class="st6" d="M13.3-94c0-0.2,0.1-0.4,0.2-0.6s0.3-0.2,0.5-0.2s0.4,0.1,0.6,0.2c0.1,0.2,0.2,0.3,0.2,0.6
						c0,0.2-0.1,0.4-0.2,0.5c-0.1,0.1-0.3,0.2-0.6,0.2s-0.4-0.1-0.5-0.2S13.3-93.8,13.3-94z M14.7-91.9v7.9h-1.3v-7.9H14.7z"/>
					<path class="st6" d="M16.5-87.6v-0.8c0-0.6,0.1-1.2,0.2-1.6c0.2-0.5,0.4-0.9,0.7-1.2c0.3-0.3,0.6-0.5,1-0.7s0.8-0.2,1.2-0.2
						c0.4,0,0.8,0.1,1.2,0.2c0.4,0.2,0.7,0.4,1,0.7c0.3,0.3,0.5,0.7,0.7,1.2s0.2,1,0.2,1.6v0.8c0,0.6-0.1,1.2-0.2,1.6
						c-0.2,0.5-0.4,0.9-0.7,1.2s-0.6,0.5-1,0.7s-0.8,0.2-1.2,0.2c-0.4,0-0.8-0.1-1.2-0.2s-0.7-0.4-1-0.7s-0.5-0.7-0.7-1.2
						C16.6-86.4,16.5-87,16.5-87.6z M17.8-88.3v0.8c0,0.4,0,0.8,0.1,1.1c0.1,0.3,0.2,0.6,0.4,0.8c0.2,0.2,0.3,0.4,0.6,0.5
						c0.2,0.1,0.4,0.2,0.7,0.2s0.6-0.1,0.8-0.2c0.2-0.1,0.4-0.3,0.6-0.5c0.1-0.2,0.3-0.5,0.3-0.8c0.1-0.3,0.1-0.7,0.1-1.1v-0.8
						c0-0.4,0-0.8-0.1-1.1c-0.1-0.3-0.2-0.6-0.4-0.8c-0.2-0.2-0.4-0.4-0.6-0.5C20-90.9,19.8-91,19.5-91c-0.2,0-0.5,0.1-0.7,0.2
						s-0.4,0.3-0.6,0.5s-0.3,0.5-0.4,0.8C17.8-89.2,17.8-88.8,17.8-88.3z"/>
					<path class="st6" d="M30.9-91.9v1h-3.7v-1H30.9z M29.6-84h-1.3v-8.8c0-0.6,0.1-1.1,0.3-1.4c0.2-0.4,0.4-0.7,0.8-0.9
						c0.3-0.2,0.7-0.3,1.2-0.3c0.1,0,0.3,0,0.4,0s0.3,0,0.4,0.1l-0.1,1.1c-0.1,0-0.2,0-0.3-0.1c-0.1,0-0.2,0-0.3,0
						c-0.2,0-0.4,0.1-0.6,0.2s-0.3,0.3-0.4,0.5s-0.1,0.5-0.1,0.8V-84z"/>
					<path class="st6" d="M35.3-83.9c-0.5,0-0.9-0.1-1.3-0.2s-0.7-0.4-1-0.6c-0.3-0.3-0.5-0.7-0.6-1.1s-0.2-1-0.2-1.6v-0.9
						c0-0.7,0.1-1.3,0.2-1.8c0.2-0.5,0.4-0.9,0.7-1.2c0.3-0.3,0.6-0.5,0.9-0.6c0.4-0.1,0.7-0.2,1.1-0.2c0.5,0,0.9,0.1,1.3,0.2
						c0.4,0.2,0.6,0.4,0.9,0.7s0.4,0.7,0.5,1.2s0.2,1,0.2,1.6v0.8h-5v-1.1h3.7v-0.2c0-0.4-0.1-0.8-0.2-1.1c-0.1-0.3-0.2-0.6-0.4-0.7
						c-0.2-0.2-0.5-0.3-0.9-0.3c-0.2,0-0.5,0-0.7,0.1s-0.4,0.2-0.5,0.4c-0.1,0.2-0.3,0.5-0.3,0.8c-0.1,0.3-0.1,0.8-0.1,1.3v0.9
						c0,0.4,0,0.8,0.1,1.1c0.1,0.3,0.2,0.6,0.4,0.8c0.2,0.2,0.4,0.3,0.6,0.4s0.5,0.1,0.8,0.1c0.4,0,0.8-0.1,1.1-0.3
						c0.3-0.2,0.5-0.4,0.7-0.6l0.7,0.8c-0.1,0.2-0.3,0.4-0.6,0.6c-0.2,0.2-0.5,0.3-0.8,0.4C36.2-83.9,35.8-83.9,35.3-83.9z"/>
					<path class="st6" d="M42.3-83.9c-0.5,0-0.9-0.1-1.3-0.2c-0.4-0.1-0.7-0.4-1-0.6c-0.3-0.3-0.5-0.7-0.6-1.1s-0.2-1-0.2-1.6v-0.9
						c0-0.7,0.1-1.3,0.2-1.8c0.2-0.5,0.4-0.9,0.7-1.2c0.3-0.3,0.6-0.5,0.9-0.6c0.4-0.1,0.7-0.2,1.1-0.2c0.5,0,0.9,0.1,1.3,0.2
						c0.4,0.2,0.6,0.4,0.9,0.7s0.4,0.7,0.5,1.2s0.2,1,0.2,1.6v0.8h-5v-1.1h3.7v-0.2c0-0.4-0.1-0.8-0.2-1.1c-0.1-0.3-0.2-0.6-0.4-0.7
						c-0.2-0.2-0.5-0.3-0.9-0.3c-0.2,0-0.5,0-0.7,0.1s-0.4,0.2-0.5,0.4c-0.1,0.2-0.3,0.5-0.3,0.8c-0.1,0.3-0.1,0.8-0.1,1.3v0.9
						c0,0.4,0,0.8,0.1,1.1c0.1,0.3,0.2,0.6,0.4,0.8c0.2,0.2,0.4,0.3,0.6,0.4c0.2,0.1,0.5,0.1,0.8,0.1c0.4,0,0.8-0.1,1.1-0.3
						c0.3-0.2,0.5-0.4,0.7-0.6l0.7,0.8c-0.1,0.2-0.3,0.4-0.6,0.6c-0.2,0.2-0.5,0.3-0.8,0.4C43.2-83.9,42.8-83.9,42.3-83.9z"/>
					<path class="st6" d="M46.3-87.6v-0.7c0-0.7,0.1-1.2,0.2-1.7c0.1-0.5,0.3-0.9,0.5-1.2c0.2-0.3,0.5-0.5,0.8-0.7s0.7-0.2,1.1-0.2
						c0.4,0,0.8,0.1,1.1,0.2c0.3,0.2,0.5,0.4,0.7,0.7c0.2,0.3,0.4,0.7,0.5,1.1s0.2,1,0.2,1.5v1c0,0.6-0.1,1.1-0.2,1.5
						s-0.3,0.8-0.5,1.1s-0.4,0.6-0.7,0.7s-0.7,0.2-1.1,0.2c-0.4,0-0.7-0.1-1.1-0.2c-0.3-0.2-0.6-0.4-0.8-0.7
						c-0.2-0.3-0.4-0.7-0.5-1.2C46.3-86.4,46.3-87,46.3-87.6z M47.6-88.3v0.7c0,0.4,0,0.8,0.1,1.1c0.1,0.3,0.2,0.6,0.3,0.8
						c0.1,0.2,0.3,0.4,0.5,0.5S49-85,49.3-85c0.4,0,0.7-0.1,0.9-0.3s0.4-0.4,0.6-0.7c0.1-0.3,0.2-0.6,0.3-0.9V-89
						c0-0.2-0.1-0.5-0.2-0.7c-0.1-0.2-0.2-0.4-0.3-0.6s-0.3-0.3-0.5-0.4s-0.4-0.2-0.7-0.2s-0.6,0.1-0.8,0.2s-0.4,0.3-0.5,0.5
						s-0.2,0.5-0.3,0.8C47.6-89.1,47.6-88.8,47.6-88.3z M50.7-85.5v-9.7H52V-84h-1.2L50.7-85.5z"/>
					<path class="st6" d="M54-95.2h1.3v9.7L55.2-84H54V-95.2z M59.7-88.3v0.7c0,0.6-0.1,1.2-0.2,1.6c-0.1,0.5-0.3,0.9-0.5,1.2
						c-0.2,0.3-0.5,0.5-0.8,0.7s-0.7,0.2-1.1,0.2c-0.4,0-0.8-0.1-1.1-0.2s-0.5-0.4-0.7-0.7s-0.4-0.7-0.5-1.1s-0.2-0.9-0.2-1.5v-1
						c0-0.6,0.1-1.1,0.2-1.5c0.1-0.4,0.3-0.8,0.5-1.1c0.2-0.3,0.4-0.6,0.7-0.7s0.7-0.2,1.1-0.2c0.4,0,0.8,0.1,1.1,0.2
						s0.6,0.4,0.8,0.7c0.2,0.3,0.4,0.7,0.5,1.2C59.7-89.5,59.7-89,59.7-88.3z M58.4-87.6v-0.7c0-0.4,0-0.8-0.1-1.1
						c-0.1-0.3-0.1-0.6-0.3-0.8s-0.3-0.4-0.5-0.5s-0.5-0.2-0.8-0.2s-0.5,0.1-0.7,0.2s-0.4,0.3-0.5,0.4c-0.1,0.2-0.3,0.4-0.4,0.6
						c-0.1,0.2-0.2,0.5-0.2,0.7v2.1c0.1,0.3,0.2,0.6,0.3,0.9s0.3,0.5,0.6,0.7s0.5,0.3,0.9,0.3c0.3,0,0.6-0.1,0.8-0.2
						s0.4-0.3,0.5-0.5s0.2-0.5,0.3-0.8C58.4-86.8,58.4-87.1,58.4-87.6z"/>
					<path class="st6" d="M65.5-88.8v1h-0.9c-0.3,0-0.6,0-0.8,0.1s-0.5,0.2-0.6,0.3c-0.2,0.1-0.3,0.3-0.4,0.5
						c-0.1,0.2-0.1,0.4-0.1,0.7c0,0.3,0,0.6,0.1,0.8c0.1,0.2,0.2,0.3,0.4,0.4s0.4,0.1,0.7,0.1c0.3,0,0.6-0.1,0.9-0.2
						s0.4-0.3,0.6-0.5c0.1-0.2,0.2-0.4,0.2-0.6l0.3,0.6c0,0.2-0.1,0.4-0.2,0.6s-0.2,0.4-0.4,0.6c-0.2,0.2-0.4,0.4-0.7,0.5
						s-0.5,0.2-0.8,0.2c-0.5,0-0.9-0.1-1.2-0.3c-0.3-0.2-0.6-0.4-0.8-0.8s-0.3-0.8-0.3-1.3c0-0.4,0.1-0.7,0.2-1.1s0.3-0.6,0.6-0.8
						c0.3-0.2,0.6-0.4,1-0.6c0.4-0.1,0.8-0.2,1.4-0.2C64.7-88.8,65.5-88.8,65.5-88.8z M65.3-85.4v-4.3c0-0.3,0-0.6-0.1-0.8
						c-0.1-0.2-0.2-0.3-0.4-0.4C64.6-91,64.3-91,64-91c-0.3,0-0.5,0.1-0.7,0.2s-0.3,0.3-0.5,0.4c-0.1,0.2-0.2,0.4-0.2,0.6h-1.3
						c0-0.3,0.1-0.6,0.2-0.8c0.1-0.3,0.3-0.5,0.5-0.8c0.2-0.2,0.5-0.4,0.8-0.5s0.7-0.2,1.1-0.2c0.5,0,0.9,0.1,1.3,0.2
						c0.4,0.2,0.7,0.4,0.9,0.8s0.3,0.8,0.3,1.4v3.9c0,0.3,0,0.5,0.1,0.8c0,0.3,0.1,0.6,0.2,0.8v0.1h-1.3c-0.1-0.2-0.1-0.4-0.1-0.6
						C65.3-84.9,65.3-85.1,65.3-85.4z"/>
					<path class="st6" d="M71.3-85c0.3,0,0.5-0.1,0.7-0.2s0.4-0.3,0.5-0.5s0.2-0.5,0.2-0.9H74c0,0.5-0.2,1-0.4,1.4
						c-0.2,0.4-0.6,0.7-1,0.9c-0.4,0.2-0.8,0.3-1.3,0.3s-1-0.1-1.3-0.2s-0.7-0.4-0.9-0.7c-0.2-0.3-0.4-0.7-0.6-1.1
						c-0.1-0.5-0.2-1-0.2-1.5v-0.9c0-0.6,0.1-1.1,0.2-1.5c0.1-0.5,0.3-0.8,0.6-1.1c0.2-0.3,0.6-0.6,0.9-0.7s0.8-0.2,1.3-0.2
						s1,0.1,1.4,0.3c0.4,0.2,0.7,0.6,0.9,1c0.2,0.4,0.3,0.9,0.4,1.5h-1.2c0-0.4-0.1-0.7-0.2-1s-0.3-0.5-0.5-0.6s-0.5-0.2-0.8-0.2
						s-0.6,0.1-0.8,0.2c-0.2,0.1-0.4,0.3-0.5,0.5s-0.2,0.5-0.3,0.8s-0.1,0.7-0.1,1v0.9c0,0.4,0,0.7,0.1,1.1c0.1,0.3,0.1,0.6,0.3,0.8
						c0.1,0.2,0.3,0.4,0.5,0.5C70.7-85,71-85,71.3-85z"/>
					<path class="st6" d="M76.8-95.2V-84h-1.3v-11.2H76.8z M80.8-91.9L78-88.2l-1.7,2l-0.1-1.4l1.2-1.7l1.9-2.6
						C79.3-91.9,80.8-91.9,80.8-91.9z M79.6-84l-2.2-3.8l0.7-1.2l3.1,5H79.6z"/>
				</g>
			</g>
			<g>
				<g class="st5">
					<path class="st6" d="M10.4-76c0-0.2,0.1-0.4,0.2-0.6c0.1-0.2,0.3-0.2,0.5-0.2s0.4,0.1,0.6,0.2c0.1,0.2,0.2,0.3,0.2,0.6
						c0,0.2-0.1,0.4-0.2,0.5c-0.1,0.1-0.3,0.2-0.6,0.2s-0.4-0.1-0.5-0.2S10.4-75.8,10.4-76z M11.8-73.9v7.9h-1.3v-7.9H11.8z"/>
					<path class="st6" d="M17.7-68c0-0.2,0-0.4-0.1-0.5c-0.1-0.2-0.3-0.3-0.5-0.4s-0.5-0.3-0.9-0.5s-0.7-0.3-1-0.5
						c-0.3-0.1-0.5-0.3-0.7-0.5S14.1-70.8,14-71s-0.2-0.5-0.2-0.8s0.1-0.6,0.2-0.9s0.3-0.5,0.5-0.7s0.5-0.4,0.8-0.5s0.7-0.2,1-0.2
						c0.5,0,1,0.1,1.4,0.3c0.4,0.2,0.7,0.5,0.9,0.9c0.2,0.4,0.3,0.8,0.3,1.2h-1.3c0-0.2,0-0.4-0.1-0.6s-0.2-0.4-0.4-0.5
						c-0.3-0.1-0.5-0.2-0.8-0.2c-0.3,0-0.5,0.1-0.7,0.2s-0.3,0.2-0.4,0.4c-0.1,0.2-0.1,0.3-0.1,0.5c0,0.1,0,0.3,0.1,0.4
						c0,0.1,0.1,0.2,0.2,0.3c0.1,0.1,0.2,0.2,0.4,0.3c0.2,0.1,0.4,0.2,0.7,0.3c0.5,0.2,1,0.4,1.4,0.6s0.6,0.5,0.8,0.8
						c0.2,0.3,0.3,0.6,0.3,1.1c0,0.3-0.1,0.7-0.2,0.9c-0.1,0.3-0.3,0.5-0.5,0.7s-0.5,0.4-0.8,0.5s-0.7,0.2-1.1,0.2
						c-0.6,0-1.1-0.1-1.5-0.4c-0.4-0.2-0.7-0.5-0.9-0.9s-0.3-0.8-0.3-1.2H15c0,0.4,0.1,0.7,0.3,0.9c0.2,0.2,0.3,0.3,0.6,0.4
						s0.3,0,0.5,0c0.3,0,0.5,0,0.7-0.1s0.3-0.2,0.4-0.4C17.6-67.7,17.7-67.8,17.7-68z"/>
					<path class="st6" d="M23.9-69.6v-0.7c0-0.7,0.1-1.2,0.2-1.7s0.3-0.9,0.5-1.2c0.2-0.3,0.5-0.5,0.8-0.7s0.7-0.2,1.1-0.2
						s0.8,0.1,1.1,0.2c0.3,0.2,0.5,0.4,0.7,0.7c0.2,0.3,0.4,0.7,0.5,1.1s0.2,1,0.2,1.5v1c0,0.6-0.1,1.1-0.2,1.5s-0.3,0.8-0.5,1.1
						s-0.4,0.6-0.7,0.7s-0.7,0.2-1.1,0.2s-0.7-0.1-1.1-0.2c-0.3-0.2-0.6-0.4-0.8-0.7c-0.2-0.3-0.4-0.7-0.5-1.2
						C23.9-68.4,23.9-69,23.9-69.6z M25.1-70.3v0.7c0,0.4,0,0.8,0.1,1.1c0.1,0.3,0.2,0.6,0.3,0.8c0.1,0.2,0.3,0.4,0.5,0.5
						s0.5,0.2,0.8,0.2c0.4,0,0.7-0.1,0.9-0.3s0.4-0.4,0.6-0.7c0.1-0.3,0.2-0.6,0.3-0.9V-71c0-0.2-0.1-0.5-0.2-0.7s-0.2-0.4-0.3-0.6
						c-0.1-0.2-0.3-0.3-0.5-0.4s-0.4-0.2-0.7-0.2c-0.3,0-0.6,0.1-0.8,0.2c-0.2,0.1-0.4,0.3-0.5,0.5s-0.2,0.5-0.3,0.8
						C25.2-71.1,25.1-70.8,25.1-70.3z M28.3-67.5v-9.7h1.3V-66h-1.2L28.3-67.5z"/>
					<path class="st6" d="M34.4-65.9c-0.5,0-0.9-0.1-1.3-0.2c-0.4-0.1-0.7-0.4-1-0.6c-0.3-0.3-0.5-0.7-0.6-1.1s-0.2-1-0.2-1.6v-0.9
						c0-0.7,0.1-1.3,0.2-1.8c0.2-0.5,0.4-0.9,0.7-1.2c0.3-0.3,0.6-0.5,0.9-0.6c0.4-0.1,0.7-0.2,1.1-0.2c0.5,0,0.9,0.1,1.3,0.2
						c0.4,0.2,0.6,0.4,0.9,0.7c0.3,0.3,0.4,0.7,0.5,1.2s0.2,1,0.2,1.6v0.8h-5v-1.1h3.7v-0.2c0-0.4-0.1-0.8-0.2-1.1
						c-0.1-0.3-0.2-0.6-0.4-0.7C35-72.9,34.7-73,34.3-73c-0.2,0-0.5,0-0.7,0.1s-0.4,0.2-0.5,0.4c-0.1,0.2-0.3,0.5-0.3,0.8
						c-0.1,0.3-0.1,0.8-0.1,1.3v0.9c0,0.4,0,0.8,0.1,1.1c0.1,0.3,0.2,0.6,0.4,0.8c0.2,0.2,0.4,0.3,0.6,0.4c0.2,0.1,0.5,0.1,0.8,0.1
						c0.4,0,0.8-0.1,1.1-0.3c0.3-0.2,0.5-0.4,0.7-0.6l0.6,1c-0.1,0.2-0.3,0.4-0.6,0.6c-0.2,0.2-0.5,0.3-0.8,0.4
						C35.3-65.9,34.9-65.9,34.4-65.9z"/>
					<path class="st6" d="M40-77.2V-66h-1.3v-11.2H40z"/>
					<path class="st6" d="M46.1-70.8v1h-0.9c-0.3,0-0.6,0-0.8,0.1s-0.5,0.2-0.6,0.3c-0.2,0.1-0.3,0.3-0.4,0.5
						c-0.1,0.2-0.1,0.4-0.1,0.7c0,0.3,0,0.6,0.1,0.8c0.1,0.2,0.2,0.3,0.4,0.4s0.4,0.1,0.7,0.1s0.6-0.1,0.9-0.2s0.4-0.3,0.6-0.5
						c0-0.4,0-0.6,0-0.8l0.3,0.6c0,0.2-0.1,0.4-0.2,0.6c-0.1,0.2-0.2,0.4-0.4,0.6s-0.4,0.4-0.7,0.5s-0.5,0.2-0.8,0.2
						c-0.5,0-0.9-0.1-1.2-0.3c-0.3-0.2-0.6-0.4-0.8-0.8s-0.3-0.8-0.3-1.3c0-0.4,0.1-0.7,0.2-1.1s0.3-0.6,0.6-0.8
						c0.3-0.2,0.6-0.4,1-0.6c0.4-0.1,0.8-0.2,1.4-0.2h1V-70.8z M45.9-67.4v-4.3c0-0.3,0-0.6-0.1-0.8c-0.1-0.2-0.2-0.3-0.4-0.4
						S44.9-73,44.7-73c-0.3,0-0.5,0.1-0.7,0.2s-0.3,0.3-0.5,0.4c-0.1,0.2-0.2,0.4-0.2,0.6H42c0-0.3,0.1-0.6,0.2-0.8
						c0.1-0.3,0.3-0.5,0.5-0.8c0.2-0.2,0.5-0.4,0.8-0.5s0.7-0.2,1.1-0.2c0.5,0,0.9,0.1,1.3,0.2c0.4,0.2,0.7,0.4,0.9,0.8
						s0.3,0.8,0.3,1.4v3.9c0,0.3,0,0.5,0.1,0.8c0,0.3,0.1,0.6,0.2,0.8v0.1h-1.3C46-66.3,46-66.5,46-66.7
						C45.9-66.9,45.9-67.1,45.9-67.4z"/>
					<path class="st6" d="M49.9-73.9l1.6,6.2l0.3,1.4l-0.9,0.5l-2.4-8.1H49.9z M51.1-66.8l1.8-7.1h1.4l-2.6,9.1
						c-0.1,0.2-0.1,0.4-0.3,0.6c-0.1,0.2-0.2,0.4-0.4,0.6s-0.4,0.4-0.6,0.5c-0.2,0.1-0.5,0.2-0.8,0.2c-0.1,0-0.2,0-0.4,0
						S49-63,48.9-63v-1H49c0.1,0,0.1,0,0.1,0c0.3,0,0.5,0,0.6-0.1c0.2-0.1,0.3-0.2,0.5-0.4c0.1-0.2,0.2-0.4,0.3-0.8L51.1-66.8z"/>
					<path class="st6" d="M58.3-65.9c-0.5,0-0.9-0.1-1.3-0.2c-0.4-0.1-0.7-0.4-1-0.6c-0.3-0.3-0.5-0.7-0.6-1.1s-0.2-1-0.2-1.6v-0.9
						c0-0.7,0.1-1.3,0.2-1.8c0.2-0.5,0.4-0.9,0.7-1.2c0.3-0.3,0.6-0.5,0.9-0.6c0.4-0.1,0.7-0.2,1.1-0.2c0.5,0,0.9,0.1,1.3,0.2
						c0.4,0.2,0.6,0.4,0.9,0.7s0.4,0.7,0.5,1.2s0.2,1,0.2,1.6v0.8h-5v-1.1h3.7v-0.2c0-0.4-0.1-0.8-0.2-1.1c-0.1-0.3-0.2-0.6-0.4-0.7
						c-0.2-0.2-0.5-0.3-0.9-0.3c-0.2,0-0.5,0-0.7,0.1s-0.4,0.2-0.5,0.4c-0.1,0.2-0.3,0.5-0.3,0.8c-0.1,0.3-0.1,0.8-0.1,1.3v0.9
						c0,0.4,0,0.8,0.1,1.1c0.1,0.3,0.2,0.6,0.4,0.8c0.2,0.2,0.4,0.3,0.6,0.4c0.2,0.1,0.5,0.1,0.8,0.1c0.4,0,0.8-0.1,1.1-0.3
						c0.3-0.2,0.5-0.4,0.7-0.6l0.7,0.8c-0.1,0.2-0.3,0.4-0.6,0.6c-0.2,0.2-0.5,0.3-0.8,0.4C59.2-65.9,58.8-65.9,58.3-65.9z"/>
					<path class="st6" d="M62.2-69.6v-0.7c0-0.7,0.1-1.2,0.2-1.7c0.1-0.5,0.3-0.9,0.5-1.2c0.2-0.3,0.5-0.5,0.8-0.7s0.7-0.2,1.1-0.2
						s0.8,0.1,1.1,0.2c0.3,0.2,0.5,0.4,0.7,0.7c0.2,0.3,0.4,0.7,0.5,1.1s0.2,1,0.2,1.5v1c0,0.6-0.1,1.1-0.2,1.5s-0.3,0.8-0.5,1.1
						s-0.4,0.6-0.7,0.7c-0.3,0.1-0.7,0.2-1.1,0.2s-0.7-0.1-1.1-0.2c-0.3-0.2-0.6-0.4-0.8-0.7c-0.2-0.3-0.4-0.7-0.5-1.2
						C62.3-68.4,62.2-69,62.2-69.6z M63.5-70.3v0.7c0,0.4,0,0.8,0.1,1.1c0.1,0.3,0.2,0.6,0.3,0.8c0.1,0.2,0.3,0.4,0.5,0.5
						s0.5,0.2,0.8,0.2c0.4,0,0.7-0.1,0.9-0.3s0.4-0.4,0.6-0.7c0.1-0.3,0.2-0.6,0.3-0.9V-71c0-0.2-0.1-0.5-0.2-0.7s-0.2-0.4-0.3-0.6
						c-0.1-0.2-0.3-0.3-0.5-0.4s-0.4-0.2-0.7-0.2s-0.6,0.1-0.8,0.2c-0.2,0.1-0.4,0.3-0.5,0.5s-0.2,0.5-0.3,0.8
						C63.6-71.1,63.5-70.8,63.5-70.3z M66.7-67.5v-9.7H68V-66h-1.2L66.7-67.5z"/>
				</g>
			</g>
		</g>
	</g>
</g>
<g id="g-root-tx_speechra_1qbycuy1af2z9f-stroke" transform="translate(288.25, 218)">
</g>
<g id="g-root-tx_speechra_1qd7kjt1ap5f63-fill" transform="translate(460.42498779296875, 218)">
	<g id="tx_speechra_1qd7kjt1ap5f63-fill-merged">
		<g>
			<g>
				<g class="st5">
					<path class="st6" d="M21.4-86.7c0-0.2,0-0.5-0.1-0.7s-0.2-0.4-0.3-0.5s-0.4-0.3-0.6-0.4s-0.6-0.3-1-0.4
						c-0.4-0.2-0.8-0.3-1.2-0.5s-0.7-0.4-0.9-0.7c-0.3-0.2-0.4-0.5-0.6-0.9s-0.2-0.7-0.2-1.1s0.1-0.8,0.2-1.2
						c0.1-0.4,0.3-0.7,0.6-0.9c0.3-0.3,0.6-0.5,1-0.6s0.8-0.2,1.3-0.2c0.7,0,1.3,0.2,1.8,0.5s0.8,0.7,1.1,1.2c0.2,0.5,0.4,1,0.4,1.6
						h-1.3c0-0.4-0.1-0.8-0.2-1.1c-0.1-0.3-0.3-0.6-0.6-0.7c-0.3-0.2-0.6-0.3-1.1-0.3c-0.4,0-0.7,0.1-1,0.2
						c-0.3,0.2-0.4,0.4-0.6,0.6c-0.1,0.3-0.2,0.6-0.2,0.9c0,0.2,0,0.4,0.1,0.6s0.2,0.4,0.4,0.5c0.2,0.2,0.4,0.3,0.6,0.4
						s0.5,0.3,0.9,0.4c0.5,0.2,1,0.4,1.3,0.6s0.7,0.4,0.9,0.7c0.2,0.3,0.4,0.6,0.5,0.9s0.2,0.7,0.2,1.1s-0.1,0.8-0.2,1.2
						c-0.1,0.4-0.4,0.7-0.6,0.9s-0.6,0.4-1,0.6c-0.4,0.1-0.8,0.2-1.3,0.2c-0.4,0-0.8-0.1-1.2-0.2s-0.8-0.3-1.1-0.6
						c-0.3-0.3-0.6-0.6-0.8-1c-0.2-0.4-0.3-0.9-0.3-1.4h1.3c0,0.4,0.1,0.7,0.2,0.9c0.1,0.3,0.3,0.5,0.4,0.6c0.2,0.2,0.4,0.3,0.7,0.4
						c0.2,0.1,0.5,0.1,0.8,0.1c0.4,0,0.7-0.1,1-0.2s0.5-0.3,0.6-0.6C21.3-86,21.4-86.3,21.4-86.7z"/>
					<path class="st6" d="M25.6-90.4v9.4h-1.3v-11h1.2L25.6-90.4z M30.1-88.3v0.7c0,0.6-0.1,1.2-0.2,1.6c-0.1,0.5-0.3,0.9-0.5,1.2
						c-0.2,0.3-0.5,0.5-0.8,0.7s-0.7,0.2-1.1,0.2s-0.8-0.1-1.1-0.2c-0.3-0.2-0.6-0.4-0.8-0.7c-0.2-0.3-0.4-0.7-0.5-1.1
						s-0.2-0.9-0.2-1.4v-1.1c0-0.6,0.1-1.1,0.2-1.5s0.3-0.8,0.5-1.1c0.2-0.3,0.5-0.6,0.8-0.7c0.3-0.2,0.7-0.2,1.1-0.2
						s0.8,0.1,1.1,0.2c0.3,0.1,0.6,0.4,0.8,0.7c0.2,0.3,0.4,0.7,0.5,1.2C30-89.5,30.1-89,30.1-88.3z M28.8-87.6v-0.7
						c0-0.4,0-0.8-0.1-1.1c-0.1-0.3-0.2-0.6-0.3-0.8s-0.3-0.4-0.5-0.5s-0.5-0.2-0.8-0.2s-0.5,0.1-0.7,0.2s-0.4,0.3-0.5,0.4
						c-0.1,0.2-0.3,0.4-0.4,0.6s-0.2,0.5-0.2,0.7v2.2c0.1,0.3,0.2,0.6,0.3,0.9c0.1,0.3,0.3,0.5,0.6,0.7c0.2,0.2,0.5,0.3,0.9,0.3
						c0.3,0,0.6-0.1,0.8-0.2c0.2-0.1,0.4-0.3,0.5-0.5s0.2-0.5,0.3-0.8C28.7-86.8,28.8-87.1,28.8-87.6z"/>
					<path class="st6" d="M34.6-83.9c-0.5,0-0.9-0.1-1.3-0.2c-0.4-0.1-0.7-0.4-1-0.6c-0.3-0.3-0.5-0.7-0.6-1.1s-0.2-1-0.2-1.6v-0.9
						c0-0.7,0.1-1.3,0.2-1.8c0.2-0.5,0.4-0.9,0.7-1.2c0.3-0.3,0.6-0.5,0.9-0.6c0.4-0.1,0.7-0.2,1.1-0.2c0.5,0,0.9,0.1,1.3,0.2
						c0.4,0.2,0.6,0.4,0.9,0.7s0.4,0.7,0.5,1.2s0.2,1,0.2,1.6v0.8h-5v-1.1H36v-0.2c0-0.4-0.1-0.8-0.2-1.1c-0.1-0.3-0.2-0.6-0.4-0.7
						c-0.2-0.2-0.5-0.3-0.9-0.3c-0.2,0-0.5,0-0.7,0.1s-0.4,0.2-0.5,0.4C33.2-90.3,33-90,33-89.7c-0.1,0.3-0.1,0.8-0.1,1.3v0.9
						c0,0.4,0,0.8,0.1,1.1c0.1,0.3,0.2,0.6,0.4,0.8c0.2,0.2,0.4,0.3,0.6,0.4s0.5,0.1,0.8,0.1c0.4,0,0.8-0.1,1.1-0.3
						c0.3-0.2,0.5-0.4,0.7-0.6l0.7,0.8c-0.1,0.2-0.3,0.4-0.6,0.6c-0.2,0.2-0.5,0.3-0.8,0.4C35.4-83.9,35-83.9,34.6-83.9z"/>
					<path class="st6" d="M41.6-83.9c-0.5,0-0.9-0.1-1.3-0.2c-0.4-0.1-0.7-0.4-1-0.6c-0.3-0.3-0.5-0.7-0.6-1.1s-0.2-1-0.2-1.6v-0.9
						c0-0.7,0.1-1.3,0.2-1.8c0.2-0.5,0.4-0.9,0.7-1.2c0.3-0.3,0.6-0.5,0.9-0.6c0.4-0.1,0.7-0.2,1.1-0.2c0.5,0,0.9,0.1,1.3,0.2
						c0.4,0.2,0.6,0.4,0.9,0.7s0.4,0.7,0.5,1.2s0.2,1,0.2,1.6v0.8h-5v-1.1H43v-0.2c0-0.4-0.1-0.8-0.2-1.1c-0.1-0.3-0.2-0.6-0.4-0.7
						c-0.2-0.2-0.5-0.3-0.9-0.3c-0.2,0-0.5,0-0.7,0.1s-0.4,0.2-0.5,0.4C40.2-90.3,40-90,40-89.7c-0.1,0.3-0.1,0.8-0.1,1.3v0.9
						c0,0.4,0,0.8,0.1,1.1c0.1,0.3,0.2,0.6,0.4,0.8c0.2,0.2,0.4,0.3,0.6,0.4c0.2,0.1,0.5,0.1,0.8,0.1c0.4,0,0.8-0.1,1.1-0.3
						c0.3-0.2,0.5-0.4,0.7-0.6l0.7,0.8c-0.1,0.2-0.3,0.4-0.6,0.6c-0.2,0.2-0.5,0.3-0.8,0.4C42.5-83.9,42.1-83.9,41.6-83.9z"/>
					<path class="st6" d="M48.6-85c0.3,0,0.5-0.1,0.7-0.2s0.4-0.3,0.5-0.5s0.2-0.5,0.2-0.9h1.2c0,0.5-0.2,1-0.4,1.4s-0.6,0.7-1,0.9
						C49.4-84.1,49-84,48.5-84s-1-0.1-1.3-0.2c-0.4-0.2-0.7-0.4-0.9-0.7c-0.2-0.3-0.4-0.7-0.6-1.1c-0.1-0.5-0.2-1-0.2-1.5v-0.9
						c0-0.6,0.1-1.1,0.2-1.5c0.1-0.5,0.3-0.8,0.6-1.1c0.2-0.3,0.6-0.6,0.9-0.7c0.4-0.2,0.8-0.2,1.3-0.2s1,0.1,1.4,0.3
						c0.4,0.2,0.7,0.6,0.9,1s0.3,0.9,0.4,1.5H50c0-0.4-0.1-0.7-0.2-1c-0.1-0.3-0.3-0.5-0.5-0.6s-0.5-0.2-0.8-0.2s-0.6,0.1-0.8,0.2
						s-0.4,0.3-0.5,0.5s-0.2,0.5-0.3,0.8s-0.1,0.7-0.1,1v0.9c0,0.4,0,0.7,0.1,1.1c0.1,0.3,0.1,0.6,0.3,0.8c0.1,0.2,0.3,0.4,0.5,0.5
						C47.9-85,48.2-85,48.6-85z"/>
					<path class="st6" d="M54-95.2V-84h-1.3v-11.2H54z M53.7-88.3h-0.5c0-0.5,0.1-1,0.2-1.5c0.1-0.5,0.3-0.9,0.6-1.2
						c0.2-0.3,0.5-0.6,0.9-0.8c0.3-0.2,0.7-0.3,1.1-0.3c0.3,0,0.6,0.1,0.9,0.2c0.3,0.1,0.5,0.3,0.7,0.5s0.3,0.5,0.4,0.9
						c0.1,0.4,0.2,0.8,0.2,1.3v5.2h-1.3v-5.2c0-0.4,0-0.7-0.1-1s-0.2-0.4-0.4-0.5s-0.4-0.2-0.7-0.2s-0.5,0.1-0.7,0.2
						s-0.4,0.3-0.6,0.6c-0.2,0.2-0.3,0.5-0.4,0.9C53.8-89,53.7-88.6,53.7-88.3z"/>
					<path class="st6" d="M64.7-90.7v6.7h-1.3v-7.9h1.3V-90.7z M66.7-92v1.3c-0.1,0-0.2,0-0.3,0s-0.2,0-0.3,0c-0.2,0-0.5,0-0.6,0.1
						c-0.2,0.1-0.3,0.2-0.5,0.4c-0.2,0.2-0.2,0.4-0.3,0.6s-0.1,0.5-0.2,0.8l-0.3,0.2c0-0.5,0-0.9,0.1-1.3s0.2-0.8,0.4-1.1
						c0.2-0.3,0.4-0.6,0.6-0.8c0.3-0.2,0.6-0.3,0.9-0.3c0.1,0,0.2,0,0.3,0C66.6-92,66.7-92,66.7-92z"/>
					<path class="st6" d="M72.1-88.8v1h-0.9c-0.3,0-0.6,0-0.8,0.1c-0.3,0.1-0.5,0.2-0.6,0.3c-0.2,0.1-0.3,0.3-0.4,0.5
						s-0.1,0.4-0.1,0.7c0,0.3,0,0.6,0.1,0.8c0.1,0.2,0.2,0.3,0.4,0.4c0.2,0.1,0.4,0.1,0.7,0.1c0.3,0,0.6-0.1,0.9-0.2
						s0.4-0.3,0.6-0.5c0.1-0.2,0.2-0.4,0.2-0.6l0.3,0.6c0,0.2-0.1,0.4-0.2,0.6s-0.2,0.4-0.4,0.6c-0.2,0.2-0.4,0.4-0.7,0.5
						c-0.3,0.1-0.5,0.2-0.8,0.2c-0.5,0-0.9-0.1-1.2-0.3c-0.3-0.2-0.6-0.4-0.8-0.8c-0.2-0.4-0.3-0.8-0.3-1.3c0-0.4,0.1-0.7,0.2-1.1
						s0.3-0.6,0.6-0.8c0.3-0.2,0.6-0.4,1-0.6c0.4-0.1,0.8-0.2,1.4-0.2C71.3-88.8,72.1-88.8,72.1-88.8z M71.9-85.4v-4.3
						c0-0.3,0-0.6-0.1-0.8c-0.1-0.2-0.2-0.3-0.4-0.4C71.2-91,71-91,70.7-91s-0.5,0.1-0.7,0.2s-0.3,0.3-0.5,0.4
						c-0.1,0.2-0.2,0.4-0.2,0.6H68c0-0.3,0.1-0.6,0.2-0.8c0.1-0.3,0.3-0.5,0.5-0.8c0.2-0.2,0.5-0.4,0.8-0.5s0.7-0.2,1.1-0.2
						c0.5,0,0.9,0.1,1.3,0.2c0.4,0.2,0.7,0.4,0.9,0.8s0.3,0.8,0.3,1.4v3.9c0,0.3,0,0.5,0.1,0.8c0,0.3,0.1,0.6,0.2,0.8v0.1h-1.3
						C72-84.3,72-84.5,72-84.7C71.9-84.9,71.9-85.1,71.9-85.4z"/>
					<path class="st6" d="M78.1-91.9v1h-3.7v-1H78.1z M75.6-93.9h1.3v7.9c0,0.3,0,0.5,0.1,0.6s0.2,0.2,0.3,0.3s0.2,0.1,0.3,0.1
						c0.1,0,0.2,0,0.3,0c0.1,0,0.2,0,0.2-0.1v1.1c-0.1,0-0.2,0.1-0.4,0.1c-0.1,0-0.3,0-0.6,0c-0.3,0-0.5-0.1-0.8-0.2
						c-0.2-0.1-0.4-0.4-0.6-0.7c-0.1-0.3-0.2-0.7-0.2-1.3L75.6-93.9L75.6-93.9z"/>
					<path class="st6" d="M82.5-83.9c-0.5,0-0.9-0.1-1.3-0.2s-0.7-0.4-1-0.6c-0.3-0.3-0.5-0.7-0.6-1.1s-0.2-1-0.2-1.6v-0.9
						c0-0.7,0.1-1.3,0.2-1.8c0.2-0.5,0.4-0.9,0.7-1.2c0.3-0.3,0.6-0.5,0.9-0.6c0.4-0.1,0.7-0.2,1.1-0.2c0.5,0,0.9,0.1,1.3,0.2
						c0.4,0.2,0.6,0.4,0.9,0.7s0.4,0.7,0.5,1.2s0.2,1,0.2,1.6v0.8h-5v-1.1h3.7v-0.2c0-0.4-0.1-0.8-0.2-1.1c-0.1-0.3-0.2-0.6-0.4-0.7
						c-0.3-0.2-0.6-0.3-1-0.3c-0.2,0-0.5,0-0.7,0.1s-0.4,0.2-0.5,0.4c-0.1,0.2-0.3,0.5-0.3,0.8c-0.1,0.3-0.1,0.8-0.1,1.3v0.9
						c0,0.4,0,0.8,0.1,1.1c0.1,0.3,0.2,0.6,0.4,0.8c0.2,0.2,0.4,0.3,0.6,0.4C82-85,82.2-85,82.5-85c0.4,0,0.8-0.1,1.1-0.3
						c0.3-0.2,0.5-0.4,0.7-0.6L85-85c-0.1,0.2-0.3,0.4-0.6,0.6c-0.2,0.2-0.5,0.3-0.8,0.4C83.3-83.9,82.9-83.9,82.5-83.9z"/>
					<path class="st6" d="M90.1-94c0-0.2,0.1-0.4,0.2-0.6s0.3-0.2,0.5-0.2s0.4,0.1,0.6,0.2c0.1,0.2,0.2,0.3,0.2,0.6
						c0,0.2-0.1,0.4-0.2,0.5s-0.3,0.2-0.6,0.2s-0.4-0.1-0.5-0.2S90.1-93.8,90.1-94z M91.5-91.9v7.9h-1.3v-7.9H91.5z"/>
					<path class="st6" d="M97.4-86c0-0.2,0-0.4-0.1-0.5c-0.1-0.2-0.3-0.3-0.5-0.4s-0.5-0.3-0.9-0.5s-0.7-0.3-1-0.5
						c-0.3-0.1-0.5-0.3-0.7-0.5s-0.4-0.4-0.5-0.6s-0.2-0.5-0.2-0.8s0.1-0.6,0.2-0.9s0.3-0.5,0.5-0.7s0.5-0.4,0.8-0.5s0.7-0.2,1-0.2
						c0.5,0,1,0.1,1.4,0.3s0.7,0.5,0.9,0.9c0.2,0.4,0.3,0.8,0.3,1.2h-1.3c0-0.2,0-0.4-0.1-0.6s-0.2-0.4-0.4-0.5
						C96.5-90.9,96.3-91,96-91s-0.5,0.1-0.7,0.2s-0.3,0.2-0.4,0.4c-0.1,0.2-0.1,0.3-0.1,0.5c0,0.1,0,0.3,0.1,0.4
						c0,0.1,0.1,0.2,0.2,0.3c0.1,0.1,0.2,0.2,0.4,0.3c0.2,0.1,0.4,0.2,0.7,0.3c0.5,0.2,1,0.4,1.4,0.6s0.6,0.5,0.8,0.8
						c0.2,0.3,0.3,0.6,0.3,1.1c0,0.3-0.1,0.7-0.2,0.9c-0.1,0.3-0.3,0.5-0.5,0.7s-0.5,0.4-0.8,0.5s-0.7,0.2-1.1,0.2
						c-0.6,0-1.1-0.1-1.5-0.4c-0.4-0.2-0.7-0.5-0.9-0.9c-0.2-0.4-0.3-0.8-0.3-1.2h1.3c0,0.4,0.1,0.7,0.3,0.9
						c0.2,0.2,0.3,0.3,0.6,0.4s0.4,0.1,0.7,0.1c0.3,0,0.5,0,0.7-0.1s0.3-0.2,0.4-0.4C97.3-85.6,97.4-85.8,97.4-86z"/>
				</g>
			</g>
			<g>
				<g class="st5">
					<path class="st6" d="M-5.8-69.5h0.5c0,0.5,0,1-0.1,1.5c-0.1,0.4-0.2,0.8-0.4,1.2C-6-66.5-6.3-66.2-6.6-66
						c-0.3,0.2-0.7,0.3-1.2,0.3c-0.3,0-0.6-0.1-0.9-0.2C-9-66-9.2-66.2-9.4-66.4c-0.2-0.2-0.3-0.5-0.4-0.9s-0.2-0.8-0.2-1.4v-5.1
						h1.3v5.1c0,0.4,0,0.7,0.1,0.9c0.1,0.2,0.1,0.4,0.3,0.5c0.1,0.1,0.2,0.2,0.4,0.3s0.3,0.1,0.4,0.1c0.5,0,0.8-0.1,1.1-0.3
						c0.3-0.2,0.5-0.5,0.6-0.9C-5.8-68.6-5.8-69-5.8-69.5z M-6-67.8v-6.1h1.3v7.9h-1.2L-6-67.8z"/>
					<path class="st6" d="M-1.5-72.2v6.2h-1.3v-7.9h1.2L-1.5-72.2z M-1.8-70.3h-0.5c0-0.5,0.1-1,0.2-1.5s0.3-0.9,0.6-1.2
						c0.2-0.3,0.5-0.6,0.9-0.8c0.3-0.2,0.7-0.3,1.1-0.3c0.3,0,0.6,0.1,0.9,0.2s0.5,0.3,0.7,0.5s0.3,0.5,0.4,0.9s0.2,0.8,0.2,1.3v5.2
						H1.4v-5.2c0-0.4,0-0.7-0.1-1s-0.2-0.4-0.4-0.5s-0.4-0.2-0.7-0.2s-0.5,0.1-0.7,0.2s-0.4,0.3-0.6,0.6c-0.2,0.2-0.3,0.5-0.4,0.9
						C-1.7-71-1.8-70.6-1.8-70.3z"/>
					<path class="st6" d="M7.2-67c0.3,0,0.5-0.1,0.7-0.2s0.4-0.3,0.5-0.5s0.2-0.5,0.2-0.9h1.2c0,0.5-0.2,1-0.4,1.4s-0.6,0.7-1,0.9
						C8-66.1,7.6-66,7.1-66s-1-0.1-1.3-0.2c-0.4-0.2-0.7-0.4-0.9-0.7c-0.2-0.3-0.4-0.7-0.6-1.1c-0.1-0.5-0.2-1-0.2-1.5v-0.9
						c0-0.6,0.1-1.1,0.2-1.5c0.1-0.5,0.3-0.8,0.6-1.1c0.2-0.3,0.6-0.6,0.9-0.7c0.4-0.2,0.8-0.2,1.3-0.2s1,0.1,1.4,0.3
						c0.4,0.2,0.7,0.6,0.9,1s0.3,0.9,0.4,1.5H8.7c0-0.4-0.1-0.7-0.2-1c-0.1-0.3-0.3-0.5-0.5-0.6C7.8-72.9,7.5-73,7.2-73
						s-0.6,0.1-0.8,0.2c-0.2,0.1-0.4,0.3-0.5,0.5s-0.2,0.5-0.3,0.8c-0.1,0.3-0.1,0.7-0.1,1v0.9c0,0.4,0,0.7,0.1,1.1
						c0.1,0.3,0.1,0.6,0.3,0.8c0.1,0.2,0.3,0.4,0.5,0.5C6.6-67,6.9-67,7.2-67z"/>
					<path class="st6" d="M11.2-69.6v-0.8c0-0.6,0.1-1.2,0.2-1.6c0.2-0.5,0.4-0.9,0.7-1.2c0.3-0.3,0.6-0.5,1-0.7s0.8-0.2,1.2-0.2
						s0.8,0.1,1.2,0.2c0.4,0.2,0.7,0.4,1,0.7c0.3,0.3,0.5,0.7,0.7,1.2s0.2,1,0.2,1.6v0.8c0,0.6-0.1,1.2-0.2,1.6
						c-0.2,0.5-0.4,0.9-0.7,1.2c-0.3,0.3-0.6,0.5-1,0.7s-0.8,0.2-1.2,0.2s-0.9,0-1.3-0.2c-0.4-0.2-0.7-0.4-1-0.7
						c-0.3-0.3-0.5-0.7-0.7-1.2C11.2-68.4,11.2-69,11.2-69.6z M12.5-70.3v0.8c0,0.4,0,0.8,0.1,1.1c0.1,0.3,0.2,0.6,0.4,0.8
						c0.2,0.2,0.3,0.4,0.6,0.5C13.7-67,14-67,14.2-67c0.3,0,0.6,0,0.8-0.1s0.4-0.3,0.6-0.5c0.1-0.2,0.3-0.5,0.3-0.8
						c0.1-0.4,0.1-0.7,0.1-1.2v-0.8c0-0.4,0-0.8-0.1-1.1c-0.1-0.3-0.2-0.6-0.4-0.8c-0.2-0.2-0.4-0.4-0.6-0.5
						c-0.2-0.1-0.4-0.2-0.7-0.2c-0.2,0-0.5,0.1-0.7,0.2s-0.4,0.3-0.6,0.5s-0.3,0.5-0.4,0.8C12.5-71.2,12.5-70.8,12.5-70.3z"/>
					<path class="st6" d="M20.2-72.2v6.2H19v-7.9h1.2V-72.2z M19.9-70.3h-0.5c0-0.5,0.1-1,0.2-1.5s0.3-0.9,0.6-1.2
						c0.2-0.3,0.5-0.6,0.9-0.8c0.3-0.2,0.7-0.3,1.1-0.3c0.3,0,0.6,0.1,0.9,0.2s0.5,0.3,0.7,0.5s0.3,0.5,0.4,0.9s0.2,0.8,0.2,1.3v5.2
						H23v-5.2c0-0.4,0-0.7-0.1-1s-0.2-0.4-0.4-0.5c-0.2-0.1-0.4-0.2-0.7-0.2c-0.3,0-0.5,0.1-0.7,0.2s-0.4,0.3-0.6,0.6
						c-0.2,0.2-0.3,0.5-0.4,0.9C20-71,19.9-70.6,19.9-70.3z"/>
					<path class="st6" d="M30.1-68c0-0.2,0-0.4-0.1-0.5c-0.1-0.2-0.3-0.3-0.5-0.4s-0.5-0.3-0.9-0.5s-0.7-0.3-1-0.5
						c-0.3-0.1-0.5-0.3-0.7-0.5s-0.4-0.4-0.5-0.6s-0.2-0.5-0.2-0.8s0.1-0.6,0.2-0.9s0.3-0.5,0.5-0.7s0.5-0.4,0.8-0.5s0.7-0.2,1-0.2
						c0.5,0,1,0.1,1.4,0.3s0.7,0.5,0.9,0.9c0.2,0.4,0.3,0.8,0.3,1.2H30c0-0.2,0-0.4-0.1-0.6s-0.2-0.4-0.4-0.5
						C29.2-72.9,29-73,28.7-73s-0.5,0.1-0.7,0.2s-0.3,0.2-0.4,0.4c-0.1,0.2-0.1,0.3-0.1,0.5c0,0.1,0,0.3,0.1,0.4
						c0,0.1,0.1,0.2,0.2,0.3c0.1,0.1,0.2,0.2,0.4,0.3c0.2,0.1,0.4,0.2,0.7,0.3c0.5,0.2,1,0.4,1.4,0.6s0.6,0.5,0.8,0.8
						c0.2,0.3,0.3,0.6,0.3,1.1c0,0.3-0.1,0.7-0.2,0.9c-0.1,0.3-0.3,0.5-0.5,0.7s-0.5,0.4-0.8,0.5s-0.7,0.2-1.1,0.2
						c-0.6,0-1.1-0.1-1.5-0.4c-0.4-0.2-0.7-0.5-0.9-0.9c-0.2-0.4-0.3-0.8-0.3-1.2h1.3c0,0.4,0.1,0.7,0.3,0.9
						c0.2,0.2,0.3,0.3,0.6,0.4s0.4,0.1,0.7,0.1c0.3,0,0.5,0,0.7-0.1s0.3-0.2,0.4-0.4C30-67.6,30.1-67.8,30.1-68z"/>
					<path class="st6" d="M35.8-67c0.3,0,0.5-0.1,0.7-0.2s0.4-0.3,0.5-0.5s0.2-0.5,0.2-0.9h1.2c0,0.5-0.2,1-0.4,1.4s-0.6,0.7-1,0.9
						c-0.4,0.2-0.8,0.3-1.3,0.3s-1-0.1-1.3-0.2c-0.4-0.2-0.7-0.4-0.9-0.7c-0.2-0.3-0.4-0.7-0.6-1.1c-0.1-0.5-0.2-1-0.2-1.5v-0.9
						c0-0.6,0.1-1.1,0.2-1.5c0.1-0.5,0.3-0.8,0.6-1.1c0.2-0.3,0.6-0.6,0.9-0.7c0.4-0.2,0.8-0.2,1.3-0.2s1,0.1,1.4,0.3
						c0.4,0.2,0.7,0.6,0.9,1s0.3,0.9,0.4,1.5h-1.2c0-0.4-0.1-0.7-0.2-1c-0.1-0.3-0.3-0.5-0.5-0.6s-0.5-0.2-0.8-0.2s-0.6,0.1-0.8,0.2
						s-0.4,0.3-0.5,0.5s-0.2,0.5-0.3,0.8s-0.1,0.7-0.1,1v0.9c0,0.4,0,0.7,0.1,1.1c0.1,0.3,0.1,0.6,0.3,0.8c0.1,0.2,0.3,0.4,0.5,0.5
						C35.2-67,35.5-67,35.8-67z"/>
					<path class="st6" d="M40-76c0-0.2,0.1-0.4,0.2-0.6c0.1-0.2,0.3-0.2,0.5-0.2s0.4,0.1,0.6,0.2c0.1,0.2,0.2,0.3,0.2,0.6
						c0,0.2-0.1,0.4-0.2,0.5c-0.1,0.1-0.3,0.2-0.6,0.2s-0.4-0.1-0.5-0.2C40.1-75.6,40-75.8,40-76z M41.4-73.9v7.9h-1.3v-7.9H41.4z"
						/>
					<path class="st6" d="M43.2-69.6v-0.8c0-0.6,0.1-1.2,0.2-1.6c0.2-0.5,0.4-0.9,0.7-1.2c0.3-0.3,0.6-0.5,1-0.7s0.8-0.2,1.2-0.2
						s0.8,0.1,1.2,0.2c0.4,0.2,0.7,0.4,1,0.7c0.3,0.3,0.5,0.7,0.7,1.2s0.2,1,0.2,1.6v0.8c0,0.6-0.1,1.2-0.2,1.6
						c-0.2,0.5-0.4,0.9-0.7,1.2s-0.6,0.5-1,0.7s-0.8,0.2-1.2,0.2s-0.8-0.1-1.2-0.2s-0.7-0.4-1-0.7c-0.3-0.3-0.5-0.7-0.7-1.2
						C43.2-68.4,43.2-69,43.2-69.6z M44.5-70.3v0.8c0,0.4,0,0.8,0.1,1.1c0.1,0.3,0.2,0.6,0.4,0.8c0.2,0.2,0.3,0.4,0.6,0.5
						C45.7-67,46-67,46.2-67c0.3,0,0.5-0.1,0.8-0.2c0.2-0.1,0.4-0.3,0.6-0.5c0.1-0.2,0.3-0.5,0.3-0.8c0.1-0.3,0.1-0.7,0.1-1.1v-0.8
						c0-0.4,0-0.8-0.1-1.1c-0.1-0.3-0.2-0.6-0.4-0.8c-0.2-0.2-0.4-0.4-0.6-0.5c-0.2-0.1-0.5-0.2-0.7-0.2s-0.5,0.1-0.7,0.2
						s-0.4,0.3-0.6,0.5c-0.2,0.2-0.3,0.5-0.4,0.8C44.5-71.2,44.5-70.8,44.5-70.3z"/>
					<path class="st6" d="M55.2-69.5h0.5c0,0.5,0,1-0.1,1.5c-0.1,0.4-0.2,0.8-0.4,1.2c-0.2,0.3-0.5,0.6-0.8,0.8
						c-0.3,0.2-0.7,0.3-1.2,0.3c-0.3,0-0.6-0.1-0.9-0.2c-0.3-0.1-0.5-0.3-0.7-0.5s-0.3-0.5-0.4-0.9c-0.1-0.4-0.2-0.8-0.2-1.4v-5.1
						h1.3v5.1c0,0.4,0,0.7,0.1,0.9c0.1,0.2,0.1,0.4,0.3,0.5c0.1,0.1,0.2,0.2,0.4,0.3s0.3,0.1,0.4,0.1c0.5,0,0.8-0.1,1.1-0.3
						c0.3-0.2,0.5-0.5,0.6-0.9C55.1-68.6,55.2-69,55.2-69.5z M55-67.8v-6.1h1.3v7.9H55V-67.8z"/>
					<path class="st6" d="M62.1-68c0-0.2,0-0.4-0.1-0.5c-0.1-0.2-0.3-0.3-0.5-0.4s-0.5-0.3-0.9-0.5s-0.7-0.3-1-0.5
						c-0.3-0.1-0.5-0.3-0.7-0.5s-0.4-0.4-0.5-0.6s-0.2-0.5-0.2-0.8s0.1-0.6,0.2-0.9c0.1-0.3,0.3-0.5,0.5-0.7s0.5-0.4,0.8-0.5
						s0.7-0.2,1-0.2c0.5,0,1,0.1,1.4,0.3s0.7,0.5,0.9,0.9s0.3,0.8,0.3,1.2H62c0-0.2,0-0.4-0.1-0.6s-0.2-0.4-0.4-0.5
						C61.2-72.9,61-73,60.7-73s-0.5,0.1-0.7,0.2s-0.3,0.2-0.4,0.4c-0.1,0.2-0.1,0.3-0.1,0.5c0,0.1,0,0.3,0.1,0.4
						c0,0.1,0.1,0.2,0.2,0.3c0.1,0.1,0.2,0.2,0.4,0.3c0.2,0.1,0.4,0.2,0.7,0.3c0.5,0.2,1,0.4,1.4,0.6s0.6,0.5,0.8,0.8
						s0.3,0.6,0.3,1.1c0,0.3-0.1,0.7-0.2,0.9c-0.1,0.3-0.3,0.5-0.5,0.7s-0.5,0.4-0.8,0.5s-0.7,0.2-1.1,0.2c-0.6,0-1.1-0.1-1.5-0.4
						c-0.4-0.2-0.7-0.5-0.9-0.9s-0.3-0.8-0.3-1.2h1.3c0,0.4,0.1,0.7,0.3,0.9c0.2,0.2,0.3,0.3,0.6,0.4s0.4,0.1,0.7,0.1s0.5,0,0.7-0.1
						s0.3-0.2,0.4-0.4C62-67.6,62.1-67.8,62.1-68z"/>
					<path class="st6" d="M66.4-77.2V-66h-1.3v-11.2H66.4z"/>
					<path class="st6" d="M69.2-73.9l1.6,6.2l0.3,1.4l-0.9,0.5l-2.4-8.1H69.2z M70.3-66.8l1.8-7.1h1.4l-2.6,9.1
						c-0.1,0.2-0.1,0.4-0.3,0.6c-0.1,0.2-0.2,0.4-0.4,0.6c-0.2,0.2-0.4,0.4-0.6,0.5s-0.5,0.2-0.8,0.2c-0.1,0-0.2,0-0.4,0
						c-0.1,0-0.2-0.1-0.3-0.1v-1h0.1c0.1,0,0.1,0,0.1,0c0.3,0,0.5,0,0.6-0.1c0.2-0.1,0.3-0.2,0.5-0.4c0.1-0.2,0.2-0.4,0.3-0.8
						L70.3-66.8z"/>
					<path class="st6" d="M82-68c0-0.2,0-0.4-0.1-0.5c-0.1-0.2-0.3-0.3-0.5-0.4s-0.5-0.3-0.9-0.5s-0.7-0.3-1-0.5
						c-0.3-0.1-0.5-0.3-0.7-0.5s-0.4-0.4-0.5-0.6s-0.2-0.5-0.2-0.8s0.1-0.6,0.2-0.9s0.3-0.5,0.5-0.7s0.5-0.4,0.8-0.5s0.7-0.2,1-0.2
						c0.5,0,1,0.1,1.4,0.3s0.7,0.5,0.9,0.9c0.2,0.4,0.3,0.8,0.3,1.2H82c0-0.2,0-0.4-0.1-0.6s-0.2-0.4-0.4-0.5
						C81.2-72.9,81-73,80.7-73s-0.5,0.1-0.7,0.2s-0.3,0.2-0.4,0.4c-0.1,0.2-0.1,0.3-0.1,0.5c0,0.1,0,0.3,0.1,0.4
						c0,0.1,0.1,0.2,0.2,0.3c0.1,0.1,0.2,0.2,0.4,0.3c0.2,0.1,0.4,0.2,0.7,0.3c0.5,0.2,1,0.4,1.4,0.6s0.6,0.5,0.8,0.8
						c0.2,0.3,0.3,0.6,0.3,1.1c0,0.3-0.1,0.7-0.2,0.9c-0.1,0.3-0.3,0.5-0.5,0.7s-0.5,0.4-0.8,0.5s-0.7,0.2-1.1,0.2
						c-0.6,0-1.1-0.1-1.5-0.4c-0.4-0.2-0.7-0.5-0.9-0.9c-0.2-0.4-0.3-0.8-0.3-1.2h1.3c0,0.4,0.1,0.7,0.3,0.9
						c0.2,0.2,0.3,0.3,0.6,0.4s0.4,0.1,0.7,0.1c0.3,0,0.5,0,0.7-0.1s0.3-0.2,0.4-0.4C82-67.6,82-67.8,82-68z"/>
					<path class="st6" d="M86.4-77.2V-66h-1.3v-11.2H86.4z"/>
					<path class="st6" d="M88.2-69.6v-0.8c0-0.6,0.1-1.2,0.2-1.6c0.2-0.5,0.4-0.9,0.7-1.2c0.3-0.3,0.6-0.5,1-0.7s0.8-0.2,1.2-0.2
						c0.4,0,0.8,0.1,1.2,0.2c0.4,0.2,0.7,0.4,1,0.7c0.3,0.3,0.5,0.7,0.7,1.2s0.2,1,0.2,1.6v0.8c0,0.6-0.1,1.2-0.2,1.6
						c-0.2,0.5-0.4,0.9-0.7,1.2s-0.6,0.5-1,0.7s-0.8,0.2-1.2,0.2s-0.8-0.1-1.2-0.2s-0.7-0.4-1-0.7c-0.3-0.3-0.5-0.7-0.7-1.2
						C88.3-68.4,88.2-69,88.2-69.6z M89.5-70.3v0.8c0,0.4,0,0.8,0.1,1.1c0.1,0.3,0.2,0.6,0.4,0.8c0.2,0.2,0.3,0.4,0.6,0.5
						C90.8-67,91-67,91.3-67s0.6-0.1,0.8-0.2c0.2-0.1,0.4-0.3,0.6-0.5c0.1-0.2,0.3-0.5,0.3-0.8c0.1-0.3,0.1-0.7,0.1-1.1v-0.8
						c0-0.4,0-0.8-0.1-1.1c-0.1-0.3-0.2-0.6-0.4-0.8c-0.2-0.2-0.4-0.4-0.6-0.5S91.5-73,91.3-73s-0.5,0.1-0.7,0.2s-0.4,0.3-0.6,0.5
						s-0.3,0.5-0.4,0.8C89.5-71.2,89.5-70.8,89.5-70.3z"/>
					<path class="st6" d="M96.7-73.9l1.5,6.6v1.3h-0.9l-1.9-7.9H96.7z M97.6-67.4l1.8-6.5h0.8l-0.1,1.3L98.4-66h-0.8V-67.4z
						 M100.4-73.9l1.7,6.4l0.1,1.5h-0.8l-1.8-6.6l-0.1-1.3H100.4z M101.7-67.4l1.4-6.5h1.3l-1.9,7.9h-0.8V-67.4z"/>
					<path class="st6" d="M108.6-65.9c-0.5,0-0.9-0.1-1.3-0.2s-0.7-0.4-1-0.6c-0.3-0.3-0.5-0.7-0.6-1.1s-0.2-1-0.2-1.6v-0.9
						c0-0.7,0.1-1.3,0.2-1.8c0.2-0.5,0.4-0.9,0.7-1.2c0.3-0.3,0.6-0.5,0.9-0.6c0.4-0.1,0.7-0.2,1.1-0.2c0.5,0,0.9,0.1,1.3,0.2
						c0.4,0.2,0.6,0.4,0.9,0.7s0.4,0.7,0.5,1.2s0.2,1,0.2,1.6v0.8h-5v-1.1h3.7v-0.2c0-0.4-0.1-0.8-0.2-1.1c-0.1-0.3-0.2-0.6-0.4-0.7
						c-0.2-0.2-0.5-0.3-0.9-0.3c-0.2,0-0.5,0-0.7,0.1s-0.4,0.2-0.5,0.4c-0.1,0.2-0.3,0.5-0.3,0.8c-0.1,0.3-0.1,0.8-0.1,1.3v0.9
						c0,0.4,0,0.8,0.1,1.1c0.1,0.3,0.2,0.6,0.4,0.8c0.2,0.2,0.4,0.3,0.6,0.4s0.5,0.1,0.8,0.1c0.4,0,0.8-0.1,1.1-0.3
						c0.3-0.2,0.5-0.4,0.7-0.6l0.7,0.8c-0.1,0.2-0.3,0.4-0.6,0.6c-0.2,0.2-0.5,0.3-0.8,0.4C109.4-65.9,109-65.9,108.6-65.9z"/>
					<path class="st6" d="M112.5-69.6v-0.7c0-0.7,0.1-1.2,0.2-1.7s0.3-0.9,0.5-1.2c0.2-0.3,0.5-0.5,0.8-0.7s0.7-0.2,1.1-0.2
						s0.8,0.1,1.1,0.2c0.3,0.2,0.5,0.4,0.7,0.7c0.2,0.3,0.4,0.7,0.5,1.1s0.2,1,0.2,1.5v1c0,0.6-0.1,1.1-0.2,1.5s-0.3,0.8-0.5,1.1
						s-0.4,0.6-0.7,0.7s-0.7,0.2-1.1,0.2s-0.7-0.1-1.1-0.2c-0.3-0.2-0.6-0.4-0.8-0.7c-0.2-0.3-0.4-0.7-0.5-1.2
						C112.6-68.4,112.5-69,112.5-69.6z M113.8-70.3v0.7c0,0.4,0,0.8,0.1,1.1c0.1,0.3,0.2,0.6,0.3,0.8c0.1,0.2,0.3,0.4,0.5,0.5
						s0.5,0.2,0.8,0.2c0.4,0,0.7-0.1,0.9-0.3s0.4-0.4,0.6-0.7c0.1-0.3,0.2-0.6,0.3-0.9V-71c0-0.2-0.1-0.5-0.2-0.7s-0.2-0.4-0.3-0.6
						c-0.1-0.2-0.3-0.3-0.5-0.4s-0.4-0.2-0.7-0.2c-0.3,0-0.6,0.1-0.8,0.2c-0.2,0.1-0.4,0.3-0.5,0.5s-0.2,0.5-0.3,0.8
						C113.8-71.1,113.8-70.8,113.8-70.3z M116.9-67.5v-9.7h1.3V-66H117L116.9-67.5z"/>
				</g>
			</g>
		</g>
	</g>
</g>
<g id="g-root-tx_speechra_1qd7kjt1ap5f63-stroke" transform="translate(460.42498779296875, 218)">
</g>
<g id="g-root-tx_delibera_zqx0w91ap5f65-fill" transform="translate(655.0750122070312, 218)">
	<g id="tx_delibera_zqx0w91ap5f65-fill-merged">
		<g>
			<g>
				<g class="st5">
					<path class="st6" d="M-8.5-94.7V-84h-1.3v-10.7H-8.5z M-7.4-84h-1.8v-1.2h1.8c0.6,0,1.2-0.1,1.6-0.4c0.4-0.2,0.7-0.6,0.9-1.1
						s0.3-1.1,0.3-1.8v-1.8c0-0.6-0.1-1.1-0.2-1.5s-0.3-0.7-0.5-1s-0.5-0.5-0.8-0.6s-0.7-0.2-1.1-0.2h-2v-1.2h2
						c0.6,0,1.1,0.1,1.6,0.3c0.5,0.2,0.9,0.5,1.2,0.8c0.3,0.4,0.6,0.8,0.8,1.4s0.3,1.2,0.3,1.9v1.8c0,0.7-0.1,1.4-0.3,1.9
						c-0.2,0.6-0.5,1-0.8,1.4c-0.4,0.4-0.8,0.7-1.3,0.8C-6.2-84.1-6.8-84-7.4-84z"/>
					<path class="st6" d="M1.4-83.9c-0.5,0-0.9-0.1-1.3-0.2s-0.7-0.4-1-0.6c-0.3-0.3-0.5-0.7-0.6-1.1s-0.2-1-0.2-1.6v-0.9
						c0-0.7,0.1-1.3,0.2-1.8c0.2-0.5,0.4-0.9,0.7-1.2c0.3-0.3,0.6-0.5,0.9-0.6c0.4-0.1,0.7-0.2,1.1-0.2c0.5,0,0.9,0.1,1.3,0.2
						c0.4,0.2,0.6,0.4,0.9,0.7s0.4,0.7,0.5,1.2c0.1,0.5,0.2,1,0.2,1.6v0.8h-5v-1.1h3.7v-0.2c0-0.4-0.1-0.8-0.2-1.1
						c-0.1-0.3-0.2-0.6-0.4-0.7c-0.3-0.2-0.6-0.3-1-0.3c-0.2,0-0.5,0-0.7,0.1S0.1-90.7,0-90.5s-0.3,0.5-0.3,0.8
						c-0.1,0.3-0.1,0.8-0.1,1.3v0.9c0,0.4,0,0.8,0.1,1.1c0.1,0.3,0.2,0.6,0.4,0.8c0.2,0.2,0.4,0.3,0.6,0.4C0.9-85,1.1-85,1.4-85
						c0.4,0,0.8-0.1,1.1-0.3c0.3-0.2,0.5-0.4,0.7-0.6l0.7,0.8c-0.1,0.2-0.3,0.4-0.6,0.6c-0.2,0.2-0.5,0.3-0.8,0.4
						C2.2-83.9,1.8-83.9,1.4-83.9z"/>
					<path class="st6" d="M7-95.2V-84H5.7v-11.2H7z"/>
					<path class="st6" d="M9-94c0-0.2,0.1-0.4,0.2-0.6c0.1-0.2,0.3-0.2,0.5-0.2s0.4,0.1,0.6,0.2c0.1,0.2,0.2,0.3,0.2,0.6
						c0,0.2-0.1,0.4-0.2,0.5c-0.1,0.1-0.3,0.2-0.6,0.2s-0.4-0.1-0.5-0.2C9.1-93.6,9-93.8,9-94z M10.4-91.9v7.9H9.1v-7.9H10.4z"/>
					<path class="st6" d="M12.4-95.2h1.3v9.7L13.6-84h-1.2C12.4-84,12.4-95.2,12.4-95.2z M18.2-88.3v0.7c0,0.6-0.1,1.2-0.2,1.6
						c-0.1,0.5-0.3,0.9-0.5,1.2c-0.2,0.3-0.5,0.5-0.8,0.7s-0.7,0.2-1.1,0.2s-0.8-0.1-1.1-0.2s-0.5-0.4-0.7-0.7s-0.4-0.7-0.5-1.2
						c-0.1-0.4-0.2-0.9-0.2-1.5v-1c0-0.6,0.1-1.1,0.2-1.5c0.1-0.4,0.3-0.8,0.5-1.1c0.2-0.3,0.4-0.6,0.7-0.7s0.7-0.2,1.1-0.2
						c0.4,0,0.8,0.1,1.1,0.2c0.3,0.1,0.6,0.4,0.8,0.7c0.2,0.3,0.4,0.7,0.5,1.2C18.1-89.5,18.2-89,18.2-88.3z M16.9-87.6v-0.7
						c0-0.4,0-0.8-0.1-1.1c-0.1-0.3-0.1-0.6-0.3-0.8c-0.2-0.2-0.3-0.5-0.5-0.6c-0.2-0.1-0.5-0.2-0.8-0.2s-0.5,0.1-0.7,0.2
						s-0.4,0.3-0.5,0.4c-0.1,0.2-0.3,0.4-0.4,0.6c-0.1,0.2-0.2,0.5-0.2,0.7v2.1c0.1,0.3,0.2,0.6,0.3,0.9s0.3,0.5,0.6,0.7
						s0.6,0.4,0.9,0.4c0.3,0,0.5-0.1,0.8-0.2c0.2-0.1,0.4-0.3,0.5-0.5s0.2-0.5,0.3-0.8C16.9-86.8,16.9-87.1,16.9-87.6z"/>
					<path class="st6" d="M22.7-83.9c-0.5,0-0.9-0.1-1.3-0.2s-0.7-0.4-1-0.6c-0.3-0.3-0.5-0.7-0.6-1.1s-0.2-1-0.2-1.6v-0.9
						c0-0.7,0.1-1.3,0.2-1.8c0.2-0.5,0.4-0.9,0.7-1.2c0.3-0.3,0.6-0.5,0.9-0.6c0.4-0.1,0.7-0.2,1.1-0.2c0.5,0,0.9,0.1,1.3,0.2
						c0.4,0.2,0.6,0.4,0.9,0.7s0.4,0.7,0.5,1.2s0.2,1,0.2,1.6v0.8h-5v-1.1H24v-0.2c0-0.4-0.1-0.8-0.2-1.1c-0.1-0.3-0.2-0.6-0.4-0.7
						c-0.2-0.2-0.5-0.3-0.9-0.3c-0.2,0-0.5,0-0.7,0.1s-0.4,0.2-0.5,0.4C21.2-90.3,21-90,21-89.7c-0.1,0.3-0.1,0.8-0.1,1.3v0.9
						c0,0.4,0,0.8,0.1,1.1c0.1,0.3,0.2,0.6,0.4,0.8c0.2,0.2,0.4,0.3,0.6,0.4s0.5,0.1,0.8,0.1c0.4,0,0.8-0.1,1.1-0.3
						c0.3-0.2,0.5-0.4,0.7-0.6l0.7,0.8c-0.1,0.2-0.3,0.4-0.6,0.6c-0.2,0.2-0.5,0.3-0.8,0.4C23.5-83.9,23.1-83.9,22.7-83.9z"/>
					<path class="st6" d="M28.2-90.7v6.7h-1.3v-7.9h1.3V-90.7z M30.1-92v1.3c-0.1,0-0.2,0-0.3,0c-0.1,0-0.2,0-0.3,0
						c-0.2,0-0.5,0-0.6,0.1c-0.2,0.1-0.3,0.2-0.5,0.4s-0.2,0.4-0.3,0.6c-0.1,0.2-0.1,0.5-0.2,0.8l-0.3,0.2c0-0.5,0-0.9,0.1-1.3
						s0.2-0.8,0.4-1.1c0.2-0.3,0.4-0.6,0.6-0.8c0.3-0.2,0.6-0.3,0.9-0.3c0.1,0,0.2,0,0.3,0C30-92,30.1-92,30.1-92z"/>
					<path class="st6" d="M35.5-88.8v1h-0.9c-0.3,0-0.6,0-0.8,0.1c-0.3,0.1-0.5,0.2-0.6,0.3c-0.2,0.1-0.3,0.3-0.4,0.5
						c-0.1,0.2-0.1,0.4-0.1,0.7c0,0.3,0,0.6,0.1,0.8c0.1,0.2,0.2,0.3,0.4,0.4s0.4,0.1,0.7,0.1s0.6-0.1,0.9-0.2s0.4-0.3,0.6-0.5
						c0.1-0.2,0.2-0.4,0.2-0.6l0.3,0.6c0,0.2-0.1,0.4-0.2,0.6c-0.1,0.2-0.2,0.4-0.4,0.6s-0.4,0.4-0.7,0.5s-0.5,0.2-0.8,0.2
						c-0.5,0-0.9-0.1-1.2-0.3c-0.3-0.2-0.6-0.4-0.8-0.8s-0.3-0.8-0.3-1.3c0-0.4,0.1-0.7,0.2-1.1s0.3-0.6,0.6-0.8
						c0.3-0.2,0.6-0.4,1-0.6c0.4-0.1,0.8-0.2,1.4-0.2C34.7-88.8,35.5-88.8,35.5-88.8z M35.3-85.4v-4.3c0-0.3,0-0.6-0.1-0.8
						c-0.1-0.2-0.2-0.3-0.4-0.4S34.4-91,34.1-91c-0.3,0-0.5,0.1-0.7,0.2s-0.3,0.3-0.5,0.4c-0.1,0.2-0.2,0.4-0.2,0.6h-1.3
						c0-0.3,0.1-0.6,0.2-0.8c0.1-0.3,0.3-0.5,0.5-0.8c0.2-0.2,0.5-0.4,0.8-0.5s0.7-0.2,1.1-0.2c0.5,0,0.9,0.1,1.3,0.2
						c0.4,0.2,0.7,0.4,0.9,0.8s0.3,0.8,0.3,1.4v3.9c0,0.3,0,0.5,0.1,0.8c0,0.3,0.1,0.6,0.2,0.8v0.1h-1.3c-0.1-0.2-0.1-0.4-0.1-0.6
						C35.3-84.9,35.3-85.1,35.3-85.4z"/>
					<path class="st6" d="M41.5-91.9v1h-3.7v-1H41.5z M39-93.9h1.3v7.9c0,0.3,0,0.5,0.1,0.6s0.1,0.2,0.3,0.3S40.9-85,41-85
						s0.2,0,0.3,0s0.2,0,0.2-0.1v1.1c-0.1,0-0.2,0.1-0.4,0.1c-0.1,0-0.3,0-0.6,0S40-84,39.7-84.1c-0.2-0.1-0.4-0.4-0.6-0.7
						c0-0.2-0.1-0.6-0.1-1.2C39-86,39-93.9,39-93.9z"/>
					<path class="st6" d="M45.9-83.9c-0.5,0-0.9-0.1-1.3-0.2c-0.4-0.1-0.7-0.4-1-0.6c-0.3-0.3-0.5-0.7-0.6-1.1s-0.2-1-0.2-1.6v-0.9
						c0-0.7,0.1-1.3,0.2-1.8c0.2-0.5,0.4-0.9,0.7-1.2c0.3-0.3,0.6-0.5,0.9-0.6c0.4-0.1,0.7-0.2,1.1-0.2c0.5,0,0.9,0.1,1.3,0.2
						c0.4,0.2,0.6,0.4,0.9,0.7s0.4,0.7,0.5,1.2s0.2,1,0.2,1.6v0.8h-5v-1.1h3.7v-0.2c0-0.4-0.1-0.8-0.2-1.1c-0.1-0.3-0.2-0.6-0.4-0.7
						c-0.2-0.2-0.5-0.3-0.9-0.3c-0.2,0-0.5,0-0.7,0.1s-0.4,0.2-0.5,0.4c-0.1,0.2-0.3,0.5-0.3,0.8c-0.1,0.3-0.1,0.8-0.1,1.3v0.9
						c0,0.4,0,0.8,0.1,1.1c0.1,0.3,0.2,0.6,0.4,0.8c0.2,0.2,0.4,0.3,0.6,0.4C45.4-85,45.7-85,46-85c0.4,0,0.8-0.1,1.1-0.3
						c0.3-0.2,0.5-0.4,0.7-0.6l0.7,0.8c-0.1,0.2-0.3,0.4-0.6,0.6c-0.2,0.2-0.5,0.3-0.8,0.4C46.8-83.9,46.4-83.9,45.9-83.9z"/>
					<path class="st6" d="M51.4-85.6v1.1c0,0.4-0.1,0.9-0.3,1.4s-0.5,0.9-0.9,1.2l-0.8-0.5c0.2-0.2,0.3-0.4,0.4-0.7
						c0.1-0.2,0.2-0.5,0.2-0.7c0.1-0.2,0.1-0.5,0.1-0.8v-1.1L51.4-85.6L51.4-85.6z"/>
					<path class="st6" d="M60.3-86c0-0.2,0-0.4-0.1-0.5c-0.1-0.2-0.3-0.3-0.5-0.4s-0.5-0.3-0.9-0.5s-0.7-0.3-1-0.5
						c-0.3-0.1-0.5-0.3-0.7-0.5s-0.4-0.4-0.5-0.6s-0.2-0.5-0.2-0.8s0.1-0.6,0.2-0.9c0.1-0.3,0.3-0.5,0.5-0.7s0.5-0.4,0.8-0.5
						s0.7-0.2,1-0.2c0.5,0,1,0.1,1.4,0.3s0.7,0.5,0.9,0.9s0.3,0.8,0.3,1.2h-1.3c0-0.2,0-0.4-0.1-0.6s-0.2-0.4-0.4-0.5
						C59.5-90.9,59.3-91,59-91s-0.5,0.1-0.7,0.2s-0.3,0.2-0.4,0.4c-0.1,0.2-0.1,0.3-0.1,0.5c0,0.1,0,0.3,0.1,0.4
						c0,0.1,0.1,0.2,0.2,0.3c0.1,0.1,0.2,0.2,0.4,0.3c0.2,0.1,0.4,0.2,0.7,0.3c0.5,0.2,1,0.4,1.4,0.6s0.6,0.5,0.8,0.8
						s0.3,0.6,0.3,1.1c0,0.3-0.1,0.7-0.2,0.9c-0.1,0.3-0.3,0.5-0.5,0.7s-0.5,0.4-0.8,0.5s-0.7,0.2-1.1,0.2c-0.6,0-1.1-0.1-1.5-0.4
						c-0.4-0.2-0.7-0.5-0.9-0.9s-0.3-0.8-0.3-1.2h1.3c0,0.4,0.1,0.7,0.3,0.9c0.2,0.2,0.3,0.3,0.6,0.4s0.2,0,0.4,0
						c0.3,0,0.5,0,0.7-0.1s0.3-0.2,0.4-0.4C60.3-85.6,60.3-85.8,60.3-86z"/>
					<path class="st6" d="M64.6-90.3v6.3h-1.3v-7.9h1.2L64.6-90.3z M64.4-88.3h-0.6c0-0.5,0-1,0.2-1.5c0.1-0.5,0.3-0.9,0.5-1.2
						c0.2-0.3,0.5-0.6,0.9-0.8c0.3-0.2,0.7-0.3,1.2-0.3c0.3,0,0.6,0.1,0.8,0.2c0.3,0.1,0.5,0.3,0.7,0.5s0.3,0.5,0.5,0.9
						c0.1,0.4,0.2,0.8,0.2,1.3v5.3h-1.3v-5.2c0-0.4-0.1-0.7-0.2-1c-0.1-0.2-0.3-0.4-0.5-0.5s-0.4-0.2-0.7-0.2
						c-0.3,0-0.6,0.1-0.8,0.2c-0.2,0.1-0.4,0.3-0.5,0.6c-0.1,0.2-0.2,0.5-0.3,0.9C64.4-89,64.4-88.6,64.4-88.3z M68.6-89l-0.9,0.3
						c0-0.4,0-0.9,0.2-1.3c0.1-0.4,0.3-0.8,0.5-1.1c0.2-0.3,0.5-0.6,0.8-0.7c0.3-0.2,0.7-0.3,1.2-0.3c0.4,0,0.7,0.1,1,0.2
						s0.5,0.3,0.7,0.5s0.3,0.5,0.4,0.9s0.1,0.8,0.1,1.3v5.2h-1.3v-5.2c0-0.4-0.1-0.8-0.2-1s-0.3-0.4-0.5-0.5s-0.4-0.2-0.7-0.2
						c-0.2,0-0.4,0.1-0.6,0.2s-0.3,0.2-0.4,0.4c-0.1,0.2-0.2,0.4-0.3,0.6C68.7-89.5,68.6-89.3,68.6-89z"/>
					<path class="st6" d="M74.4-87.6v-0.8c0-0.6,0.1-1.2,0.2-1.6c0.2-0.5,0.4-0.9,0.7-1.2c0.3-0.3,0.6-0.5,1-0.7s0.8-0.2,1.2-0.2
						c0.4,0,0.8,0.1,1.2,0.2c0.4,0.2,0.7,0.4,1,0.7c0.3,0.3,0.5,0.7,0.7,1.2s0.2,1,0.2,1.6v0.8c0,0.6-0.1,1.2-0.2,1.6
						c-0.2,0.5-0.4,0.9-0.7,1.2s-0.6,0.5-1,0.7s-0.8,0.2-1.2,0.2s-0.8-0.1-1.2-0.2s-0.7-0.4-1-0.7c-0.3-0.3-0.5-0.7-0.7-1.2
						C74.4-86.4,74.4-87,74.4-87.6z M75.7-88.3v0.8c0,0.4,0,0.8,0.1,1.1c0.1,0.3,0.2,0.6,0.4,0.8c0.2,0.2,0.3,0.4,0.6,0.5
						c0.2,0.1,0.4,0.2,0.7,0.2c0.3,0,0.5-0.1,0.8-0.2c0.2-0.1,0.4-0.3,0.6-0.5c0.1-0.2,0.3-0.5,0.3-0.8c0.1-0.3,0.1-0.7,0.1-1.1
						v-0.8c0-0.4,0-0.8-0.1-1.1c-0.1-0.3-0.2-0.6-0.4-0.8c-0.2-0.2-0.4-0.4-0.6-0.5s-0.5-0.2-0.7-0.2s-0.5,0.1-0.7,0.2
						s-0.4,0.3-0.6,0.5s-0.3,0.5-0.4,0.8C75.7-89.2,75.7-88.8,75.7-88.3z"/>
					<path class="st6" d="M81.9-87.6v-0.8c0-0.6,0.1-1.2,0.2-1.6c0.2-0.5,0.4-0.9,0.7-1.2c0.3-0.3,0.6-0.5,1-0.7s0.8-0.2,1.2-0.2
						c0.4,0,0.8,0.1,1.2,0.2c0.4,0.2,0.7,0.4,1,0.7c0.3,0.3,0.5,0.7,0.7,1.2s0.2,1,0.2,1.6v0.8c0,0.6-0.1,1.2-0.2,1.6
						c-0.2,0.5-0.4,0.9-0.7,1.2s-0.6,0.5-1,0.7s-0.8,0.2-1.2,0.2s-0.8-0.1-1.2-0.2s-0.7-0.4-1-0.7c-0.3-0.3-0.5-0.7-0.7-1.2
						C82-86.4,81.9-87,81.9-87.6z M83.2-88.3v0.8c0,0.4,0,0.8,0.1,1.1c0.1,0.3,0.2,0.6,0.4,0.8c0.2,0.2,0.3,0.4,0.6,0.5
						C84.5-85,84.7-85,85-85s0.5-0.1,0.8-0.2c0.2-0.1,0.4-0.3,0.6-0.5c0.1-0.2,0.3-0.5,0.3-0.8c0.1-0.3,0.1-0.7,0.1-1.1v-0.8
						c0-0.4,0-0.8-0.1-1.1c-0.1-0.3-0.2-0.6-0.4-0.8c-0.2-0.2-0.4-0.4-0.6-0.5S85.2-91,85-91s-0.5,0.1-0.7,0.2s-0.4,0.3-0.6,0.5
						s-0.3,0.5-0.4,0.8C83.2-89.2,83.2-88.8,83.2-88.3z"/>
					<path class="st6" d="M92.6-91.9v1h-3.7v-1H92.6z M90.1-93.9h1.3v7.9c0,0.3,0,0.5,0.1,0.6s0.2,0.2,0.3,0.3S92-85,92.1-85
						s0.2,0,0.3,0c0.1,0,0.2,0,0.2-0.1v1.1c-0.1,0-0.2,0.1-0.4,0.1c-0.1,0-0.3,0-0.6,0c-0.3,0-0.5-0.1-0.8-0.2
						c-0.2-0.1-0.4-0.4-0.6-0.7c-0.1-0.3-0.2-0.7-0.2-1.3L90.1-93.9L90.1-93.9z"/>
					<path class="st6" d="M95.4-95.2V-84h-1.3v-11.2H95.4z M95.1-88.3h-0.5c0-0.5,0.1-1,0.2-1.5s0.3-0.9,0.6-1.2
						c0.2-0.3,0.5-0.6,0.9-0.8c0.3-0.2,0.7-0.3,1.1-0.3c0.3,0,0.6,0.1,0.9,0.2s0.5,0.3,0.7,0.5s0.3,0.5,0.4,0.9s0.2,0.8,0.2,1.3v5.2
						h-1.3v-5.2c0-0.4,0-0.7-0.1-1s-0.2-0.4-0.4-0.5c-0.2-0.1-0.4-0.2-0.7-0.2c-0.3,0-0.5,0.1-0.7,0.2s-0.4,0.3-0.6,0.6
						c-0.2,0.2-0.3,0.5-0.4,0.9C95.2-89,95.1-88.6,95.1-88.3z"/>
					<path class="st6" d="M104.2-83.9c-0.5,0-0.9-0.1-1.3-0.2s-0.7-0.4-1-0.6c-0.3-0.3-0.5-0.7-0.6-1.1s-0.2-1-0.2-1.6v-0.9
						c0-0.7,0.1-1.3,0.2-1.8c0.2-0.5,0.4-0.9,0.7-1.2c0.3-0.3,0.6-0.5,0.9-0.6c0.4-0.1,0.7-0.2,1.1-0.2c0.5,0,0.9,0.1,1.3,0.2
						c0.4,0.2,0.6,0.4,0.9,0.7s0.4,0.7,0.5,1.2s0.2,1,0.2,1.6v0.8h-5v-1.1h3.7v-0.2c0-0.4-0.1-0.8-0.2-1.1c-0.1-0.3-0.2-0.6-0.4-0.7
						c-0.2-0.2-0.5-0.3-0.9-0.3c-0.2,0-0.5,0-0.7,0.1s-0.4,0.2-0.5,0.4c-0.1,0.2-0.3,0.5-0.3,0.8c-0.1,0.3-0.1,0.8-0.1,1.3v0.9
						c0,0.4,0,0.8,0.1,1.1c0.1,0.3,0.2,0.6,0.4,0.8c0.2,0.2,0.4,0.3,0.6,0.4c0.1,0.2,0.4,0.2,0.7,0.2c0.4,0,0.8-0.1,1.1-0.3
						c0.3-0.2,0.5-0.4,0.7-0.6l0.7,0.8c-0.1,0.2-0.3,0.4-0.6,0.6c-0.2,0.2-0.5,0.3-0.8,0.4C105.1-83.9,104.7-83.9,104.2-83.9z"/>
					<path class="st6" d="M109.7-90.7v6.7h-1.3v-7.9h1.3V-90.7z M111.7-92v1.3c-0.1,0-0.2,0-0.3,0c-0.1,0-0.2,0-0.3,0
						c-0.2,0-0.5,0-0.6,0.1c-0.2,0.1-0.3,0.2-0.5,0.4s-0.2,0.4-0.3,0.6c-0.1,0.2-0.1,0.5-0.2,0.8l-0.3,0.2c0-0.5,0-0.9,0.1-1.3
						s0.2-0.8,0.4-1.1c0.2-0.3,0.4-0.6,0.6-0.8c0.3-0.2,0.6-0.3,0.9-0.3c0.1,0,0.2,0,0.3,0C111.6-92,111.6-92,111.7-92z"/>
				</g>
			</g>
			<g>
				<g class="st5">
					<path class="st6" d="M38.8-68c0-0.2,0-0.4-0.1-0.5c-0.1-0.2-0.3-0.3-0.5-0.4s-0.5-0.3-0.9-0.5s-0.7-0.3-1-0.5
						c-0.3-0.1-0.5-0.3-0.7-0.5s-0.4-0.4-0.5-0.6s-0.2-0.5-0.2-0.8s0.1-0.6,0.2-0.9c0.1-0.3,0.3-0.5,0.5-0.7s0.5-0.4,0.8-0.5
						s0.7-0.2,1-0.2c0.5,0,1,0.1,1.4,0.3c0.4,0.2,0.7,0.5,0.9,0.9s0.3,0.8,0.3,1.2h-1.3c0-0.2,0-0.4-0.1-0.6s-0.2-0.4-0.4-0.5
						S37.8-73,37.5-73s-0.5,0.1-0.7,0.2s-0.3,0.2-0.4,0.4c-0.1,0.2-0.1,0.3-0.1,0.5c0,0.1,0,0.3,0.1,0.4c0,0.1,0.1,0.2,0.2,0.3
						c0.1,0.1,0.2,0.2,0.4,0.3c0.2,0.1,0.4,0.2,0.7,0.3c0.5,0.2,1,0.4,1.4,0.6s0.6,0.5,0.8,0.8s0.3,0.6,0.3,1.1
						c0,0.3-0.1,0.7-0.2,0.9c-0.1,0.3-0.3,0.5-0.5,0.7S39-66.1,38.7-66s-0.7,0.2-1.1,0.2c-0.6,0-1.1-0.1-1.5-0.4
						c-0.4-0.2-0.7-0.5-0.9-0.9s-0.3-0.8-0.3-1.2H36c0,0.4,0.1,0.7,0.3,0.9c0.2,0.2,0.3,0.3,0.6,0.4s0.4,0.1,0.7,0.1s0.5,0,0.7-0.1
						s0.3-0.2,0.4-0.4C38.7-67.6,38.8-67.8,38.8-68z"/>
					<path class="st6" d="M43.1-72.4v9.4h-1.3v-11H43L43.1-72.4z M47.5-70.3v0.7c0,0.6-0.1,1.2-0.2,1.6c-0.1,0.5-0.3,0.9-0.5,1.2
						c-0.2,0.3-0.5,0.5-0.8,0.7s-0.7,0.2-1.1,0.2s-0.8-0.1-1.1-0.2c-0.3-0.2-0.6-0.4-0.8-0.7c-0.2-0.3-0.4-0.7-0.5-1.1
						s-0.2-0.9-0.2-1.4v-1.1c0-0.6,0.1-1.1,0.2-1.5c0.1-0.4,0.3-0.8,0.5-1.1c0.2-0.3,0.5-0.6,0.8-0.7c0.3-0.2,0.7-0.2,1.1-0.2
						c0.4,0,0.8,0.1,1.1,0.2s0.6,0.4,0.8,0.7c0.2,0.3,0.4,0.7,0.5,1.2C47.5-71.5,47.5-71,47.5-70.3z M46.2-69.6v-0.7
						c0-0.4,0-0.8-0.1-1.1c-0.1-0.3-0.2-0.6-0.3-0.8s-0.3-0.4-0.5-0.5s-0.5-0.2-0.8-0.2s-0.5,0.1-0.7,0.2s-0.4,0.3-0.5,0.4
						c-0.1,0.2-0.3,0.4-0.4,0.6c-0.1,0.2-0.2,0.5-0.2,0.7v2.2c0.1,0.3,0.2,0.6,0.3,0.9s0.3,0.5,0.6,0.7c0.2,0.2,0.5,0.3,0.9,0.3
						c0.3,0,0.6-0.1,0.8-0.2s0.4-0.3,0.5-0.5s0.2-0.5,0.3-0.8C46.2-68.8,46.2-69.1,46.2-69.6z"/>
					<path class="st6" d="M52-65.9c-0.5,0-0.9-0.1-1.3-0.2c-0.4-0.1-0.7-0.4-1-0.6c-0.3-0.3-0.5-0.7-0.6-1.1s-0.2-1-0.2-1.6v-0.9
						c0-0.7,0.1-1.3,0.2-1.8c0.2-0.5,0.4-0.9,0.7-1.2c0.3-0.3,0.6-0.5,0.9-0.6c0.4-0.1,0.7-0.2,1.1-0.2c0.5,0,0.9,0.1,1.3,0.2
						c0.4,0.2,0.6,0.4,0.9,0.7s0.4,0.7,0.5,1.2s0.2,1,0.2,1.6v0.8h-5v-1.1h3.7v-0.2c0-0.4-0.1-0.8-0.2-1.1c-0.1-0.3-0.2-0.6-0.4-0.7
						c-0.2-0.2-0.5-0.3-0.9-0.3c-0.2,0-0.5,0-0.7,0.1s-0.4,0.2-0.5,0.4c-0.1,0.2-0.3,0.5-0.3,0.8c-0.1,0.3-0.1,0.8-0.1,1.3v0.9
						c0,0.4,0,0.8,0.1,1.1c0.1,0.3,0.2,0.6,0.4,0.8c0.2,0.2,0.4,0.3,0.6,0.4c0.2,0.1,0.5,0.1,0.8,0.1c0.4,0,0.8-0.1,1.1-0.3
						c0.3-0.2,0.5-0.4,0.7-0.6l0.7,0.8c-0.1,0.2-0.3,0.4-0.6,0.6c-0.2,0.2-0.5,0.3-0.8,0.4C52.9-65.9,52.5-65.9,52-65.9z"/>
					<path class="st6" d="M59-65.9c-0.5,0-0.9-0.1-1.3-0.2c-0.4-0.1-0.7-0.4-1-0.6c-0.3-0.3-0.5-0.7-0.6-1.1s-0.2-1-0.2-1.6v-0.9
						c0-0.7,0.1-1.3,0.2-1.8c0.2-0.5,0.4-0.9,0.7-1.2c0.3-0.3,0.6-0.5,0.9-0.6c0.4-0.1,0.7-0.2,1.1-0.2c0.5,0,0.9,0.1,1.3,0.2
						c0.4,0.2,0.6,0.4,0.9,0.7s0.4,0.7,0.5,1.2s0.2,1,0.2,1.6v0.8h-5v-1.1h3.7v-0.2c0-0.4-0.1-0.8-0.2-1.1c-0.1-0.3-0.2-0.6-0.4-0.7
						c-0.2-0.2-0.5-0.3-0.9-0.3c-0.2,0-0.5,0-0.7,0.1s-0.4,0.2-0.5,0.4c-0.1,0.2-0.3,0.5-0.3,0.8c-0.1,0.3-0.1,0.8-0.1,1.3v0.9
						c0,0.4,0,0.8,0.1,1.1c0.1,0.3,0.2,0.6,0.4,0.8c0.2,0.2,0.4,0.3,0.6,0.4c0.2,0.1,0.5,0.1,0.8,0.1c0.4,0,0.8-0.1,1.1-0.3
						c0.3-0.2,0.5-0.4,0.7-0.6l0.7,0.8c-0.1,0.2-0.3,0.4-0.6,0.6c-0.2,0.2-0.5,0.3-0.8,0.4C59.9-65.9,59.5-65.9,59-65.9z"/>
					<path class="st6" d="M66-67c0.3,0,0.5-0.1,0.7-0.2s0.4-0.3,0.5-0.5s0.2-0.5,0.2-0.9h1.2c0,0.5-0.2,1-0.4,1.4
						c-0.2,0.4-0.6,0.7-1,0.9c-0.4,0.2-0.8,0.3-1.3,0.3s-1-0.1-1.3-0.2c-0.4-0.2-0.7-0.4-0.9-0.7c-0.2-0.3-0.4-0.7-0.6-1.1
						c-0.1-0.5-0.2-1-0.2-1.5v-0.9c0-0.6,0.1-1.1,0.2-1.5c0.1-0.5,0.3-0.8,0.6-1.1c0.2-0.3,0.6-0.6,0.9-0.7c0.4-0.2,0.8-0.2,1.3-0.2
						s1,0.1,1.4,0.3c0.4,0.2,0.7,0.6,0.9,1c0.2,0.4,0.3,0.9,0.4,1.5h-1.2c0-0.4-0.1-0.7-0.2-1s-0.3-0.5-0.5-0.6
						C66.5-72.9,66.3-73,66-73s-0.6,0.1-0.8,0.2c-0.2,0.1-0.4,0.3-0.5,0.5s-0.2,0.5-0.3,0.8s-0.1,0.7-0.1,1v0.9c0,0.4,0,0.7,0.1,1.1
						c0.1,0.3,0.1,0.6,0.3,0.8c0.1,0.2,0.3,0.4,0.5,0.5C65.4-67,65.6-67,66-67z"/>
					<path class="st6" d="M71.5-77.2V-66h-1.3v-11.2H71.5z M71.1-70.3h-0.5c0-0.5,0.1-1,0.2-1.5s0.3-0.9,0.6-1.2
						c0.2-0.3,0.5-0.6,0.9-0.8c0.3-0.2,0.7-0.3,1.1-0.3c0.3,0,0.6,0.1,0.9,0.2s0.5,0.3,0.7,0.5s0.3,0.5,0.4,0.9s0.1,0.8,0.1,1.3v5.2
						h-1.3v-5.2c0-0.4,0-0.7-0.1-1s-0.2-0.4-0.4-0.5c-0.2-0.1-0.4-0.2-0.7-0.2c-0.3,0-0.5,0.1-0.7,0.2s-0.4,0.3-0.6,0.6
						c-0.2,0.2-0.3,0.5-0.4,0.9C71.2-71,71.1-70.6,71.1-70.3z"/>
				</g>
			</g>
		</g>
	</g>
</g>
<g id="g-root-tx_delibera_zqx0w91ap5f65-stroke" transform="translate(655.0750122070312, 218)">
</g>
<g id="g-root-cp_0_g-0_dhblxl1ap5dz7-stroke_00000149378911578438463020000002095910151952534187_" transform="translate(26, 278)">
	<g id="cp_0_g-0_dhblxl1ap5dz7-stroke_00000075130798390523292160000009249130290103210379_">
		<g>
			<path class="st7" d="M789,27l7,8l7-8 M789,27l7,8l7-8 M767,5l-7-8l-7,8 M767,5l-7-8l-7,8 M767,17l-7-8l-7,8 M767,17l-7-8l-7,8
				 M767,29l-7-8l-7,8 M767,29l-7-8l-7,8 M740-17.8l-16-12.9l-16,12.9 M740-17.8l-16-12.9l-16,12.9 M740,1.6l-16-12.9L708,1.6
				 M740,1.6l-16-12.9L708,1.6 M740,21L724,8.1L708,21 M740,21L724,8.1L708,21 M140-17.8l-16-12.9l-16,12.9 M140-17.8l-16-12.9
				l-16,12.9 M140,1.6l-16-12.9L108,1.6 M140,1.6l-16-12.9L108,1.6 M140,21L124,8.1L108,21 M140,21L124,8.1L108,21 M80-17.8L64-30.7
				L48-17.8 M80-17.8L64-30.7L48-17.8 M80,1.6L64-11.3L48,1.6 M80,1.6L64-11.3L48,1.6 M80,21L64,8.1L48,21 M80,21L64,8.1L48,21
				 M37,7.9l-9.1-7.4l-9.2,7.4 M37,7.9l-9.1-7.4l-9.2,7.4 M37,18.9l-9.1-7.4l-9.2,7.4 M37,18.9l-9.1-7.4l-9.2,7.4 M37,30l-9.1-7.4
				L18.7,30 M37,30l-9.1-7.4L18.7,30 M693,27l7,8l7-8 M693,27l7,8l7-8 M297,27l7,8l7-8 M297,27l7,8l7-8 M273,27l7,8l7-8 M273,27l7,8
				l7-8 M249,27l7,8l7-8 M249,27l7,8l7-8 M81,27l7,8l7-8 M81,27l7,8l7-8 M-15,27l7,8l7-8 M-15,27l7,8l7-8 M267,23l-20.2-11.9
				c-6.5-3.8-12.3-8.6-17.3-14.3l-20.8-23.9c-1.2-1.4-2.8-2.3-4.7-2.6c-1.8-0.3-3.7,0.1-5.2,1.1l-8.5,5.3c-1.7,1-3.5,1.7-5.5,1.9
				c-1.9,0.3-3.9,0.1-5.8-0.5c-2-0.6-4.1-0.8-6.1-0.4c-2,0.3-4,1.1-5.7,2.3L156-12.2c-2.1,1.4-4.5,2.5-7,2.9
				c-2.5,0.5-5.1,0.5-7.6-0.1l-2.1-0.5 M201.8-9.2l7.5-4.4c0.9-0.6,2-0.9,3.1-1s2.2,0,3.2,0.4c2.9,1,5.5,2.4,8,4.2 M214.4-21l3,0.5
				 M559-21.5l3-0.5 M214-30v8.9l0.4,0.1 M220.2,32.2l-11-15.7c-0.5-0.8-1.3-1.3-2.2-1.5c-2.5-0.5-4.9-1.3-7.2-2.2
				c-0.7-0.3-1.5-0.4-2.3-0.2s-1.4,0.6-1.9,1.2l-6.7,8.2 M193.4,16.5l-7.5-4.1c-1-0.5-2.1-0.8-3.2-0.6c-1.1,0.1-2.1,0.6-3,1.3
				l-9.1,8 M586.9,42l-10-18.7c-1.8-3.4-4.7-6.2-8.3-7.8l-6.8-3.1c-3.4-1.5-6.3-4.1-8.2-7.2l-6-9.8c-0.3-0.4-0.6-0.8-1.1-1.1
				s-0.9-0.4-1.4-0.5s-1,0-1.5,0.2s-0.9,0.5-1.2,0.8L536.6,1c-3.1,3.4-6.1,7-8.7,10.8c-2.9,4.2-5.5,8.7-7.8,13.3L518,30 M563.5,26.2
				c0,0,5.9-5.8,10.5-7 M614.3,4.6l12.3-10.3c1.4-1.2,3.2-2,5-2.1c1.9-0.2,3.7,0.2,5.4,1l7.6,4c3.3,1.8,7.1,2.4,10.8,1.8l2.4-0.4
				c5.2-0.8,10.2-2.4,14.8-4.8l16.1-8.3c0.7-0.4,1.5-0.5,2.3-0.4s1.5,0.5,2.1,1.1l4.7,4.7 M548.5-3.3L562-21.8l13-17.8
				c1.1-1.5,2.7-2.8,4.4-3.5c1.8-0.8,3.7-1,5.6-0.8l13,1.6c1.7,0.2,3.5,0.1,5.2-0.5c1.7-0.5,3.2-1.4,4.5-2.6l6-5.6
				c3.8-3.6,8.1-6.6,12.7-9.1l0.6-0.3c1.7-0.9,3.5-1.4,5.4-1.4s3.7,0.4,5.4,1.3l3.7,1.9c1.9,1,3.9,1.4,6,1.3c2.1-0.1,4.1-0.8,5.8-2
				l12.4-8.5c2.1-1.5,4.6-2.2,7.2-2.2h15.2c2.9,0,5.7,1,8,2.8L712-54 M676.9-44.5l2.8-6.7c1.3-3,3.3-5.7,5.9-7.8l10.3-8.1
				 M650.4-17.7l-8.4-7.2c-1.5-1.3-3.3-2.2-5.3-2.6c-1.9-0.4-3.9-0.3-5.8,0.4l-8.3,2.7c-2.2,0.7-4.5,0.8-6.7,0.1
				c-2.2-0.6-4.2-1.9-5.6-3.6l-12.2-14.4 M-20,42h828 M796,42V24 M760-10v52 M724-42v84 M124-42v84 M64-42v84 M27.9-6v48 M700,42V24
				 M304,42V24 M280,42V24 M256,42V24 M88,42V24 M-8,42V24 M562-30v8.2 M646-84h-18v-12h18l-3,6L646-84z M628-102v41.2 M265-51
				c2.2,0,4-1.8,4-4s-1.8-4-4-4s-4,1.8-4,4S262.8-51,265-51z M262.9-47.6v6.9c0,0.2,0,0.3,0.1,0.5c0.1,0.1,0.2,0.2,0.4,0.3
				c0.1,0.1,0.3,0.1,0.5,0.1s0.3-0.1,0.4-0.2l4.9-4.2 M259.5-36.8v2.6c0,0.3,0.1,0.7,0.3,1c0.2,0.3,0.4,0.5,0.7,0.7
				c2.5,1.3,8.8,5.6,10,17.3 M258.9-48.4c-2.2,3.5-3.4,7.5-3.6,11.6c0,0.3-0.1,0.6-0.2,0.8c-0.1,0.3-0.3,0.5-0.6,0.6
				s-0.5,0.3-0.8,0.3s-0.6,0-0.8-0.1c-1-0.3-1.9-0.9-2.8-1.5c-0.7-0.6-1.2-1.4-1.4-2.3c-0.2-0.9-0.1-1.8,0.2-2.6
				c1.2-2.7,3.4-7.2,6.5-9.8c0.2-0.2,0.5-0.3,0.8-0.3c0.3,0,0.6,0.1,0.8,0.3l1.5,1.2c0.2,0.2,0.4,0.5,0.4,0.8S259.1-48.7,258.9-48.4
				z M259.5-28.1l-7.3,10.8"/>
		</g>
	</g>
</g>
<g id="g-root-cp_0_g-0_1_4lolop1ap5erw-stroke_00000176005126708351116370000010671946474042156477_" transform="translate(269, 359)">
	<g id="cp_0_g-0_1_4lolop1ap5erw-stroke_00000062912820705048618880000000614336999326847895_">
		<g>
			<path class="st8" d="M-19.5-100.6c37.3,5.6,180.9,23.8,333-1.4"/>
		</g>
	</g>
</g>
</svg>
