<?xml version="1.0" encoding="utf-8"?>
<!-- Generator: Adobe Illustrator 26.3.1, SVG Export Plug-In . SVG Version: 6.00 Build 0)  -->
<svg version="1.1" id="Layer_1" xmlns="http://www.w3.org/2000/svg" xmlns:xlink="http://www.w3.org/1999/xlink" x="0px" y="0px"
	 viewBox="0 0 620 363" style="enable-background:new 0 0 620 363;" xml:space="preserve">
<style type="text/css">
	.st0{fill-rule:evenodd;clip-rule:evenodd;fill:url(#SVGID_1_);}
	.st1{fill:none;stroke:#484848;stroke-width:2;stroke-linecap:round;stroke-linejoin:round;}
	.st2{fill-rule:evenodd;clip-rule:evenodd;fill:url(#SVGID_00000041977632275164878560000011233403947058557342_);}
	.st3{fill-rule:evenodd;clip-rule:evenodd;fill:url(#SVGID_00000160177955396224473020000014343443189170153355_);}
	.st4{fill-rule:evenodd;clip-rule:evenodd;fill:url(#SVGID_00000016033496595870455920000004725881825045976754_);}
	.st5{display:none;}
	.st6{display:inline;}
	.st7{enable-background:new    ;}
	.st8{fill:#484848;}
</style>
<g id="items">
	<g id="blend">
		<g id="g-root-sy_1_cu_Vector_1uonkrd1bj5m9t-fill" transform="translate(219.566650390625, 404)">
			<g id="sy_1_cu_Vector_1uonkrd1bj5m9t-fill-merged">
				<g>
					
						<linearGradient id="SVGID_1_" gradientUnits="userSpaceOnUse" x1="-430.6932" y1="49.75" x2="-430.6932" y2="50.75" gradientTransform="matrix(133.5 0 0 72 57574.2969 -3703)">
						<stop  offset="0" style="stop-color:#9CC2FF"/>
						<stop  offset="1" style="stop-color:#4F92FF"/>
					</linearGradient>
					<path class="st0" d="M143.5-121H73c-1.7,0-3,1.3-3,3s1.3,3,3,3h3v18H43c-1.7,0-3,1.3-3,3s1.3,3,3,3h3v18H13c-1.7,0-3,1.3-3,3
						s1.3,3,3,3h3v18h37.5L143.5-121"/>
				</g>
			</g>
		</g>
		<g id="g-root-sy_1_cu_Vector_1uonkrd1bj5m9t-stroke" transform="translate(219.566650390625, 404)">
			<g id="sy_1_cu_Vector_1uonkrd1bj5m9t-stroke">
				<g>
					<path class="st1" d="M143.5-121H73c-1.7,0-3,1.3-3,3s1.3,3,3,3h3v18H43c-1.7,0-3,1.3-3,3s1.3,3,3,3h3v18H13c-1.7,0-3,1.3-3,3
						s1.3,3,3,3h3v18h37.5L143.5-121z"/>
				</g>
			</g>
		</g>
		<g id="g-root-sy_2_cu_Vector_1ltn1ll1bj5jwq-fill" transform="translate(309.566650390625, 332)">
			<g id="sy_2_cu_Vector_1ltn1ll1bj5jwq-fill-merged">
				<g>
					
						<linearGradient id="SVGID_00000043429073522898367290000011465506625723324846_" gradientUnits="userSpaceOnUse" x1="-610.6932" y1="49.75" x2="-610.6932" y2="50.75" gradientTransform="matrix(133.5 0 0 72 81604.2969 -3703)">
						<stop  offset="0" style="stop-color:#83FAC1"/>
						<stop  offset="1" style="stop-color:#44E095"/>
					</linearGradient>
					<path style="fill-rule:evenodd;clip-rule:evenodd;fill:url(#SVGID_00000043429073522898367290000011465506625723324846_);" d="
						M143.5-121H73c-1.7,0-3,1.3-3,3s1.3,3,3,3h3v18H43c-1.7,0-3,1.3-3,3s1.3,3,3,3h3v18H13c-1.7,0-3,1.3-3,3s1.3,3,3,3h3v18h37.5
						L143.5-121"/>
				</g>
			</g>
		</g>
		<g id="g-root-sy_2_cu_Vector_1ltn1ll1bj5jwq-stroke" transform="translate(309.566650390625, 332)">
			<g id="sy_2_cu_Vector_1ltn1ll1bj5jwq-stroke">
				<g>
					<path class="st1" d="M143.5-121H73c-1.7,0-3,1.3-3,3s1.3,3,3,3h3v18H43c-1.7,0-3,1.3-3,3s1.3,3,3,3h3v18H13c-1.7,0-3,1.3-3,3
						s1.3,3,3,3h3v18h37.5L143.5-121z"/>
				</g>
			</g>
		</g>
		<g id="g-root-sy_3_cu_Vector_1hdtjh51bj5koz-fill" transform="translate(399.566650390625, 260)">
			<g id="sy_3_cu_Vector_1hdtjh51bj5koz-fill-merged">
				<g>
					
						<linearGradient id="SVGID_00000183239483424122786000000003745509131920551569_" gradientUnits="userSpaceOnUse" x1="-790.6932" y1="49.75" x2="-790.6932" y2="50.75" gradientTransform="matrix(133.5 0 0 72 105634.2969 -3703)">
						<stop  offset="0" style="stop-color:#CFF976"/>
						<stop  offset="1" style="stop-color:#A8DD38"/>
					</linearGradient>
					<path style="fill-rule:evenodd;clip-rule:evenodd;fill:url(#SVGID_00000183239483424122786000000003745509131920551569_);" d="
						M143.5-121H73c-1.7,0-3,1.3-3,3s1.3,3,3,3h3v18H43c-1.7,0-3,1.3-3,3s1.3,3,3,3h3v18H13c-1.7,0-3,1.3-3,3s1.3,3,3,3h3v18h37.5
						L143.5-121"/>
				</g>
			</g>
		</g>
		<g id="g-root-sy_3_cu_Vector_1hdtjh51bj5koz-stroke" transform="translate(399.566650390625, 260)">
			<g id="sy_3_cu_Vector_1hdtjh51bj5koz-stroke">
				<g>
					<path class="st1" d="M143.5-121H73c-1.7,0-3,1.3-3,3s1.3,3,3,3h3v18H43c-1.7,0-3,1.3-3,3s1.3,3,3,3h3v18H13c-1.7,0-3,1.3-3,3
						s1.3,3,3,3h3v18h37.5L143.5-121z"/>
				</g>
			</g>
		</g>
		<g id="g-root-sy_4_cu_Vector_18i6j891bj5lho-fill" transform="translate(489.566650390625, 188)">
			<g id="sy_4_cu_Vector_18i6j891bj5lho-fill-merged">
				<g>
					
						<linearGradient id="SVGID_00000012440188701702789580000001852112358956650933_" gradientUnits="userSpaceOnUse" x1="-970.7166" y1="49.75" x2="-970.7166" y2="50.75" gradientTransform="matrix(96 0 0 72 93246.7969 -3703)">
						<stop  offset="0" style="stop-color:#7FDFFF"/>
						<stop  offset="1" style="stop-color:#1AC6FF"/>
					</linearGradient>
					<path style="fill-rule:evenodd;clip-rule:evenodd;fill:url(#SVGID_00000012440188701702789580000001852112358956650933_);" d="
						M46-73H13c-1.7,0-3,1.3-3,3s1.3,3,3,3h3v18h37.5L106-91v-30H73c-1.7,0-3,1.3-3,3s1.3,3,3,3h3v18H43c-1.7,0-3,1.3-3,3s1.3,3,3,3
						h3V-73"/>
				</g>
			</g>
		</g>
		<g id="g-root-sy_4_cu_Vector_18i6j891bj5lho-stroke" transform="translate(489.566650390625, 188)">
			<g id="sy_4_cu_Vector_18i6j891bj5lho-stroke">
				<g>
					<path class="st1" d="M46-73H13c-1.7,0-3,1.3-3,3s1.3,3,3,3h3v18h37.5L106-91v-30H73c-1.7,0-3,1.3-3,3s1.3,3,3,3h3v18H43
						c-1.7,0-3,1.3-3,3s1.3,3,3,3h3V-73z"/>
				</g>
			</g>
		</g>
		<g id="g-root-tx_achievin_18i6j891bj5lhp-fill" transform="translate(79.14163208007812, 38)" class="st5">
			<g id="tx_achievin_18i6j891bj5lhp-fill-merged" class="st6">
				<g>
					<text transform="matrix(1 0 0 1 11.995 -91)" class="st8" style="font-family:'Helvetica-Bold'; font-size:25px;">Achieving Optimal DAF Results</text>
				</g>
			</g>
		</g>
		<g id="g-root-tx_achievin_18i6j891bj5lhp-stroke" transform="translate(79.14163208007812, 38)">
		</g>
		<g id="g-root-ic_2_hvvzkp1bj5lhq-fill" transform="translate(507.566650390625, 128)">
		</g>
		<g id="g-root-ic_2_hvvzkp1bj5lhq-stroke" transform="translate(507.566650390625, 128)">
			<g id="ic_2_hvvzkp1bj5lhq-stroke">
				<g>
					<path class="st1" d="M23.2-97H34l7.8,9.8 M46.2-80.4c0,1.6,1.3,3,3,3s3-1.3,3-3c0-1.6-1.3-3-3-3S46.2-82,46.2-80.4 M12.2-102.6
						c0.6-2.5,1.7-4.8,3.1-6.9 M20.1-114.7c2-1.6,4.2-2.8,6.7-3.6 M33.7-119.5c2.5,0,5.1,0.4,7.5,1.2 M47.4-115.1
						c2,1.5,3.8,3.4,5.3,5.5 M55.6-103.2c0.7,2.5,1,5,0.8,7.5 M55-88.8c-0.9,2.3-2.1,4.4-3.8,6.2 M42.4-76.1
						c-6.9,2.8-14.8,1.9-21-2.3S11.5-89.5,11.5-97"/>
				</g>
			</g>
		</g>
		<g id="g-root-tx_giveitti_1lxdza11biq495-fill" transform="translate(386.066650390625, 140)">
			<g id="tx_giveitti_1lxdza11biq495-fill-merged">
				<g>
					<g>
						<g class="st7">
							<path class="st8" d="M22.4-104.1v5.3c-0.2,0.2-0.4,0.5-0.7,0.8c-0.3,0.3-0.8,0.6-1.3,0.8s-1.3,0.4-2.2,0.4
								c-0.7,0-1.4-0.1-2-0.4c-0.6-0.2-1.1-0.6-1.6-1.1s-0.8-1.1-1-1.9c-0.2-0.7-0.4-1.6-0.4-2.6v-2.7c0-1,0.1-1.9,0.3-2.6
								s0.5-1.4,0.9-1.9s0.9-0.9,1.5-1.1c0.6-0.2,1.3-0.4,2.1-0.4c0.9,0,1.7,0.2,2.3,0.5s1.1,0.8,1.5,1.5s0.6,1.4,0.6,2.3h-1.8
								c0-0.6-0.2-1.1-0.4-1.5c-0.2-0.4-0.5-0.7-0.9-1s-0.8-0.3-1.4-0.3c-0.5,0-1,0.1-1.4,0.3c-0.4,0.2-0.7,0.5-0.9,0.8
								c-0.2,0.4-0.4,0.8-0.5,1.4s-0.2,1.2-0.2,1.9v2.7c0,0.8,0.1,1.4,0.2,2c0.2,0.6,0.4,1,0.6,1.4c0.3,0.4,0.6,0.6,1,0.8
								s0.8,0.3,1.3,0.3c0.6,0,1-0.1,1.3-0.2s0.6-0.3,0.7-0.4c0.2-0.1,0.3-0.3,0.4-0.4v-3.3H18v-1.5L22.4-104.1L22.4-104.1z"/>
							<path class="st8" d="M25.2-110.4c0-0.3,0.1-0.5,0.2-0.7c0.2-0.2,0.4-0.3,0.7-0.3c0.3,0,0.6,0.1,0.7,0.3s0.2,0.4,0.2,0.7
								c0,0.3-0.1,0.5-0.2,0.7s-0.4,0.3-0.7,0.3c-0.3,0-0.6-0.1-0.7-0.3C25.2-109.8,25.2-110.1,25.2-110.4z M27-107.6V-97h-1.7
								v-10.6H27z"/>
							<path class="st8" d="M30.6-107.6l2.4,9l0.2,1.6H32l-3.2-10.6H30.6z M32.4-98.6l2.3-8.9h1.8L33.3-97h-1.1L32.4-98.6z"/>
							<path class="st8" d="M42-96.8c-0.6,0-1.2-0.1-1.7-0.3S39.4-97.6,39-98s-0.6-0.9-0.8-1.5s-0.3-1.3-0.3-2.1v-1.2
								c0-0.9,0.1-1.7,0.3-2.4c0.2-0.6,0.5-1.2,0.9-1.6s0.8-0.7,1.3-0.9s1-0.3,1.4-0.3c0.7,0,1.2,0.1,1.7,0.3s0.8,0.5,1.1,1
								s0.5,0.9,0.6,1.6c0.1,0.6,0.2,1.3,0.2,2.1v1h-6.6v-1.5h4.9v-0.2c0-0.5-0.1-1-0.2-1.4c-0.1-0.4-0.3-0.7-0.6-1
								s-0.7-0.4-1.2-0.4c-0.3,0-0.6,0.1-0.9,0.2c-0.3,0.1-0.5,0.3-0.7,0.6c-0.2,0.3-0.3,0.6-0.4,1.1s-0.2,1-0.2,1.8v1.2
								c0,0.6,0.1,1.1,0.2,1.5s0.3,0.7,0.5,1s0.5,0.5,0.8,0.6s0.7,0.2,1.1,0.2c0.6,0,1.1-0.1,1.4-0.3c0.4-0.2,0.7-0.5,1-0.9l0.9,1.1
								c-0.2,0.3-0.4,0.5-0.7,0.8S44-97.2,43.6-97S42.7-96.8,42-96.8z"/>
							<path class="st8" d="M54.3-111.2V-97h-1.8v-14.2H54.3z"/>
							<path class="st8" d="M61.1-107.6v1.4h-4.9v-1.4H61.1z M57.8-110.1h1.7v10.5c0,0.4,0,0.6,0.1,0.8s0.2,0.3,0.3,0.4
								s0.3,0.1,0.4,0.1c0.1,0,0.2,0,0.4,0c0.1,0,0.2-0.1,0.3-0.1v1.5c-0.1,0-0.3,0.1-0.5,0.1s-0.4,0.1-0.7,0.1
								c-0.4,0-0.7-0.1-1-0.3c-0.3-0.2-0.6-0.5-0.8-0.9s-0.3-1-0.3-1.7L57.8-110.1L57.8-110.1z"/>
							<path class="st8" d="M76.3-111.2v1.5H67v-1.5H76.3z M72.5-111.2V-97h-1.8v-14.2H72.5z"/>
							<path class="st8" d="M78.2-110.4c0-0.3,0.1-0.5,0.2-0.7c0.2-0.2,0.4-0.3,0.7-0.3c0.3,0,0.6,0.1,0.7,0.3s0.2,0.4,0.2,0.7
								c0,0.3-0.1,0.5-0.2,0.7s-0.4,0.3-0.7,0.3c-0.3,0-0.6-0.1-0.7-0.3C78.3-109.8,78.2-110.1,78.2-110.4z M80-107.6V-97h-1.7
								v-10.6H80z"/>
							<path class="st8" d="M84.5-105.5v8.5h-1.7v-10.6h1.6L84.5-105.5z M84.1-102.7h-0.8c0-0.7,0.1-1.4,0.2-2
								c0.2-0.6,0.4-1.2,0.7-1.6s0.7-0.8,1.1-1.1s1-0.4,1.6-0.4c0.4,0,0.8,0.1,1.1,0.2c0.3,0.1,0.7,0.4,0.9,0.7
								c0.3,0.3,0.5,0.7,0.6,1.2s0.2,1,0.2,1.7v7H88v-7c0-0.6-0.1-1-0.2-1.3s-0.4-0.6-0.6-0.7c-0.3-0.2-0.6-0.2-1-0.2
								s-0.8,0.1-1.1,0.3s-0.5,0.4-0.7,0.8s-0.3,0.7-0.4,1.1S84.1-103.2,84.1-102.7z M89.8-103.7l-1.2,0.4c0-0.6,0.1-1.1,0.2-1.7
								c0.2-0.5,0.4-1,0.7-1.4c0.3-0.4,0.7-0.7,1.1-1c0.4-0.2,1-0.4,1.5-0.4s0.9,0.1,1.3,0.2s0.7,0.4,0.9,0.7
								c0.3,0.3,0.5,0.7,0.6,1.2s0.2,1.1,0.2,1.7v6.9h-1.7v-7c0-0.6-0.1-1.1-0.2-1.4s-0.4-0.6-0.6-0.7c-0.3-0.1-0.6-0.2-1-0.2
								c-0.3,0-0.6,0.1-0.8,0.2c-0.2,0.1-0.4,0.3-0.6,0.6s-0.3,0.5-0.4,0.8C89.8-104.4,89.8-104,89.8-103.7z"/>
							<path class="st8" d="M101.6-96.8c-0.6,0-1.2-0.1-1.7-0.3S99-97.6,98.6-98s-0.6-0.9-0.8-1.5c-0.2-0.6-0.3-1.3-0.3-2.1v-1.2
								c0-0.9,0.1-1.7,0.3-2.4c0.2-0.6,0.5-1.2,0.9-1.6s0.8-0.7,1.3-0.9s1-0.3,1.4-0.3c0.7,0,1.2,0.1,1.7,0.3s0.8,0.5,1.1,1
								s0.5,0.9,0.6,1.6c0.1,0.6,0.2,1.3,0.2,2.1v1h-6.6v-1.5h4.9v-0.2c0-0.5-0.1-1-0.2-1.4s-0.3-0.7-0.6-1s-0.7-0.4-1.2-0.4
								c-0.3,0-0.6,0.1-0.9,0.2s-0.5,0.3-0.7,0.6c-0.2,0.3-0.3,0.6-0.4,1.1s-0.2,1-0.2,1.8v1.2c0,0.6,0.1,1.1,0.2,1.5s0.3,0.7,0.5,1
								s0.5,0.5,0.8,0.6s0.7,0.2,1.1,0.2c0.6,0,1.1-0.1,1.4-0.3c0.4-0.2,0.7-0.5,1-0.9l0.9,1.1c-0.2,0.3-0.4,0.5-0.7,0.8
								s-0.7,0.4-1.1,0.6S102.2-96.8,101.6-96.8z"/>
						</g>
					</g>
				</g>
			</g>
		</g>
		<g id="g-root-tx_giveitti_1lxdza11biq495-stroke" transform="translate(386.066650390625, 140)">
		</g>
		<g id="g-root-ic_myth_dcy76h1bilvke-fill" transform="translate(417.566650390625, 200)">
		</g>
		<g id="g-root-ic_myth_dcy76h1bilvke-stroke" transform="translate(417.566650390625, 200)">
			<g id="ic_myth_dcy76h1bilvke-stroke">
				<g>
					<path class="st1" d="M44.3-90.8c-3.7-2-7.9-3.1-12.1-3.2c-0.2,0-0.3,0-0.4,0.1s-0.2,0.2-0.2,0.4v16.4c0,0.3,0.3,0.5,0.6,0.5
						c3.9-0.5,7.8,0.4,11,2.5c0.4,0.1,0.7,0.2,1.1,0.1 M44.3-90.8c3.7-2,7.9-3.1,12.1-3.2c0.2,0,0.3,0,0.4,0.1
						c0.1,0.1,0.2,0.2,0.2,0.4v16.4c0,0.3-0.3,0.5-0.6,0.5c-3.9-0.5-7.8,0.4-11,2.5C45.1-74,44.7-74,44.3-74 M44.3-90.8V-74
						 M35.7-88.2c1.7,0,3.3,0.5,4.7,1.3 M35.7-83c1.7,0,3.3,0.5,4.7,1.3 M53-88.2c-1.7,0-3.3,0.5-4.7,1.3 M53-83
						c-1.7,0-3.3,0.5-4.7,1.3 M37.1-106.1c0.7,0.8,1,1.9,0.9,3s-0.8,2.1-1.8,2.6 M42.5-96.5c1.2-1.7,2-3.8,2.2-5.9
						c1.8-0.4,3.3-1.9,3.6-3.7s-0.3-3.8-1.8-4.9c0.1-0.4,0.2-0.9,0.2-1.4c0-2.7-2.2-4.9-4.9-4.9c-0.2,0-0.4,0-0.5,0.1
						c-0.7-1.5-2.1-2.5-3.7-2.7c-1.6-0.2-3.2,0.4-4.3,1.6c-1-1.1-2.4-1.7-3.9-1.7c-1.5,0.1-2.8,0.8-3.7,2c-1.5-1-3.4-1.1-5-0.3
						s-2.6,2.5-2.7,4.3c0,1.8,0.9,3.5,2.5,4.4c0,0.1,0,0.2,0,0.2c0,0.6,0.2,1.2,0.5,1.7c-1.2,2.4-2.2,5.3-3.3,8.2
						c-0.1,0.2-0.1,0.5,0,0.8s0.3,0.4,0.6,0.5c0.1,0,0.2,0.1,0.4,0.1h2.5v4c0,1,0.4,2.1,1.2,2.8c0.7,0.7,1.7,1.2,2.8,1.2h2v4
						l-10.9,4.8c-2.3,1-4.1,3.1-4.7,5.6L11-74.2 M20.9-107.8c1,1,2.4,1.3,3.7,0.8s2.1-1.7,2.2-3.1c0.7,1.8,2.4,2.9,4.3,2.9
						 M27.5-104.1c0.3,0,0.5,0.2,0.5,0.5s-0.2,0.5-0.5,0.5s-0.5-0.2-0.5-0.5C27-103.8,27.2-104.1,27.5-104.1"/>
				</g>
			</g>
		</g>
		<g id="g-root-tx_practice_146qfvd1biq3gi-fill" transform="translate(207.3499755859375, 212)">
			<g id="tx_practice_146qfvd1biq3gi-fill-merged">
				<g>
					<g>
						<g class="st7">
							<path class="st8" d="M18.1-102.6H15v-1.5h3.1c0.6,0,1.1-0.1,1.4-0.4s0.6-0.6,0.8-1s0.2-0.9,0.2-1.4s-0.1-0.9-0.2-1.4
								s-0.4-0.8-0.8-1s-0.8-0.4-1.4-0.4h-2.7V-97h-1.8v-14.2h4.5c0.9,0,1.7,0.2,2.3,0.6s1.1,0.9,1.4,1.5s0.5,1.4,0.5,2.2
								c0,0.9-0.2,1.7-0.5,2.3s-0.8,1.1-1.4,1.5S19-102.6,18.1-102.6z"/>
							<path class="st8" d="M26.1-105.9v8.9h-1.7v-10.6H26L26.1-105.9z M28.7-107.6v1.7c-0.1,0-0.3-0.1-0.4-0.1s-0.2,0-0.4,0
								c-0.3,0-0.6,0.1-0.9,0.2s-0.5,0.3-0.6,0.5s-0.3,0.5-0.4,0.8s-0.2,0.7-0.2,1.1l-0.4,0.3c0-0.6,0.1-1.2,0.2-1.8
								s0.3-1.1,0.5-1.5s0.5-0.8,0.8-1s0.7-0.4,1.2-0.4c0.1,0,0.2,0,0.4,0S28.7-107.7,28.7-107.6z"/>
							<path class="st8" d="M35.9-103.4v1.3h-1.2c-0.4,0-0.8,0-1.1,0.1s-0.6,0.2-0.9,0.4s-0.4,0.4-0.6,0.6s-0.2,0.5-0.2,0.9
								s0.1,0.8,0.2,1s0.3,0.4,0.5,0.5s0.5,0.2,0.9,0.2s0.8-0.1,1.2-0.3s0.6-0.4,0.8-0.7s0.3-0.6,0.3-0.8l0.4,0.8
								c0,0.3-0.1,0.5-0.2,0.8s-0.3,0.6-0.6,0.8s-0.5,0.5-0.9,0.7s-0.7,0.3-1.1,0.3c-0.6,0-1.1-0.1-1.6-0.4s-0.8-0.6-1.1-1
								s-0.4-1-0.4-1.7c0-0.5,0.1-1,0.3-1.4s0.4-0.8,0.8-1.1s0.8-0.6,1.3-0.7s1.1-0.3,1.8-0.3C34.5-103.4,35.9-103.4,35.9-103.4z
								 M35.6-98.8v-5.7c0-0.4-0.1-0.8-0.2-1s-0.3-0.4-0.6-0.6s-0.6-0.2-0.9-0.2c-0.4,0-0.7,0.1-0.9,0.2s-0.5,0.3-0.6,0.6
								s-0.2,0.5-0.2,0.8h-1.7c0-0.4,0.1-0.8,0.2-1.1s0.4-0.7,0.7-1s0.7-0.5,1.1-0.7s0.9-0.3,1.5-0.3c0.7,0,1.2,0.1,1.7,0.3
								s0.9,0.6,1.2,1s0.4,1.1,0.4,1.9v5.2c0,0.4,0,0.7,0.1,1.1s0.1,0.7,0.2,1v0.2h-1.8c-0.1-0.2-0.1-0.5-0.2-0.8
								S35.6-98.5,35.6-98.8z"/>
							<path class="st8" d="M43.7-98.3c0.3,0,0.7-0.1,0.9-0.2s0.5-0.4,0.7-0.7s0.3-0.7,0.3-1.2h1.6c0,0.7-0.2,1.3-0.5,1.9
								s-0.8,0.9-1.3,1.2s-1.1,0.4-1.8,0.4s-1.3-0.1-1.8-0.3s-0.9-0.5-1.2-1s-0.6-0.9-0.7-1.5s-0.2-1.3-0.2-2.1v-1.2
								c0-0.8,0.1-1.5,0.2-2.1s0.4-1.1,0.7-1.5s0.7-0.7,1.2-1s1.1-0.3,1.8-0.3s1.3,0.2,1.9,0.5s0.9,0.7,1.2,1.3s0.5,1.3,0.5,2.1
								h-1.6c0-0.5-0.1-1-0.3-1.3s-0.4-0.6-0.7-0.8s-0.6-0.3-1-0.3c-0.5,0-0.8,0.1-1.1,0.2s-0.5,0.4-0.7,0.7s-0.3,0.7-0.4,1.1
								s-0.1,0.9-0.1,1.4v1.2c0,0.5,0,1,0.1,1.4s0.2,0.8,0.4,1.1s0.4,0.5,0.7,0.7S43.3-98.3,43.7-98.3z"/>
							<path class="st8" d="M53.1-107.6v1.4h-4.9v-1.4H53.1z M49.8-110.1h1.7v10.5c0,0.4,0,0.6,0.1,0.8s0.2,0.3,0.3,0.4
								s0.3,0.1,0.4,0.1c0.1,0,0.2,0,0.4,0s0.2-0.1,0.3-0.1v1.5c-0.1,0-0.3,0.1-0.5,0.1s-0.4,0.1-0.7,0.1c-0.4,0-0.7-0.1-1-0.3
								s-0.6-0.5-0.8-0.9s-0.3-1-0.3-1.7L49.8-110.1L49.8-110.1z"/>
							<path class="st8" d="M55.2-110.4c0-0.3,0.1-0.5,0.2-0.7s0.4-0.3,0.7-0.3s0.6,0.1,0.7,0.3s0.2,0.4,0.2,0.7
								c0,0.3-0.1,0.5-0.2,0.7s-0.4,0.3-0.7,0.3s-0.6-0.1-0.7-0.3S55.2-110.1,55.2-110.4z M57.1-107.6V-97h-1.7v-10.6H57.1z"/>
							<path class="st8" d="M63.5-98.3c0.3,0,0.7-0.1,0.9-0.2s0.5-0.4,0.7-0.7s0.3-0.7,0.3-1.2H67c0,0.7-0.2,1.3-0.5,1.9
								s-0.8,0.9-1.3,1.2s-1.1,0.4-1.8,0.4s-1.3-0.1-1.8-0.3s-0.9-0.5-1.2-1s-0.6-0.9-0.7-1.5s-0.2-1.3-0.2-2.1v-1.2
								c0-0.8,0.1-1.5,0.2-2.1s0.4-1.1,0.7-1.5s0.7-0.7,1.2-1s1.1-0.3,1.8-0.3s1.3,0.2,1.9,0.5s0.9,0.7,1.2,1.3s0.5,1.3,0.5,2.1
								h-1.6c0-0.5-0.1-1-0.3-1.3s-0.4-0.6-0.7-0.8s-0.6-0.3-1-0.3c-0.5,0-0.8,0.1-1.1,0.2s-0.5,0.4-0.7,0.7s-0.3,0.7-0.4,1.1
								s-0.1,0.9-0.1,1.4v1.2c0,0.5,0,1,0.1,1.4s0.2,0.8,0.4,1.1s0.4,0.5,0.7,0.7S63-98.3,63.5-98.3z"/>
							<path class="st8" d="M72.8-96.8c-0.6,0-1.2-0.1-1.7-0.3s-0.9-0.5-1.3-0.9s-0.6-0.9-0.8-1.5s-0.3-1.3-0.3-2.1v-1.2
								c0-0.9,0.1-1.7,0.3-2.4s0.5-1.2,0.9-1.6s0.8-0.7,1.3-0.9s1-0.3,1.4-0.3c0.7,0,1.2,0.1,1.7,0.3s0.8,0.5,1.1,1s0.5,0.9,0.6,1.6
								s0.2,1.3,0.2,2.1v1h-6.6v-1.5h4.9v-0.2c0-0.5-0.1-1-0.2-1.4s-0.3-0.7-0.6-1s-0.7-0.4-1.2-0.4c-0.3,0-0.6,0.1-0.9,0.2
								s-0.5,0.3-0.7,0.6s-0.3,0.6-0.4,1.1s-0.2,1-0.2,1.8v1.2c0,0.6,0.1,1.1,0.2,1.5s0.3,0.7,0.5,1s0.5,0.5,0.8,0.6
								s0.7,0.2,1.1,0.2c0.6,0,1.1-0.1,1.4-0.3s0.7-0.5,1-0.9l0.9,1.1c-0.2,0.3-0.4,0.5-0.7,0.8s-0.7,0.4-1.1,0.6
								S73.4-96.8,72.8-96.8z"/>
							<path class="st8" d="M83.9-107.6l2,8.8v1.8h-1.1l-2.6-10.6C82.2-107.6,83.9-107.6,83.9-107.6z M85.2-98.9l2.3-8.7h1.1
								l-0.1,1.7L86.2-97h-1.1L85.2-98.9z M88.9-107.6l2.3,8.5l0.2,2h-1.1l-2.4-8.9l-0.1-1.7L88.9-107.6L88.9-107.6z M90.6-98.8
								l1.9-8.7h1.7L91.6-97h-1.1L90.6-98.8z"/>
							<path class="st8" d="M96-110.4c0-0.3,0.1-0.5,0.2-0.7s0.4-0.3,0.7-0.3s0.6,0.1,0.7,0.3s0.2,0.4,0.2,0.7
								c0,0.3-0.1,0.5-0.2,0.7s-0.4,0.3-0.7,0.3s-0.6-0.1-0.7-0.3S96-110.1,96-110.4z M97.9-107.6V-97h-1.7v-10.6H97.9z"/>
							<path class="st8" d="M104.4-107.6v1.4h-4.9v-1.4H104.4z M101.1-110.1h1.7v10.5c0,0.4,0,0.6,0.1,0.8s0.2,0.3,0.3,0.4
								s0.3,0.1,0.4,0.1s0.2,0,0.4,0c0.1,0,0.2-0.1,0.3-0.1v1.5c-0.1,0-0.3,0.1-0.5,0.1s-0.4,0.1-0.7,0.1c-0.4,0-0.7-0.1-1-0.3
								s-0.6-0.5-0.8-0.9s-0.3-1-0.3-1.7L101.1-110.1L101.1-110.1z"/>
							<path class="st8" d="M108.2-112v15h-1.7v-15H108.2z M107.8-102.7h-0.7c0-0.7,0.1-1.4,0.2-2c0.2-0.6,0.4-1.2,0.7-1.6
								s0.7-0.8,1.2-1.1s0.9-0.4,1.5-0.4c0.4,0,0.8,0.1,1.2,0.2s0.7,0.4,0.9,0.7c0.2,0.3,0.4,0.7,0.6,1.2c0.1,0.5,0.2,1.1,0.2,1.8
								v6.9h-1.7v-6.9c0-0.6-0.1-1-0.2-1.3s-0.3-0.6-0.5-0.7s-0.6-0.2-0.9-0.2s-0.7,0.1-0.9,0.3s-0.5,0.4-0.8,0.8
								c-0.2,0.3-0.4,0.7-0.5,1.1C107.9-103.6,107.8-103.2,107.8-102.7z"/>
							<path class="st8" d="M125.5-102.6h-3.1v-1.5h3.1c0.6,0,1.1-0.1,1.4-0.4s0.6-0.6,0.8-1s0.2-0.9,0.2-1.4s-0.1-0.9-0.2-1.4
								s-0.4-0.8-0.8-1s-0.8-0.4-1.4-0.4h-2.7V-97H121v-14.2h4.5c0.9,0,1.7,0.2,2.3,0.6s1.1,0.9,1.4,1.5c0.3,0.7,0.5,1.4,0.5,2.2
								c0,0.9-0.2,1.7-0.5,2.3c-0.3,0.6-0.8,1.1-1.4,1.5S126.4-102.6,125.5-102.6z"/>
							<path class="st8" d="M137.5-101.7h0.7c0,0.7-0.1,1.4-0.2,1.9c-0.1,0.6-0.3,1.1-0.6,1.5s-0.6,0.8-1.1,1
								c-0.4,0.2-1,0.4-1.6,0.4c-0.4,0-0.8-0.1-1.2-0.2s-0.7-0.4-0.9-0.7c-0.3-0.3-0.5-0.7-0.6-1.2s-0.2-1.1-0.2-1.8v-6.8h1.7v6.8
								c0,0.5,0,0.9,0.1,1.2c0.1,0.3,0.2,0.6,0.3,0.7c0.1,0.2,0.3,0.3,0.5,0.4s0.4,0.1,0.5,0.1c0.6,0,1.1-0.1,1.5-0.4
								s0.6-0.7,0.8-1.2C137.4-100.5,137.5-101,137.5-101.7z M137.2-99.4v-8.1h1.7V-97h-1.6L137.2-99.4z"/>
							<path class="st8" d="M143.2-105.9v8.9h-1.7v-10.6h1.7V-105.9z M145.9-107.6v1.7c-0.1,0-0.3-0.1-0.4-0.1c-0.1,0-0.2,0-0.4,0
								c-0.3,0-0.6,0.1-0.9,0.2s-0.5,0.3-0.6,0.5s-0.3,0.5-0.4,0.8c-0.1,0.3-0.2,0.7-0.2,1.1l-0.4,0.3c0-0.6,0-1.2,0.2-1.8
								c0.1-0.6,0.3-1.1,0.5-1.5s0.5-0.8,0.8-1s0.7-0.4,1.2-0.4c0.1,0,0.2,0,0.4,0C145.7-107.7,145.8-107.7,145.9-107.6z"/>
							<path class="st8" d="M149.3-105.5v12.6h-1.7v-14.6h1.6L149.3-105.5z M155.2-102.8v1c0,0.8-0.1,1.6-0.2,2.2
								c-0.2,0.6-0.4,1.1-0.7,1.6c-0.3,0.4-0.7,0.7-1.1,0.9s-0.9,0.3-1.5,0.3s-1-0.1-1.4-0.3c-0.4-0.2-0.7-0.5-1-0.9
								s-0.5-0.9-0.7-1.5s-0.3-1.2-0.3-1.9v-1.5c0.1-0.7,0.2-1.4,0.3-2s0.4-1.1,0.6-1.5c0.3-0.4,0.6-0.7,1-1
								c0.4-0.2,0.9-0.3,1.4-0.3c0.6,0,1.1,0.1,1.5,0.3c0.4,0.2,0.8,0.5,1.1,0.9s0.5,0.9,0.7,1.6
								C155.2-104.4,155.2-103.6,155.2-102.8z M153.5-101.8v-1c0-0.6,0-1.1-0.1-1.5s-0.2-0.8-0.4-1.1c-0.2-0.3-0.4-0.5-0.7-0.6
								s-0.6-0.2-1-0.2c-0.3,0-0.6,0.1-0.9,0.2s-0.5,0.3-0.7,0.6c-0.2,0.2-0.3,0.5-0.5,0.8c-0.1,0.3-0.2,0.6-0.3,1v3
								c0.1,0.4,0.3,0.8,0.4,1.2c0.2,0.4,0.4,0.7,0.7,0.9c0.3,0.2,0.7,0.3,1.2,0.3c0.4,0,0.7-0.1,1-0.2s0.5-0.4,0.7-0.6
								s0.3-0.7,0.4-1.1S153.5-101.2,153.5-101.8z"/>
							<path class="st8" d="M157.1-101.8v-1c0-0.8,0.1-1.5,0.3-2.2c0.2-0.6,0.5-1.1,0.9-1.6s0.8-0.7,1.3-0.9c0.5-0.2,1-0.3,1.6-0.3
								s1.1,0.1,1.6,0.3c0.5,0.2,0.9,0.5,1.3,0.9c0.4,0.4,0.7,0.9,0.9,1.6c0.2,0.6,0.3,1.3,0.3,2.2v1c0,0.8-0.1,1.5-0.3,2.2
								c-0.2,0.6-0.5,1.1-0.9,1.6s-0.8,0.7-1.3,0.9c-0.5,0.2-1,0.3-1.6,0.3s-1.1-0.1-1.6-0.3c-0.5-0.2-0.9-0.5-1.3-0.9
								c-0.4-0.4-0.7-0.9-0.9-1.6C157.2-100.2,157.1-101,157.1-101.8z M158.8-102.8v1c0,0.6,0.1,1.1,0.2,1.5s0.3,0.8,0.5,1.1
								s0.5,0.5,0.8,0.7c0.3,0.1,0.6,0.2,0.9,0.2c0.4,0,0.7-0.1,1-0.2s0.5-0.4,0.7-0.7s0.3-0.7,0.4-1.1s0.1-0.9,0.1-1.5v-1
								c0-0.6-0.1-1.1-0.2-1.5s-0.3-0.8-0.5-1.1s-0.5-0.5-0.8-0.7c-0.3-0.1-0.6-0.2-0.9-0.2c-0.3,0-0.6,0.1-0.9,0.2
								c-0.3,0.1-0.5,0.4-0.7,0.7c-0.2,0.3-0.4,0.7-0.5,1.1S158.8-103.4,158.8-102.8z"/>
							<path class="st8" d="M172.6-99.7c0-0.3-0.1-0.5-0.2-0.7c-0.1-0.2-0.3-0.4-0.6-0.6s-0.7-0.4-1.2-0.6s-0.9-0.4-1.3-0.6
								c-0.4-0.2-0.7-0.4-1-0.6s-0.5-0.5-0.6-0.8s-0.2-0.7-0.2-1.1s0.1-0.8,0.2-1.2c0.2-0.4,0.4-0.7,0.7-1s0.6-0.5,1.1-0.6
								s0.9-0.2,1.4-0.2c0.7,0,1.3,0.1,1.8,0.4s0.9,0.7,1.2,1.1c0.3,0.5,0.4,1,0.4,1.6h-1.7c0-0.3-0.1-0.6-0.2-0.8
								c-0.1-0.3-0.3-0.5-0.6-0.6s-0.6-0.2-0.9-0.2c-0.4,0-0.7,0.1-0.9,0.2s-0.4,0.3-0.5,0.5s-0.2,0.5-0.2,0.7s0,0.4,0.1,0.5
								s0.2,0.3,0.3,0.4s0.3,0.2,0.6,0.4c0.2,0.1,0.5,0.3,0.9,0.4c0.7,0.3,1.3,0.6,1.8,0.8s0.9,0.6,1.1,1s0.4,0.9,0.4,1.4
								s-0.1,0.9-0.2,1.3s-0.4,0.7-0.7,1s-0.7,0.5-1.1,0.6c-0.4,0.1-0.9,0.2-1.4,0.2c-0.8,0-1.5-0.2-2-0.5c-0.6-0.3-1-0.7-1.2-1.2
								s-0.4-1.1-0.4-1.6h1.7c0,0.5,0.1,0.9,0.3,1.2s0.5,0.5,0.7,0.6s0.6,0.2,0.9,0.2c0.4,0,0.7-0.1,1-0.2s0.5-0.3,0.6-0.5
								C172.6-99.2,172.6-99.4,172.6-99.7z"/>
							<path class="st8" d="M180.4-96.8c-0.6,0-1.2-0.1-1.7-0.3s-0.9-0.5-1.3-0.9c-0.4-0.4-0.6-0.9-0.8-1.5s-0.3-1.3-0.3-2.1v-1.2
								c0-0.9,0.1-1.7,0.3-2.4c0.2-0.6,0.5-1.2,0.9-1.6s0.8-0.7,1.3-0.9s1-0.3,1.4-0.3c0.7,0,1.2,0.1,1.7,0.3s0.8,0.5,1.1,1
								s0.5,0.9,0.6,1.6c0.1,0.6,0.2,1.3,0.2,2.1v1h-6.6v-1.5h4.9v-0.2c0-0.5-0.1-1-0.2-1.4c-0.1-0.4-0.3-0.7-0.6-1
								s-0.7-0.4-1.2-0.4c-0.3,0-0.6,0.1-0.9,0.2c-0.3,0.1-0.5,0.3-0.7,0.6c-0.2,0.3-0.3,0.6-0.4,1.1s-0.2,1-0.2,1.8v1.2
								c0,0.6,0.1,1.1,0.2,1.5s0.3,0.7,0.5,1s0.5,0.5,0.8,0.6s0.7,0.2,1.1,0.2c0.6,0,1.1-0.1,1.4-0.3c0.4-0.2,0.7-0.5,1-0.9l0.9,1.1
								c-0.2,0.3-0.4,0.5-0.7,0.8s-0.7,0.4-1.1,0.6S181-96.8,180.4-96.8z"/>
						</g>
					</g>
				</g>
			</g>
		</g>
		<g id="g-root-tx_practice_146qfvd1biq3gi-stroke" transform="translate(207.3499755859375, 212)">
		</g>
		<g id="g-root-ic_cont_dcbq3d1biophr-fill" transform="translate(327.566650390625, 272)">
		</g>
		<g id="g-root-ic_cont_dcbq3d1biophr-stroke" transform="translate(327.566650390625, 272)">
			<g id="ic_cont_dcbq3d1biophr-stroke">
				<g>
					<path class="st1" d="M11.5-78.9c0-12.4,10-22.4,22.5-22.4s22.5,10,22.5,22.4 M34-75.3c1.7,0,3-1.3,3-3s-1.3-3-3-3s-3,1.3-3,3
						C31-76.6,32.3-75.3,34-75.3z M28.3-93.9l4.6,12.8 M39.7-93.9l-1,2.8 M48.4-86.5l-3,1.8 M19.6-86.5l3,1.8 M50.4-75.5l-3-0.4
						 M17.6-75.5l3-0.4 M19.6-118.7l4.5,11.4 M18-109.1l6,2l3.2-5.6"/>
				</g>
			</g>
		</g>
		<g id="g-root-tx_starthig_dkfw7t1biq3gj-fill" transform="translate(114, 284)">
			<g id="tx_starthig_dkfw7t1biq3gj-fill-merged">
				<g>
					<g>
						<g class="st7">
							<path class="st8" d="M19.8-100.6c0-0.3,0-0.6-0.1-0.9s-0.2-0.5-0.4-0.7s-0.5-0.4-0.8-0.6s-0.8-0.4-1.3-0.6
								c-0.6-0.2-1.1-0.4-1.6-0.7s-0.9-0.6-1.2-0.9s-0.6-0.7-0.8-1.1s-0.3-0.9-0.3-1.5s0.1-1.1,0.3-1.5s0.5-0.9,0.8-1.2
								s0.8-0.6,1.3-0.8s1.1-0.3,1.7-0.3c0.9,0,1.7,0.2,2.3,0.6s1.1,0.9,1.4,1.6s0.5,1.4,0.5,2.1h-1.8c0-0.5-0.1-1-0.3-1.4
								s-0.4-0.7-0.8-1s-0.8-0.4-1.4-0.4c-0.5,0-0.9,0.1-1.3,0.3s-0.6,0.5-0.7,0.8S15-108,15-107.6c0,0.3,0.1,0.6,0.2,0.8
								s0.3,0.5,0.5,0.7s0.5,0.4,0.8,0.6s0.7,0.3,1.2,0.5c0.7,0.2,1.3,0.5,1.8,0.8s0.9,0.6,1.2,0.9s0.5,0.7,0.7,1.2s0.2,0.9,0.2,1.5
								s-0.1,1.1-0.3,1.6s-0.5,0.9-0.8,1.2s-0.8,0.6-1.3,0.8s-1.1,0.3-1.7,0.3s-1.1-0.1-1.6-0.3s-1-0.5-1.5-0.8s-0.8-0.8-1-1.4
								s-0.4-1.2-0.4-1.9h1.8c0,0.5,0.1,0.9,0.2,1.3s0.3,0.6,0.6,0.9s0.5,0.4,0.9,0.5s0.7,0.2,1.1,0.2c0.5,0,1-0.1,1.3-0.3
								s0.6-0.4,0.8-0.8S19.8-100.1,19.8-100.6z"/>
							<path class="st8" d="M27.5-107.6v1.4h-4.9v-1.4H27.5z M24.2-110.1h1.7v10.5c0,0.4,0,0.6,0.1,0.8s0.2,0.3,0.3,0.4
								s0.3,0.1,0.4,0.1s0.2,0,0.4,0s0.2-0.1,0.3-0.1v1.5c-0.1,0-0.3,0.1-0.5,0.1s-0.4,0.1-0.7,0.1c-0.4,0-0.7-0.1-1-0.3
								s-0.6-0.5-0.8-0.9s-0.3-1-0.3-1.7v-10.5H24.2z"/>
							<path class="st8" d="M35-103.4v1.3h-1.2c-0.4,0-0.8,0-1.1,0.1s-0.6,0.2-0.9,0.4s-0.4,0.4-0.6,0.6s-0.2,0.5-0.2,0.9
								s0.1,0.8,0.2,1s0.3,0.4,0.5,0.5s0.5,0.2,0.9,0.2s0.8-0.1,1.2-0.3s0.6-0.4,0.8-0.7s0.3-0.6,0.3-0.8l0.4,0.8
								c0,0.3-0.1,0.5-0.2,0.8s-0.3,0.6-0.6,0.8s-0.5,0.5-0.9,0.7s-0.7,0.3-1.1,0.3c-0.6,0-1.1-0.1-1.6-0.4s-0.8-0.6-1.1-1
								s-0.4-1-0.4-1.7c0-0.5,0.1-1,0.3-1.4s0.4-0.8,0.8-1.1s0.8-0.6,1.3-0.7c0.5-0.1,1.1-0.3,1.8-0.3C33.6-103.4,35-103.4,35-103.4
								z M34.8-98.8v-5.7c0-0.4-0.1-0.8-0.2-1s-0.3-0.4-0.6-0.6s-0.6-0.2-0.9-0.2c-0.4,0-0.7,0.1-0.9,0.2s-0.5,0.3-0.6,0.6
								s-0.2,0.5-0.2,0.8h-1.7c0-0.4,0.1-0.8,0.2-1.1s0.4-0.7,0.7-1s0.7-0.5,1.1-0.7c0.4-0.2,0.9-0.3,1.5-0.3c0.7,0,1.2,0.1,1.7,0.3
								s0.9,0.6,1.2,1s0.4,1.1,0.4,1.9v5.2c0,0.4,0,0.7,0.1,1.1s0.1,0.7,0.2,1v0.2H35c-0.1-0.2-0.1-0.5-0.2-0.8S34.8-98.5,34.8-98.8
								z"/>
							<path class="st8" d="M40.9-105.9v8.9h-1.7v-10.6h1.7V-105.9z M43.5-107.6v1.7c-0.1,0-0.3-0.1-0.4-0.1s-0.2,0-0.4,0
								c-0.3,0-0.6,0.1-0.9,0.2s-0.5,0.3-0.6,0.5s-0.3,0.5-0.4,0.8s-0.2,0.7-0.2,1.1l-0.4,0.3c0-0.6,0.1-1.2,0.2-1.8
								s0.3-1.1,0.5-1.5s0.5-0.8,0.8-1s0.7-0.4,1.2-0.4c0.1,0,0.2,0,0.4,0S43.5-107.7,43.5-107.6z"/>
							<path class="st8" d="M49.1-107.6v1.4h-4.9v-1.4H49.1z M45.8-110.1h1.7v10.5c0,0.4,0,0.6,0.1,0.8s0.2,0.3,0.3,0.4
								s0.3,0.1,0.4,0.1c0.1,0,0.2,0,0.4,0s0.2-0.1,0.3-0.1v1.5c-0.1,0-0.3,0.1-0.5,0.1s-0.4,0.1-0.7,0.1c-0.4,0-0.7-0.1-1-0.3
								s-0.6-0.5-0.8-0.9s-0.3-1-0.3-1.7L45.8-110.1L45.8-110.1z"/>
							<path class="st8" d="M57.8-111.2V-97H56v-14.2H57.8z M63.7-105.1v1.5h-6.2v-1.5H63.7z M65.3-111.2V-97h-1.8v-14.2H65.3z"/>
							<path class="st8" d="M68.2-110.4c0-0.3,0.1-0.5,0.2-0.7s0.4-0.3,0.7-0.3s0.6,0.1,0.7,0.3s0.2,0.4,0.2,0.7
								c0,0.3-0.1,0.5-0.2,0.7s-0.4,0.3-0.7,0.3s-0.6-0.1-0.7-0.3S68.2-110.1,68.2-110.4z M70-107.6V-97h-1.7v-10.6H70z"/>
							<path class="st8" d="M72.4-101.8v-1c0-0.9,0.1-1.6,0.2-2.3s0.4-1.1,0.7-1.6s0.7-0.7,1.1-0.9s0.9-0.3,1.5-0.3
								c0.5,0,1,0.1,1.4,0.3s0.7,0.5,1,1s0.5,0.9,0.6,1.5s0.3,1.3,0.3,2v1.3c-0.1,0.7-0.2,1.4-0.3,2s-0.4,1.1-0.6,1.5s-0.6,0.7-1,1
								S76.4-97,75.9-97s-1-0.1-1.4-0.3s-0.8-0.5-1.1-0.9s-0.5-0.9-0.7-1.6S72.4-100.9,72.4-101.8z M78.5-107.6H80v10.7
								c0,0.9-0.2,1.7-0.5,2.3s-0.8,1.1-1.3,1.3s-1.2,0.4-2,0.4c-0.3,0-0.6,0-1-0.1s-0.8-0.2-1.2-0.4s-0.7-0.4-1-0.7l0.7-1.2
								c0.4,0.4,0.8,0.6,1.2,0.8s0.8,0.2,1.2,0.2c0.4,0,0.8-0.1,1.2-0.2s0.6-0.4,0.8-0.8s0.3-0.9,0.3-1.5v-8.4L78.5-107.6z
								 M74.1-102.8v1c0,0.6,0,1.1,0.1,1.5s0.2,0.8,0.4,1.1s0.4,0.5,0.7,0.6s0.6,0.2,1,0.2c0.5,0,0.9-0.1,1.2-0.4s0.6-0.5,0.7-0.9
								s0.3-0.8,0.4-1.3v-2.8c-0.1-0.3-0.2-0.7-0.3-1s-0.3-0.6-0.5-0.8s-0.4-0.4-0.7-0.6s-0.6-0.2-0.9-0.2c-0.4,0-0.7,0.1-1,0.2
								s-0.5,0.4-0.7,0.6s-0.3,0.6-0.4,1.1S74.1-103.3,74.1-102.8z"/>
							<path class="st8" d="M84.4-112v15h-1.7v-15H84.4z M83.9-102.7h-0.7c0-0.7,0.1-1.4,0.2-2s0.4-1.2,0.7-1.6s0.7-0.8,1.2-1.1
								s0.9-0.4,1.5-0.4c0.4,0,0.8,0.1,1.2,0.2s0.7,0.4,0.9,0.7s0.4,0.7,0.6,1.2s0.2,1.1,0.2,1.8v6.9H88v-6.9c0-0.6-0.1-1-0.2-1.3
								s-0.3-0.6-0.5-0.7s-0.6-0.2-0.9-0.2s-0.7,0.1-0.9,0.3s-0.5,0.4-0.8,0.8s-0.4,0.7-0.5,1.1S83.9-103.2,83.9-102.7z"/>
							<path class="st8" d="M94-99.1v1.5c0,0.6-0.1,1.2-0.4,1.9s-0.7,1.2-1.3,1.7l-1-0.7c0.2-0.3,0.4-0.6,0.5-0.9s0.3-0.6,0.3-0.9
								s0.1-0.6,0.1-1V-99L94-99.1L94-99.1z"/>
							<path class="st8" d="M105.6-110l-3.9,13h-1.8l4.6-14.2h1.2L105.6-110z M108.8-102.3v1.5h-6.9v-1.5H108.8z M108.8-97l-3.9-13
								v-1.3h1.2l4.6,14.2h-1.9V-97z"/>
							<path class="st8" d="M112-101.8v-1c0-0.9,0.1-1.6,0.3-2.3s0.4-1.1,0.7-1.6s0.7-0.7,1.1-0.9s0.9-0.3,1.4-0.3s1,0.1,1.4,0.3
								s0.7,0.5,1,1s0.5,0.9,0.6,1.5s0.3,1.3,0.3,2v1.3c-0.1,0.7-0.2,1.4-0.3,2s-0.4,1.1-0.6,1.5s-0.6,0.7-1,1S116-97,115.5-97
								s-1-0.1-1.4-0.3s-0.8-0.5-1.1-0.9s-0.6-0.9-0.7-1.6S112-100.9,112-101.8z M113.7-102.8v1c0,0.6,0,1.1,0.1,1.5
								s0.2,0.8,0.4,1.1s0.4,0.5,0.7,0.6s0.6,0.2,1,0.2c0.5,0,0.9-0.1,1.2-0.4s0.6-0.5,0.7-0.9s0.3-0.8,0.4-1.3v-2.8
								c-0.1-0.3-0.2-0.7-0.3-1s-0.3-0.6-0.5-0.8s-0.4-0.4-0.7-0.6s-0.6-0.2-0.9-0.2c-0.4,0-0.7,0.1-1,0.2s-0.5,0.4-0.7,0.6
								s-0.3,0.6-0.4,1.1S113.7-103.3,113.7-102.8z M117.9-99.1V-112h1.7v15H118L117.9-99.1z"/>
							<path class="st8" d="M122.3-107.6h1.7v11.8c0,0.6-0.1,1.2-0.2,1.6s-0.4,0.8-0.8,1s-0.8,0.3-1.3,0.3c-0.1,0-0.3,0-0.5,0
								s-0.3-0.1-0.5-0.1v-1.5c0.1,0,0.2,0,0.4,0.1s0.2,0,0.3,0c0.2,0,0.3,0,0.5-0.1s0.2-0.3,0.3-0.5s0.1-0.5,0.1-0.9V-107.6z
								 M122.1-110.4c0-0.3,0.1-0.5,0.2-0.7s0.4-0.3,0.7-0.3c0.3,0,0.6,0.1,0.7,0.3s0.2,0.4,0.2,0.7c0,0.3-0.1,0.5-0.2,0.7
								s-0.4,0.3-0.7,0.3c-0.3,0-0.6-0.1-0.7-0.3S122.1-110.1,122.1-110.4z"/>
							<path class="st8" d="M132.4-101.7h0.7c0,0.7-0.1,1.4-0.2,1.9s-0.3,1.1-0.6,1.5s-0.6,0.8-1.1,1s-1,0.4-1.6,0.4
								c-0.4,0-0.8-0.1-1.2-0.2s-0.7-0.4-0.9-0.7s-0.5-0.7-0.6-1.2s-0.2-1.1-0.2-1.8v-6.8h1.7v6.8c0,0.5,0,0.9,0.1,1.2
								s0.2,0.6,0.3,0.7s0.3,0.3,0.5,0.4s0.4,0.1,0.5,0.1c0.6,0,1.1-0.1,1.5-0.4s0.6-0.7,0.8-1.2S132.4-101,132.4-101.7z
								 M132.1-99.4v-8.1h1.7V-97h-1.6L132.1-99.4z"/>
							<path class="st8" d="M141.5-99.7c0-0.3-0.1-0.5-0.2-0.7s-0.3-0.4-0.6-0.6s-0.7-0.4-1.2-0.6s-0.9-0.4-1.3-0.6s-0.7-0.4-1-0.6
								s-0.5-0.5-0.6-0.8s-0.2-0.7-0.2-1.1s0.1-0.8,0.2-1.2s0.4-0.7,0.7-1s0.6-0.5,1.1-0.6s0.9-0.2,1.4-0.2c0.7,0,1.3,0.1,1.8,0.4
								s0.9,0.7,1.2,1.1s0.4,1,0.4,1.6h-1.7c0-0.3-0.1-0.6-0.2-0.8s-0.3-0.5-0.6-0.6s-0.6-0.2-0.9-0.2c-0.4,0-0.7,0.1-0.9,0.2
								s-0.4,0.3-0.5,0.5s-0.2,0.5-0.2,0.7s0,0.4,0.1,0.5s0.2,0.3,0.3,0.4s0.3,0.2,0.6,0.4s0.5,0.3,0.9,0.4c0.7,0.3,1.3,0.6,1.8,0.8
								s0.9,0.6,1.1,1s0.4,0.9,0.4,1.4s-0.1,0.9-0.2,1.3s-0.4,0.7-0.7,1s-0.7,0.5-1.1,0.6s-0.9,0.2-1.4,0.2c-0.8,0-1.5-0.2-2-0.5
								s-1-0.7-1.2-1.2s-0.4-1.1-0.4-1.6h1.7c0,0.5,0.1,0.9,0.3,1.2s0.5,0.5,0.7,0.6s0.6,0.2,0.9,0.2c0.4,0,0.7-0.1,1-0.2
								s0.5-0.3,0.6-0.5S141.5-99.4,141.5-99.7z"/>
							<path class="st8" d="M149.4-107.6v1.4h-4.9v-1.4H149.4z M146.1-110.1h1.7v10.5c0,0.4,0,0.6,0.1,0.8s0.2,0.3,0.3,0.4
								s0.3,0.1,0.4,0.1c0.1,0,0.2,0,0.4,0s0.2-0.1,0.3-0.1v1.5c-0.1,0-0.3,0.1-0.5,0.1s-0.4,0.1-0.7,0.1c-0.4,0-0.7-0.1-1-0.3
								s-0.6-0.5-0.8-0.9s-0.3-1-0.3-1.7v-10.5H146.1z"/>
							<path class="st8" d="M158.1-111.2V-97h-1.8v-14.2H158.1z M163.6-98.5v1.5h-5.9v-1.5H163.6z"/>
							<path class="st8" d="M165.2-101.8v-1c0-0.8,0.1-1.5,0.3-2.2s0.5-1.1,0.9-1.6s0.8-0.7,1.3-0.9s1-0.3,1.6-0.3s1.1,0.1,1.6,0.3
								s0.9,0.5,1.3,0.9s0.7,0.9,0.9,1.6s0.3,1.3,0.3,2.2v1c0,0.8-0.1,1.5-0.3,2.2s-0.5,1.1-0.9,1.6s-0.8,0.7-1.3,0.9
								s-1,0.3-1.6,0.3s-1.1-0.1-1.6-0.3s-0.9-0.5-1.3-0.9s-0.7-0.9-0.9-1.6S165.2-101,165.2-101.8z M166.9-102.8v1
								c0,0.6,0.1,1.1,0.2,1.5s0.3,0.8,0.5,1.1s0.5,0.5,0.8,0.7s0.6,0.2,0.9,0.2c0.4,0,0.7-0.1,1-0.2s0.5-0.4,0.7-0.7
								s0.3-0.7,0.4-1.1s0.1-0.9,0.1-1.5v-1c0-0.6-0.1-1.1-0.2-1.5s-0.3-0.8-0.5-1.1s-0.5-0.5-0.8-0.7s-0.6-0.2-0.9-0.2
								c-0.3,0-0.6,0.1-0.9,0.2s-0.5,0.4-0.7,0.7s-0.4,0.7-0.5,1.1S166.9-103.4,166.9-102.8z"/>
							<path class="st8" d="M176.5-107.6l2,8.8v1.8h-1.1l-2.6-10.6C174.8-107.6,176.5-107.6,176.5-107.6z M177.8-98.9l2.3-8.7h1.1
								l-0.1,1.7l-2.3,8.8h-1.1L177.8-98.9z M181.5-107.6l2.3,8.5l0.2,2h-1.1l-2.4-8.9l-0.1-1.7L181.5-107.6L181.5-107.6z
								 M183.2-98.8l1.9-8.7h1.7L184.2-97h-1.1L183.2-98.8z"/>
						</g>
					</g>
				</g>
			</g>
		</g>
		<g id="g-root-tx_starthig_dkfw7t1biq3gj-stroke" transform="translate(114, 284)">
		</g>
		<g id="g-root-ic_woma_1qa33yx1biq32g-fill" transform="translate(237.566650390625, 344)">
		</g>
		<g id="g-root-ic_woma_1qa33yx1biq32g-stroke" transform="translate(237.566650390625, 344)">
			<g id="ic_woma_1qa33yx1biq32g-stroke">
				<g>
					<path class="st1" d="M49-74c-3-5.5-8.7-9-15-9s-12,3.5-15,9H49z M47-86.1c-1.4-2.3-2.1-5-2-7.8V-97c0-6-4.9-11-11-11
						s-11,4.9-11,11v3.2c0.1,2.7-0.6,5.4-2,7.8 M23-95.2c4.2,0,8.2-1.8,11-5c2.7,3.2,6.7,5,11,5 M43.7-95.3
						c-0.2,5.2-4.5,9.2-9.7,9.2s-9.4-4.1-9.7-9.2 M19-105c0-8.3,6.7-15,15-15s15,6.7,15,15 M19-105c-4.3,0-7.8,3.4-8,7.7
						s3,8,7.3,8.3c0.2,0,0.4,0,0.5-0.2c0.1-0.1,0.2-0.3,0.2-0.5V-105z M49-105c4.3,0,7.8,3.4,8,7.7s-3,8-7.3,8.3
						c-0.2,0-0.4,0-0.5-0.2c-0.1-0.1-0.2-0.3-0.2-0.5V-105z"/>
				</g>
			</g>
		</g>
		<g id="g-root-tx_usewired_8zduh1biq51g-fill" transform="translate(14, 356)">
			<g id="tx_usewired_8zduh1biq51g-fill-merged">
				<g>
					<g>
						<g class="st7">
							<path class="st8" d="M20.2-111.2H22v10c0,1.1-0.2,1.9-0.6,2.6s-0.9,1.1-1.6,1.4s-1.4,0.4-2.2,0.4c-0.8,0-1.6-0.1-2.2-0.4
								s-1.2-0.8-1.6-1.4s-0.6-1.5-0.6-2.6v-10H15v10c0,0.7,0.1,1.3,0.3,1.7s0.5,0.7,0.9,0.9c0.4,0.2,0.8,0.3,1.4,0.3
								c0.5,0,1-0.1,1.4-0.3s0.7-0.5,0.9-0.9s0.3-1,0.3-1.7C20.2-101.2,20.2-111.2,20.2-111.2z"/>
							<path class="st8" d="M29.7-99.7c0-0.3-0.1-0.5-0.2-0.7s-0.3-0.4-0.6-0.6s-0.7-0.4-1.2-0.6s-0.9-0.4-1.3-0.6s-0.7-0.4-1-0.6
								s-0.5-0.5-0.6-0.8s-0.2-0.7-0.2-1.1s0.1-0.8,0.2-1.2s0.4-0.7,0.7-1s0.6-0.5,1.1-0.6s0.9-0.2,1.4-0.2c0.7,0,1.3,0.1,1.8,0.4
								s0.9,0.7,1.2,1.1s0.4,1,0.4,1.6h-1.7c0-0.3-0.1-0.6-0.2-0.8s-0.3-0.5-0.6-0.6s-0.6-0.2-0.9-0.2c-0.4,0-0.7,0.1-0.9,0.2
								s-0.4,0.3-0.5,0.5s-0.2,0.5-0.2,0.7s0,0.4,0.1,0.5s0.2,0.3,0.3,0.4s0.3,0.2,0.6,0.4s0.5,0.3,0.9,0.4c0.7,0.3,1.3,0.6,1.8,0.8
								s0.9,0.6,1.1,1s0.4,0.9,0.4,1.4s-0.1,0.9-0.2,1.3s-0.4,0.7-0.7,1S30-97.1,29.6-97s-0.9,0.2-1.4,0.2c-0.8,0-1.5-0.2-2-0.5
								s-1-0.7-1.2-1.2s-0.4-1.1-0.4-1.6h1.7c0,0.5,0.1,0.9,0.3,1.2s0.5,0.5,0.7,0.6s0.6,0.2,0.9,0.2c0.4,0,0.7-0.1,1-0.2
								s0.5-0.3,0.6-0.5S29.7-99.4,29.7-99.7z"/>
							<path class="st8" d="M37.4-96.8c-0.6,0-1.2-0.1-1.7-0.3s-0.9-0.5-1.3-0.9s-0.6-0.9-0.8-1.5s-0.3-1.3-0.3-2.1v-1.2
								c0-0.9,0.1-1.7,0.3-2.4s0.5-1.2,0.9-1.6s0.8-0.7,1.3-0.9s1-0.3,1.4-0.3c0.7,0,1.2,0.1,1.7,0.3s0.8,0.5,1.1,1s0.5,0.9,0.6,1.6
								s0.2,1.3,0.2,2.1v1h-6.6v-1.5h4.9v-0.2c0-0.5-0.1-1-0.2-1.4s-0.3-0.7-0.6-1s-0.7-0.4-1.2-0.4c-0.3,0-0.6,0.1-0.9,0.2
								s-0.5,0.3-0.7,0.6s-0.3,0.6-0.4,1.1s-0.2,1-0.2,1.8v1.2c0,0.6,0.1,1.1,0.2,1.5s0.3,0.7,0.5,1s0.5,0.5,0.8,0.6
								s0.7,0.2,1.1,0.2c0.6,0,1.1-0.1,1.4-0.3s0.7-0.5,1-0.9l0.9,1.1c-0.2,0.3-0.4,0.5-0.7,0.8S39.4-97.2,39-97S38-96.8,37.4-96.8z
								"/>
							<path class="st8" d="M48.8-111.2l1.8,9.7l0.5,4.5h-1.3L47-111.2H48.8z M51-101.3l2.3-9.9h1.3l-0.7,3.9L51.4-97h-1.3L51-101.3
								z M54.8-111.2l2.2,9.9l0.8,4.3h-1.3l-2.4-10.4l-0.7-3.9L54.8-111.2L54.8-111.2z M57.5-101.5l1.7-9.7H61L58.2-97h-1.3
								L57.5-101.5z"/>
							<path class="st8" d="M62.9-110.4c0-0.3,0.1-0.5,0.2-0.7s0.4-0.3,0.7-0.3c0.3,0,0.6,0.1,0.7,0.3s0.2,0.4,0.2,0.7
								c0,0.3-0.1,0.5-0.2,0.7s-0.4,0.3-0.7,0.3s-0.6-0.1-0.7-0.3S62.9-110.1,62.9-110.4z M64.7-107.6V-97H63v-10.6H64.7z"/>
							<path class="st8" d="M69.2-105.9v8.9h-1.7v-10.6h1.7V-105.9z M71.8-107.6v1.7c-0.1,0-0.3-0.1-0.4-0.1s-0.2,0-0.4,0
								c-0.3,0-0.6,0.1-0.9,0.2s-0.5,0.3-0.6,0.5s-0.3,0.5-0.4,0.8s-0.2,0.7-0.2,1.1l-0.4,0.3c0-0.6,0.1-1.2,0.2-1.8
								s0.3-1.1,0.5-1.5s0.5-0.8,0.8-1s0.7-0.4,1.2-0.4c0.1,0,0.2,0,0.4,0S71.7-107.7,71.8-107.6z"/>
							<path class="st8" d="M77.3-96.8c-0.6,0-1.2-0.1-1.7-0.3s-0.9-0.5-1.3-0.9s-0.6-0.9-0.8-1.5s-0.3-1.3-0.3-2.1v-1.2
								c0-0.9,0.1-1.7,0.3-2.4s0.5-1.2,0.9-1.6s0.8-0.7,1.3-0.9s1-0.3,1.4-0.3c0.7,0,1.2,0.1,1.7,0.3s0.8,0.5,1.1,1s0.5,0.9,0.6,1.6
								s0.2,1.3,0.2,2.1v1h-6.6v-1.5H79v-0.2c0-0.5-0.1-1-0.2-1.4s-0.3-0.7-0.6-1s-0.7-0.4-1.2-0.4c-0.3,0-0.6,0.1-0.9,0.2
								s-0.5,0.3-0.7,0.6s-0.3,0.6-0.4,1.1s-0.2,1-0.2,1.8v1.2c0,0.6,0.1,1.1,0.2,1.5s0.3,0.7,0.5,1s0.5,0.5,0.8,0.6
								s0.7,0.2,1.1,0.2c0.6,0,1.1-0.1,1.4-0.3s0.7-0.5,1-0.9l0.9,1.1c-0.2,0.3-0.4,0.5-0.7,0.8s-0.7,0.4-1.1,0.6
								S77.9-96.8,77.3-96.8z"/>
							<path class="st8" d="M82.5-101.8v-1c0-0.9,0.1-1.6,0.3-2.3s0.4-1.1,0.7-1.6s0.7-0.7,1.1-0.9s0.9-0.3,1.4-0.3s1,0.1,1.4,0.3
								s0.7,0.5,1,1s0.5,0.9,0.6,1.5s0.3,1.3,0.3,2v1.3c-0.1,0.7-0.2,1.4-0.3,2s-0.4,1.1-0.6,1.5s-0.6,0.7-1,1S86.5-97,86-97
								s-1-0.1-1.4-0.3s-0.8-0.5-1.1-0.9S83-99,82.8-99.6S82.5-100.9,82.5-101.8z M84.3-102.8v1c0,0.6,0,1.1,0.1,1.5
								s0.2,0.8,0.4,1.1s0.4,0.5,0.7,0.6s0.6,0.2,1,0.2c0.5,0,0.9-0.1,1.2-0.4s0.6-0.5,0.7-0.9s0.3-0.8,0.4-1.3v-2.8
								c-0.1-0.3-0.2-0.7-0.3-1s-0.3-0.6-0.5-0.8s-0.4-0.4-0.7-0.6s-0.6-0.2-0.9-0.2c-0.4,0-0.7,0.1-1,0.2s-0.5,0.4-0.7,0.6
								s-0.3,0.6-0.4,1.1S84.3-103.3,84.3-102.8z M88.4-99.1V-112h1.7v15h-1.6L88.4-99.1z"/>
							<path class="st8" d="M99.4-111.2V-97h-1.8v-14.2H99.4z M105.4-105.1v1.5h-6.2v-1.5H105.4z M107-111.2V-97h-1.8v-14.2H107z"/>
							<path class="st8" d="M113.6-96.8c-0.6,0-1.2-0.1-1.7-0.3s-0.9-0.5-1.3-0.9s-0.6-0.9-0.8-1.5s-0.3-1.3-0.3-2.1v-1.2
								c0-0.9,0.1-1.7,0.3-2.4s0.5-1.2,0.9-1.6s0.8-0.7,1.3-0.9s1-0.3,1.4-0.3c0.7,0,1.2,0.1,1.7,0.3s0.8,0.5,1.1,1s0.5,0.9,0.6,1.6
								s0.2,1.3,0.2,2.1v1h-6.6v-1.5h4.9v-0.2c0-0.5-0.1-1-0.2-1.4s-0.3-0.7-0.6-1s-0.7-0.4-1.2-0.4c-0.3,0-0.6,0.1-0.9,0.2
								s-0.5,0.3-0.7,0.6s-0.3,0.6-0.4,1.1s-0.2,1-0.2,1.8v1.2c0,0.6,0.1,1.1,0.2,1.5s0.3,0.7,0.5,1s0.5,0.5,0.8,0.6
								s0.7,0.2,1.1,0.2c0.6,0,1.1-0.1,1.4-0.3s0.7-0.5,1-0.9l0.9,1.1c-0.2,0.3-0.4,0.5-0.7,0.8s-0.7,0.4-1.1,0.6
								S114.2-96.8,113.6-96.8z"/>
							<path class="st8" d="M124.6-103.4v1.3h-1.2c-0.4,0-0.8,0-1.1,0.1s-0.6,0.2-0.9,0.4s-0.4,0.4-0.6,0.6s-0.2,0.5-0.2,0.9
								s0.1,0.8,0.2,1s0.3,0.4,0.5,0.5s0.5,0.2,0.9,0.2s0.8-0.1,1.2-0.3s0.6-0.4,0.8-0.7s0.3-0.6,0.3-0.8l0.4,0.8
								c0,0.3-0.1,0.5-0.2,0.8s-0.3,0.6-0.6,0.8s-0.5,0.5-0.9,0.7s-0.7,0.3-1.1,0.3c-0.6,0-1.1-0.1-1.6-0.4s-0.8-0.6-1.1-1
								s-0.4-1-0.4-1.7c0-0.5,0.1-1,0.3-1.4s0.4-0.8,0.8-1.1s0.8-0.6,1.3-0.7s1.1-0.3,1.8-0.3C123.2-103.4,124.6-103.4,124.6-103.4z
								 M124.4-98.8v-5.7c0-0.4-0.1-0.8-0.2-1s-0.3-0.4-0.6-0.6s-0.6-0.2-0.9-0.2c-0.4,0-0.7,0.1-0.9,0.2s-0.5,0.3-0.6,0.6
								s-0.2,0.5-0.2,0.8h-1.7c0-0.4,0.1-0.8,0.2-1.1s0.4-0.7,0.7-1s0.7-0.5,1.1-0.7s0.9-0.3,1.5-0.3c0.7,0,1.2,0.1,1.7,0.3
								s0.9,0.6,1.2,1s0.4,1.1,0.4,1.9v5.2c0,0.4,0,0.7,0.1,1.1s0.1,0.7,0.2,1v0.2h-1.8c-0.1-0.2-0.1-0.5-0.2-0.8
								S124.4-98.5,124.4-98.8z"/>
							<path class="st8" d="M128.4-101.8v-1c0-0.9,0.1-1.6,0.3-2.3s0.4-1.1,0.7-1.6s0.7-0.7,1.1-0.9s0.9-0.3,1.4-0.3s1,0.1,1.4,0.3
								s0.7,0.5,1,1s0.5,0.9,0.6,1.5s0.3,1.3,0.3,2v1.3c-0.1,0.7-0.2,1.4-0.3,2s-0.4,1.1-0.6,1.5s-0.6,0.7-1,1s-0.9,0.3-1.4,0.3
								s-1-0.1-1.4-0.3s-0.8-0.5-1.1-0.9s-0.6-0.9-0.7-1.6S128.4-100.9,128.4-101.8z M130.1-102.8v1c0,0.6,0,1.1,0.1,1.5
								s0.2,0.8,0.4,1.1s0.4,0.5,0.7,0.6s0.6,0.2,1,0.2c0.5,0,0.9-0.1,1.2-0.4s0.6-0.5,0.7-0.9s0.3-0.8,0.4-1.3v-2.8
								c-0.1-0.3-0.2-0.7-0.3-1s-0.3-0.6-0.5-0.8s-0.4-0.4-0.7-0.6s-0.6-0.2-0.9-0.2c-0.4,0-0.7,0.1-1,0.2s-0.5,0.4-0.7,0.6
								s-0.3,0.6-0.4,1.1S130.1-103.3,130.1-102.8z M134.3-99.1V-112h1.7v15h-1.6L134.3-99.1z"/>
							<path class="st8" d="M140.4-105.5v12.6h-1.7v-14.6h1.6L140.4-105.5z M146.3-102.8v1c0,0.8-0.1,1.6-0.2,2.2s-0.4,1.1-0.7,1.6
								s-0.7,0.7-1.1,0.9s-0.9,0.3-1.5,0.3s-1-0.1-1.4-0.3s-0.7-0.5-1-0.9s-0.5-0.9-0.7-1.5s-0.3-1.2-0.3-1.9v-1.5
								c0.1-0.7,0.2-1.4,0.3-2s0.4-1.1,0.6-1.5s0.6-0.7,1-1s0.9-0.3,1.4-0.3c0.6,0,1.1,0.1,1.5,0.3s0.8,0.5,1.1,0.9s0.5,0.9,0.7,1.6
								S146.3-103.6,146.3-102.8z M144.6-101.8v-1c0-0.6,0-1.1-0.1-1.5s-0.2-0.8-0.4-1.1s-0.4-0.5-0.7-0.6s-0.6-0.2-1-0.2
								c-0.3,0-0.6,0.1-0.9,0.2s-0.5,0.3-0.7,0.6s-0.3,0.5-0.5,0.8s-0.2,0.6-0.3,1v3c0.1,0.4,0.3,0.8,0.4,1.2s0.4,0.7,0.7,0.9
								s0.7,0.3,1.2,0.3c0.4,0,0.7-0.1,1-0.2s0.5-0.4,0.7-0.6s0.3-0.7,0.4-1.1S144.6-101.2,144.6-101.8z"/>
							<path class="st8" d="M150.3-112v15h-1.7v-15H150.3z M149.9-102.7h-0.7c0-0.7,0.1-1.4,0.2-2s0.4-1.2,0.7-1.6s0.7-0.8,1.2-1.1
								s0.9-0.4,1.5-0.4c0.4,0,0.8,0.1,1.2,0.2s0.7,0.4,0.9,0.7s0.4,0.7,0.6,1.2s0.2,1.1,0.2,1.8v6.9H154v-6.9c0-0.6-0.1-1-0.2-1.3
								s-0.3-0.6-0.5-0.7s-0.6-0.2-0.9-0.2c-0.3,0-0.7,0.1-0.9,0.3s-0.5,0.4-0.8,0.8s-0.4,0.7-0.5,1.1S149.9-103.2,149.9-102.7z"/>
							<path class="st8" d="M157.9-101.8v-1c0-0.8,0.1-1.5,0.3-2.2s0.5-1.1,0.9-1.6s0.8-0.7,1.3-0.9s1-0.3,1.6-0.3s1.1,0.1,1.6,0.3
								s0.9,0.5,1.3,0.9s0.7,0.9,0.9,1.6s0.3,1.3,0.3,2.2v1c0,0.8-0.1,1.5-0.3,2.2s-0.5,1.1-0.9,1.6s-0.8,0.7-1.3,0.9
								s-1,0.3-1.6,0.3s-1.1-0.1-1.6-0.3s-0.9-0.5-1.3-0.9s-0.7-0.9-0.9-1.6S157.9-101,157.9-101.8z M159.6-102.8v1
								c0,0.6,0.1,1.1,0.2,1.5s0.3,0.8,0.5,1.1s0.5,0.5,0.8,0.7s0.6,0.2,0.9,0.2c0.4,0,0.7-0.1,1-0.2s0.5-0.4,0.7-0.7
								s0.3-0.7,0.4-1.1s0.1-0.9,0.1-1.5v-1c0-0.6-0.1-1.1-0.2-1.5s-0.3-0.8-0.5-1.1s-0.5-0.5-0.8-0.7s-0.6-0.2-0.9-0.2
								c-0.3,0-0.6,0.1-0.9,0.2s-0.5,0.4-0.7,0.7s-0.4,0.7-0.5,1.1S159.6-103.4,159.6-102.8z"/>
							<path class="st8" d="M170-105.3v8.3h-1.7v-10.6h1.6L170-105.3z M169.6-102.7h-0.7c0-0.7,0.1-1.4,0.2-2s0.4-1.2,0.7-1.6
								s0.7-0.8,1.2-1.1s0.9-0.4,1.5-0.4c0.4,0,0.8,0.1,1.2,0.2s0.7,0.4,0.9,0.7s0.4,0.7,0.6,1.2s0.2,1.1,0.2,1.8v6.9h-1.7v-6.9
								c0-0.6-0.1-1-0.2-1.3s-0.3-0.6-0.5-0.7s-0.6-0.2-0.9-0.2c-0.3,0-0.7,0.1-0.9,0.3s-0.5,0.4-0.8,0.8s-0.4,0.7-0.5,1.1
								S169.6-103.2,169.6-102.7z"/>
							<path class="st8" d="M181.7-96.8c-0.6,0-1.2-0.1-1.7-0.3s-0.9-0.5-1.3-0.9s-0.6-0.9-0.8-1.5s-0.3-1.3-0.3-2.1v-1.2
								c0-0.9,0.1-1.7,0.3-2.4s0.5-1.2,0.9-1.6s0.8-0.7,1.3-0.9s1-0.3,1.4-0.3c0.7,0,1.2,0.1,1.7,0.3s0.8,0.5,1.1,1s0.5,0.9,0.6,1.6
								s0.2,1.3,0.2,2.1v1h-6.6v-1.5h4.9v-0.2c0-0.5-0.1-1-0.2-1.4s-0.3-0.7-0.6-1s-0.7-0.4-1.2-0.4c-0.3,0-0.6,0.1-0.9,0.2
								s-0.5,0.3-0.7,0.6s-0.3,0.6-0.4,1.1s-0.2,1-0.2,1.8v1.2c0,0.6,0.1,1.1,0.2,1.5s0.3,0.7,0.5,1s0.5,0.5,0.8,0.6
								s0.7,0.2,1.1,0.2c0.6,0,1.1-0.1,1.4-0.3s0.7-0.5,1-0.9l0.9,1.1c-0.2,0.3-0.4,0.5-0.7,0.8s-0.7,0.4-1.1,0.6
								S182.3-96.8,181.7-96.8z"/>
							<path class="st8" d="M192.4-99.7c0-0.3-0.1-0.5-0.2-0.7s-0.3-0.4-0.6-0.6s-0.7-0.4-1.2-0.6s-0.9-0.4-1.3-0.6s-0.7-0.4-1-0.6
								s-0.5-0.5-0.6-0.8s-0.2-0.7-0.2-1.1s0.1-0.8,0.2-1.2s0.4-0.7,0.7-1s0.6-0.5,1.1-0.6s0.9-0.2,1.4-0.2c0.7,0,1.3,0.1,1.8,0.4
								s0.9,0.7,1.2,1.1s0.4,1,0.4,1.6h-1.7c0-0.3-0.1-0.6-0.2-0.8s-0.3-0.5-0.6-0.6s-0.6-0.2-0.9-0.2c-0.4,0-0.7,0.1-0.9,0.2
								s-0.4,0.3-0.5,0.5s-0.2,0.5-0.2,0.7s0,0.4,0.1,0.5s0.2,0.3,0.3,0.4s0.3,0.2,0.6,0.4s0.5,0.3,0.9,0.4c0.7,0.3,1.3,0.6,1.8,0.8
								s0.9,0.6,1.1,1s0.4,0.9,0.4,1.4s-0.1,0.9-0.2,1.3s-0.4,0.7-0.7,1s-0.7,0.5-1.1,0.6s-0.9,0.2-1.4,0.2c-0.8,0-1.5-0.2-2-0.5
								s-1-0.7-1.2-1.2s-0.4-1.1-0.4-1.6h1.7c0,0.5,0.1,0.9,0.3,1.2s0.5,0.5,0.7,0.6s0.6,0.2,0.9,0.2c0.4,0,0.7-0.1,1-0.2
								s0.5-0.3,0.6-0.5S192.4-99.4,192.4-99.7z"/>
						</g>
					</g>
				</g>
			</g>
		</g>
		<g id="g-root-tx_usewired_8zduh1biq51g-stroke" transform="translate(14, 356)">
		</g>
	</g>
</g>
</svg>
